<svg width="100" height="100" fill="none" xmlns="http://www.w3.org/2000/svg"><path d="M14.063 31.25h3.124v26.619h-3.125V31.25zm32.912 45.105l-.202-3.12c12.146-.783 17.29-3.526 17.29-4.485v-37.5h3.124v37.5c0 5.845-15.47 7.298-20.212 7.605z" fill="#474747"/><path d="M48.438 80.902V69.097l-4.379-1.114a20.66 20.66 0 00-.625-1.494l2.313-3.889-8.347-8.347-3.89 2.311c-.494-.23-.994-.439-1.493-.625l-1.115-4.377H19.097l-1.114 4.379a21.06 21.06 0 00-1.494.625L12.6 54.255l-8.347 8.347 2.313 3.889c-.23.495-.44.996-.625 1.493l-4.378 1.114v11.805l4.378 1.114c.186.497.393.999.625 1.494L4.253 87.4l8.347 8.347 3.89-2.311c.494.23.994.439 1.493.625l1.115 4.376h11.805l1.114-4.378a21.06 21.06 0 001.494-.625l3.889 2.311 8.347-8.347-2.313-3.889c.23-.495.44-.996.625-1.493l4.379-1.114zM25 87.5c-6.903 0-12.5-5.597-12.5-12.5S18.097 62.5 25 62.5 37.5 68.097 37.5 75 31.903 87.5 25 87.5z" fill="#B1040E"/><path d="M25 89.063c-7.753 0-14.063-6.308-14.063-14.063 0-7.755 6.31-14.063 14.063-14.063 7.753 0 14.063 6.308 14.063 14.063 0 7.755-6.31 14.063-14.063 14.063zm0-25c-6.031 0-10.938 4.907-10.938 10.937 0 6.03 4.907 10.938 10.938 10.938 6.031 0 10.938-4.908 10.938-10.938S31.03 64.062 25 64.062z" fill="#474747"/><path d="M25 82.813c-4.308 0-7.813-3.505-7.813-7.813s3.505-7.813 7.813-7.813 7.813 3.505 7.813 7.813-3.505 7.813-7.813 7.813zm0-12.5A4.693 4.693 0 0020.312 75 4.693 4.693 0 0025 79.688 4.693 4.693 0 0029.688 75 4.693 4.693 0 0025 70.312z" fill="#474747"/><path d="M79.688 71.875h12.5v6.25h-12.5v-6.25zm0-62.5h12.5v18.75h-12.5V9.375z" fill="#B1040E"/><path d="M40.625 39.063c9.188 0 26.563-1.633 26.563-7.813s-17.376-7.813-26.563-7.813c-9.188 0-26.563 1.633-26.563 7.813s17.376 7.813 26.563 7.813zm0-12.5c15.225 0 23.438 3.326 23.438 4.687 0 1.36-8.213 4.688-23.438 4.688S17.187 32.61 17.187 31.25c0-1.36 8.213-4.688 23.438-4.688zm17.6 17.204a43.597 43.597 0 003.144-.775l-.863-3.003c-.918.264-1.903.505-2.923.72l.642 3.058zM45.56 45.214a95.35 95.35 0 003.17-.178l-.224-3.116c-1.041.075-2.07.132-3.072.172l.126 3.122zm6.34-.466a73.642 73.642 0 003.165-.412l-.473-3.09a67.825 67.825 0 01-3.032.395l.34 3.107zm5.683 21.05l.642 3.058a44.269 44.269 0 003.144-.773l-.863-3.003a41.2 41.2 0 01-2.923.718zm-6.02.935l.339 3.106a73.642 73.642 0 003.165-.412l-.473-3.09a65.546 65.546 0 01-3.032.396z" fill="#474747"/><path d="M67.188 43.75h-3.126c0 1.36-8.212 4.688-23.437 4.688-15.225 0-23.438-3.327-23.438-4.688h-3.125c0 6.18 17.376 7.813 26.563 7.813 9.188 0 26.563-1.633 26.563-7.813zM44.401 61.256l1.346 1.346-1.053 1.771c10.996-.426 22.493-3.1 22.493-8.123h-3.125c0 1.313-6.697 4.54-19.66 5.006z" fill="#474747"/><path d="M98.438 35.938V1.562h-25v34.376h10.937v8.034a6.242 6.242 0 00-4.466 4.465H65.625v3.126h14.284a6.242 6.242 0 004.466 4.465v8.035H73.437v34.374h25V64.064H87.5v-8.035c2.688-.698 4.688-3.123 4.688-6.028 0-2.905-2-5.33-4.688-6.028v-8.035h10.938zm-3.126 59.374h-18.75V67.189h18.75v28.124zM89.063 50a3.128 3.128 0 01-3.124 3.125A3.128 3.128 0 0182.811 50a3.128 3.128 0 013.126-3.125A3.128 3.128 0 0189.061 50zm-12.5-45.313h18.75v28.125h-18.75V4.689z" fill="#474747"/><path d="M79.688 70.313h12.5v3.124h-12.5v-3.124zm12.5 12.5h-12.5v9.374h12.5v-9.374zm-3.126 6.25h-6.25v-3.126h6.25v3.126zm-9.374-81.25h12.5v3.125h-12.5V7.812zm0 6.25h12.5v3.124h-12.5v-3.125zm0 6.25h12.5v3.125h-12.5v-3.125zm0 6.25h12.5v3.125h-12.5v-3.125zm0 50h12.5v3.124h-12.5v-3.124zm-31.25-46.875h3.124v3.125h-3.124v-3.126zm-6.25 0h3.124v3.125h-3.124v-3.126zm12.5 0h3.124v3.125h-3.124v-3.126zm-31.25 0h3.125v3.125h-3.125v-3.126zm6.25 0h3.125v3.125h-3.126v-3.126zm6.25 0h3.124v3.125h-3.124v-3.126z" fill="#474747"/></svg>