<svg width="100" height="100" fill="none" xmlns="http://www.w3.org/2000/svg"><path d="M53.125 71.875h-31.25v18.75h31.25v-18.75zm25 0h-18.75v18.75h18.75v-18.75zm18.75-48.437H3.125v37.5h93.75v-37.5z" fill="#B1040E"/><path d="M98.438 1.563H1.561v81.25h12.5V93.75a4.693 4.693 0 004.688 4.688h62.5a4.693 4.693 0 004.688-4.688V82.812h12.5V1.563zm-3.126 3.125v9.375H4.689V4.687h90.624zm-12.5 89.062c0 .86-.701 1.563-1.562 1.563h-62.5c-.86 0-1.563-.702-1.563-1.563v-25c0-.86.702-1.563 1.563-1.563h21.545a4.66 4.66 0 002.6-.787l3.113-2.075c.258-.172.558-.263.867-.263H81.25c.86 0 1.563.702 1.563 1.563V93.75zm3.126-14.063V65.626a4.693 4.693 0 00-4.688-4.688H46.875c-.928 0-1.828.272-2.6.788L41.161 63.8a1.55 1.55 0 01-.866.263H18.75a4.693 4.693 0 00-4.688 4.687v10.938H4.688v-62.5h90.624v62.5h-9.374z" fill="#474747"/><path d="M10.938 7.813H7.812v3.125h3.125V7.812zm6.25 0h-3.125v3.125h3.124V7.812zm6.25 0h-3.125v3.125h3.125V7.812zm-3.125 84.375h34.374V70.311H20.313v21.876zm3.125-6.25h3.125v3.124h-3.125v-3.124zm21.875-3.126h-3.126v-3.124h3.126v3.124zm3.124-3.124h3.126v3.124h-3.126v-3.124zm-12.5 3.124v-3.124h3.126v3.124h-3.126zm9.376 3.126v3.124H29.687v-3.124h15.625zm-3.126-9.376v-3.124h3.126v3.124h-3.126zm-3.124 0h-3.126v-3.124h3.126v3.124zm-6.25 0h-3.126v-3.124h3.125v3.124zm0 3.126v3.124h-3.126v-3.124h3.125zm-6.25 3.124h-3.125v-3.124h3.125v3.124zm21.875 6.25v-3.124h3.124v3.124h-3.124zm3.124-12.5h-3.124v-3.124h3.124v3.124zm-25-3.124v3.124h-3.125v-3.124h3.125zm31.251 18.75h21.874V70.311H57.814v21.876zm3.124-6.25h3.126v3.124h-3.126v-3.124zm9.376-6.25v3.124h-3.126v-3.124h3.126zm-3.126-3.126v-3.124h3.126v3.124h-3.126zm6.25 3.126h3.126v3.124h-3.126v-3.124zm-3.124 6.25v3.124h-3.126v-3.124h3.126zm-6.25-3.126h-3.126v-3.124h3.126v3.124zm9.374 6.25v-3.124h3.126v3.124h-3.126zm3.126-12.5h-3.126v-3.124h3.126v3.124zm-12.5-3.124v3.124h-3.126v-3.124h3.126zm-5.665-43.444l14.1 11.28-14.1 11.28 1.954 2.44 17.15-13.72-17.15-13.72-1.954 2.44zm-18.749-2.441l-17.15 13.72 17.15 13.72 1.953-2.44-14.1-11.28 14.1-11.28-1.953-2.44zm14.402-3.055L42.99 57.045l2.959 1.005L57.01 25.504l-2.959-1.006z" fill="#474747"/></svg>