<svg width="100" height="100" fill="none" xmlns="http://www.w3.org/2000/svg"><path d="M95.313 28.125v48.438H4.686V34.374a4.693 4.693 0 014.688-4.688H50v-3.125H9.375c-4.308 0-7.813 3.505-7.813 7.813V81.25c0 4.308 3.505 7.813 7.813 7.813h20.313v6.25h-6.25v3.124h53.124v-3.124h-6.25v-6.25h20.313c4.308 0 7.813-3.505 7.813-7.813V28.125h-3.126zM67.186 95.313H32.813v-6.25h34.374v6.25zm23.438-9.376H9.375a4.693 4.693 0 01-4.688-4.687v-1.563h90.626v1.563a4.693 4.693 0 01-4.688 4.688z" fill="#474747"/><path d="M50 37.5H20.312v31.25H50V37.5zm44.595-16.47a21.57 21.57 0 00-2.29-5.508l1.815-3.63-6.01-6.012-3.63 1.815a21.626 21.626 0 00-5.508-2.29l-1.283-3.843h-8.501l-1.282 3.843a21.571 21.571 0 00-5.508 2.29L58.766 5.88l-6.011 6.01 1.815 3.63a21.627 21.627 0 00-2.29 5.508l-3.843 1.283v8.502l3.843 1.28a21.57 21.57 0 002.29 5.509l-1.815 3.63 6.012 6.012 3.63-1.816a21.627 21.627 0 005.508 2.29l1.28 3.844h8.502l1.282-3.842a21.571 21.571 0 005.508-2.29l3.63 1.815 6.012-6.012-1.816-3.63a21.627 21.627 0 002.29-5.508l3.844-1.28v-8.503l-3.842-1.282zM73.438 31.25a4.687 4.687 0 11-.001-9.374 4.687 4.687 0 010 9.374z" fill="#B1040E"/><path d="M73.438 42.188c-8.616 0-15.626-7.01-15.626-15.626 0-8.615 7.01-15.625 15.626-15.625 8.615 0 15.624 7.01 15.624 15.626 0 8.615-7.009 15.625-15.624 15.625zm0-28.126c-6.893 0-12.5 5.608-12.5 12.5 0 6.893 5.607 12.5 12.5 12.5 6.892 0 12.5-5.607 12.5-12.5 0-6.892-5.608-12.5-12.5-12.5z" fill="#474747"/><path d="M73.438 32.813a6.256 6.256 0 01-6.25-6.25 6.256 6.256 0 016.25-6.25 6.256 6.256 0 016.25 6.25 6.256 6.256 0 01-6.25 6.25zm0-9.376a3.128 3.128 0 00-3.126 3.125 3.128 3.128 0 003.126 3.125 3.128 3.128 0 003.124-3.125 3.128 3.128 0 00-3.124-3.125zM17.188 56.25h-1.563a4.693 4.693 0 01-4.688-4.688V50a3.128 3.128 0 00-3.124-3.125V43.75a3.128 3.128 0 003.125-3.125v-1.563a4.693 4.693 0 014.687-4.687h1.563V37.5h-1.563c-.86 0-1.563.7-1.563 1.563v1.562c0 1.864-.82 3.542-2.12 4.688A6.235 6.235 0 0114.062 50v1.563c0 .862.702 1.562 1.563 1.562h1.563v3.125zm37.5 14.063h-1.563v-3.126h1.563c.86 0 1.562-.7 1.562-1.562v-1.563c0-1.864.82-3.542 2.12-4.687a6.235 6.235 0 01-2.12-4.688v-1.562c0-.862-.702-1.563-1.563-1.563h-1.562v-3.124h1.563a4.693 4.693 0 014.687 4.687v1.563a3.128 3.128 0 003.125 3.124v3.126a3.128 3.128 0 00-3.125 3.124v1.563a4.693 4.693 0 01-4.688 4.688zM50 35.938H20.312v3.124H50v-3.124zm0 6.25H26.562v3.124H50v-3.124zm-26.562 0h-3.125v3.124h3.125v-3.124zM50 48.438H20.312v3.124H50v-3.124zm0 6.25H20.312v3.124H50v-3.124zm0 6.25h-3.125v3.124H50v-3.124zm-6.25 0H20.312v3.124H43.75v-3.124zm6.25 6.25H20.312v3.124H50v-3.124z" fill="#474747"/></svg>