<svg width="100" height="100" fill="none" xmlns="http://www.w3.org/2000/svg"><path d="M28.125 56.25V37.5H17.187v26.563h56.25V56.25H28.126zm7.813-23.437h-18.75v-12.5h18.75v12.5zm23.437 0h-18.75v-12.5h18.75v12.5z" fill="#B1040E"/><path d="M90.625 26.563H79.687v-25h-68.75v25H9.376c-4.308 0-7.813 3.504-7.813 7.812V81.25c0 4.308 3.505 7.813 7.813 7.813h20.313v6.25h-6.25v3.124h53.124v-3.124h-6.25v-6.25h20.313c4.308 0 7.813-3.505 7.813-7.813V34.375c0-4.308-3.505-7.813-7.813-7.813zm-14.063 12.5h3.126v9.374h-3.126v-9.374zm-3.124 3.124H45.311v-3.124h28.126v3.124zm-31.25 5.558l-8.927-3.347a.694.694 0 01.002-1.297l8.925-3.346v7.99zm3.124-2.432h28.126v3.124H45.311v-3.124zm37.5-6.25h1.563a4.693 4.693 0 014.688 4.687 4.693 4.693 0 01-4.688 4.688h-1.563v-9.376zm-39.346-3.126l-11.3 4.238a3.836 3.836 0 00-2.478 3.575c0 1.583.996 3.02 2.476 3.575l11.302 4.237h33.096v15.626h-62.5v-50h62.5v18.75H43.467zm33.096-31.25v9.375h-62.5V4.688h62.5zm-67.187 25h1.563v40.626h68.75v-18.75h4.687c4.308 0 7.813-3.505 7.813-7.813s-3.505-7.813-7.813-7.813h-4.688v-6.25h10.938a4.693 4.693 0 014.688 4.688v42.188H4.686V34.374a4.693 4.693 0 014.688-4.688zm57.813 65.626H32.812v-6.25h34.376v6.25zm23.437-9.376H9.375a4.693 4.693 0 01-4.688-4.687v-1.563h90.626v1.563a4.693 4.693 0 01-4.688 4.688z" fill="#474747"/><path d="M20.313 7.813h-3.125v3.125h3.125V7.812zm6.25 0h-3.125v3.125h3.125V7.812zm6.25 0h-3.126v3.125h3.125V7.812zm-4.688 28.125H17.187v3.124h10.938v-3.124zm-1.562 6.25h-9.375v3.124h9.375v-3.124zm1.562 6.25H17.187v3.124h10.938v-3.124zm45.313 6.25h-56.25v3.124h56.25v-3.124zm0 6.25h-3.126v3.124h3.126v-3.124zm-6.25 0h-50v3.124h50v-3.124z" fill="#474747"/></svg>