<svg width="100" height="100" fill="none" xmlns="http://www.w3.org/2000/svg"><path d="M92.188 39.063H39.062v21.874h53.126V39.064zM23.002 67.188h-8.504L13.22 63.35l-3.617 1.81-6.012-6.013L5.4 55.53l-3.838-1.278V45.75L5.4 44.472l-1.81-3.617 6.013-6.013 3.617 1.81 1.278-3.84H23l1.278 3.838 3.617-1.81 6.013 6.013-1.81 3.617 3.84 1.278v8.502L32.1 55.528l1.81 3.617-6.013 6.013-3.617-1.81-1.278 3.84z" fill="#B1040E"/><path d="M26.563 50c0-4.308-3.505-7.813-7.813-7.813S10.937 45.693 10.937 50s3.505 7.813 7.813 7.813 7.813-3.505 7.813-7.813zm-12.5 0a4.693 4.693 0 014.687-4.688A4.693 4.693 0 0123.438 50a4.693 4.693 0 01-4.688 4.688A4.693 4.693 0 0114.062 50z" fill="#474747"/><path d="M98.438 32.813h-9.376V1.563H30.603L17.187 14.977v17.835h3.125V17.187h12.5v-12.5h53.126v28.125h-50v3.126h59.374v28.124H35.938v3.126h50v28.124H20.311V67.189h-3.125v31.25h71.876v-31.25h9.374V32.812zm-75.916-18.75l7.166-7.166v7.165h-7.166z" fill="#474747"/><path d="M42.188 39.063h-3.126v9.374h3.126v-9.374zm18.75 0h-3.126v9.374h3.126v-9.374zm6.25 0h-3.126v9.374h3.126v-9.374zm18.75 0h-3.126v9.374h3.126v-9.374zm6.25 0h-3.126v9.374h3.126v-9.374zm-42.188 0a4.693 4.693 0 00-4.688 4.687A4.693 4.693 0 0050 48.438a4.693 4.693 0 004.688-4.688A4.693 4.693 0 0050 39.062zm0 6.25a1.564 1.564 0 01-1.563-1.563c0-.86.7-1.563 1.563-1.563.862 0 1.563.702 1.563 1.563 0 .86-.7 1.563-1.563 1.563zm25-6.25a4.693 4.693 0 00-4.688 4.687A4.693 4.693 0 0075 48.438a4.693 4.693 0 004.688-4.688A4.693 4.693 0 0075 39.062zm0 6.25a1.564 1.564 0 01-1.563-1.563c0-.86.7-1.563 1.563-1.563.862 0 1.563.702 1.563 1.563 0 .86-.7 1.563-1.563 1.563zm17.188 6.25h-3.126v9.374h3.126v-9.374zm-18.75 0h-3.126v9.374h3.126v-9.374zm-18.75 0h-3.126v9.374h3.126v-9.374zm-6.25 0h-3.126v9.374h3.126v-9.374zm-6.25 0h-3.126v9.374h3.126v-9.374zm34.375 4.687a4.693 4.693 0 004.687 4.688 4.693 4.693 0 004.688-4.688 4.693 4.693 0 00-4.688-4.688 4.693 4.693 0 00-4.688 4.688zm6.25 0c0 .86-.7 1.563-1.563 1.563a1.564 1.564 0 01-1.563-1.563c0-.86.7-1.563 1.563-1.563.862 0 1.563.702 1.563 1.563zM62.5 60.938a4.693 4.693 0 004.688-4.688 4.693 4.693 0 00-4.688-4.688 4.693 4.693 0 00-4.688 4.688 4.693 4.693 0 004.688 4.688zm0-6.25c.862 0 1.563.701 1.563 1.562 0 .86-.7 1.563-1.563 1.563a1.564 1.564 0 01-1.563-1.563c0-.86.7-1.563 1.563-1.563zM82.813 7.813h-3.126v3.125h3.126V7.812zm-6.25 0H54.686v3.125h21.876V7.812zm6.25 6.25H35.937v3.124h46.876v-3.125zm-56.25 6.25h-3.125v3.125h3.125v-3.125zm56.25 0H29.687v3.125h53.126v-3.125zm0 6.25H23.437v3.125h59.376v-3.125zm-56.25 43.75h-3.125v3.124h3.125v-3.124zm56.25 0H29.687v3.124h53.126v-3.124zm0 6.25H42.187v3.124h40.626v-3.124zm-43.75 0H23.437v3.124h15.625v-3.124zm43.75 6.25H23.437v3.124h59.376v-3.124zm0 6.25h-3.126v3.124h3.126v-3.124zm-6.25 0H23.437v3.124h53.126v-3.124z" fill="#474747"/></svg>