<svg width="100" height="100" viewBox="0 0 100 100" fill="none" xmlns="http://www.w3.org/2000/svg">
<path d="M14.7437 38.9875L13.8594 38.3609C11.6219 36.775 8.99219 35.9375 6.25 35.9375V32.8125C9.64219 32.8125 12.8984 33.85 15.6641 35.8125L16.5484 36.4391L14.7437 38.9875Z" fill="#323232"/>
<path d="M22.7156 32.4375L21.2547 29.85C20.1109 27.8219 17.9531 26.5625 15.625 26.5625V23.4375C19.0797 23.4375 22.2797 25.3063 23.9781 28.3141L25.4391 30.9016L22.7156 32.4375Z" fill="#323232"/>
<path d="M36.6594 32.4375L33.9375 30.9031L35.3984 28.3156C37.0953 25.3062 40.2953 23.4375 43.75 23.4375V26.5625C41.4219 26.5625 39.2641 27.8219 38.1188 29.85L36.6594 32.4375Z" fill="#323232"/>
<path d="M43.7502 37.5002C43.7502 37.5736 43.7314 37.6408 43.7283 37.7127L43.7299 37.7143C44.333 37.8689 44.8939 38.1205 45.4127 38.433L45.5174 38.3596C47.1705 37.1893 49.1002 36.4049 51.1002 36.0939L50.6174 33.0049C48.1424 33.3908 45.7533 34.3611 43.7096 35.8111L43.5283 35.9393C43.6596 36.4424 43.7502 36.958 43.7502 37.5002Z" fill="#323232"/>
<path d="M43.7281 37.7141C43.7313 37.6422 43.75 37.5734 43.75 37.5C43.75 34.0484 40.9516 31.25 37.5 31.25C36.7219 31.25 35.9859 31.4094 35.2984 31.6687C34.2875 29.5781 32.1656 28.125 29.6875 28.125C27.2094 28.125 25.0875 29.5781 24.0766 31.6687C23.3891 31.4094 22.6531 31.25 21.875 31.25C18.4234 31.25 15.625 34.0484 15.625 37.5C15.625 37.5734 15.6437 37.6422 15.6469 37.7141C12.9437 38.4031 10.9375 40.8328 10.9375 43.75C10.9375 45.2359 11.4781 46.5828 12.3453 47.6562L13.4391 48.75H13.4594C14.3141 47.6172 15.6594 46.875 17.1875 46.875H18.75L21.8016 46.8594C25.9344 46.7812 29.8828 45.1172 32.8125 42.1875L34.1859 43.5609C36.3078 45.6828 39.1859 46.875 42.1875 46.875C43.7156 46.875 45.0609 47.6172 45.9156 48.75H45.9375L47.0312 47.6562C47.8969 46.5828 48.4375 45.2359 48.4375 43.75C48.4375 40.8328 46.4313 38.4031 43.7281 37.7141Z" fill="#B1040E"/>
<path d="M47.6141 70.9062L35.9375 67.5718V64.9437C38.0734 62.9562 39.7406 60.5202 40.8109 57.8124H42.1875C45.6344 57.8124 48.4375 55.0093 48.4375 51.5624C48.4375 48.1155 45.6344 45.3124 42.1875 45.3124C39.5828 45.3124 37.1328 44.2983 35.2906 42.4562L32.8125 39.978L31.7078 41.0827C28.9797 43.8108 25.3547 45.3124 21.4969 45.3124H17.1875C13.7406 45.3124 10.9375 48.1155 10.9375 51.5624C10.9375 55.0093 13.7406 57.8124 17.1875 57.8124H18.5641C19.6344 60.5218 21.3016 62.9562 23.4375 64.9437V67.5718L11.7609 70.9062C5.75625 72.6233 1.5625 78.1827 1.5625 84.428V98.4374H57.8125V84.428C57.8125 78.1827 53.6187 72.6233 47.6141 70.9062ZM34.9797 70.5468L35.675 70.7452L34.7828 77.8843L31.75 74.853L34.9797 70.5468ZM45.3125 51.5624C45.3125 53.2858 43.9109 54.6874 42.1875 54.6874H41.7516C42.0344 53.3608 42.1875 51.9936 42.1875 50.5999V48.4374C43.9109 48.4374 45.3125 49.839 45.3125 51.5624ZM17.1875 54.6874C15.4641 54.6874 14.0625 53.2858 14.0625 51.5624C14.0625 49.839 15.4641 48.4374 17.1875 48.4374V50.5999C17.1875 51.9936 17.3406 53.3608 17.6234 54.6874H17.1875ZM20.3125 50.5999V48.4374H21.4969C25.6641 48.4374 29.6094 46.9952 32.7641 44.3499L33.0813 44.6655C34.7578 46.3421 36.8187 47.4843 39.0625 48.0421V50.5999C39.0625 56.9765 35.4047 62.7421 29.6875 65.4733C23.9703 62.7421 20.3125 56.9765 20.3125 50.5999ZM29.0719 68.6233L29.6875 68.8874L30.3031 68.6233C31.1797 68.2483 32.0156 67.8108 32.8125 67.3249V68.2311L29.6875 72.3968L26.5625 68.2311V67.3249C27.3594 67.8108 28.1969 68.2483 29.0719 68.6233ZM24.3953 70.5468L27.625 74.853L24.5922 77.8843L23.7 70.7452L24.3953 70.5468ZM54.6875 95.3124H48.4375V85.9374H45.3125V95.3124H14.0625V85.9374H10.9375V95.3124H4.6875V84.428C4.6875 79.5718 7.95 75.2452 12.6188 73.9124L20.6594 71.6155L22.2844 84.6155L29.6875 77.2093L37.0906 84.614L38.7156 71.614L46.7562 73.9108C51.425 75.2452 54.6875 79.5718 54.6875 84.428V95.3124Z" fill="#323232"/>
<path d="M28.125 89.0625H31.25V92.1875H28.125V89.0625Z" fill="#323232"/>
<path d="M28.125 82.8125H31.25V85.9375H28.125V82.8125Z" fill="#323232"/>
<path d="M98.4375 65.2875V53.4625L94.0719 52.3891C93.8797 51.8703 93.6625 51.3516 93.4219 50.8344L95.7531 46.9828L87.3906 38.6203L83.5391 40.9516C83.0219 40.7109 82.5031 40.4937 81.9844 40.3016L81.2969 37.5H68.7031L68.0141 40.3031C67.4953 40.4953 66.9766 40.7125 66.4594 40.9531L62.6078 38.6219L54.2453 46.9844L56.5766 50.8359C56.3359 51.3516 56.1187 51.8719 55.9266 52.3906L51.5625 53.4625V65.2875L55.9281 66.3609C56.1203 66.8797 56.3375 67.4 56.5781 67.9156L54.2469 71.7672L62.6094 80.1297L66.4609 77.7984C66.9766 78.0391 67.4969 78.2563 68.0156 78.4484L69.0875 82.8125H80.9125L81.9859 78.4469C82.5047 78.2547 83.0234 78.0375 83.5406 77.7969L87.3922 80.1281L95.7547 71.7656L93.4234 67.9141C93.6641 67.3969 93.8813 66.8781 94.0734 66.3594L98.4375 65.2875ZM75 71.875C68.0969 71.875 62.5 66.2781 62.5 59.375C62.5 52.4719 68.0969 46.875 75 46.875C81.9031 46.875 87.5 52.4719 87.5 59.375C87.5 66.2781 81.9031 71.875 75 71.875Z" fill="#B1040E"/>
<path d="M78.4863 11.9389L85.466 20.3124L78.4863 28.6858L80.8895 30.6889L89.5348 20.3124L80.8895 9.93579L78.4863 11.9389Z" fill="#323232"/>
<path d="M65.9861 9.93579L57.3408 20.3124L65.9861 30.6889L68.3893 28.6858L61.4096 20.3124L68.3893 11.9389L65.9861 9.93579Z" fill="#323232"/>
<path d="M70.3174 32.6353L73.4416 7.6415L76.5416 8.029L73.4174 33.0228L70.3174 32.6353Z" fill="#323232"/>
<path d="M90.625 1.5625H56.25C51.9422 1.5625 48.4375 5.06719 48.4375 9.375V31.25C48.4375 35.5578 51.9422 39.0625 56.25 39.0625H90.625C94.9328 39.0625 98.4375 35.5578 98.4375 31.25V9.375C98.4375 5.06719 94.9328 1.5625 90.625 1.5625ZM95.3125 31.25C95.3125 33.8344 93.2094 35.9375 90.625 35.9375H56.25C53.6656 35.9375 51.5625 33.8344 51.5625 31.25V9.375C51.5625 6.79063 53.6656 4.6875 56.25 4.6875H90.625C93.2094 4.6875 95.3125 6.79063 95.3125 9.375V31.25Z" fill="#323232"/>
<path d="M75 73.4375C67.2453 73.4375 60.9375 67.1297 60.9375 59.375C60.9375 51.6203 67.2453 45.3125 75 45.3125C82.7547 45.3125 89.0625 51.6203 89.0625 59.375C89.0625 67.1297 82.7547 73.4375 75 73.4375ZM75 48.4375C68.9703 48.4375 64.0625 53.3453 64.0625 59.375C64.0625 65.4047 68.9703 70.3125 75 70.3125C81.0297 70.3125 85.9375 65.4047 85.9375 59.375C85.9375 53.3453 81.0297 48.4375 75 48.4375Z" fill="#323232"/>
<path d="M75 67.1875C70.6922 67.1875 67.1875 63.6828 67.1875 59.375C67.1875 55.0672 70.6922 51.5625 75 51.5625C79.3078 51.5625 82.8125 55.0672 82.8125 59.375C82.8125 63.6828 79.3078 67.1875 75 67.1875ZM75 54.6875C72.4156 54.6875 70.3125 56.7906 70.3125 59.375C70.3125 61.9594 72.4156 64.0625 75 64.0625C77.5844 64.0625 79.6875 61.9594 79.6875 59.375C79.6875 56.7906 77.5844 54.6875 75 54.6875Z" fill="#323232"/>
</svg>
