<svg width="100" height="100" viewBox="0 0 100 100" fill="none" xmlns="http://www.w3.org/2000/svg">
<path d="M19.8656 65.625L18.75 81.25L21.875 84.375L25 81.25L23.8844 65.625H19.8656Z" fill="#B1040E"/>
<path d="M93.75 59.375H59.375C56.7906 59.375 54.6875 61.4781 54.6875 64.0625V85.9375C54.6875 88.5219 56.7906 90.625 59.375 90.625H93.75C96.3344 90.625 98.4375 88.5219 98.4375 85.9375V64.0625C98.4375 61.4781 96.3344 59.375 93.75 59.375ZM65.625 76.5625C63.8984 76.5625 62.5 75.1641 62.5 73.4375C62.5 71.7109 63.8984 70.3125 65.625 70.3125C67.3516 70.3125 68.75 71.7109 68.75 73.4375C68.75 75.1641 67.3516 76.5625 65.625 76.5625ZM76.5625 82.8125C74.8359 82.8125 73.4375 81.4141 73.4375 79.6875C73.4375 77.9609 74.8359 76.5625 76.5625 76.5625C78.2891 76.5625 79.6875 77.9609 79.6875 79.6875C79.6875 81.4141 78.2891 82.8125 76.5625 82.8125ZM87.5 73.4375C85.7734 73.4375 84.375 72.0391 84.375 70.3125C84.375 68.5859 85.7734 67.1875 87.5 67.1875C89.2266 67.1875 90.625 68.5859 90.625 70.3125C90.625 72.0391 89.2266 73.4375 87.5 73.4375Z" fill="#B1040E"/>
<path d="M40.625 20.3125H53.125V34.375H40.625V20.3125Z" fill="#B1040E"/>
<path d="M87.5 65.625C84.9156 65.625 82.8125 67.7281 82.8125 70.3125C82.8125 70.9062 82.9344 71.4703 83.1375 71.9938L78.8844 75.6391C78.1969 75.2438 77.4109 75 76.5625 75C75.3969 75 74.3422 75.4438 73.5219 76.15L70.2297 74.2688C70.2766 73.9984 70.3125 73.7219 70.3125 73.4375C70.3125 70.8531 68.2094 68.75 65.625 68.75C63.0406 68.75 60.9375 70.8531 60.9375 73.4375C60.9375 76.0219 63.0406 78.125 65.625 78.125C66.7906 78.125 67.8453 77.6812 68.6656 76.975L71.9578 78.8562C71.9109 79.1266 71.875 79.4031 71.875 79.6875C71.875 82.2719 73.9781 84.375 76.5625 84.375C79.1469 84.375 81.25 82.2719 81.25 79.6875C81.25 79.0938 81.1281 78.5297 80.925 78.0062L85.1797 74.3609C85.8656 74.7562 86.6516 75 87.5 75C90.0844 75 92.1875 72.8969 92.1875 70.3125C92.1875 67.7281 90.0844 65.625 87.5 65.625ZM65.625 75C64.7625 75 64.0625 74.3 64.0625 73.4375C64.0625 72.575 64.7625 71.875 65.625 71.875C66.4875 71.875 67.1875 72.575 67.1875 73.4375C67.1875 74.3 66.4875 75 65.625 75ZM76.5625 81.25C75.7 81.25 75 80.55 75 79.6875C75 78.825 75.7 78.125 76.5625 78.125C77.425 78.125 78.125 78.825 78.125 79.6875C78.125 80.55 77.425 81.25 76.5625 81.25ZM87.5 71.875C86.6375 71.875 85.9375 71.175 85.9375 70.3125C85.9375 69.45 86.6375 68.75 87.5 68.75C88.3625 68.75 89.0625 69.45 89.0625 70.3125C89.0625 71.175 88.3625 71.875 87.5 71.875Z" fill="#323232"/>
<path d="M21.875 14.0625C23.5984 14.0625 25 15.4641 25 17.1875H28.125C28.125 14.2828 26.1266 11.8578 23.4375 11.1594V7.8125H20.3125V10.9375H15.625V17.1875C15.625 20.6344 18.4281 23.4375 21.875 23.4375C23.5984 23.4375 25 24.8391 25 26.5625V29.6875H21.875C20.1516 29.6875 18.75 28.2859 18.75 26.5625H15.625C15.625 29.4672 17.6234 31.8922 20.3125 32.5906V35.9375H23.4375V32.8125H28.125V26.5625C28.125 23.1156 25.3219 20.3125 21.875 20.3125C20.1516 20.3125 18.75 18.9109 18.75 17.1875V14.0625H21.875Z" fill="#323232"/>
<path d="M62.5 29.6875H56.25V48.4375H84.375V20.3125H75V23.4375H68.75V26.5625H62.5V29.6875ZM59.375 32.8125H62.5V45.3125H59.375V32.8125ZM78.125 23.4375H81.25V45.3125H78.125V23.4375ZM75 26.5625V45.3125H71.875V26.5625H75ZM68.75 29.6875V45.3125H65.625V29.6875H68.75Z" fill="#323232"/>
<path d="M85.9375 54.6875C88.5219 54.6875 90.625 52.5844 90.625 50V18.75C90.625 16.1656 88.5219 14.0625 85.9375 14.0625H40.5922C37.4531 6.54531 30.075 1.5625 21.875 1.5625C10.675 1.5625 1.5625 10.675 1.5625 21.875C1.5625 33.075 10.675 42.1875 21.875 42.1875C26.4375 42.1875 30.825 40.6203 34.375 37.8344V50C34.375 52.5844 36.4781 54.6875 39.0625 54.6875H40.625V60.9375C40.625 62.6609 39.2234 64.0625 37.5 64.0625H29.5141C31.5469 62.075 32.8125 59.3094 32.8125 56.25C32.8125 50.2203 27.9047 45.3125 21.875 45.3125C15.8453 45.3125 10.9375 50.2203 10.9375 56.25C10.9375 59.5672 12.4281 62.5391 14.7687 64.5469C7.20781 66.35 1.5625 73.1453 1.5625 81.25V98.4375H34.375V79.8234C34.375 78.6891 35.1844 77.7188 36.2984 77.5156L41.2969 76.6062C47.2453 75.5266 51.5625 70.3531 51.5625 64.3094V54.6875H85.9375ZM21.875 39.0625C12.3984 39.0625 4.6875 31.3516 4.6875 21.875C4.6875 12.3984 12.3984 4.6875 21.875 4.6875C28.4953 4.6875 34.4797 8.52813 37.3234 14.4062C35.5984 15.0984 34.375 16.7812 34.375 18.75V33.6141C31.1234 37.0734 26.6078 39.0625 21.875 39.0625ZM14.0625 56.25C14.0625 51.9422 17.5672 48.4375 21.875 48.4375C26.1828 48.4375 29.6875 51.9422 29.6875 56.25C29.6875 60.5578 26.1828 64.0625 21.875 64.0625C17.5672 64.0625 14.0625 60.5578 14.0625 56.25ZM48.4375 64.3094C48.4375 68.8422 45.2 72.7219 40.7391 73.5328L35.7406 74.4406C33.1391 74.9141 31.25 77.1781 31.25 79.8234V95.3125H12.5V75H9.375V95.3125H4.6875V81.25C4.6875 73.4953 10.9953 67.1875 18.75 67.1875H37.5C40.9469 67.1875 43.75 64.3844 43.75 60.9375V47.6562C43.75 46.3641 44.8016 45.3125 46.0938 45.3125C47.3859 45.3125 48.4375 46.3641 48.4375 47.6562V64.3094ZM46.0938 42.1875C43.0781 42.1875 40.625 44.6406 40.625 47.6562V51.5625H39.0625C38.2 51.5625 37.5 50.8625 37.5 50V18.75C37.5 17.8875 38.2 17.1875 39.0625 17.1875H85.9375C86.8 17.1875 87.5 17.8875 87.5 18.75V50C87.5 50.8625 86.8 51.5625 85.9375 51.5625H51.5625V47.6562C51.5625 44.6406 49.1094 42.1875 46.0938 42.1875Z" fill="#323232"/>
<path d="M40.625 20.3125H43.75V23.4375H40.625V20.3125Z" fill="#323232"/>
<path d="M46.875 20.3125H50V23.4375H46.875V20.3125Z" fill="#323232"/>
<path d="M53.125 20.3125H56.25V23.4375H53.125V20.3125Z" fill="#323232"/>
<path d="M40.625 26.5625H53.125V29.6875H40.625V26.5625Z" fill="#323232"/>
<path d="M40.625 32.8125H53.125V35.9375H40.625V32.8125Z" fill="#323232"/>
</svg>
