<svg width="100" height="100" viewBox="0 0 100 100" fill="none" xmlns="http://www.w3.org/2000/svg">
<path d="M45.7434 56.6272C47.1515 57.5676 48.7935 58.0645 50.4891 58.0645H58.0646V54.2953C54.1339 52.0224 51.2515 48.1406 50.3198 43.5484H50.0001C46.4372 43.5484 43.5485 40.6596 43.5485 37.0968C43.5485 33.5355 46.434 30.6483 49.9953 30.6452V24.1935H51.6082C52.5714 27.0839 55.2759 29.0323 58.3213 29.0323H59.6728V24.1935L59.95 24.4708C62.871 27.3918 66.8324 29.0323 70.9631 29.0323V24.1935L71.2403 24.4708C74.1613 27.3918 78.1227 29.0323 82.2534 29.0323V30.6452H82.2581C85.821 30.6452 88.7097 33.5339 88.7097 37.0968C88.7097 40.6596 85.821 43.5484 82.2581 43.5484H82.092C81.4052 47.9177 78.4015 51.9665 74.1936 54.3244V58.0645H81.7691C83.4647 58.0645 85.1051 57.5676 86.5133 56.6272C88.8988 55.0387 90.3226 52.3792 90.3226 49.5109V24.1935C90.3226 10.8532 79.4694 0 66.1291 0C52.7888 0 41.9355 10.8532 41.9355 24.1935V49.5109C41.9355 52.3792 43.3594 55.0387 45.7434 56.6272Z" fill="#B1040E"/>
<path d="M59.677 33.871C59.677 34.7617 58.9548 35.4839 58.0641 35.4839C57.1734 35.4839 56.4512 34.7617 56.4512 33.871C56.4512 32.9802 57.1734 32.2581 58.0641 32.2581C58.9548 32.2581 59.677 32.9802 59.677 33.871Z" fill="#323232"/>
<path d="M75.8069 33.871C75.8069 34.7617 75.0847 35.4839 74.194 35.4839C73.3032 35.4839 72.5811 34.7617 72.5811 33.871C72.5811 32.9802 73.3032 32.2581 74.194 32.2581C75.0847 32.2581 75.8069 32.9802 75.8069 33.871Z" fill="#323232"/>
<path d="M72.581 43.5483H69.3552C69.3552 45.3274 67.9084 46.7741 66.1293 46.7741C64.3503 46.7741 62.9035 45.3274 62.9035 43.5483H59.6777C59.6777 47.1065 62.5712 50 66.1293 50C69.6875 50 72.581 47.1065 72.581 43.5483Z" fill="#323232"/>
<path d="M92.2808 64.0082L75.8069 58.5142V55.2278C79.5879 52.8502 82.4231 49.1857 83.4469 45.04C87.3279 44.4596 90.323 41.1353 90.323 37.0968C90.323 33.2016 87.5453 29.9435 83.8667 29.1953V27.4194H82.2537C78.5247 27.4194 75.0185 25.9679 72.381 23.3304L69.3505 20.2999V27.3272C66.231 26.9713 63.3423 25.582 61.0907 23.3288L58.0602 20.2983V27.4115C55.8133 27.3052 53.857 25.8325 53.1372 23.6824L52.771 22.5807H48.3828V29.1953C44.7089 29.9466 41.9359 33.2047 41.9359 37.0968C41.9359 41.2165 45.0538 44.5856 49.0459 45.0644C50.2146 49.2676 52.8844 52.8454 56.452 55.1758V58.5142L40.0001 63.9987L39.8339 64.0546L40.9987 67.0647L48.9538 64.413L55.9196 78.3471L61.2907 73.8722V90.3226H37.7178V93.5484H100V74.7165C100 69.8502 96.8975 65.5455 92.2808 64.0082ZM87.0972 37.0968C87.0972 39.1964 85.7442 40.9708 83.8714 41.6386L83.8682 32.555C85.7442 33.2213 87.0972 34.9948 87.0972 37.0968ZM80.2148 63.3836L75.2745 73.2643L68.5197 67.6341L74.6311 61.5227L80.2148 63.3836ZM45.1617 37.0968C45.1617 34.9988 46.5116 33.226 48.3828 32.5566V40.3226C48.3828 40.7723 48.4166 41.2165 48.4505 41.6583C46.5454 41.0078 45.1617 39.2192 45.1617 37.0968ZM51.6086 40.3226V27.4761C53.2246 29.4434 55.6653 30.6452 58.3217 30.6452H61.286V27.6674C64.1165 29.6032 67.4604 30.6452 70.9634 30.6452H72.5763V27.6674C74.9681 29.3048 77.7277 30.3018 80.6408 30.5711L80.6456 41.6662C80.6408 48.684 73.8553 54.8387 66.1247 54.8387C58.1201 54.8387 51.6086 48.3273 51.6086 40.3226ZM66.1247 58.0645C68.3763 58.0645 70.557 57.618 72.5811 56.8367V59.0096L66.1294 65.4612L59.6778 59.0096V56.8336C61.6798 57.618 63.8487 58.0645 66.1247 58.0645ZM52.0441 63.3836L57.6294 61.5227L63.7408 67.6341L56.986 73.2643L52.0441 63.3836ZM64.5165 90.3226V71.1851L66.1294 69.8416L67.7423 71.1851V90.3226H64.5165ZM96.7746 90.3226H87.0972V75.8065H83.8714V90.3226H70.9682V73.8722L76.3392 78.3487L83.3051 64.4146L91.2602 67.0662C94.5584 68.1664 96.7746 71.2402 96.7746 74.7165V90.3226Z" fill="#323232"/>
<path d="M74.1934 80.6453H80.645V83.8711H74.1934V80.6453Z" fill="#323232"/>
<path d="M16.1289 8.06445H32.2579V20.9677H16.1289V8.06445Z" fill="#B1040E"/>
<path d="M45.1613 83.5094V71.3276L40.4951 70.1352C40.4628 70.0565 40.4305 69.9777 40.3966 69.8997L42.853 65.7596L34.2388 57.1454L30.0986 59.6017C30.0191 59.5679 29.9403 59.5356 29.8631 59.5033L28.6708 54.8386H16.4889L15.2966 59.5049C15.2178 59.5371 15.1391 59.5694 15.0611 59.6033L10.921 57.1454L2.30674 65.7596L4.7631 69.8997C4.72924 69.9793 4.69695 70.058 4.66466 70.1352L0 71.3291V83.511L4.66624 84.7033C4.69853 84.7821 4.73082 84.8608 4.76468 84.9388L2.30674 89.079L10.921 97.6932L15.0611 95.2368C15.1407 95.2707 15.2194 95.303 15.2966 95.3353L16.4905 99.9999H28.6723L29.8647 95.3337C29.9435 95.3014 30.0222 95.2691 30.1002 95.2352L34.2403 97.6916L42.8546 89.0774L40.3982 84.9372C40.432 84.8577 40.4643 84.7789 40.4966 84.7017L45.1613 83.5094ZM22.5806 82.258C19.9077 82.258 17.7419 80.0922 17.7419 77.4193C17.7419 74.7463 19.9077 72.5806 22.5806 72.5806C25.2536 72.5806 27.4194 74.7463 27.4194 77.4193C27.4194 80.0922 25.2536 82.258 22.5806 82.258Z" fill="#B1040E"/>
<path d="M22.581 90.3226C15.4662 90.3226 9.67773 84.5341 9.67773 77.4193C9.67773 70.3046 15.4662 64.5161 22.581 64.5161C29.6957 64.5161 35.4842 70.3046 35.4842 77.4193C35.4842 84.5341 29.6957 90.3226 22.581 90.3226ZM22.581 67.7419C17.2437 67.7419 12.9035 72.0821 12.9035 77.4193C12.9035 82.7566 17.2437 87.0968 22.581 87.0968C27.9182 87.0968 32.2584 82.7566 32.2584 77.4193C32.2584 72.0821 27.9182 67.7419 22.581 67.7419Z" fill="#323232"/>
<path d="M22.5805 83.871C19.0224 83.871 16.1289 80.9775 16.1289 77.4194C16.1289 73.8612 19.0224 70.9678 22.5805 70.9678C26.1387 70.9678 29.0321 73.8612 29.0321 77.4194C29.0321 80.9775 26.1387 83.871 22.5805 83.871ZM22.5805 74.1936C20.8014 74.1936 19.3547 75.6403 19.3547 77.4194C19.3547 79.1985 20.8014 80.6452 22.5805 80.6452C24.3596 80.6452 25.8063 79.1985 25.8063 77.4194C25.8063 75.6403 24.3596 74.1936 22.5805 74.1936Z" fill="#323232"/>
<path d="M10.6225 0L0 10.6225V51.6129H38.7097V0H10.6225ZM9.67742 5.50655V9.67742H5.50655L9.67742 5.50655ZM35.4839 48.3871H3.22581V12.9032H12.9032V3.22581H35.4839V48.3871Z" fill="#323232"/>
<path d="M16.1289 6.45166H32.2579V9.67747H16.1289V6.45166Z" fill="#323232"/>
<path d="M16.1289 12.9033H32.2579V16.1291H16.1289V12.9033Z" fill="#323232"/>
<path d="M6.45117 19.3547H32.2576V22.5805H6.45117V19.3547Z" fill="#323232"/>
<path d="M32.2576 45.1612H6.45117V25.8064H32.2576V45.1612Z" fill="#B1040E"/>
</svg>
