<svg width="100" height="100" viewBox="0 0 100 100" fill="none" xmlns="http://www.w3.org/2000/svg">
<path d="M40.625 76.5625V96.875H28.125V76.5625L34.375 70.3125L40.625 76.5625Z" fill="#B1040E"/>
<path d="M51.1031 14.4391C47.8844 9.37656 42.2172 6.25 36.2016 6.25H34.375C21.4516 6.25 10.9375 16.7641 10.9375 29.6875V42.1875H12.5C12.5 38.7359 15.2984 35.9375 18.75 35.9375V36.5203C18.75 31.8844 22.5094 28.125 27.1453 28.125C28.8031 28.125 30.4234 28.6156 31.8016 29.5344L34.375 31.25L36.9469 29.5344C38.3266 28.6156 39.9469 28.125 41.6031 28.125C46.2406 28.125 50 31.8844 50 36.5203V35.9375C53.4516 35.9375 56.25 38.7359 56.25 42.1875H57.8125V25.7375C57.8125 20.9844 55.2531 16.6969 51.1031 14.4391Z" fill="#B1040E"/>
<path d="M98.4375 41.8594V26.8906L92.2844 25.4281C91.8703 24.1906 91.375 22.9906 90.8063 21.8453L94.1203 16.4672L83.5344 5.88125L78.1562 9.19375C77.0094 8.62344 75.8109 8.12969 74.5734 7.71563L73.1094 1.5625H58.1406L56.6781 7.71563C55.4406 8.12969 54.2406 8.625 53.0953 9.19375L47.7172 5.87969L44.9766 8.61875C45.8937 9.14531 46.7547 9.76562 47.5656 10.4484L48.1797 9.83438L52.975 12.7906L53.7687 12.3625C55.2297 11.575 56.8016 10.9266 58.4422 10.4344L59.3047 10.175L60.6094 4.6875H70.6406L71.9453 10.1766L72.8078 10.4359C74.4469 10.9266 76.0203 11.575 77.4813 12.3641L78.275 12.7922L83.0703 9.8375L90.1641 16.9313L87.2094 21.7266L87.6375 22.5203C88.425 23.9813 89.0734 25.5531 89.5656 27.1937L89.825 28.0562L95.3125 29.3594V39.3906L89.8234 40.6953L89.5641 41.5578C89.0734 43.1969 88.425 44.7703 87.6359 46.2313L87.2078 47.025L90.1625 51.8203L83.0688 58.9141L78.2734 55.9594L77.4797 56.3875C76.0203 57.175 74.4484 57.8234 72.8078 58.3156L71.9453 58.575L70.6406 64.0625H60.6094L59.3047 58.5734L58.4422 58.3141C56.8016 57.8219 55.2281 57.1734 53.7703 56.3859L52.9766 55.9578L48.1813 58.9125L46.6219 57.3531C48.5187 55.425 49.9688 53.0578 50.7922 50.4141C54.8406 54.1719 60.0484 56.25 65.625 56.25C77.6875 56.25 87.5 46.4375 87.5 34.375C87.5 22.3125 77.6875 12.5 65.625 12.5C61.2625 12.5 57.1094 13.7703 53.5203 16.1672C54.3125 16.8734 55.0016 17.6672 55.5891 18.5344C58.5844 16.6266 62.0234 15.625 65.625 15.625C75.9641 15.625 84.375 24.0359 84.375 34.375C84.375 44.7141 75.9641 53.125 65.625 53.125C61.2672 53.125 57.1687 51.6469 53.8453 48.9469C56.2016 47.6 57.8125 45.0906 57.8125 42.1875C57.8125 38.3453 55.0187 35.1594 51.3594 34.5125C50.4266 29.9812 46.4078 26.5625 41.6047 26.5625C39.6313 26.5625 37.7219 27.1406 36.0812 28.2344L34.375 29.3719L32.6688 28.2344C31.0281 27.1406 29.1187 26.5625 27.1453 26.5625C22.3422 26.5625 18.3219 29.9812 17.3906 34.5125C13.7312 35.1594 10.9375 38.3453 10.9375 42.1875C10.9375 46.1797 13.9594 49.4453 17.8297 49.9062C18.9609 53.9766 21.5469 57.4406 25 59.6984V62.9359L9.04062 68.2562C4.56719 69.7469 1.5625 73.9172 1.5625 78.6328V98.4375H67.1875V78.6328C67.1875 73.9172 64.1828 69.7469 59.7094 68.2562L43.75 62.9359V59.6984C43.9094 59.5938 44.0672 59.4859 44.2234 59.3766L47.7156 62.8688L53.0938 59.5547C54.2391 60.125 55.4391 60.6188 56.6766 61.0328L58.1406 67.1875H73.1094L74.5719 61.0344C75.8094 60.6203 77.0094 60.125 78.1547 59.5563L83.5328 62.8703L94.1188 52.2844L90.8047 46.9062C91.375 45.7594 91.8688 44.5609 92.2828 43.3234L98.4375 41.8594ZM54.6875 42.1875C54.6875 44.2453 53.3453 45.9797 51.4969 46.6078C51.5297 46.1781 51.5625 45.75 51.5625 45.3125V37.7875C53.3766 38.4344 54.6875 40.1531 54.6875 42.1875ZM14.0625 42.1875C14.0625 40.1531 15.3734 38.4344 17.1875 37.7875V45.3125C17.1875 45.75 17.2203 46.1781 17.2531 46.6078C15.4047 45.9797 14.0625 44.2453 14.0625 42.1875ZM20.3125 45.3125V36.5203C20.3125 32.7531 23.3781 29.6875 27.1453 29.6875C28.5 29.6875 29.8094 30.0844 30.9359 30.8344L34.375 33.1281L37.8141 30.8359C38.9406 30.0844 40.25 29.6875 41.6047 29.6875C45.3719 29.6875 48.4375 32.7531 48.4375 36.5203V45.3125C48.4375 53.0656 42.1281 59.375 34.375 59.375C26.6219 59.375 20.3125 53.0656 20.3125 45.3125ZM26.25 65.8141L32.0359 70.4422L24.1203 78.3578L20.5703 67.7063L26.25 65.8141ZM64.0625 78.6328V95.3125H56.25V82.8125H53.125V95.3125H15.625V82.8125H12.5V95.3125H4.6875V78.6328C4.6875 75.2641 6.83437 72.2859 10.0297 71.2203L17.6062 68.6953L22.7563 84.1422L34.375 72.5219L45.9953 84.1422L51.1453 68.6953L58.7219 71.2203C61.9156 72.2859 64.0625 75.2641 64.0625 78.6328ZM48.1797 67.7063L44.6297 78.3578L36.7141 70.4422L42.5 65.8141L48.1797 67.7063ZM40.625 63.3125L34.375 68.3125L28.125 63.3125V61.3063C30.0656 62.0672 32.1688 62.5 34.375 62.5C36.5812 62.5 38.6844 62.0672 40.625 61.3063V63.3125Z" fill="#323232"/>
<path d="M42.1875 40.625C43.0504 40.625 43.75 39.9254 43.75 39.0625C43.75 38.1996 43.0504 37.5 42.1875 37.5C41.3246 37.5 40.625 38.1996 40.625 39.0625C40.625 39.9254 41.3246 40.625 42.1875 40.625Z" fill="#323232"/>
<path d="M26.5625 40.625C27.4254 40.625 28.125 39.9254 28.125 39.0625C28.125 38.1996 27.4254 37.5 26.5625 37.5C25.6996 37.5 25 38.1996 25 39.0625C25 39.9254 25.6996 40.625 26.5625 40.625Z" fill="#323232"/>
<path d="M40.625 48.4375H37.5C37.5 50.1609 36.0984 51.5625 34.375 51.5625C32.6516 51.5625 31.25 50.1609 31.25 48.4375H28.125C28.125 51.8844 30.9281 54.6875 34.375 54.6875C37.8219 54.6875 40.625 51.8844 40.625 48.4375Z" fill="#323232"/>
<path d="M35.9375 76.5625H32.8125V79.6875H35.9375V76.5625Z" fill="#323232"/>
<path d="M35.9375 82.8125H32.8125V85.9375H35.9375V82.8125Z" fill="#323232"/>
<path d="M35.9375 89.0625H32.8125V92.1875H35.9375V89.0625Z" fill="#323232"/>
<path d="M73.4375 20.3125H60.9375V23.4375H73.4375V20.3125Z" fill="#323232"/>
<path d="M78.125 26.5625H60.9375V29.6875H78.125V26.5625Z" fill="#323232"/>
<path d="M81.25 32.8125H60.9375V35.9375H81.25V32.8125Z" fill="#323232"/>
<path d="M78.125 39.0625H60.9375V42.1875H78.125V39.0625Z" fill="#323232"/>
<path d="M73.4375 45.3125H60.9375V48.4375H73.4375V45.3125Z" fill="#323232"/>
</svg>
