<svg width="100" height="100" viewBox="0 0 100 100" fill="none" xmlns="http://www.w3.org/2000/svg">
<path d="M18.749 37.5C18.0803 37.5 17.4256 37.5562 16.7803 37.6375L15.5693 52.1547L20.3115 56.8969L25.0537 52.1547L23.8318 37.5H20.3115H18.749Z" fill="#B1040E"/>
<path d="M87.5 45.3125H84.375C81.7906 45.3125 79.6875 43.2094 79.6875 40.625V35.9375H87.5C90.0844 35.9375 92.1875 38.0406 92.1875 40.625C92.1875 43.2094 90.0844 45.3125 87.5 45.3125Z" fill="#B1040E"/>
<path d="M42.1875 17.1875H34.375C31.7906 17.1875 29.6875 15.0844 29.6875 12.5C29.6875 9.91562 31.7906 7.8125 34.375 7.8125H37.5C40.0844 7.8125 42.1875 9.91562 42.1875 12.5V17.1875Z" fill="#B1040E"/>
<path d="M82.8125 9.375H92.1875V28.125H82.8125V9.375Z" fill="#B1040E"/>
<path d="M23.4375 1.5625V17.6484C22.4469 17.3516 21.3984 17.1875 20.3125 17.1875C14.2828 17.1875 9.375 22.0938 9.375 28.125C9.375 31.6203 11.0281 34.7281 13.5875 36.7328C6.625 38.9297 1.5625 45.4469 1.5625 53.125V64.0625C1.5625 67.5094 4.36562 70.3125 7.8125 70.3125H9.375V92.1875C9.375 95.6344 12.1781 98.4375 15.625 98.4375C17.5016 98.4375 19.1656 97.5906 20.3125 96.2781C21.4594 97.5906 23.1234 98.4375 25 98.4375C28.4469 98.4375 31.25 95.6344 31.25 92.1875V53.5391C31.25 52.8625 31.3375 52.2 31.5031 51.5625H98.4375V1.5625H23.4375ZM12.5 28.125C12.5 23.8172 16.0047 20.3125 20.3125 20.3125C24.6203 20.3125 28.125 23.8172 28.125 28.125C28.125 32.4328 24.6203 35.9375 20.3125 35.9375C16.0047 35.9375 12.5 32.4328 12.5 28.125ZM28.125 53.5391V92.1875C28.125 93.9109 26.7234 95.3125 25 95.3125C23.2766 95.3125 21.875 93.9109 21.875 92.1875V64.0625H18.75V92.1875C18.75 93.9109 17.3484 95.3125 15.625 95.3125C13.9016 95.3125 12.5 93.9109 12.5 92.1875V50H9.375V67.1875H7.8125C6.08906 67.1875 4.6875 65.7859 4.6875 64.0625V53.125C4.6875 45.3719 10.9953 39.0625 18.75 39.0625H28.5969C30.6234 39.0625 32.6047 38.5016 34.3297 37.4391L51.5016 26.8719C51.8312 26.6688 52.2094 26.5625 52.5969 26.5625C53.7484 26.5625 54.6875 27.5016 54.6875 28.6531V29.2625C54.6875 29.975 54.3297 30.6297 53.7328 31.0187L33.1203 44.3563C29.9922 46.3797 28.125 49.8125 28.125 53.5391ZM45.3125 26.5625C45.3125 18.4734 51.4906 11.8031 59.375 11.0172V27.2094L70.8187 38.6531C68.1234 40.8594 64.6828 42.1875 60.9375 42.1875C56.6219 42.1875 52.6 40.4484 49.6625 37.3734L55.4297 33.6422C56.9219 32.6766 57.8125 31.0391 57.8125 29.2625V28.6531C57.8125 25.7781 55.4734 23.4375 52.5969 23.4375C51.6312 23.4375 50.6844 23.7047 49.8625 24.2109L45.3312 26.9984C45.3281 26.8531 45.3125 26.7078 45.3125 26.5625ZM73.0281 36.4437L64.7094 28.125H76.4828C76.1703 31.2625 74.9234 34.1297 73.0281 36.4437ZM62.5 25V11.0172C69.8703 11.7531 75.7484 17.6297 76.4828 25H62.5ZM95.3125 48.4375H33.1562C33.6344 47.8844 34.1859 47.3875 34.8172 46.9781L47.0156 39.0844C50.5719 43.0469 55.5578 45.3125 60.9375 45.3125C71.2766 45.3125 79.6875 36.9016 79.6875 26.5625C79.6875 16.2234 71.2766 7.8125 60.9375 7.8125C50.5984 7.8125 42.1875 16.2234 42.1875 26.5625C42.1875 27.3234 42.25 28.0844 42.3422 28.8391L32.6906 34.7781C31.4594 35.5375 30.0438 35.9375 28.5969 35.9375H27.9531C29.9844 33.95 31.25 31.1844 31.25 28.125C31.25 24.4172 29.3922 21.1406 26.5625 19.1625V4.6875H95.3125V48.4375Z" fill="#323232"/>
<path d="M87.4609 74.6172C90.3125 72.6406 92.1875 69.3484 92.1875 65.625C92.1875 59.5953 87.2797 54.6875 81.25 54.6875C75.2203 54.6875 70.3125 59.5953 70.3125 65.625C70.3125 69.3484 72.1875 72.6406 75.0391 74.6172C70.8625 76.2438 67.4813 79.45 65.625 83.5063C63.7687 79.45 60.3875 76.2422 56.2109 74.6172C59.0625 72.6406 60.9375 69.3484 60.9375 65.625C60.9375 59.5953 56.0297 54.6875 50 54.6875C43.9703 54.6875 39.0625 59.5953 39.0625 65.625C39.0625 69.3484 40.9375 72.6406 43.7891 74.6172C37.3766 77.1141 32.8125 83.3391 32.8125 90.625V98.4375H64.0625H67.1875H98.4375V90.625C98.4375 83.3391 93.8734 77.1141 87.4609 74.6172ZM73.4375 65.625C73.4375 61.3172 76.9422 57.8125 81.25 57.8125C85.5578 57.8125 89.0625 61.3172 89.0625 65.625C89.0625 69.9328 85.5578 73.4375 81.25 73.4375C76.9422 73.4375 73.4375 69.9328 73.4375 65.625ZM42.1875 65.625C42.1875 61.3172 45.6922 57.8125 50 57.8125C54.3078 57.8125 57.8125 61.3172 57.8125 65.625C57.8125 69.9328 54.3078 73.4375 50 73.4375C45.6922 73.4375 42.1875 69.9328 42.1875 65.625ZM64.0625 95.3125H59.375V82.8125H56.25V95.3125H43.75V82.8125H40.625V95.3125H35.9375V90.625C35.9375 82.8703 42.2453 76.5625 50 76.5625C57.7547 76.5625 64.0625 82.8703 64.0625 90.625V95.3125ZM95.3125 95.3125H90.625V82.8125H87.5V95.3125H75V82.8125H71.875V95.3125H67.1875V90.625C67.1875 82.8703 73.4953 76.5625 81.25 76.5625C89.0047 76.5625 95.3125 82.8703 95.3125 90.625V95.3125Z" fill="#323232"/>
<path d="M82.8125 7.8125H92.1875V10.9375H82.8125V7.8125Z" fill="#323232"/>
<path d="M82.8125 14.0625H92.1875V17.1875H82.8125V14.0625Z" fill="#323232"/>
<path d="M82.8125 20.3125H92.1875V23.4375H82.8125V20.3125Z" fill="#323232"/>
<path d="M82.8125 26.5625H92.1875V29.6875H82.8125V26.5625Z" fill="#323232"/>
</svg>
