<svg width="100" height="100" viewBox="0 0 100 100" fill="none" xmlns="http://www.w3.org/2000/svg">
<path d="M28.125 67.1875C26.8797 67.1875 25.6219 66.9109 24.4891 66.3891C14.1625 60.6828 7.8125 49.9125 7.8125 38.2313V28.125H11.8703C15.7656 28.125 19.3953 26.3813 21.8281 23.3391C23.3672 21.4156 25.6625 20.3125 28.125 20.3125C30.5875 20.3125 32.8828 21.4156 34.4219 23.3391C36.8547 26.3813 40.4844 28.125 44.3797 28.125H48.4375V38.2313C48.4375 49.9141 42.0875 60.6844 31.8625 66.3375C30.6281 66.9109 29.3703 67.1875 28.125 67.1875Z" fill="#B1040E"/>
<path d="M79.6875 18.75H92.1875V25H79.6875V18.75Z" fill="#B1040E"/>
<path d="M7.8125 7.8125H10.9375V10.9375H7.8125V7.8125Z" fill="#323232"/>
<path d="M20.3125 7.8125H23.4375V10.9375H20.3125V7.8125Z" fill="#323232"/>
<path d="M14.0625 7.8125H17.1875V10.9375H14.0625V7.8125Z" fill="#323232"/>
<path d="M17.1875 38.2314V36.8595C20.3922 36.0689 23.3984 34.5611 25.9438 32.4548L23.9531 30.047C21.4797 32.0923 18.5031 33.4798 15.3437 34.0611L14.0625 34.2954V38.2314C14.0625 40.2095 14.2906 42.1845 14.7391 44.1064L17.7813 43.3954C17.3875 41.7064 17.1875 39.9704 17.1875 38.2314Z" fill="#323232"/>
<path d="M25.0002 52.4783L19.8549 47.333L17.6455 49.5424L25.0002 56.8971L43.2924 38.6049L41.083 36.3955L25.0002 52.4783Z" fill="#323232"/>
<path d="M98.4375 68.75V6.25C98.4375 3.66562 96.3344 1.5625 93.75 1.5625H6.25C3.66562 1.5625 1.5625 3.66562 1.5625 6.25V68.75C1.5625 71.3344 3.66562 73.4375 6.25 73.4375H47.5031C44.2313 76.0547 42.1875 80.0734 42.1875 84.4281V98.4375H98.4375V84.4281C98.4375 80.0719 96.3938 76.0547 93.1219 73.4375H93.75C96.3344 73.4375 98.4375 71.3344 98.4375 68.75ZM6.25 4.6875H93.75C94.6109 4.6875 95.3125 5.38906 95.3125 6.25V10.9375H29.0406L25.9156 14.0625H4.6875V6.25C4.6875 5.38906 5.38906 4.6875 6.25 4.6875ZM4.6875 68.75V17.1875H27.2094L30.3344 14.0625H95.3125V68.75C95.3125 69.6109 94.6109 70.3125 93.75 70.3125H86.1562L76.5625 67.5719V64.9453C78.6984 62.9578 80.3656 60.5219 81.4359 57.8125H82.8125C86.2594 57.8125 89.0625 55.0094 89.0625 51.5625V40.8172C89.0625 36.4937 86.2547 32.7188 82.1688 31.4469C78.9266 27.4 73.9516 25 68.75 25C59.2734 25 51.5625 32.7109 51.5625 42.1875V51.5625C51.5625 55.0094 54.3656 57.8125 57.8125 57.8125H59.1891C60.2594 60.5219 61.9266 62.9562 64.0625 64.9453V67.5719L54.4703 70.3125H6.25C5.38906 70.3125 4.6875 69.6109 4.6875 68.75ZM70.3125 74.6312L67.1875 68.3812V67.325C67.9844 67.8125 68.8203 68.2484 69.6969 68.6234L70.3125 68.8875L70.9281 68.6234C71.8047 68.2484 72.6406 67.8125 73.4375 67.325V68.3812L70.3125 74.6312ZM58.2484 54.6875H57.8125C56.0891 54.6875 54.6875 53.2859 54.6875 51.5625C54.6875 49.8391 56.0891 48.4375 57.8125 48.4375V50.6C57.8125 51.9937 57.9656 53.3609 58.2484 54.6875ZM82.8125 50.6V48.4375C84.5359 48.4375 85.9375 49.8391 85.9375 51.5625C85.9375 53.2859 84.5359 54.6875 82.8125 54.6875H82.3766C82.6594 53.3609 82.8125 51.9937 82.8125 50.6ZM85.9375 46.1813C85.0141 45.6437 83.9563 45.3125 82.8125 45.3125C80.2078 45.3125 77.7578 44.2984 75.9156 42.4563L73.4375 39.9781L72.3328 41.0828C69.6047 43.8109 65.9781 45.3125 62.1203 45.3125H57.8125C56.6688 45.3125 55.6109 45.6437 54.6875 46.1813V42.1875C54.6875 34.4344 60.9969 28.125 68.75 28.125C73.1531 28.125 77.3578 30.2281 80 33.75L80.3328 34.1938L80.8703 34.3281C83.8547 35.075 85.9375 37.7422 85.9375 40.8172V46.1813ZM60.9375 48.4375H62.1203C66.2875 48.4375 70.2328 46.9969 73.3891 44.3484L73.7063 44.6656C75.3828 46.3422 77.4437 47.4844 79.6875 48.0422V50.6C79.6875 56.9766 76.0297 62.7422 70.3125 65.4719C64.5953 62.7422 60.9375 56.9766 60.9375 50.6V48.4375ZM64.8078 70.6094L68.3328 77.6578L65.3141 79.9219L64.2953 70.7562L64.8078 70.6094ZM75.8172 70.6094L76.3297 70.7562L75.3109 79.9219L72.2922 77.6578L75.8172 70.6094ZM95.3125 84.4281V95.3125H89.0625V79.6875H85.9375V95.3125H54.6875V79.6875H51.5625V95.3125H45.3125V84.4281C45.3125 79.5703 48.575 75.2469 53.2453 73.9125L61.2469 71.6266L62.8109 85.7047L70.3125 80.0781L77.8141 85.7047L79.3781 71.6266L87.3812 73.9125C92.05 75.2469 95.3125 79.5703 95.3125 84.4281Z" fill="#323232"/>
<path d="M68.75 89.0625H71.875V92.1875H68.75V89.0625Z" fill="#323232"/>
<path d="M68.75 82.8125H71.875V85.9375H68.75V82.8125Z" fill="#323232"/>
<path d="M76.5625 17.1875H92.1875V20.3125H76.5625V17.1875Z" fill="#323232"/>
<path d="M79.6875 23.4375H92.1875V26.5625H79.6875V23.4375Z" fill="#323232"/>
<path d="M7.8125 64.0625H10.9375V67.1875H7.8125V64.0625Z" fill="#323232"/>
<path d="M7.8125 57.8125H10.9375V60.9375H7.8125V57.8125Z" fill="#323232"/>
</svg>
