<svg width="100" height="100" viewBox="0 0 100 100" fill="none" xmlns="http://www.w3.org/2000/svg">
<path d="M96.875 85.9375H53.125V65.625C53.125 63.8984 54.5234 62.5 56.25 62.5H93.75C95.4766 62.5 96.875 63.8984 96.875 65.625V85.9375Z" fill="#B1040E"/>
<path d="M34.375 1.5625C21.4516 1.5625 10.9375 12.0766 10.9375 25V37.5H12.5C12.5 34.0484 15.2984 31.25 18.75 31.25V29.6875C18.75 28.825 19.45 28.125 20.3125 28.125H48.4375C49.3 28.125 50 28.825 50 29.6875V31.25C53.4516 31.25 56.25 34.0484 56.25 37.5H57.8125V25C57.8125 12.0766 47.2984 1.5625 34.375 1.5625Z" fill="#B1040E"/>
<path d="M26.5625 35.9375C27.4254 35.9375 28.125 35.2379 28.125 34.375C28.125 33.5121 27.4254 32.8125 26.5625 32.8125C25.6996 32.8125 25 33.5121 25 34.375C25 35.2379 25.6996 35.9375 26.5625 35.9375Z" fill="#323232"/>
<path d="M42.1875 35.9375C43.0504 35.9375 43.75 35.2379 43.75 34.375C43.75 33.5121 43.0504 32.8125 42.1875 32.8125C41.3246 32.8125 40.625 33.5121 40.625 34.375C40.625 35.2379 41.3246 35.9375 42.1875 35.9375Z" fill="#323232"/>
<path d="M40.625 43.75H37.5C37.5 45.4734 36.0984 46.875 34.375 46.875C32.6516 46.875 31.25 45.4734 31.25 43.75H28.125C28.125 47.1969 30.9281 50 34.375 50C37.8219 50 40.625 47.1969 40.625 43.75Z" fill="#323232"/>
<path d="M93.75 60.9375H56.25C55.3719 60.9375 54.5594 61.1953 53.8547 61.6172L43.75 58.2484V55.0109C47.2031 52.7531 49.7875 49.2875 50.9203 45.2188C54.7906 44.7578 57.8125 41.4922 57.8125 37.5C57.8125 33.7281 55.1234 30.5719 51.5625 29.8453V29.6875C51.5625 27.9641 50.1609 26.5625 48.4375 26.5625H20.3125C18.5891 26.5625 17.1875 27.9641 17.1875 29.6875V29.8453C13.6266 30.5719 10.9375 33.7281 10.9375 37.5C10.9375 41.4922 13.9594 44.7578 17.8297 45.2188C18.9609 49.2891 21.5469 52.7531 25 55.0109V58.2484L9.04062 63.5687C4.56875 65.0594 1.5625 69.2297 1.5625 73.9453V89.0625H51.85C52.4969 90.8766 54.2156 92.1875 56.25 92.1875H65.625V95.3125H62.5V98.4375H87.5V95.3125H84.375V92.1875H93.75C96.3344 92.1875 98.4375 90.0844 98.4375 87.5V65.625C98.4375 63.0406 96.3344 60.9375 93.75 60.9375ZM54.6875 37.5C54.6875 39.5578 53.3453 41.2922 51.4969 41.9203C51.5297 41.4906 51.5625 41.0625 51.5625 40.625V33.1C53.3766 33.7469 54.6875 35.4656 54.6875 37.5ZM51.5625 85.9375H35.9375V70.9594L42.4719 77.4938L50.9422 63.9406L51.8 64.2266C51.6594 64.6703 51.5625 65.1344 51.5625 65.625V75V85.9375ZM47.8937 62.9234L41.9047 72.5062L36.5844 67.1875L42.6094 61.1625L47.8937 62.9234ZM14.0625 37.5C14.0625 35.4656 15.3734 33.7469 17.1875 33.1V40.625C17.1875 41.0625 17.2203 41.4906 17.2531 41.9203C15.4047 41.2922 14.0625 39.5578 14.0625 37.5ZM20.3125 40.625V29.6875H48.4375V40.625C48.4375 48.3781 42.1297 54.6875 34.375 54.6875C26.6203 54.6875 20.3125 48.3781 20.3125 40.625ZM34.375 57.8125C36.5812 57.8125 38.6844 57.3797 40.625 56.6187V58.7281L34.375 64.9781L28.125 58.7281V56.6187C30.0656 57.3797 32.1688 57.8125 34.375 57.8125ZM26.1406 61.1625L32.1656 67.1875L26.8469 72.5062L20.8578 62.9234L26.1406 61.1625ZM10.0297 66.5328L17.8078 63.9406L26.2781 77.4953L32.8125 70.9594V85.9375H17.1875V75H14.0625V79.6875H4.6875V73.9453C4.6875 70.5766 6.83437 67.5984 10.0297 66.5328ZM4.6875 82.8125H14.0625V85.9375H4.6875V82.8125ZM81.25 95.3125H68.75V92.1875H81.25V95.3125ZM95.3125 87.5C95.3125 88.3609 94.6125 89.0625 93.75 89.0625H56.25C55.3875 89.0625 54.6875 88.3609 54.6875 87.5V75V65.625C54.6875 64.7641 55.3875 64.0625 56.25 64.0625H93.75C94.6125 64.0625 95.3125 64.7641 95.3125 65.625V87.5Z" fill="#323232"/>
<path d="M80.3135 69.9999L84.8963 73.4374L80.3135 76.8749L82.1885 79.3749L90.1057 73.4374L82.1885 67.4999L80.3135 69.9999Z" fill="#323232"/>
<path d="M67.8127 67.4999L59.8955 73.4374L67.8127 79.3749L69.6877 76.8749L65.1049 73.4374L69.6877 69.9999L67.8127 67.4999Z" fill="#323232"/>
<path d="M76.2667 66.408L70.8545 79.26L73.7359 80.4734L79.1481 67.6214L76.2667 66.408Z" fill="#323232"/>
</svg>
