<svg width="100" height="100" viewBox="0 0 100 100" fill="none" xmlns="http://www.w3.org/2000/svg">
<path d="M77.4189 33.871H93.548V53.2258H77.4189V33.871Z" fill="#B1040E"/>
<path d="M6.45117 53.2258H22.5802V72.5807H6.45117V53.2258Z" fill="#B1040E"/>
<path d="M54.8386 58.0646L49.9998 54.8387L45.1611 58.0646L48.3869 64.5162L45.1611 72.5807H54.8386L51.6127 64.5162L54.8386 58.0646Z" fill="#B1040E"/>
<path d="M68.8857 51.779L56.4518 47.2577V43.8641H53.226V47.8499L50.0002 52.15L46.7744 47.8499V43.8641H43.5486V47.2577L31.1147 51.779C27.9385 52.9336 25.8066 55.979 25.8066 59.3576V74.1935H74.1937V59.3576C74.1937 55.979 72.0618 52.9336 68.8857 51.779ZM55.4114 50.311L60.2596 52.0743L57.4181 58.7063L52.229 54.5567L55.4114 50.311ZM44.5889 50.311L47.7714 54.5567L42.5823 58.7063L39.7408 52.0743L44.5889 50.311ZM70.9679 70.9677H64.5163V64.5161H61.2905V70.9677H38.7099V64.5161H35.4841V70.9677H29.0324V59.3576C29.0324 57.3305 30.313 55.5033 32.2181 54.8111L36.7048 53.1793L41.2891 63.8742L50.0002 56.9044L58.7113 63.8742L63.2956 53.1793L67.7823 54.8111C69.6874 55.5033 70.9679 57.3305 70.9679 59.3576V70.9677Z" fill="#323232"/>
<path d="M91.9355 25.8064H70.9677V29.0322H91.9355C94.6029 29.0322 96.7742 31.2035 96.7742 33.8709V77.4193H3.22581V33.8709C3.22581 31.2035 5.39708 29.0322 8.06452 29.0322H29.0323V25.8064H8.06452C3.61801 25.8064 0 29.4244 0 33.8709V82.258C0 86.7045 3.61801 90.3225 8.06452 90.3225H29.0323V96.7741H22.5806V99.9999H77.4194V96.7741H70.9677V90.3225H91.9355C96.382 90.3225 100 86.7045 100 82.258V33.8709C100 29.4244 96.382 25.8064 91.9355 25.8064ZM67.7419 96.7741H32.2581V90.3225H67.7419V96.7741ZM91.9355 87.0967H8.06452C5.39708 87.0967 3.22581 84.9254 3.22581 82.258V80.6451H96.7742V82.258C96.7742 84.9254 94.6029 87.0967 91.9355 87.0967Z" fill="#323232"/>
<path d="M72.5802 28.6708V16.4889L67.914 15.2966C67.8817 15.2178 67.8494 15.1391 67.8156 15.0611L70.2719 10.921L61.6593 2.30674L57.5191 4.7631C57.4396 4.72924 57.3608 4.69695 57.2836 4.66466L56.0897 0H43.9079L42.7155 4.66624C42.6368 4.69853 42.558 4.73082 42.4801 4.76468L38.3399 2.30674L29.7257 10.921L32.1821 15.0611C32.1482 15.1407 32.1159 15.2194 32.0836 15.2966L27.4189 16.4905V28.6723L32.0852 29.8647C32.1175 29.9435 32.1498 30.0222 32.1836 30.1002L29.7273 34.2403L38.3415 42.8546L42.4816 40.3982C42.5612 40.432 42.6399 40.4643 42.7171 40.4966L43.548 45.1613H56.4512L57.2836 40.4951C57.3624 40.4628 57.4412 40.4305 57.5191 40.3966L61.6593 42.853L70.2735 34.2388L67.8171 30.0986C67.851 30.0191 67.8833 29.9403 67.9156 29.8631L72.5802 28.6708ZM49.9996 27.4194C47.3266 27.4194 45.1609 25.2536 45.1609 22.5806C45.1609 19.9077 47.3266 17.7419 49.9996 17.7419C52.6725 17.7419 54.8383 19.9077 54.8383 22.5806C54.8383 25.2536 52.6725 27.4194 49.9996 27.4194Z" fill="#B1040E"/>
<path d="M49.9999 35.4838C42.8852 35.4838 37.0967 29.6953 37.0967 22.5806C37.0967 15.4659 42.8852 9.67737 49.9999 9.67737C57.1146 9.67737 62.9031 15.4659 62.9031 22.5806C62.9031 29.6953 57.1146 35.4838 49.9999 35.4838ZM49.9999 12.9032C44.6627 12.9032 40.3225 17.2434 40.3225 22.5806C40.3225 27.9178 44.6627 32.258 49.9999 32.258C55.3371 32.258 59.6773 27.9178 59.6773 22.5806C59.6773 17.2434 55.3371 12.9032 49.9999 12.9032Z" fill="#323232"/>
<path d="M50.0004 29.0323C46.4423 29.0323 43.5488 26.1388 43.5488 22.5806C43.5488 19.0225 46.4423 16.129 50.0004 16.129C53.5586 16.129 56.4521 19.0225 56.4521 22.5806C56.4521 26.1388 53.5586 29.0323 50.0004 29.0323ZM50.0004 19.3548C48.2214 19.3548 46.7746 20.8016 46.7746 22.5806C46.7746 24.3597 48.2214 25.8064 50.0004 25.8064C51.7795 25.8064 53.2262 24.3597 53.2262 22.5806C53.2262 20.8016 51.7795 19.3548 50.0004 19.3548Z" fill="#323232"/>
<path d="M6.45117 70.9678H22.5802V74.1936H6.45117V70.9678Z" fill="#323232"/>
<path d="M6.45117 64.5161H22.5802V67.7419H6.45117V64.5161Z" fill="#323232"/>
<path d="M6.45117 58.0645H22.5802V61.2903H6.45117V58.0645Z" fill="#323232"/>
<path d="M77.4189 32.2581H93.548V35.4839H77.4189V32.2581Z" fill="#323232"/>
<path d="M77.4189 38.7097H93.548V41.9355H77.4189V38.7097Z" fill="#323232"/>
<path d="M77.4189 45.1613H93.548V48.3871H77.4189V45.1613Z" fill="#323232"/>
<path d="M77.4189 51.6129H93.548V54.8387H77.4189V51.6129Z" fill="#323232"/>
<path d="M6.45117 51.6129H22.5802V54.8387H6.45117V51.6129Z" fill="#323232"/>
</svg>
