<svg width="512" height="512" viewBox="0 0 512 512" fill="none" xmlns="http://www.w3.org/2000/svg">
<path d="M160 368C106.984 368 64 325.016 64 272C64 218.984 106.984 176 160 176C171.224 176 181.992 177.928 192 181.464V123.416C181.536 121.176 170.784 120 160 120C76.184 120 8 188.184 8 272C8 355.816 76.184 424 160 424C241.856 424 312 340.424 312 272H256C256 325.016 213.016 368 160 368Z" fill="#B1040E"/>
<path d="M312 344H456V456H312V344Z" fill="#B1040E"/>
<path d="M264 248H280V232H296V216H280V136H251.056L216 206.112V232H264V248ZM232 216V209.888L260.944 152H264V216H232Z" fill="#474747"/>
<path d="M440 248H456V232H472V216H456V136H427.056L392 206.112V232H440V248ZM408 216V209.888L436.944 152H440V216H408Z" fill="#474747"/>
<path d="M376 136H312V248H376V136ZM360 232H328V152H360V232Z" fill="#474747"/>
<path d="M488 104V32C488 18.768 477.232 8 464 8H48C34.768 8 24 18.768 24 32V204.528C28.504 195.488 33.856 186.968 40 179.048V152H67.048C74.96 145.856 83.48 140.504 92.528 136H40V32C40 27.584 43.592 24 48 24H464C468.408 24 472 27.584 472 32V104H200C191.176 104 184 111.176 184 120V170.856C176.176 169.008 168.152 168 160 168C102.656 168 56 214.656 56 272C56 329.344 102.656 376 160 376C214.648 376 259.48 333.608 263.592 280H321.752L326.72 299.872C328.504 307.016 334.888 312 342.248 312H345.752C353.104 312 359.488 307.016 361.272 299.872L366.248 280H472V480C472 484.416 468.408 488 464 488H84.44C86.12 485.928 87.68 483.752 88.976 481.352L122.48 419.12C117.176 417.768 112 416.144 106.936 414.248L74.888 473.76C70.16 482.544 61.024 488 51.056 488C36.136 488 24 475.856 24 460.936V457.312C24 452.608 25.232 447.968 27.568 443.88L60.352 386.504C56.192 382.88 52.264 379.024 48.52 374.968L40 389.88V364.952C33.856 357.04 28.504 348.52 24 339.472V417.872L13.672 435.936C9.96 442.44 8 449.832 8 457.312V460.936C8 483.632 25.704 502.088 48 503.688V504H464C477.232 504 488 493.232 488 480V280C496.824 280 504 272.824 504 264V120C504 111.176 496.824 104 488 104ZM160 360C111.48 360 72 320.52 72 272C72 223.48 111.48 184 160 184C168.192 184 176.232 185.168 184 187.368V264C184 272.824 191.176 280 200 280H247.592C243.536 324.784 205.824 360 160 360ZM488 264H366.248C358.896 264 352.512 268.984 350.728 276.128L345.752 296H342.248L337.28 276.128C335.496 268.984 329.112 264 321.752 264H200V120H488V264Z" fill="#474747"/>
<path d="M56 88H104V40H56V88ZM72 56H88V72H72V56Z" fill="#474747"/>
<path d="M168 40H120V88H168V40ZM152 72H136V56H152V72Z" fill="#474747"/>
<path d="M232 40H184V88H232V40ZM216 72H200V56H216V72Z" fill="#474747"/>
<path d="M312 344H360V360H312V344Z" fill="#474747"/>
<path d="M376 344H456V360H376V344Z" fill="#474747"/>
<path d="M312 392H456V408H312V392Z" fill="#474747"/>
<path d="M312 440H360V456H312V440Z" fill="#474747"/>
<path d="M440 440H456V456H440V440Z" fill="#474747"/>
<path d="M376 440H392V456H376V440Z" fill="#474747"/>
<path d="M408 440H424V456H408V440Z" fill="#474747"/>
</svg>
