<svg width="18" height="18" viewBox="0 0 18 18" fill="none" xmlns="http://www.w3.org/2000/svg">
<g clip-path="url(#clip0)">
<path d="M16.4423 4.32684H13.4748L12.5207 2.41866C12.2551 1.88756 11.7213 1.55762 11.1274 1.55762H6.87259C6.27877 1.55762 5.74492 1.88756 5.47931 2.41866L4.52528 4.32684H1.5577C0.698801 4.32684 0 5.02561 0 5.88454V14.8845C0 15.7434 0.698766 16.4422 1.5577 16.4422H16.4423C17.3012 16.4422 18 15.7435 18 14.8845V5.88454C18 5.02561 17.3012 4.32684 16.4423 4.32684ZM6.40814 2.88311C6.4967 2.70607 6.67466 2.5961 6.87259 2.5961H11.1274C11.3254 2.5961 11.5033 2.70607 11.5919 2.88311L12.3138 4.32684H5.68631L6.40814 2.88311ZM2.94233 15.4038H1.5577C1.27139 15.4038 1.03848 15.1709 1.03848 14.8845V8.40553L2.94233 9.22882V15.4038ZM14.0193 15.4038H3.98078V9.6779L6.71702 10.8611C6.78206 10.8892 6.85223 10.9038 6.92311 10.9038H7.44233V12.1153C7.44233 12.5925 7.83053 12.9807 8.3077 12.9807H9.69233C10.1695 12.9807 10.5577 12.5925 10.5577 12.1153V10.9038H11.0769C11.1478 10.9038 11.2179 10.8892 11.283 10.8611L14.0192 9.6779V15.4038H14.0193ZM8.48078 11.9422V10.9038H9.51922V11.9422H8.48078ZM16.9616 14.8845C16.9616 15.1709 16.7286 15.4038 16.4423 15.4038H15.0577V9.22882L16.9616 8.40553V14.8845ZM16.9616 7.27413C16.9602 7.27473 16.9616 7.27413 16.9602 7.27473L10.9695 9.86532H7.03062C7.02925 9.86472 1.03996 7.27473 1.03855 7.27416V5.88458C1.03852 5.59827 1.27146 5.36536 1.55774 5.36536H13.1509C13.152 5.36536 13.1531 5.36546 13.1543 5.36546C13.155 5.36546 13.1556 5.36536 13.1563 5.36536H16.4424C16.7287 5.36536 16.9616 5.59827 16.9616 5.88458V7.27413H16.9616Z" fill="#B1040E"/>
</g>
<defs>
<clipPath id="clip0">
<rect width="18" height="18" fill="white"/>
</clipPath>
</defs>
</svg>
