<svg width="18" height="18" viewBox="0 0 18 18" fill="none" xmlns="http://www.w3.org/2000/svg">
<g clip-path="url(#clip0)">
<path d="M16.0605 1.12968H15.1758V0.527344C15.1758 0.236109 14.9397 0 14.6484 0C14.3572 0 14.1211 0.236109 14.1211 0.527344V1.12968H12.9164V0.527344C12.9164 0.236109 12.6803 0 12.3891 0C12.0978 0 11.8617 0.236109 11.8617 0.527344V1.12968H10.657V0.527344C10.657 0.236109 10.4209 0 10.1297 0C9.83844 0 9.60233 0.236109 9.60233 0.527344V1.12968H8.3976V0.527344C8.3976 0.236109 8.16149 0 7.87025 0C7.57902 0 7.34291 0.236109 7.34291 0.527344V1.12968H6.13828V0.527344C6.13828 0.236109 5.90217 0 5.61094 0C5.3197 0 5.08359 0.236109 5.08359 0.527344V1.12968H3.87889V0.527344C3.87889 0.236109 3.64279 0 3.35155 0C3.06032 0 2.82421 0.236109 2.82421 0.527344V1.12968H1.93946C0.870047 1.12968 0 1.99972 0 3.06914V16.0605C0 17.13 0.870047 18 1.93946 18H14.0836C16.2431 18 18 16.2431 18 14.0836V3.06914C18 1.99972 17.13 1.12968 16.0605 1.12968ZM1.93946 2.18436H2.82421V2.78673C2.82421 3.07796 3.06032 3.31407 3.35155 3.31407C3.64279 3.31407 3.87889 3.07796 3.87889 2.78673V2.18436H5.08359V2.78673C5.08359 3.07796 5.3197 3.31407 5.61094 3.31407C5.90217 3.31407 6.13828 3.07796 6.13828 2.78673V2.18436H7.34298V2.78673C7.34298 3.07796 7.57909 3.31407 7.87032 3.31407C8.16156 3.31407 8.39767 3.07796 8.39767 2.78673V2.18436H9.6024V2.78673C9.6024 3.07796 9.83851 3.31407 10.1297 3.31407C10.421 3.31407 10.6571 3.07796 10.6571 2.78673V2.18436H11.8617V2.78673C11.8617 3.07796 12.0978 3.31407 12.3891 3.31407C12.6803 3.31407 12.9164 3.07796 12.9164 2.78673V2.18436H14.1211V2.78673C14.1211 3.07796 14.3572 3.31407 14.6484 3.31407C14.9397 3.31407 15.1758 3.07796 15.1758 2.78673V2.18436H16.0605C16.5484 2.18436 16.9453 2.58128 16.9453 3.06914V4.51874H1.05469V3.06914C1.05469 2.58128 1.4516 2.18436 1.93946 2.18436ZM14.0836 16.9453C12.5056 16.9453 11.2219 15.6615 11.2219 14.0836C11.2219 12.5056 12.5057 11.2219 14.0836 11.2219C15.6615 11.2219 16.9453 12.5057 16.9453 14.0836C16.9453 15.6615 15.6615 16.9453 14.0836 16.9453ZM14.0836 10.1672C11.9241 10.1672 10.1672 11.9241 10.1672 14.0836C10.1672 15.2119 10.6469 16.23 11.4129 16.9453H1.93946C1.4516 16.9453 1.05469 16.5484 1.05469 16.0605V5.57343H16.9453V11.4129C16.23 10.647 15.2118 10.1672 14.0836 10.1672Z" fill="#B1040E"/>
<path d="M5.61133 7.34302C5.47246 7.34302 5.33641 7.39927 5.23832 7.49735C5.14023 7.59544 5.08398 7.73149 5.08398 7.87036C5.08398 8.00884 5.14023 8.14493 5.23832 8.24302C5.33676 8.3411 5.47246 8.39735 5.61133 8.39735C5.7502 8.39735 5.8859 8.3411 5.98434 8.24302C6.08242 8.14493 6.13867 8.00888 6.13867 7.87036C6.13867 7.73149 6.08242 7.59544 5.98434 7.49735C5.88625 7.39927 5.7502 7.34302 5.61133 7.34302Z" fill="#B1040E"/>
<path d="M7.87109 7.34302C7.73223 7.34302 7.59617 7.39927 7.49809 7.49735C7.4 7.59544 7.34375 7.73149 7.34375 7.87036C7.34375 8.00884 7.4 8.14493 7.49809 8.24302C7.59617 8.3411 7.73223 8.39735 7.87109 8.39735C8.00964 8.39735 8.14566 8.3411 8.24375 8.24302C8.34184 8.14493 8.39844 8.00888 8.39844 7.87036C8.39844 7.73149 8.34184 7.59544 8.24375 7.49735C8.14566 7.39927 8.00961 7.34302 7.87109 7.34302Z" fill="#B1040E"/>
<path d="M10.1286 7.34302C9.98969 7.34302 9.85398 7.39927 9.7559 7.49735C9.65781 7.59544 9.60156 7.73149 9.60156 7.87036C9.60156 8.00919 9.65781 8.14493 9.7559 8.24302C9.85398 8.3411 9.99004 8.39735 10.1286 8.39735C10.2674 8.39735 10.4035 8.3411 10.5016 8.24302C10.5996 8.14493 10.6559 8.00888 10.6559 7.87036C10.6559 7.73149 10.5996 7.59544 10.5016 7.49735C10.4035 7.39927 10.2674 7.34302 10.1286 7.34302Z" fill="#B1040E"/>
<path d="M12.3887 7.34302C12.2498 7.34302 12.1138 7.39927 12.0157 7.49735C11.9176 7.59544 11.8613 7.73149 11.8613 7.87036C11.8613 8.00884 11.9176 8.14493 12.0157 8.24302C12.1141 8.3411 12.2498 8.39735 12.3887 8.39735C12.5275 8.39735 12.6636 8.3411 12.7617 8.24302C12.8598 8.14493 12.916 8.00888 12.916 7.87036C12.916 7.73149 12.8598 7.59544 12.7617 7.49735C12.6636 7.39927 12.5275 7.34302 12.3887 7.34302Z" fill="#B1040E"/>
<path d="M14.6484 7.34302C14.5096 7.34302 14.3735 7.39927 14.2754 7.49735C14.1773 7.59544 14.1211 7.73149 14.1211 7.87036C14.1211 8.00884 14.1773 8.14493 14.2754 8.24302C14.3735 8.3411 14.5096 8.39735 14.6484 8.39735C14.7873 8.39735 14.923 8.3411 15.0211 8.24302C15.1192 8.14493 15.1758 8.00888 15.1758 7.87036C15.1758 7.73149 15.1192 7.59544 15.0211 7.49735C14.923 7.39927 14.7873 7.34302 14.6484 7.34302Z" fill="#B1040E"/>
<path d="M3.35156 9.60229C3.2127 9.60229 3.07699 9.65854 2.97891 9.75663C2.88047 9.85507 2.82422 9.99112 2.82422 10.1296C2.82422 10.2685 2.88047 10.4046 2.97891 10.5026C3.07699 10.6007 3.2127 10.657 3.35156 10.657C3.49043 10.657 3.62648 10.6007 3.72457 10.5026C3.82266 10.4046 3.87891 10.2685 3.87891 10.1296C3.87891 9.99112 3.82266 9.85503 3.72457 9.75663C3.62648 9.65851 3.49043 9.60229 3.35156 9.60229Z" fill="#B1040E"/>
<path d="M5.61133 9.60229C5.47246 9.60229 5.33641 9.65854 5.23832 9.75663C5.14023 9.85507 5.08398 9.99112 5.08398 10.1296C5.08398 10.2685 5.14023 10.4046 5.23832 10.5026C5.33676 10.6007 5.47246 10.657 5.61133 10.657C5.7502 10.657 5.8859 10.6007 5.98434 10.5026C6.08242 10.4046 6.13867 10.2685 6.13867 10.1296C6.13867 9.99077 6.08242 9.85503 5.98434 9.75663C5.8859 9.65851 5.7502 9.60229 5.61133 9.60229Z" fill="#B1040E"/>
<path d="M7.87109 9.60229C7.73223 9.60229 7.59617 9.65854 7.49809 9.75663C7.4 9.85507 7.34375 9.99077 7.34375 10.1296C7.34375 10.2685 7.4 10.4046 7.49809 10.5026C7.59617 10.6007 7.73223 10.657 7.87109 10.657C8.00964 10.657 8.14566 10.6007 8.24375 10.5026C8.34184 10.4046 8.39844 10.2685 8.39844 10.1296C8.39844 9.99112 8.34184 9.85503 8.24375 9.75663C8.14566 9.65851 8.00996 9.60229 7.87109 9.60229Z" fill="#B1040E"/>
<path d="M10.1289 9.60229C9.99004 9.60229 9.85434 9.65854 9.75625 9.75663C9.65816 9.85507 9.60156 9.99112 9.60156 10.1296C9.60156 10.2685 9.65816 10.4046 9.75625 10.5026C9.85434 10.6007 9.99004 10.657 10.1289 10.657C10.2678 10.657 10.4038 10.6007 10.5019 10.5026C10.6 10.4046 10.6562 10.2685 10.6562 10.1296C10.6562 9.99112 10.6 9.85503 10.5019 9.75663C10.4038 9.65851 10.2678 9.60229 10.1289 9.60229Z" fill="#B1040E"/>
<path d="M3.35156 11.8616C3.21305 11.8616 3.07699 11.9179 2.97891 12.0159C2.88082 12.114 2.82422 12.2501 2.82422 12.3889C2.82422 12.5278 2.88082 12.6635 2.97891 12.7619C3.07699 12.86 3.21305 12.9163 3.35156 12.9163C3.49043 12.9163 3.62648 12.86 3.72457 12.7619C3.82266 12.6635 3.87891 12.5278 3.87891 12.3889C3.87891 12.2501 3.82266 12.1143 3.72457 12.0159C3.62648 11.9179 3.49043 11.8616 3.35156 11.8616Z" fill="#B1040E"/>
<path d="M5.61133 11.8616C5.47246 11.8616 5.33641 11.9179 5.23832 12.0159C5.14023 12.114 5.08398 12.2501 5.08398 12.3889C5.08398 12.5278 5.14023 12.6635 5.23832 12.7619C5.33676 12.86 5.47246 12.9163 5.61133 12.9163C5.7502 12.9163 5.8859 12.86 5.98434 12.7619C6.08242 12.6635 6.13867 12.5278 6.13867 12.3889C6.13867 12.2501 6.08242 12.114 5.98434 12.0159C5.8859 11.9179 5.7502 11.8616 5.61133 11.8616Z" fill="#B1040E"/>
<path d="M7.87109 11.8616C7.73223 11.8616 7.59617 11.9179 7.49809 12.0159C7.4 12.114 7.34375 12.2501 7.34375 12.3889C7.34375 12.5278 7.4 12.6635 7.49809 12.7619C7.59617 12.86 7.73223 12.9163 7.87109 12.9163C8.00964 12.9163 8.14566 12.86 8.24375 12.7619C8.34219 12.6635 8.39844 12.5278 8.39844 12.3889C8.39844 12.2501 8.34219 12.114 8.24375 12.0159C8.14566 11.9179 8.00996 11.8616 7.87109 11.8616Z" fill="#B1040E"/>
<path d="M3.35156 14.1211C3.2127 14.1211 3.07699 14.1773 2.97891 14.2754C2.88047 14.3735 2.82422 14.5096 2.82422 14.6481C2.82422 14.787 2.88047 14.923 2.97891 15.0211C3.07699 15.1192 3.21305 15.1758 3.35156 15.1758C3.49043 15.1758 3.62613 15.1192 3.72457 15.0211C3.82266 14.923 3.87891 14.787 3.87891 14.6481C3.87891 14.5096 3.82266 14.3735 3.72457 14.2754C3.62648 14.1773 3.49043 14.1211 3.35156 14.1211Z" fill="#B1040E"/>
<path d="M5.61133 14.1211C5.47246 14.1211 5.33676 14.1773 5.23832 14.2754C5.14023 14.3735 5.08398 14.5096 5.08398 14.6481C5.08398 14.787 5.14023 14.923 5.23832 15.0211C5.33676 15.1192 5.47246 15.1758 5.61133 15.1758C5.7502 15.1758 5.8859 15.1192 5.98434 15.0211C6.08242 14.923 6.13867 14.787 6.13867 14.6481C6.13867 14.5096 6.08242 14.3735 5.98434 14.2754C5.8859 14.1773 5.7502 14.1211 5.61133 14.1211Z" fill="#B1040E"/>
<path d="M7.87109 14.1211C7.73223 14.1211 7.59617 14.1773 7.49809 14.2754C7.4 14.3735 7.34375 14.5096 7.34375 14.6481C7.34375 14.787 7.4 14.923 7.49809 15.0211C7.59617 15.1192 7.73223 15.1758 7.87109 15.1758C8.00964 15.1758 8.14566 15.1192 8.24375 15.0211C8.34184 14.923 8.39844 14.787 8.39844 14.6481C8.39844 14.5096 8.34184 14.3735 8.24375 14.2754C8.14566 14.1773 8.00961 14.1211 7.87109 14.1211Z" fill="#B1040E"/>
<path d="M15.2137 13.5562H14.6113V12.9539C14.6113 12.6626 14.3752 12.4265 14.084 12.4265C13.7928 12.4265 13.5566 12.6626 13.5566 12.9539V14.0835C13.5566 14.3748 13.7928 14.6109 14.084 14.6109H15.2137C15.5049 14.6109 15.741 14.3748 15.741 14.0835C15.741 13.7923 15.5049 13.5562 15.2137 13.5562Z" fill="#B1040E"/>
</g>
<defs>
<clipPath id="clip0">
<rect width="18" height="18" fill="white"/>
</clipPath>
</defs>
</svg>
