<svg width="16" height="16" viewBox="0 0 16 16" fill="none" xmlns="http://www.w3.org/2000/svg">
<path d="M14.4069 2.21459V1.59247C14.4069 0.714375 13.6925 0 12.8145 0H8.38552C7.96011 0 7.56023 0.165656 7.25945 0.466469L0.995766 6.73019C0.694953 7.03097 0.529297 7.43087 0.529297 7.85625C0.529297 8.28162 0.694953 8.68153 0.995766 8.98231L1.63223 9.61878C1.60527 9.73578 1.59098 9.85656 1.59098 9.97956C1.59098 10.4049 1.75664 10.8048 2.05745 11.1056L6.4863 15.5344C6.79673 15.8448 7.20455 16 7.61233 16C8.02011 16 8.42792 15.8448 8.73836 15.5343L15.0021 9.27056C15.3029 8.96975 15.4686 8.56987 15.4686 8.1445V3.71575C15.4686 3.02375 15.0247 2.43372 14.4069 2.21459ZM1.74645 8.23159C1.6462 8.13134 1.59095 7.99803 1.59095 7.85622C1.59095 7.71441 1.6462 7.58116 1.74645 7.48084L8.01017 1.21713C8.11045 1.11691 8.24373 1.06166 8.38555 1.06166H12.8144C13.1071 1.06166 13.3452 1.29978 13.3452 1.59247V2.12328H9.44717C9.02177 2.12328 8.62189 2.28894 8.32111 2.58975L2.21292 8.698L1.74645 8.23159ZM14.2514 8.51987L7.98767 14.7836C7.78064 14.9906 7.44392 14.9906 7.23698 14.7836L2.80811 10.3549C2.70786 10.2546 2.65261 10.1213 2.65261 9.9795C2.65261 9.83769 2.70786 9.70444 2.80811 9.60413L9.07183 3.34037C9.17211 3.24016 9.30539 3.18491 9.4472 3.18491H13.8761C14.1688 3.18491 14.4069 3.42303 14.4069 3.71572V8.14447H14.4069C14.4069 8.28628 14.3517 8.41959 14.2514 8.51987Z" fill="#B1040E"/>
<path d="M11.7546 4.24658C10.8765 4.24658 10.1621 4.96096 10.1621 5.83905C10.1621 6.71714 10.8765 7.43152 11.7546 7.43152C12.6327 7.43152 13.347 6.71714 13.347 5.83905C13.347 4.96096 12.6327 4.24658 11.7546 4.24658ZM11.7546 6.36989C11.4619 6.36989 11.2238 6.13177 11.2238 5.83908C11.2238 5.54639 11.4619 5.30827 11.7546 5.30827C12.0473 5.30827 12.2854 5.54639 12.2854 5.83908C12.2854 6.13177 12.0473 6.36989 11.7546 6.36989Z" fill="#B1040E"/>
</svg>
