<svg width="18" height="18" viewBox="0 0 18 18" fill="none" xmlns="http://www.w3.org/2000/svg">
<g clip-path="url(#clip0)">
<path d="M17.551 7.79399C17.5505 7.79358 17.55 7.79303 17.5496 7.79262L10.207 0.450303C9.89406 0.137192 9.47796 -0.0351562 9.03534 -0.0351562C8.59273 -0.0351562 8.17662 0.137192 7.86351 0.450303L0.524769 7.78891C0.522297 7.79138 0.519688 7.79399 0.517353 7.79646C-0.125348 8.44287 -0.124249 9.49166 0.520512 10.1364C0.815083 10.4311 1.204 10.6017 1.61997 10.6197C1.637 10.6213 1.65403 10.6222 1.67119 10.6222H1.96371V16.0255C1.96371 17.0949 2.83383 17.9649 3.90321 17.9649H6.77586C7.06714 17.9649 7.30321 17.7287 7.30321 17.4375V13.2012C7.30321 12.7133 7.70023 12.3164 8.18816 12.3164H9.88253C10.3705 12.3164 10.7673 12.7133 10.7673 13.2012V17.4375C10.7673 17.7287 11.0034 17.9649 11.2947 17.9649H14.1673C15.2369 17.9649 16.1068 17.0949 16.1068 16.0255V10.6222H16.3782C16.8207 10.6222 17.2368 10.4498 17.55 10.1366C18.1955 9.49083 18.1958 8.44013 17.551 7.79399ZM16.8042 9.39086C16.6904 9.5047 16.539 9.56746 16.3782 9.56746H15.5795C15.2882 9.56746 15.0522 9.80353 15.0522 10.0948V16.0255C15.0522 16.5133 14.6553 16.9102 14.1673 16.9102H11.822V13.2012C11.822 12.1318 10.9521 11.2617 9.88253 11.2617H8.18816C7.11864 11.2617 6.24852 12.1318 6.24852 13.2012V16.9102H3.90321C3.41542 16.9102 3.0184 16.5133 3.0184 16.0255V10.0948C3.0184 9.80353 2.78233 9.56746 2.49105 9.56746H1.70608C1.69784 9.56691 1.68973 9.5665 1.68136 9.56636C1.52425 9.56362 1.3769 9.50127 1.26649 9.39072C1.03165 9.15589 1.03165 8.7737 1.26649 8.53873C1.26662 8.53873 1.26662 8.53859 1.26676 8.53845L1.26717 8.53804L8.60949 1.196C8.72319 1.08216 8.87439 1.01953 9.03534 1.01953C9.19616 1.01953 9.34736 1.08216 9.4612 1.196L16.8019 8.53653C16.803 8.53763 16.8042 8.53873 16.8053 8.53983C17.0389 8.77507 17.0385 9.15644 16.8042 9.39086Z" fill="#B1040E"/>
</g>
<defs>
<clipPath id="clip0">
<rect width="18" height="18" fill="white"/>
</clipPath>
</defs>
</svg>
