<svg width="18" height="18" viewBox="0 0 18 18" fill="none" xmlns="http://www.w3.org/2000/svg">
<path d="M14.3831 2.22982C12.9452 0.791896 11.0333 0 8.99982 0C6.96631 0 5.05444 0.791896 3.61654 2.22982C2.17861 3.66779 1.38672 5.57959 1.38672 7.61307C1.38672 11.7268 5.27634 15.1484 7.366 16.9865C7.65639 17.242 7.90716 17.4626 8.10696 17.6492C8.35727 17.883 8.67856 18 8.99978 18C9.32108 18 9.6423 17.883 9.89265 17.6492C10.0924 17.4626 10.3432 17.242 10.6336 16.9865C12.7233 15.1483 16.6129 11.7268 16.6129 7.61307C16.6129 5.57959 15.821 3.66779 14.3831 2.22982ZM9.93716 16.1949C9.6404 16.4559 9.38415 16.6814 9.17286 16.8787C9.07579 16.9693 8.92378 16.9694 8.82667 16.8787C8.61542 16.6813 8.35913 16.4559 8.06238 16.1949C6.09784 14.4668 2.44106 11.25 2.44106 7.6131C2.44106 3.99664 5.38325 1.05444 8.99975 1.05444C12.6162 1.05444 15.5584 3.99664 15.5584 7.6131C15.5584 11.25 11.9017 14.4668 9.93716 16.1949Z" fill="#B1040E"/>
<path d="M8.99953 3.97046C7.14957 3.97046 5.64453 5.47547 5.64453 7.32543C5.64453 9.1754 7.14957 10.6804 8.99953 10.6804C10.8495 10.6804 12.3545 9.1754 12.3545 7.32543C12.3545 5.47547 10.8495 3.97046 8.99953 3.97046ZM8.99953 9.62596C7.73099 9.62596 6.69894 8.59391 6.69894 7.3254C6.69894 6.05689 7.73099 5.02483 8.99953 5.02483C10.2681 5.02483 11.3001 6.05689 11.3001 7.3254C11.3001 8.59391 10.2681 9.62596 8.99953 9.62596Z" fill="#B1040E"/>
</svg>
