<svg width="18" height="18" viewBox="0 0 18 18" fill="none" xmlns="http://www.w3.org/2000/svg">
<g clip-path="url(#clip0)">
<path d="M15.8026 2.15088H2.20112C0.986965 2.15088 0 3.13784 0 4.352V13.6481C0 14.8622 0.986965 15.8492 2.20112 15.8492H15.7989C17.013 15.8492 18 14.8622 18 13.6481V4.35572C18.0037 3.14157 17.0168 2.15088 15.8026 2.15088ZM16.9981 13.6481C16.9981 14.3073 16.4618 14.8436 15.8026 14.8436H2.20112C1.5419 14.8436 1.00559 14.3073 1.00559 13.6481V4.35572C1.00559 3.6965 1.5419 3.16019 2.20112 3.16019H15.7989C16.4581 3.16019 16.9944 3.6965 16.9944 4.35572V13.6481H16.9981Z" fill="#B1040E"/>
<path d="M11.3527 8.88474L15.7549 4.93688C15.9597 4.75066 15.9784 4.43409 15.7921 4.22552C15.6059 4.02068 15.2894 4.00206 15.0808 4.18828L9.01002 9.63707L7.82566 8.57934C7.82194 8.57562 7.81821 8.57189 7.81821 8.56817C7.79214 8.5421 7.76607 8.51975 7.73628 8.49741L2.91691 4.18456C2.70834 3.99834 2.39177 4.01696 2.20555 4.22552C2.01933 4.43409 2.03795 4.75066 2.24652 4.93688L6.7009 8.91826L2.26514 13.071C2.06402 13.2609 2.05285 13.5775 2.2428 13.7823C2.34335 13.8866 2.47743 13.9425 2.61151 13.9425C2.73442 13.9425 2.85732 13.8978 2.95415 13.8084L7.45695 9.5961L8.67855 10.6873C8.77538 10.773 8.89457 10.814 9.01375 10.814C9.13293 10.814 9.25583 10.7693 9.34894 10.6836L10.6041 9.55886L15.0808 13.8121C15.1776 13.9052 15.3042 13.9499 15.4272 13.9499C15.5612 13.9499 15.6916 13.8978 15.7921 13.7935C15.9821 13.5924 15.9746 13.2721 15.7735 13.0821L11.3527 8.88474Z" fill="#B1040E"/>
</g>
<defs>
<clipPath id="clip0">
<rect width="18" height="18" fill="white"/>
</clipPath>
</defs>
</svg>
