<svg width="18" height="18" viewBox="0 0 18 18" fill="none" xmlns="http://www.w3.org/2000/svg">
<path d="M15.375 18H2.8125C1.2615 18 0 16.7385 0 15.1875V2.0625C0 0.92475 0.92475 0 2.0625 0H11.4375C12.5752 0 13.5 0.92475 13.5 2.0625V2.25H15.9375C17.0753 2.25 18 3.17475 18 4.3125V15.1875C18 16.6245 16.917 17.8125 15.5243 17.9797C15.477 17.9932 15.4268 18 15.375 18ZM13.5 3.375V15.1875C13.5 16.1182 14.2568 16.875 15.1875 16.875C16.1182 16.875 16.875 16.1182 16.875 15.1875V4.3125C16.875 3.79575 16.4543 3.375 15.9375 3.375H13.5ZM2.0625 1.125C1.54575 1.125 1.125 1.54575 1.125 2.0625V15.1875C1.125 16.1182 1.88175 16.875 2.8125 16.875H12.939C12.585 16.4048 12.375 15.8197 12.375 15.1875V2.0625C12.375 1.54575 11.9543 1.125 11.4375 1.125H2.0625Z" fill="#B1040E"/>
<path d="M6.1875 6.75H2.8125C2.502 6.75 2.25 6.498 2.25 6.1875V2.8125C2.25 2.502 2.502 2.25 2.8125 2.25H6.1875C6.498 2.25 6.75 2.502 6.75 2.8125V6.1875C6.75 6.498 6.498 6.75 6.1875 6.75ZM3.375 5.625H5.625V3.375H3.375V5.625Z" fill="#B1040E"/>
<path d="M10.6885 4.125H8.81348C8.50298 4.125 8.25098 3.873 8.25098 3.5625C8.25098 3.252 8.50298 3 8.81348 3H10.6885C10.999 3 11.251 3.252 11.251 3.5625C11.251 3.873 10.999 4.125 10.6885 4.125Z" fill="#B1040E"/>
<path d="M10.6885 6.375H8.81348C8.50298 6.375 8.25098 6.123 8.25098 5.8125C8.25098 5.502 8.50298 5.25 8.81348 5.25H10.6885C10.999 5.25 11.251 5.502 11.251 5.8125C11.251 6.123 10.999 6.375 10.6885 6.375Z" fill="#B1040E"/>
<path d="M10.6875 9.375H2.8125C2.502 9.375 2.25 9.123 2.25 8.8125C2.25 8.502 2.502 8.25 2.8125 8.25H10.6875C10.998 8.25 11.25 8.502 11.25 8.8125C11.25 9.123 10.998 9.375 10.6875 9.375Z" fill="#B1040E"/>
<path d="M10.6875 12.1875H2.8125C2.502 12.1875 2.25 11.9355 2.25 11.625C2.25 11.3145 2.502 11.0625 2.8125 11.0625H10.6875C10.998 11.0625 11.25 11.3145 11.25 11.625C11.25 11.9355 10.998 12.1875 10.6875 12.1875Z" fill="#B1040E"/>
<path d="M10.6875 15H2.8125C2.502 15 2.25 14.748 2.25 14.4375C2.25 14.127 2.502 13.875 2.8125 13.875H10.6875C10.998 13.875 11.25 14.127 11.25 14.4375C11.25 14.748 10.998 15 10.6875 15Z" fill="#B1040E"/>
</svg>
