<svg width="18" height="18" viewBox="0 0 18 18" fill="none" xmlns="http://www.w3.org/2000/svg">
<g clip-path="url(#clip0)">
<path d="M16.9656 7.55338C17.5935 7.07772 18 6.32443 18 5.47776C18 4.04247 16.8323 2.87476 15.397 2.87476C13.9617 2.87476 12.794 4.04247 12.794 5.47776C12.794 6.3162 13.1929 7.06285 13.8104 7.53922L9 10.3165L4.18957 7.53922C4.80709 7.06285 5.20597 6.3162 5.20597 5.47776C5.20597 4.04247 4.03829 2.87476 2.60297 2.87476C1.16764 2.87476 0 4.04247 0 5.47776C0 6.32443 0.406512 7.07772 1.03444 7.55338C0.406512 8.02908 0 8.78238 0 9.62905V15.1252H5.20597V12.0908L7.54341 13.4403C7.94057 13.6696 8.40322 13.7305 8.84616 13.6118C8.89826 13.5979 8.94892 13.5808 8.99887 13.5623C9.04943 13.5811 9.10107 13.5977 9.15381 13.6118C9.59678 13.7305 10.0594 13.6697 10.4566 13.4403L12.794 12.0908V15.1252H18V9.62905C18 8.78238 17.5935 8.02908 16.9656 7.55338ZM15.397 3.92944C16.2507 3.92944 16.9453 4.62403 16.9453 5.47776C16.9453 6.33149 16.2507 7.02604 15.397 7.02604C14.5433 7.02604 13.8487 6.33149 13.8487 5.47776C13.8487 4.62403 14.5433 3.92944 15.397 3.92944ZM1.05469 5.47776C1.05469 4.62403 1.74923 3.92944 2.603 3.92944C3.45677 3.92944 4.15132 4.62403 4.15132 5.47776C4.15132 6.33149 3.45677 7.02604 2.603 7.02604C1.74923 7.02604 1.05469 6.33149 1.05469 5.47776ZM4.15129 10.2641V14.0705H1.05469V9.62905C1.05469 8.77531 1.74923 8.08073 2.603 8.08073C2.87641 8.08073 3.14546 8.15333 3.38105 8.29072L8.1438 11.04C8.05395 11.1835 7.98497 11.341 7.9399 11.5092C7.85468 11.8272 7.86255 12.1552 7.95832 12.462L4.15129 10.2641ZM16.9453 14.0705H13.8487V10.2641L9.92925 12.5269C9.61302 12.7094 9.20732 12.6008 9.02479 12.2846C8.93637 12.1314 8.91288 11.953 8.95866 11.7822C9.00443 11.6114 9.11398 11.4686 9.26712 11.3801L14.619 8.29068C14.8545 8.15333 15.1236 8.08069 15.397 8.08069C16.2507 8.08069 16.9453 8.77528 16.9453 9.62901V14.0705Z" fill="#B1040E"/>
</g>
<defs>
<clipPath id="clip0">
<rect width="18" height="18" fill="white"/>
</clipPath>
</defs>
</svg>
