<svg width="18" height="18" viewBox="0 0 18 18" fill="none" xmlns="http://www.w3.org/2000/svg">
<path d="M14.2263 11.1502C13.8577 10.7665 13.4133 10.5614 12.9422 10.5614C12.4749 10.5614 12.0266 10.7627 11.6429 11.1464L10.4424 12.3431C10.3437 12.2899 10.2449 12.2405 10.1499 12.1911C10.0131 12.1228 9.88397 12.0582 9.7738 11.9898C8.64929 11.2756 7.62735 10.3448 6.6472 9.14053C6.17233 8.54029 5.85321 8.03502 5.62147 7.52215C5.93299 7.23722 6.22171 6.9409 6.50284 6.65597C6.60921 6.5496 6.71559 6.43943 6.82196 6.33305C7.61975 5.53526 7.61975 4.50193 6.82196 3.70413L5.78482 2.667C5.66706 2.54923 5.54549 2.42766 5.43152 2.30609C5.20357 2.07055 4.96424 1.82741 4.7173 1.59947C4.34879 1.23477 3.90811 1.04102 3.44463 1.04102C2.98115 1.04102 2.53286 1.23477 2.15296 1.59947C2.14916 1.60327 2.14916 1.60327 2.14536 1.60707L0.853692 2.91014C0.367417 3.39641 0.0900887 3.98906 0.0293043 4.67668C-0.0618723 5.786 0.264844 6.81933 0.515579 7.49556C1.13102 9.15573 2.05038 10.6943 3.42183 12.3431C5.0858 14.33 7.08789 15.899 9.3749 17.0045C10.2487 17.4186 11.415 17.9087 12.718 17.9923C12.7978 17.9961 12.8814 17.9999 12.9574 17.9999C13.835 17.9999 14.572 17.6845 15.1494 17.0577C15.1532 17.0501 15.1608 17.0463 15.1646 17.0387C15.3622 16.7994 15.5901 16.5828 15.8294 16.3511C15.9928 16.1953 16.16 16.032 16.3233 15.861C16.6994 15.4697 16.897 15.0138 16.897 14.5465C16.897 14.0755 16.6956 13.6234 16.3119 13.2435L14.2263 11.1502ZM15.5863 15.1506C15.5825 15.1506 15.5825 15.1544 15.5863 15.1506C15.4381 15.3101 15.2862 15.4545 15.1228 15.6141C14.8759 15.8496 14.6252 16.0965 14.3896 16.3739C14.0059 16.7842 13.5538 16.9779 12.9612 16.9779C12.9042 16.9779 12.8434 16.9779 12.7864 16.9741C11.6581 16.9019 10.6096 16.4613 9.82319 16.0851C7.67294 15.0442 5.78482 13.5664 4.21583 11.6935C2.92036 10.1321 2.05418 8.68845 1.48053 7.13845C1.12722 6.19249 0.998055 5.45548 1.05504 4.76026C1.09303 4.31577 1.26399 3.94727 1.57931 3.63195L2.87477 2.33648C3.06093 2.16173 3.25847 2.06675 3.45222 2.06675C3.69156 2.06675 3.88531 2.21111 4.00688 2.33268C4.01068 2.33648 4.01448 2.34028 4.01828 2.34408C4.25002 2.56062 4.47036 2.78477 4.7021 3.02411C4.81987 3.14567 4.94144 3.26724 5.06301 3.39261L6.10014 4.42974C6.50284 4.83244 6.50284 5.20475 6.10014 5.60744C5.98997 5.71761 5.8836 5.82778 5.77343 5.93416C5.45431 6.26087 5.15039 6.5648 4.81987 6.86112C4.81227 6.86872 4.80468 6.87252 4.80088 6.88011C4.47416 7.20683 4.53495 7.52595 4.60333 7.74249C4.60713 7.75389 4.61093 7.76529 4.61473 7.77668C4.88446 8.43012 5.26436 9.04556 5.84181 9.77877L5.84561 9.78257C6.89414 11.0742 7.99966 12.081 9.21914 12.8522C9.3749 12.951 9.53446 13.0307 9.68642 13.1067C9.82319 13.1751 9.95235 13.2397 10.0625 13.3081C10.0777 13.3157 10.0929 13.3271 10.1081 13.3347C10.2373 13.3992 10.3588 13.4296 10.4842 13.4296C10.7995 13.4296 10.9971 13.2321 11.0617 13.1675L12.3609 11.8682C12.4901 11.7391 12.6952 11.5833 12.9346 11.5833C13.1701 11.5833 13.3639 11.7315 13.4816 11.8606C13.4854 11.8644 13.4854 11.8644 13.4892 11.8682L15.5825 13.9615C15.9738 14.349 15.9738 14.7479 15.5863 15.1506Z" fill="#B1040E"/>
<path d="M9.72782 4.28157C10.7232 4.44872 11.6273 4.9198 12.3492 5.64162C13.071 6.36343 13.5383 7.2676 13.7092 8.26294C13.751 8.51368 13.9675 8.68843 14.2145 8.68843C14.2449 8.68843 14.2715 8.68463 14.3019 8.68084C14.583 8.63525 14.7691 8.36932 14.7236 8.08819C14.5184 6.8839 13.9485 5.78598 13.0786 4.916C12.2086 4.04603 11.1107 3.47617 9.90638 3.27103C9.62525 3.22544 9.36311 3.41159 9.31373 3.68892C9.26434 3.96625 9.44669 4.23598 9.72782 4.28157Z" fill="#B1040E"/>
<path d="M17.9792 7.94018C17.6411 5.95709 16.7066 4.15255 15.2705 2.71652C13.8345 1.28049 12.03 0.345932 10.0469 0.00781895C9.76955 -0.0415683 9.50742 0.148383 9.45803 0.425712C9.41245 0.706839 9.5986 0.968972 9.87973 1.01836C11.6501 1.31848 13.2647 2.15807 14.5487 3.43834C15.8328 4.72241 16.6686 6.33699 16.9687 8.10734C17.0105 8.35807 17.227 8.53283 17.474 8.53283C17.5044 8.53283 17.531 8.52903 17.5614 8.52523C17.8387 8.48344 18.0286 8.21751 17.9792 7.94018Z" fill="#B1040E"/>
</svg>
