<svg width="18" height="18" viewBox="0 0 18 18" fill="none" xmlns="http://www.w3.org/2000/svg">
<g clip-path="url(#clip0)">
<path d="M17.8282 17.0207L13.1809 12.4477C14.3979 11.1255 15.1457 9.37682 15.1457 7.45261C15.1451 3.33639 11.7547 0 7.57205 0C3.38944 0 -0.000976562 3.33639 -0.000976562 7.45261C-0.000976562 11.5688 3.38944 14.9052 7.57205 14.9052C9.37922 14.9052 11.0367 14.2802 12.3387 13.241L17.004 17.832C17.2313 18.056 17.6004 18.056 17.8277 17.832C18.0556 17.6081 18.0556 17.2447 17.8282 17.0207ZM7.57205 13.7586C4.0331 13.7586 1.16424 10.9353 1.16424 7.45261C1.16424 3.96991 4.0331 1.14663 7.57205 1.14663C11.111 1.14663 13.9799 3.96991 13.9799 7.45261C13.9799 10.9353 11.111 13.7586 7.57205 13.7586Z" fill="#FFFDFD"/>
</g>
<defs>
<clipPath id="clip0">
<rect width="18" height="18" fill="white"/>
</clipPath>
</defs>
</svg>
