<svg width="18" height="18" viewBox="0 0 18 18" fill="none" xmlns="http://www.w3.org/2000/svg">
<path d="M16.0664 8.50781H12.6819C12.9035 8.16254 13.0346 7.75427 13.042 7.31616C14.7174 6.71952 15.8555 5.13309 15.8555 3.32402V3.05859C15.8555 1.99241 14.9881 1.125 13.9219 1.125H13.043V0.527344C13.043 0.236109 12.8069 0 12.5156 0H5.48438C5.19314 0 4.95703 0.236109 4.95703 0.527344V7.27734C4.95703 7.73019 5.08999 8.15231 5.31812 8.50781H2.00391C1.7993 8.50781 1.61314 8.62618 1.52634 8.81149C1.43954 8.9968 1.46777 9.21558 1.5988 9.37276C2.40564 10.341 2.4512 11.7214 1.73616 12.7366C0.762363 12.8358 0 13.6606 0 14.6602V16.0664C0 17.1326 0.86741 18 1.93359 18H15.9961C16.2007 18 16.3869 17.8816 16.4737 17.6963C16.5605 17.511 16.5322 17.2922 16.4012 17.1351C15.5944 16.1668 15.5488 14.7864 16.2638 13.7712C17.2376 13.672 18 12.8472 18 11.8477V10.4414C18 9.37522 17.1326 8.50781 16.0664 8.50781ZM13.043 2.17969H13.9219C14.4065 2.17969 14.8008 2.57396 14.8008 3.05859V3.32402C14.8008 4.55084 14.1043 5.6418 13.043 6.17221V2.17969ZM6.01172 1.05469H11.9883V7.27734C11.9883 7.95582 11.4363 8.50781 10.7578 8.50781H7.24219C6.56371 8.50781 6.01172 7.95582 6.01172 7.27734V1.05469ZM2.63672 15.8906H14.7415C14.7916 16.2518 14.8934 16.6073 15.0472 16.9453H1.93359C1.44896 16.9453 1.05469 16.551 1.05469 16.0664V14.6602C1.05469 14.1755 1.44896 13.7812 1.93359 13.7812H15.0472C14.8934 14.1193 14.7916 14.4748 14.7415 14.8359H2.63672C2.34548 14.8359 2.10938 15.072 2.10938 15.3633C2.10938 15.6545 2.34548 15.8906 2.63672 15.8906ZM16.9453 11.8477C16.9453 12.3323 16.551 12.7266 16.0664 12.7266H2.95281C3.10658 12.3885 3.20836 12.033 3.25853 11.6719H15.3633C15.6545 11.6719 15.8906 11.4358 15.8906 11.1445C15.8906 10.8533 15.6545 10.6172 15.3633 10.6172H3.25853C3.20836 10.256 3.10662 9.90053 2.95281 9.5625H16.0664C16.551 9.5625 16.9453 9.95678 16.9453 10.4414V11.8477Z" fill="#B1040E"/>
</svg>
