<svg width="18" height="18" viewBox="0 0 18 18" fill="none" xmlns="http://www.w3.org/2000/svg">
<path d="M8.87161 8.67068C10.0628 8.67068 11.0941 8.24345 11.9371 7.40053C12.7797 6.55774 13.2071 5.52654 13.2071 4.33521C13.2071 3.14429 12.7799 2.11295 11.9369 1.26988C11.094 0.427231 10.0627 0 8.87161 0C7.68028 0 6.64908 0.427231 5.80629 1.27002C4.9635 2.11281 4.53613 3.14415 4.53613 4.33521C4.53613 5.52654 4.9635 6.55788 5.80629 7.40067C6.64935 8.24332 7.68069 8.67068 8.87161 8.67068ZM6.55226 2.01585C7.19894 1.36917 7.95755 1.05482 8.87161 1.05482C9.78554 1.05482 10.5443 1.36917 11.1911 2.01585C11.8378 2.66267 12.1523 3.42142 12.1523 4.33521C12.1523 5.24927 11.8378 6.00787 11.1911 6.65469C10.5443 7.30151 9.78554 7.61586 8.87161 7.61586C7.95782 7.61586 7.19922 7.30138 6.55226 6.65469C5.90544 6.00801 5.59096 5.24927 5.59096 4.33521C5.59096 3.42142 5.90544 2.66267 6.55226 2.01585Z" fill="#B1040E"/>
<path d="M16.4577 13.8412C16.4333 13.4905 16.3842 13.1079 16.3118 12.7039C16.2388 12.2968 16.1447 11.912 16.0321 11.5603C15.9156 11.1968 15.7576 10.8378 15.5619 10.4938C15.359 10.1368 15.1206 9.82587 14.8531 9.57002C14.5734 9.30237 14.2309 9.08717 13.8348 8.93021C13.4401 8.77406 13.0027 8.69496 12.5349 8.69496C12.3511 8.69496 12.1734 8.77036 11.8302 8.99379C11.619 9.13153 11.3719 9.29083 11.0962 9.46703C10.8604 9.61726 10.541 9.75803 10.1464 9.88547C9.76149 10.01 9.37065 10.0732 8.98476 10.0732C8.59914 10.0732 8.2083 10.01 7.82309 9.88547C7.42896 9.75816 7.10939 9.6174 6.87401 9.46716C6.60086 9.29262 6.35367 9.13332 6.1393 8.99365C5.79639 8.77022 5.61868 8.69482 5.43494 8.69482C4.96692 8.69482 4.52966 8.77406 4.13512 8.93034C3.73933 9.08704 3.3967 9.30223 3.11668 9.57016C2.84917 9.82614 2.61076 10.1369 2.40807 10.4938C2.21265 10.8378 2.05444 11.1967 1.93799 11.5605C1.82552 11.9122 1.73145 12.2968 1.65839 12.7039C1.58588 13.1073 1.53685 13.4901 1.51254 13.8416C1.48865 14.1854 1.47656 14.5431 1.47656 14.9046C1.47656 15.8442 1.77525 16.6048 2.36426 17.1658C2.94598 17.7194 3.71558 18.0001 4.65175 18.0001H13.3189C14.2548 18.0001 15.0244 17.7194 15.6062 17.1658C16.1954 16.6053 16.494 15.8443 16.494 14.9044C16.4939 14.5417 16.4817 14.184 16.4577 13.8412ZM14.8789 16.4016C14.4945 16.7674 13.9842 16.9453 13.3187 16.9453H4.65175C3.98611 16.9453 3.4758 16.7674 3.09155 16.4017C2.71458 16.0429 2.53139 15.553 2.53139 14.9046C2.53139 14.5673 2.54251 14.2343 2.56476 13.9146C2.58646 13.6009 2.63081 13.2563 2.69659 12.8902C2.76155 12.5286 2.84422 12.1893 2.94255 11.8821C3.0369 11.5875 3.16557 11.2958 3.32515 11.0149C3.47745 10.7471 3.65268 10.5173 3.84604 10.3322C4.0269 10.159 4.25487 10.0173 4.52348 9.91101C4.77191 9.81268 5.0511 9.75885 5.35419 9.75075C5.39113 9.77039 5.45691 9.80788 5.56348 9.87737C5.78032 10.0187 6.03026 10.1799 6.30656 10.3564C6.61803 10.5549 7.0193 10.7343 7.49872 10.8891C7.98885 11.0475 8.48872 11.128 8.98489 11.128C9.48106 11.128 9.98108 11.0475 10.4709 10.8892C10.9508 10.7342 11.3519 10.5549 11.6638 10.3561C11.9465 10.1754 12.1895 10.0188 12.4063 9.87737C12.5129 9.80801 12.5787 9.77039 12.6156 9.75075C12.9188 9.75885 13.198 9.81268 13.4466 9.91101C13.7151 10.0173 13.943 10.1592 14.1239 10.3322C14.3172 10.5172 14.4925 10.7469 14.6448 11.015C14.8045 11.2958 14.9333 11.5877 15.0275 11.882C15.126 12.1896 15.2088 12.5288 15.2736 12.8901C15.3392 13.2569 15.3837 13.6016 15.4054 13.9147V13.915C15.4278 14.2334 15.4391 14.5663 15.4392 14.9046C15.4391 15.5532 15.2559 16.0429 14.8789 16.4016Z" fill="#B1040E"/>
</svg>
