<svg width="18" height="18" viewBox="0 0 18 18" fill="none" xmlns="http://www.w3.org/2000/svg">
<path d="M16.418 0.0351562H1.58203C0.709699 0.0351562 0 0.744855 0 1.61719V16.3828C0 17.2551 0.709699 17.9648 1.58203 17.9648H16.418C17.2903 17.9648 18 17.2551 18 16.3828V1.61719C18 0.744855 17.2903 0.0351562 16.418 0.0351562ZM1.58203 1.08984H16.418C16.7087 1.08984 16.9453 1.32641 16.9453 1.61719V4.25391H1.05469V1.61719C1.05469 1.32641 1.29125 1.08984 1.58203 1.08984ZM16.418 16.9102H1.58203C1.29125 16.9102 1.05469 16.6736 1.05469 16.3828V5.30859H16.9453V16.3828C16.9453 16.6736 16.7087 16.9102 16.418 16.9102Z" fill="#B1040E"/>
<path d="M15.3281 6.36328H2.67188C2.38064 6.36328 2.14453 6.59939 2.14453 6.89062V10.0547C2.14453 10.3459 2.38064 10.582 2.67188 10.582H15.3281C15.6194 10.582 15.8555 10.3459 15.8555 10.0547V6.89062C15.8555 6.59939 15.6194 6.36328 15.3281 6.36328ZM14.8008 9.52734H3.19922V7.41797H14.8008V9.52734Z" fill="#B1040E"/>
<path d="M7.94531 11.6367H2.67188C2.38064 11.6367 2.14453 11.8728 2.14453 12.1641V15.3281C2.14453 15.6194 2.38064 15.8555 2.67188 15.8555H7.94531C8.23655 15.8555 8.47266 15.6194 8.47266 15.3281V12.1641C8.47266 11.8728 8.23655 11.6367 7.94531 11.6367ZM7.41797 14.8008H3.19922V12.6914H7.41797V14.8008Z" fill="#B1040E"/>
<path d="M2.67188 3.19922C2.96312 3.19922 3.19922 2.96312 3.19922 2.67188C3.19922 2.38063 2.96312 2.14453 2.67188 2.14453C2.38063 2.14453 2.14453 2.38063 2.14453 2.67188C2.14453 2.96312 2.38063 3.19922 2.67188 3.19922Z" fill="#B1040E"/>
<path d="M4.78125 3.19922C5.07249 3.19922 5.30859 2.96312 5.30859 2.67188C5.30859 2.38063 5.07249 2.14453 4.78125 2.14453C4.49001 2.14453 4.25391 2.38063 4.25391 2.67188C4.25391 2.96312 4.49001 3.19922 4.78125 3.19922Z" fill="#B1040E"/>
<path d="M6.89062 3.19922C7.18187 3.19922 7.41797 2.96312 7.41797 2.67188C7.41797 2.38063 7.18187 2.14453 6.89062 2.14453C6.59938 2.14453 6.36328 2.38063 6.36328 2.67188C6.36328 2.96312 6.59938 3.19922 6.89062 3.19922Z" fill="#B1040E"/>
<path d="M12.1641 3.19922H15.3281C15.6194 3.19922 15.8555 2.96311 15.8555 2.67188C15.8555 2.38064 15.6194 2.14453 15.3281 2.14453H12.1641C11.8728 2.14453 11.6367 2.38064 11.6367 2.67188C11.6367 2.96311 11.8728 3.19922 12.1641 3.19922Z" fill="#B1040E"/>
<path d="M15.3281 11.6367H10.0547C9.76345 11.6367 9.52734 11.8728 9.52734 12.1641V15.3281C9.52734 15.6194 9.76345 15.8555 10.0547 15.8555H15.3281C15.6194 15.8555 15.8555 15.6194 15.8555 15.3281V12.1641C15.8555 11.8728 15.6194 11.6367 15.3281 11.6367ZM14.8008 14.8008H10.582V12.6914H14.8008V14.8008Z" fill="#B1040E"/>
</svg>
