<svg width="18" height="18" viewBox="0 0 18 18" fill="none" xmlns="http://www.w3.org/2000/svg">
<g clip-path="url(#clip0)">
<path d="M17.7211 1.78802C17.5012 1.51913 17.1719 1.37109 16.7937 1.37109C16.5881 1.37109 16.3703 1.41435 16.1465 1.49991L0.909818 7.31621C0.101225 7.62479 -0.00767743 8.08786 -0.000673654 8.33643C0.00633012 8.58499 0.141325 9.0412 0.966123 9.30363C0.971067 9.30515 0.976011 9.30666 0.980955 9.30803L4.14145 10.2125L5.85065 15.1C6.08369 15.7663 6.60678 16.1803 7.21597 16.1803C7.60008 16.1803 7.97787 16.0193 8.30856 15.715L10.2634 13.915L13.0989 16.1981C13.0991 16.1984 13.0996 16.1985 13.0998 16.1988L13.1268 16.2205C13.1292 16.2224 13.1318 16.2245 13.1343 16.2264C13.4495 16.4708 13.7935 16.5999 14.1295 16.6001H14.1297C14.7862 16.6001 15.309 16.1141 15.4613 15.362L17.9579 3.03484C18.0581 2.54004 17.9741 2.09729 17.7211 1.78802ZM5.19874 10.0407L11.2963 6.92564L7.49956 10.96C7.43735 11.026 7.39326 11.1069 7.37156 11.1949L6.63946 14.1604L5.19874 10.0407ZM7.59404 14.9391C7.56877 14.9623 7.54336 14.983 7.51796 15.0021L8.19719 12.2511L9.43274 13.2461L7.59404 14.9391ZM16.9242 2.82541L14.4277 15.1528C14.4036 15.2707 14.3269 15.5452 14.1295 15.5452C14.032 15.5452 13.9095 15.4921 13.7841 15.3956L10.5712 12.8085C10.5708 12.8081 10.5702 12.8077 10.5697 12.8074L8.65793 11.268L14.1485 5.43384C14.3243 5.24707 14.3402 4.96101 14.1862 4.75584C14.0322 4.55067 13.753 4.48613 13.5246 4.60286L4.49411 9.21629L1.29063 8.29976L16.5226 2.48524C16.6513 2.43608 16.7411 2.42578 16.7937 2.42578C16.826 2.42578 16.8834 2.42963 16.9047 2.45586C16.9327 2.49005 16.9684 2.60664 16.9242 2.82541Z" fill="#B1040E"/>
</g>
<defs>
<clipPath id="clip0">
<rect width="18" height="18" fill="white"/>
</clipPath>
</defs>
</svg>
