<svg width="18" height="18" viewBox="0 0 18 18" fill="none" xmlns="http://www.w3.org/2000/svg">
<g clip-path="url(#clip0)">
<path d="M11.7705 8.19128L7.79394 6.01544C7.56529 5.89034 7.29502 5.89501 7.07091 6.0278C6.84665 6.16074 6.71289 6.39557 6.71289 6.65622V10.9705C6.71289 11.2299 6.84582 11.4644 7.06857 11.5974C7.18489 11.6669 7.31384 11.7018 7.44306 11.7018C7.56144 11.7018 7.68009 11.6726 7.78927 11.6138L11.766 9.47544C12.0021 9.34841 12.1494 9.103 12.1505 8.8348C12.1515 8.5666 12.0059 8.32009 11.7705 8.19128ZM7.76771 10.4278V7.20334L10.7398 8.82958L7.76771 10.4278Z" fill="#B1040E"/>
<path d="M17.8675 5.39743L17.8667 5.38919C17.8515 5.24431 17.6997 3.95562 17.0732 3.30015C16.3491 2.52919 15.5282 2.43553 15.1333 2.39062C15.1006 2.38692 15.0707 2.38348 15.0439 2.37991L15.0125 2.37662C12.6329 2.20358 9.0391 2.17996 9.00312 2.17982L8.99996 2.17969L8.99681 2.17982C8.96083 2.17996 5.36707 2.20358 2.96602 2.37662L2.9343 2.37991C2.90876 2.38335 2.8806 2.3865 2.84998 2.39007C2.45969 2.43512 1.64753 2.52891 0.921337 3.32775C0.324645 3.97622 0.15216 5.23731 0.134445 5.37903L0.132385 5.39743C0.127029 5.45772 0 6.89294 0 8.33379V9.68071C0 11.1216 0.127029 12.5568 0.132385 12.6172L0.133346 12.6263C0.148589 12.7688 0.3002 14.0339 0.923809 14.6896C1.60468 15.4348 2.4656 15.5334 2.92867 15.5864C3.00187 15.5948 3.0649 15.6019 3.10788 15.6095L3.14949 15.6152C4.52347 15.746 8.83133 15.8104 9.01397 15.813L9.01947 15.8131L9.02496 15.813C9.06094 15.8128 12.6546 15.7892 15.0342 15.6162L15.0656 15.6129C15.0957 15.6089 15.1295 15.6053 15.1666 15.6015C15.5547 15.5603 16.3624 15.4747 17.0786 14.6867C17.6753 14.0381 17.8479 12.7771 17.8655 12.6355L17.8675 12.6171C17.8729 12.5566 18.0001 11.1216 18.0001 9.68071V8.33379C17.9999 6.89294 17.8729 5.45786 17.8675 5.39743ZM16.9451 9.68071C16.9451 11.0143 16.8287 12.3877 16.8177 12.5138C16.7729 12.8611 16.5909 13.659 16.3002 13.975C15.852 14.4681 15.3915 14.517 15.0553 14.5526C15.0147 14.5568 14.9771 14.561 14.943 14.5652C12.6414 14.7317 9.1833 14.7572 9.024 14.7582C8.84533 14.7556 4.60051 14.6906 3.26842 14.5669C3.20017 14.5557 3.12642 14.5472 3.04869 14.5384C2.65442 14.4933 2.11472 14.4315 1.69972 13.975L1.68997 13.9645C1.40432 13.6669 1.22758 12.9208 1.18267 12.5179C1.1743 12.4226 1.05482 11.033 1.05482 9.68071V8.33379C1.05482 7.00171 1.171 5.62979 1.18226 5.50112C1.23568 5.09201 1.42108 4.34247 1.69972 4.03953C2.16169 3.53141 2.64879 3.47511 2.97097 3.43789C3.00173 3.43432 3.03043 3.43103 3.05693 3.42759C5.39207 3.26033 8.875 3.23547 8.99996 3.23451C9.12493 3.23533 12.6066 3.26033 14.921 3.42759C14.9495 3.43116 14.9805 3.43473 15.0139 3.43858C15.3452 3.47634 15.8461 3.53347 16.3057 4.02374L16.31 4.02827C16.5956 4.32586 16.7724 5.08501 16.8173 5.49603C16.8252 5.58599 16.9451 6.97863 16.9451 8.33379V9.68071Z" fill="#B1040E"/>
</g>
<defs>
<clipPath id="clip0">
<rect width="18" height="17.9999" fill="white"/>
</clipPath>
</defs>
</svg>
