<svg width="100" height="100" viewBox="0 0 100 100" fill="none" xmlns="http://www.w3.org/2000/svg">
<path d="M92.1875 39.0625H39.0625V60.9375H92.1875V39.0625Z" fill="#B1040E"/>
<path d="M23.0016 67.1875H14.4984L13.2203 63.35L9.60312 65.1594L3.59063 59.1469L5.4 55.5297L1.5625 54.2516V45.75L5.4 44.4719L3.59063 40.8547L9.60312 34.8422L13.2203 36.6516L14.4984 32.8125H23L24.2781 36.65L27.8953 34.8406L33.9078 40.8531L32.0984 44.4703L35.9375 45.7484V54.25L32.1 55.5281L33.9094 59.1453L27.8969 65.1578L24.2797 63.3484L23.0016 67.1875Z" fill="#B1040E"/>
<path d="M26.5625 50C26.5625 45.6922 23.0578 42.1875 18.75 42.1875C14.4422 42.1875 10.9375 45.6922 10.9375 50C10.9375 54.3078 14.4422 57.8125 18.75 57.8125C23.0578 57.8125 26.5625 54.3078 26.5625 50ZM14.0625 50C14.0625 47.4156 16.1656 45.3125 18.75 45.3125C21.3344 45.3125 23.4375 47.4156 23.4375 50C23.4375 52.5844 21.3344 54.6875 18.75 54.6875C16.1656 54.6875 14.0625 52.5844 14.0625 50Z" fill="#323232"/>
<path d="M98.4375 32.8125H89.0625V1.5625H30.6031L17.1875 14.9781V32.8125H20.3125V17.1875H32.8125V4.6875H85.9375V32.8125H35.9375V35.9375H95.3125V64.0625H35.9375V67.1875H85.9375V95.3125H20.3125V67.1875H17.1875V98.4375H89.0625V67.1875H98.4375V32.8125ZM22.5219 14.0625L29.6875 6.89687V14.0625H22.5219Z" fill="#323232"/>
<path d="M42.1875 39.0625H39.0625V48.4375H42.1875V39.0625Z" fill="#323232"/>
<path d="M60.9375 39.0625H57.8125V48.4375H60.9375V39.0625Z" fill="#323232"/>
<path d="M67.1875 39.0625H64.0625V48.4375H67.1875V39.0625Z" fill="#323232"/>
<path d="M85.9375 39.0625H82.8125V48.4375H85.9375V39.0625Z" fill="#323232"/>
<path d="M92.1875 39.0625H89.0625V48.4375H92.1875V39.0625Z" fill="#323232"/>
<path d="M50 39.0625C47.4156 39.0625 45.3125 41.1656 45.3125 43.75C45.3125 46.3344 47.4156 48.4375 50 48.4375C52.5844 48.4375 54.6875 46.3344 54.6875 43.75C54.6875 41.1656 52.5844 39.0625 50 39.0625ZM50 45.3125C49.1375 45.3125 48.4375 44.6109 48.4375 43.75C48.4375 42.8891 49.1375 42.1875 50 42.1875C50.8625 42.1875 51.5625 42.8891 51.5625 43.75C51.5625 44.6109 50.8625 45.3125 50 45.3125Z" fill="#323232"/>
<path d="M75 39.0625C72.4156 39.0625 70.3125 41.1656 70.3125 43.75C70.3125 46.3344 72.4156 48.4375 75 48.4375C77.5844 48.4375 79.6875 46.3344 79.6875 43.75C79.6875 41.1656 77.5844 39.0625 75 39.0625ZM75 45.3125C74.1375 45.3125 73.4375 44.6109 73.4375 43.75C73.4375 42.8891 74.1375 42.1875 75 42.1875C75.8625 42.1875 76.5625 42.8891 76.5625 43.75C76.5625 44.6109 75.8625 45.3125 75 45.3125Z" fill="#323232"/>
<path d="M92.1875 51.5625H89.0625V60.9375H92.1875V51.5625Z" fill="#323232"/>
<path d="M73.4375 51.5625H70.3125V60.9375H73.4375V51.5625Z" fill="#323232"/>
<path d="M54.6875 51.5625H51.5625V60.9375H54.6875V51.5625Z" fill="#323232"/>
<path d="M48.4375 51.5625H45.3125V60.9375H48.4375V51.5625Z" fill="#323232"/>
<path d="M42.1875 51.5625H39.0625V60.9375H42.1875V51.5625Z" fill="#323232"/>
<path d="M76.5625 56.25C76.5625 58.8344 78.6656 60.9375 81.25 60.9375C83.8344 60.9375 85.9375 58.8344 85.9375 56.25C85.9375 53.6656 83.8344 51.5625 81.25 51.5625C78.6656 51.5625 76.5625 53.6656 76.5625 56.25ZM82.8125 56.25C82.8125 57.1109 82.1125 57.8125 81.25 57.8125C80.3875 57.8125 79.6875 57.1109 79.6875 56.25C79.6875 55.3891 80.3875 54.6875 81.25 54.6875C82.1125 54.6875 82.8125 55.3891 82.8125 56.25Z" fill="#323232"/>
<path d="M62.5 60.9375C65.0844 60.9375 67.1875 58.8344 67.1875 56.25C67.1875 53.6656 65.0844 51.5625 62.5 51.5625C59.9156 51.5625 57.8125 53.6656 57.8125 56.25C57.8125 58.8344 59.9156 60.9375 62.5 60.9375ZM62.5 54.6875C63.3625 54.6875 64.0625 55.3891 64.0625 56.25C64.0625 57.1109 63.3625 57.8125 62.5 57.8125C61.6375 57.8125 60.9375 57.1109 60.9375 56.25C60.9375 55.3891 61.6375 54.6875 62.5 54.6875Z" fill="#323232"/>
<path d="M82.8125 7.8125H79.6875V10.9375H82.8125V7.8125Z" fill="#323232"/>
<path d="M76.5625 7.8125H54.6875V10.9375H76.5625V7.8125Z" fill="#323232"/>
<path d="M82.8125 14.0625H35.9375V17.1875H82.8125V14.0625Z" fill="#323232"/>
<path d="M26.5625 20.3125H23.4375V23.4375H26.5625V20.3125Z" fill="#323232"/>
<path d="M82.8125 20.3125H29.6875V23.4375H82.8125V20.3125Z" fill="#323232"/>
<path d="M82.8125 26.5625H23.4375V29.6875H82.8125V26.5625Z" fill="#323232"/>
<path d="M26.5625 70.3125H23.4375V73.4375H26.5625V70.3125Z" fill="#323232"/>
<path d="M82.8125 70.3125H29.6875V73.4375H82.8125V70.3125Z" fill="#323232"/>
<path d="M82.8125 76.5625H42.1875V79.6875H82.8125V76.5625Z" fill="#323232"/>
<path d="M39.0625 76.5625H23.4375V79.6875H39.0625V76.5625Z" fill="#323232"/>
<path d="M82.8125 82.8125H23.4375V85.9375H82.8125V82.8125Z" fill="#323232"/>
<path d="M82.8125 89.0625H79.6875V92.1875H82.8125V89.0625Z" fill="#323232"/>
<path d="M76.5625 89.0625H23.4375V92.1875H76.5625V89.0625Z" fill="#323232"/>
</svg>
