<svg width="100" height="100" viewBox="0 0 100 100" fill="none" xmlns="http://www.w3.org/2000/svg">
<path d="M53.125 71.875H21.875V90.625H53.125V71.875Z" fill="#B1040E"/>
<path d="M78.125 71.875H59.375V90.625H78.125V71.875Z" fill="#B1040E"/>
<path d="M96.875 23.4375H3.125V60.9375H96.875V23.4375Z" fill="#B1040E"/>
<path d="M98.4375 1.5625H1.5625V82.8125H14.0625V93.75C14.0625 96.3344 16.1656 98.4375 18.75 98.4375H81.25C83.8344 98.4375 85.9375 96.3344 85.9375 93.75V82.8125H98.4375V1.5625ZM95.3125 4.6875V14.0625H4.6875V4.6875H95.3125ZM82.8125 93.75C82.8125 94.6109 82.1109 95.3125 81.25 95.3125H18.75C17.8891 95.3125 17.1875 94.6109 17.1875 93.75V68.75C17.1875 67.8891 17.8891 67.1875 18.75 67.1875H40.2953C41.225 67.1875 42.1234 66.9156 42.8953 66.4L46.0078 64.325C46.2656 64.1531 46.5656 64.0625 46.875 64.0625H81.25C82.1109 64.0625 82.8125 64.7641 82.8125 65.625V93.75ZM85.9375 79.6875V65.625C85.9375 63.0406 83.8344 60.9375 81.25 60.9375H46.875C45.9469 60.9375 45.0469 61.2094 44.275 61.725L41.1609 63.8C40.9047 63.9719 40.6047 64.0625 40.2953 64.0625H18.75C16.1656 64.0625 14.0625 66.1656 14.0625 68.75V79.6875H4.6875V17.1875H95.3125V79.6875H85.9375Z" fill="#323232"/>
<path d="M10.9375 7.8125H7.8125V10.9375H10.9375V7.8125Z" fill="#323232"/>
<path d="M17.1875 7.8125H14.0625V10.9375H17.1875V7.8125Z" fill="#323232"/>
<path d="M23.4375 7.8125H20.3125V10.9375H23.4375V7.8125Z" fill="#323232"/>
<path d="M20.3125 92.1875H54.6875V70.3125H20.3125V92.1875ZM23.4375 85.9375H26.5625V89.0625H23.4375V85.9375ZM45.3125 82.8125H42.1875V79.6875H45.3125V82.8125ZM48.4375 79.6875H51.5625V82.8125H48.4375V79.6875ZM35.9375 82.8125V79.6875H39.0625V82.8125H35.9375ZM45.3125 85.9375V89.0625H29.6875V85.9375H45.3125ZM42.1875 76.5625V73.4375H45.3125V76.5625H42.1875ZM39.0625 76.5625H35.9375V73.4375H39.0625V76.5625ZM32.8125 76.5625H29.6875V73.4375H32.8125V76.5625ZM32.8125 79.6875V82.8125H29.6875V79.6875H32.8125ZM26.5625 82.8125H23.4375V79.6875H26.5625V82.8125ZM48.4375 89.0625V85.9375H51.5625V89.0625H48.4375ZM51.5625 76.5625H48.4375V73.4375H51.5625V76.5625ZM26.5625 73.4375V76.5625H23.4375V73.4375H26.5625Z" fill="#323232"/>
<path d="M57.8125 92.1875H79.6875V70.3125H57.8125V92.1875ZM60.9375 85.9375H64.0625V89.0625H60.9375V85.9375ZM70.3125 79.6875V82.8125H67.1875V79.6875H70.3125ZM67.1875 76.5625V73.4375H70.3125V76.5625H67.1875ZM73.4375 79.6875H76.5625V82.8125H73.4375V79.6875ZM70.3125 85.9375V89.0625H67.1875V85.9375H70.3125ZM64.0625 82.8125H60.9375V79.6875H64.0625V82.8125ZM73.4375 89.0625V85.9375H76.5625V89.0625H73.4375ZM76.5625 76.5625H73.4375V73.4375H76.5625V76.5625ZM64.0625 73.4375V76.5625H60.9375V73.4375H64.0625Z" fill="#323232"/>
<path d="M58.3984 29.9938L72.4984 41.2735L58.3984 52.5532L60.3516 54.9939L77.5016 41.2735L60.3516 27.5532L58.3984 29.9938Z" fill="#323232"/>
<path d="M39.649 27.5532L22.499 41.2735L39.649 54.9939L41.6021 52.5532L27.5021 41.2735L41.6021 29.9938L39.649 27.5532Z" fill="#323232"/>
<path d="M54.0511 24.4984L42.9893 57.0447L45.948 58.0503L57.0099 25.5041L54.0511 24.4984Z" fill="#323232"/>
</svg>
