<svg width="100" height="100" viewBox="0 0 100 100" fill="none" xmlns="http://www.w3.org/2000/svg">
<path d="M14.0625 31.25H17.1875V57.8687H14.0625V31.25Z" fill="#323232"/>
<path d="M46.975 76.3547L46.7734 73.2359C58.9187 72.4516 64.0625 69.7094 64.0625 68.75V31.25H67.1875V68.75C67.1875 74.5953 51.7172 76.0484 46.975 76.3547Z" fill="#323232"/>
<path d="M48.4375 80.9016V69.0969L44.0594 67.9828C43.8734 67.4859 43.6656 66.9844 43.4344 66.4891L45.7469 62.6L37.4 54.2531L33.5109 56.5641C33.0156 56.3344 32.5156 56.125 32.0172 55.9391L30.9016 51.5625H19.0969L17.9828 55.9406C17.4844 56.1266 16.9844 56.3359 16.4891 56.5656L12.6 54.2547L4.25312 62.6016L6.56563 66.4906C6.33594 66.9859 6.12656 67.4875 5.94063 67.9844L1.5625 69.0984V80.9031L5.94063 82.0172C6.12656 82.5141 6.33438 83.0156 6.56563 83.5109L4.25312 87.4L12.6 95.7469L16.4891 93.4359C16.9844 93.6656 17.4844 93.875 17.9828 94.0609L19.0984 98.4375H30.9031L32.0172 94.0594C32.5156 93.8734 33.0156 93.6641 33.5109 93.4344L37.4 95.7453L45.7469 87.3984L43.4344 83.5094C43.6641 83.0141 43.8734 82.5125 44.0594 82.0156L48.4375 80.9016ZM25 87.5C18.0969 87.5 12.5 81.9031 12.5 75C12.5 68.0969 18.0969 62.5 25 62.5C31.9031 62.5 37.5 68.0969 37.5 75C37.5 81.9031 31.9031 87.5 25 87.5Z" fill="#B1040E"/>
<path d="M25 89.0625C17.2469 89.0625 10.9375 82.7547 10.9375 75C10.9375 67.2453 17.2469 60.9375 25 60.9375C32.7531 60.9375 39.0625 67.2453 39.0625 75C39.0625 82.7547 32.7531 89.0625 25 89.0625ZM25 64.0625C18.9688 64.0625 14.0625 68.9703 14.0625 75C14.0625 81.0297 18.9688 85.9375 25 85.9375C31.0312 85.9375 35.9375 81.0297 35.9375 75C35.9375 68.9703 31.0312 64.0625 25 64.0625Z" fill="#323232"/>
<path d="M25 82.8125C20.6922 82.8125 17.1875 79.3078 17.1875 75C17.1875 70.6922 20.6922 67.1875 25 67.1875C29.3078 67.1875 32.8125 70.6922 32.8125 75C32.8125 79.3078 29.3078 82.8125 25 82.8125ZM25 70.3125C22.4156 70.3125 20.3125 72.4156 20.3125 75C20.3125 77.5844 22.4156 79.6875 25 79.6875C27.5844 79.6875 29.6875 77.5844 29.6875 75C29.6875 72.4156 27.5844 70.3125 25 70.3125Z" fill="#323232"/>
<path d="M79.6875 71.875H92.1875V78.125H79.6875V71.875Z" fill="#B1040E"/>
<path d="M79.6875 9.375H92.1875V28.125H79.6875V9.375Z" fill="#B1040E"/>
<path d="M40.625 39.0625C49.8125 39.0625 67.1875 37.4297 67.1875 31.25C67.1875 25.0703 49.8125 23.4375 40.625 23.4375C31.4375 23.4375 14.0625 25.0703 14.0625 31.25C14.0625 37.4297 31.4375 39.0625 40.625 39.0625ZM40.625 26.5625C55.85 26.5625 64.0625 29.8891 64.0625 31.25C64.0625 32.6109 55.85 35.9375 40.625 35.9375C25.4 35.9375 17.1875 32.6109 17.1875 31.25C17.1875 29.8891 25.4 26.5625 40.625 26.5625Z" fill="#323232"/>
<path d="M58.2252 43.7671C59.3189 43.539 60.3752 43.2781 61.3689 42.9921L60.5064 39.989C59.5877 40.2531 58.6033 40.4937 57.583 40.7093L58.2252 43.7671Z" fill="#323232"/>
<path d="M45.5602 45.2142C46.5961 45.1735 47.6555 45.1142 48.7305 45.036L48.5055 41.9204C47.4648 41.9954 46.4367 42.0517 45.4336 42.0923L45.5602 45.2142Z" fill="#323232"/>
<path d="M51.8996 44.7484C52.9574 44.6328 54.0168 44.4968 55.0652 44.3359L54.5918 41.2468C53.5871 41.4015 52.573 41.5312 51.5605 41.6406L51.8996 44.7484Z" fill="#323232"/>
<path d="M57.583 65.7983L58.2252 68.8561C59.3314 68.6249 60.3893 68.364 61.3689 68.0827L60.5064 65.0796C59.6002 65.339 58.6174 65.5827 57.583 65.7983Z" fill="#323232"/>
<path d="M51.5625 66.733L51.9016 69.8392C52.9594 69.7236 54.0188 69.5876 55.0672 69.4267L54.5937 66.3376C53.5891 66.4939 52.575 66.6236 51.5625 66.733Z" fill="#323232"/>
<path d="M67.1875 43.75H64.0625C64.0625 45.1109 55.85 48.4375 40.625 48.4375C25.4 48.4375 17.1875 45.1109 17.1875 43.75H14.0625C14.0625 49.9297 31.4375 51.5625 40.625 51.5625C49.8125 51.5625 67.1875 49.9297 67.1875 43.75Z" fill="#323232"/>
<path d="M44.4014 61.2562L45.7467 62.6016L44.6936 64.3734C55.6904 63.9469 67.1873 61.2734 67.1873 56.25H64.0623C64.0623 57.5625 57.3654 60.7891 44.4014 61.2562Z" fill="#323232"/>
<path d="M98.4375 35.9375V1.5625H73.4375V35.9375H84.375V43.9719C82.1891 44.5406 80.4781 46.2516 79.9094 48.4375H65.625V51.5625H79.9094C80.4781 53.7484 82.1891 55.4594 84.375 56.0281V64.0625H73.4375V98.4375H98.4375V64.0625H87.5V56.0281C90.1875 55.3297 92.1875 52.9047 92.1875 50C92.1875 47.0953 90.1875 44.6703 87.5 43.9719V35.9375H98.4375ZM95.3125 95.3125H76.5625V67.1875H95.3125V95.3125ZM89.0625 50C89.0625 51.7234 87.6609 53.125 85.9375 53.125C84.2141 53.125 82.8125 51.7234 82.8125 50C82.8125 48.2766 84.2141 46.875 85.9375 46.875C87.6609 46.875 89.0625 48.2766 89.0625 50ZM76.5625 4.6875H95.3125V32.8125H76.5625V4.6875Z" fill="#323232"/>
<path d="M79.6875 70.3125H92.1875V73.4375H79.6875V70.3125Z" fill="#323232"/>
<path d="M92.1875 82.8125H79.6875V92.1875H92.1875V82.8125ZM89.0625 89.0625H82.8125V85.9375H89.0625V89.0625Z" fill="#323232"/>
<path d="M79.6875 7.8125H92.1875V10.9375H79.6875V7.8125Z" fill="#323232"/>
<path d="M79.6875 14.0625H92.1875V17.1875H79.6875V14.0625Z" fill="#323232"/>
<path d="M79.6875 20.3125H92.1875V23.4375H79.6875V20.3125Z" fill="#323232"/>
<path d="M79.6875 26.5625H92.1875V29.6875H79.6875V26.5625Z" fill="#323232"/>
<path d="M79.6875 76.5625H92.1875V79.6875H79.6875V76.5625Z" fill="#323232"/>
<path d="M48.4375 29.6875H51.5625V32.8125H48.4375V29.6875Z" fill="#323232"/>
<path d="M42.1875 29.6875H45.3125V32.8125H42.1875V29.6875Z" fill="#323232"/>
<path d="M54.6875 29.6875H57.8125V32.8125H54.6875V29.6875Z" fill="#323232"/>
<path d="M23.4375 29.6875H26.5625V32.8125H23.4375V29.6875Z" fill="#323232"/>
<path d="M29.6875 29.6875H32.8125V32.8125H29.6875V29.6875Z" fill="#323232"/>
<path d="M35.9375 29.6875H39.0625V32.8125H35.9375V29.6875Z" fill="#323232"/>
</svg>
