<svg width="100" height="100" viewBox="0 0 100 100" fill="none" xmlns="http://www.w3.org/2000/svg">
<path d="M95.3125 28.125V76.5625H4.6875V34.375C4.6875 31.7906 6.79063 29.6875 9.375 29.6875H50V26.5625H9.375C5.06719 26.5625 1.5625 30.0672 1.5625 34.375V81.25C1.5625 85.5578 5.06719 89.0625 9.375 89.0625H29.6875V95.3125H23.4375V98.4375H76.5625V95.3125H70.3125V89.0625H90.625C94.9328 89.0625 98.4375 85.5578 98.4375 81.25V28.125H95.3125ZM67.1875 95.3125H32.8125V89.0625H67.1875V95.3125ZM90.625 85.9375H9.375C6.79063 85.9375 4.6875 83.8344 4.6875 81.25V79.6875H95.3125V81.25C95.3125 83.8344 93.2094 85.9375 90.625 85.9375Z" fill="#323232"/>
<path d="M50 37.5H20.3125V68.75H50V37.5Z" fill="#B1040E"/>
<path d="M94.5953 21.0297C94.0922 19.1016 93.325 17.2547 92.3047 15.5219L94.1203 11.8922L88.1094 5.87969L84.4797 7.69531C82.7469 6.67656 80.9 5.90781 78.9719 5.40469L77.6891 1.5625H69.1875L67.9062 5.40469C65.9781 5.90781 64.1313 6.675 62.3984 7.69531L58.7656 5.87969L52.7547 11.8906L54.5703 15.5203C53.5516 17.2531 52.7828 19.1 52.2797 21.0281L48.4375 22.3109V30.8125L52.2797 32.0938C52.7828 34.0219 53.55 35.8688 54.5703 37.6016L52.7547 41.2313L58.7672 47.2438L62.3969 45.4281C64.1297 46.4469 65.9766 47.2156 67.9047 47.7188L69.1859 51.5625H77.6875L78.9688 47.7203C80.8969 47.2172 82.7437 46.45 84.4766 45.4297L88.1063 47.2453L94.1188 41.2328L92.3031 37.6031C93.3219 35.8703 94.0906 34.0234 94.5938 32.0953L98.4375 30.8141V22.3125L94.5953 21.0297ZM73.4375 31.25C70.8484 31.25 68.75 29.1516 68.75 26.5625C68.75 23.9734 70.8484 21.875 73.4375 21.875C76.0266 21.875 78.125 23.9734 78.125 26.5625C78.125 29.1516 76.0266 31.25 73.4375 31.25Z" fill="#B1040E"/>
<path d="M73.4375 42.1875C64.8219 42.1875 57.8125 35.1781 57.8125 26.5625C57.8125 17.9469 64.8219 10.9375 73.4375 10.9375C82.0531 10.9375 89.0625 17.9469 89.0625 26.5625C89.0625 35.1781 82.0531 42.1875 73.4375 42.1875ZM73.4375 14.0625C66.5453 14.0625 60.9375 19.6703 60.9375 26.5625C60.9375 33.4547 66.5453 39.0625 73.4375 39.0625C80.3297 39.0625 85.9375 33.4547 85.9375 26.5625C85.9375 19.6703 80.3297 14.0625 73.4375 14.0625Z" fill="#323232"/>
<path d="M73.4375 32.8125C69.9906 32.8125 67.1875 30.0094 67.1875 26.5625C67.1875 23.1156 69.9906 20.3125 73.4375 20.3125C76.8844 20.3125 79.6875 23.1156 79.6875 26.5625C79.6875 30.0094 76.8844 32.8125 73.4375 32.8125ZM73.4375 23.4375C71.7141 23.4375 70.3125 24.8391 70.3125 26.5625C70.3125 28.2859 71.7141 29.6875 73.4375 29.6875C75.1609 29.6875 76.5625 28.2859 76.5625 26.5625C76.5625 24.8391 75.1609 23.4375 73.4375 23.4375Z" fill="#323232"/>
<path d="M17.1875 56.25H15.625C13.0406 56.25 10.9375 54.1469 10.9375 51.5625V50C10.9375 48.2766 9.53594 46.875 7.8125 46.875V43.75C9.53594 43.75 10.9375 42.3484 10.9375 40.625V39.0625C10.9375 36.4781 13.0406 34.375 15.625 34.375H17.1875V37.5H15.625C14.7641 37.5 14.0625 38.2 14.0625 39.0625V40.625C14.0625 42.4891 13.2422 44.1672 11.9422 45.3125C13.2422 46.4578 14.0625 48.1359 14.0625 50V51.5625C14.0625 52.425 14.7641 53.125 15.625 53.125H17.1875V56.25Z" fill="#323232"/>
<path d="M54.6875 70.3125H53.125V67.1875H54.6875C55.5484 67.1875 56.25 66.4875 56.25 65.625V64.0625C56.25 62.1984 57.0703 60.5203 58.3703 59.375C57.0703 58.2297 56.25 56.5516 56.25 54.6875V53.125C56.25 52.2625 55.5484 51.5625 54.6875 51.5625H53.125V48.4375H54.6875C57.2719 48.4375 59.375 50.5406 59.375 53.125V54.6875C59.375 56.4109 60.7766 57.8125 62.5 57.8125V60.9375C60.7766 60.9375 59.375 62.3391 59.375 64.0625V65.625C59.375 68.2094 57.2719 70.3125 54.6875 70.3125Z" fill="#323232"/>
<path d="M50 35.9375H20.3125V39.0625H50V35.9375Z" fill="#323232"/>
<path d="M50 42.1875H26.5625V45.3125H50V42.1875Z" fill="#323232"/>
<path d="M23.4375 42.1875H20.3125V45.3125H23.4375V42.1875Z" fill="#323232"/>
<path d="M50 48.4375H20.3125V51.5625H50V48.4375Z" fill="#323232"/>
<path d="M50 54.6875H20.3125V57.8125H50V54.6875Z" fill="#323232"/>
<path d="M50 60.9375H46.875V64.0625H50V60.9375Z" fill="#323232"/>
<path d="M43.75 60.9375H20.3125V64.0625H43.75V60.9375Z" fill="#323232"/>
<path d="M50 67.1875H20.3125V70.3125H50V67.1875Z" fill="#323232"/>
</svg>
