<svg width="100" height="100" viewBox="0 0 100 100" fill="none" xmlns="http://www.w3.org/2000/svg">
<path d="M92.1875 25H70.3125V71.875H92.1875V25Z" fill="#B1040E"/>
<path d="M60.9375 21.875H17.1875V53.125H60.9375V21.875Z" fill="#B1040E"/>
<path d="M60.9375 98.4375H1.5625V60.9375H60.9375V98.4375Z" fill="#B1040E"/>
<path d="M10.9375 1.5625V60.9375H14.0625V17.1875H64.0625V79.6875H60.9375V82.8125H98.4375V1.5625H10.9375ZM14.0625 4.6875H95.3125V14.0625H14.0625V4.6875ZM67.1875 79.6875V17.1875H95.3125V79.6875H67.1875Z" fill="#323232"/>
<path d="M20.3125 7.8125H17.1875V10.9375H20.3125V7.8125Z" fill="#323232"/>
<path d="M26.5625 7.8125H23.4375V10.9375H26.5625V7.8125Z" fill="#323232"/>
<path d="M32.8125 7.8125H29.6875V10.9375H32.8125V7.8125Z" fill="#323232"/>
<path d="M37.877 69.7659L46.3801 79.6877L37.877 89.6096L40.2488 91.6409L50.4957 79.6877L40.2488 67.7346L37.877 69.7659Z" fill="#323232"/>
<path d="M22.2508 67.7346L12.0039 79.6877L22.2508 91.6409L24.6227 89.6096L16.1195 79.6877L24.6227 69.7659L22.2508 67.7346Z" fill="#323232"/>
<path d="M32.8561 66.808L26.6123 91.8088L29.6427 92.5656L35.8864 67.5648L32.8561 66.808Z" fill="#323232"/>
<path d="M92.1875 23.4375H70.3125V26.5625H92.1875V23.4375Z" fill="#323232"/>
<path d="M92.1875 32.8125H70.3125V35.9375H92.1875V32.8125Z" fill="#323232"/>
<path d="M92.1875 42.1875H70.3125V45.3125H92.1875V42.1875Z" fill="#323232"/>
<path d="M92.1875 51.5625H70.3125V54.6875H92.1875V51.5625Z" fill="#323232"/>
<path d="M92.1875 60.9375H70.3125V64.0625H92.1875V60.9375Z" fill="#323232"/>
<path d="M92.1875 70.3125H70.3125V73.4375H92.1875V70.3125Z" fill="#323232"/>
<path d="M60.9375 20.3125H17.1875V23.4375H60.9375V20.3125Z" fill="#323232"/>
<path d="M60.9375 26.5625H17.1875V29.6875H60.9375V26.5625Z" fill="#323232"/>
<path d="M37.5 32.8125H17.1875V35.9375H37.5V32.8125Z" fill="#323232"/>
<path d="M60.9375 32.8125H40.625V35.9375H60.9375V32.8125Z" fill="#323232"/>
<path d="M60.9375 39.0625H17.1875V42.1875H60.9375V39.0625Z" fill="#323232"/>
<path d="M60.9375 45.3125H17.1875V48.4375H60.9375V45.3125Z" fill="#323232"/>
<path d="M60.9375 51.5625H17.1875V54.6875H60.9375V51.5625Z" fill="#323232"/>
</svg>
