<svg width="100" height="100" viewBox="0 0 100 100" fill="none" xmlns="http://www.w3.org/2000/svg">
<path d="M28.125 56.25V37.5H17.1875V64.0625H73.4375V56.25H28.125Z" fill="#B1040E"/>
<path d="M35.9375 32.8125H17.1875V20.3125H35.9375V32.8125Z" fill="#B1040E"/>
<path d="M59.375 32.8125H40.625V20.3125H59.375V32.8125Z" fill="#B1040E"/>
<path d="M90.625 26.5625H79.6875V1.5625H10.9375V26.5625H9.375C5.06719 26.5625 1.5625 30.0672 1.5625 34.375V81.25C1.5625 85.5578 5.06719 89.0625 9.375 89.0625H29.6875V95.3125H23.4375V98.4375H76.5625V95.3125H70.3125V89.0625H90.625C94.9328 89.0625 98.4375 85.5578 98.4375 81.25V34.375C98.4375 30.0672 94.9328 26.5625 90.625 26.5625ZM76.5625 39.0625H79.6875V48.4375H76.5625V39.0625ZM73.4375 42.1875H45.3125V39.0625H73.4375V42.1875ZM42.1875 47.7453L33.2609 44.3984C32.9922 44.2969 32.8125 44.0375 32.8125 43.75C32.8125 43.4625 32.9922 43.2031 33.2625 43.1016L42.1875 39.7547V47.7453ZM45.3125 45.3125H73.4375V48.4375H45.3125V45.3125ZM82.8125 39.0625H84.375C86.9594 39.0625 89.0625 41.1656 89.0625 43.75C89.0625 46.3344 86.9594 48.4375 84.375 48.4375H82.8125V39.0625ZM43.4656 35.9375L32.1656 40.175C30.6844 40.7297 29.6875 42.1672 29.6875 43.75C29.6875 45.3328 30.6844 46.7703 32.1641 47.325L43.4656 51.5625H76.5625V67.1875H14.0625V17.1875H76.5625V35.9375H43.4656ZM76.5625 4.6875V14.0625H14.0625V4.6875H76.5625ZM9.375 29.6875H10.9375V70.3125H79.6875V51.5625H84.375C88.6828 51.5625 92.1875 48.0578 92.1875 43.75C92.1875 39.4422 88.6828 35.9375 84.375 35.9375H79.6875V29.6875H90.625C93.2094 29.6875 95.3125 31.7906 95.3125 34.375V76.5625H4.6875V34.375C4.6875 31.7906 6.79063 29.6875 9.375 29.6875ZM67.1875 95.3125H32.8125V89.0625H67.1875V95.3125ZM90.625 85.9375H9.375C6.79063 85.9375 4.6875 83.8344 4.6875 81.25V79.6875H95.3125V81.25C95.3125 83.8344 93.2094 85.9375 90.625 85.9375Z" fill="#323232"/>
<path d="M20.3125 7.8125H17.1875V10.9375H20.3125V7.8125Z" fill="#323232"/>
<path d="M26.5625 7.8125H23.4375V10.9375H26.5625V7.8125Z" fill="#323232"/>
<path d="M32.8125 7.8125H29.6875V10.9375H32.8125V7.8125Z" fill="#323232"/>
<path d="M28.125 35.9375H17.1875V39.0625H28.125V35.9375Z" fill="#323232"/>
<path d="M26.5625 42.1875H17.1875V45.3125H26.5625V42.1875Z" fill="#323232"/>
<path d="M28.125 48.4375H17.1875V51.5625H28.125V48.4375Z" fill="#323232"/>
<path d="M73.4375 54.6875H17.1875V57.8125H73.4375V54.6875Z" fill="#323232"/>
<path d="M73.4375 60.9375H70.3125V64.0625H73.4375V60.9375Z" fill="#323232"/>
<path d="M67.1875 60.9375H17.1875V64.0625H67.1875V60.9375Z" fill="#323232"/>
</svg>
