<svg width="100" height="100" fill="none" xmlns="http://www.w3.org/2000/svg"><path d="M98.438 33.952V22.297l-4.272-1.369a23.337 23.337 0 00-1.436-3.483l2.05-3.982-8.24-8.241-3.984 2.05a23.33 23.33 0 00-3.483-1.436l-1.371-4.274H66.047l-1.369 4.272a23.339 23.339 0 00-3.483 1.436l-3.983-2.05-8.24 8.24 2.05 3.984a23.335 23.335 0 00-1.436 3.483l-4.273 1.371v11.655l4.271 1.369a23.356 23.356 0 001.436 3.483l-2.05 3.98 8.24 8.242 3.984-2.05a23.329 23.329 0 003.483 1.436l1.371 4.275h11.655l1.369-4.272a23.337 23.337 0 003.483-1.436l3.982 2.05 8.241-8.24-2.05-3.982a23.367 23.367 0 001.436-3.483l4.273-1.373zM71.874 43.75c-8.63 0-15.625-6.995-15.625-15.625 0-8.63 6.995-15.625 15.625-15.625 8.63 0 15.625 6.995 15.625 15.625 0 8.63-6.995 15.625-15.625 15.625zm-51.561 0h18.75v14.063h-18.75V43.75zm-6.25 25h18.75v12.5h-18.75v-12.5z" fill="#B1040E"/><path d="M71.875 45.313c9.477 0 17.188-7.711 17.188-17.188 0-9.477-7.711-17.188-17.188-17.188-9.477 0-17.188 7.711-17.188 17.188 0 9.477 7.711 17.188 17.188 17.188zm0-31.25c7.753 0 14.063 6.309 14.063 14.062 0 7.753-6.31 14.063-14.063 14.063-7.753 0-14.063-6.31-14.063-14.063 0-7.753 6.31-14.063 14.063-14.063z" fill="#474747"/><path d="M77.813 35.312l5.39-7.187-5.39-7.188-2.5 1.875 3.984 5.313-3.984 5.312 2.5 1.875zm-9.375-1.875l-3.985-5.312 3.984-5.313-2.5-1.875-5.39 7.188 5.39 7.187 2.5-1.875zm.352 5.409l3.137-21.876 3.094.444-3.138 21.876-3.094-.444zM10.938 23.438a3.128 3.128 0 00-3.126 3.125v3.125a3.128 3.128 0 003.125 3.125h15.626a3.128 3.128 0 003.125-3.126v-3.125a3.128 3.128 0 00-3.125-3.125H10.938zm9.374 3.125v3.125h-3.125v-3.125h3.125zm-9.375 0h3.126v3.125h-3.126v-3.125zm12.5 3.125v-3.125h3.125l.002 3.125h-3.127zm48.438 53.125a4.693 4.693 0 00-4.688 4.687 4.693 4.693 0 004.688 4.688 4.693 4.693 0 004.688-4.688 4.693 4.693 0 00-4.688-4.688zm0 6.25c-.86 0-1.563-.702-1.563-1.563 0-.86.702-1.563 1.563-1.563.86 0 1.563.702 1.563 1.563 0 .86-.702 1.563-1.563 1.563z" fill="#474747"/><path d="M73.438 76.688V57.811h-3.126v18.876c-5.292.762-9.374 5.314-9.374 10.812 0 .531.051 1.05.124 1.563H6.25c-.86 0-1.563-.702-1.563-1.563V39.062H50.89l.133-.257a23.501 23.501 0 01-1.211-2.867H4.688V21.874c0-.86.701-1.563 1.562-1.563h43.56a23.44 23.44 0 011.212-2.867l-.134-.258H6.25a4.693 4.693 0 00-4.688 4.688V87.5a4.693 4.693 0 004.688 4.688h55.758c1.76 3.689 5.515 6.25 9.867 6.25 6.031 0 10.938-4.907 10.938-10.938 0-5.498-4.083-10.05-9.376-10.813zm-1.563 18.624c-4.308 0-7.813-3.504-7.813-7.812s3.505-7.813 7.813-7.813 7.813 3.505 7.813 7.813-3.505 7.813-7.813 7.813zM92.188 76.85v-5.622l-6.25-6.25V53.125h-3.126v13.147l6.25 6.25v4.328c-1.814.647-3.124 2.366-3.124 4.4a4.693 4.693 0 004.687 4.688 4.693 4.693 0 004.688-4.688c0-2.034-1.311-3.753-3.126-4.4zm-1.563 5.963c-.86 0-1.563-.702-1.563-1.563 0-.86.702-1.563 1.563-1.563.86 0 1.563.702 1.563 1.563 0 .86-.702 1.563-1.563 1.563z" fill="#474747"/><path d="M48.438 81.25a4.693 4.693 0 004.687 4.688 4.693 4.693 0 004.688-4.688c0-2.034-1.311-3.753-3.126-4.4v-4.328l6.25-6.25V53.125h-3.124v11.853l-6.25 6.25v5.622c-1.815.647-3.126 2.366-3.126 4.4zm4.687 1.563c-.86 0-1.563-.702-1.563-1.563 0-.86.702-1.563 1.563-1.563.86 0 1.563.702 1.563 1.563 0 .86-.702 1.563-1.563 1.563zm-37.5-37.5h1.563v-3.126h-1.563a4.693 4.693 0 00-4.688 4.688c0 .86-.701 1.563-1.562 1.563H7.812v3.124h1.563c.86 0 1.563.702 1.563 1.563a4.693 4.693 0 004.687 4.688h1.563v-3.126h-1.563c-.86 0-1.563-.701-1.563-1.562 0-1.205-.47-2.294-1.218-3.125a4.658 4.658 0 001.219-3.125c0-.86.701-1.563 1.562-1.563zm4.688-3.125h18.75v3.124h-18.75v-3.124zm0 6.25h18.75v3.124h-18.75v-3.124zm15.625 6.25h3.124v3.124h-3.124v-3.124zm-15.625 0h12.5v3.124h-12.5v-3.124zm21.875 23.437c0-.86.701-1.563 1.562-1.563h1.563v-3.124H43.75c-.86 0-1.563-.702-1.563-1.563a4.693 4.693 0 00-4.687-4.688h-1.563v3.126H37.5c.86 0 1.563.701 1.563 1.562 0 1.205.47 2.294 1.218 3.125a4.65 4.65 0 00-1.218 3.125c0 .86-.702 1.563-1.563 1.563h-1.563v3.124H37.5a4.693 4.693 0 004.688-4.687zm-28.125 1.563h18.75v3.124h-18.75v-3.124zm6.25-6.25h12.5v3.124h-12.5v-3.124zm-6.25 0h3.124v3.124h-3.125v-3.124zm0-6.25h18.75v3.124h-18.75v-3.124zm-6.25-6.25h31.25v3.124H7.813v-3.124z" fill="#474747"/></svg>