<svg width="100" height="100" fill="none" xmlns="http://www.w3.org/2000/svg"><g clip-path="url(#clip0_1385:3269)"><path d="M55.14 89.82h-2.33a3.82 3.82 0 01-3.105 1.603h-.325c-1.236 0-2.359-.619-3.073-1.603H31.906a22.408 22.408 0 01-8.324 1.603c-1.967 0-3.91-.287-5.8-.794a3.186 3.186 0 00-1.097 2.396v3.204a3.208 3.208 0 003.204 3.204h35.249a3.208 3.208 0 003.204-3.204v-3.204a3.205 3.205 0 00-3.203-3.205z" fill="#B1040E"/><path d="M77.1.566l-2.266 2.266 3.674 3.674H.663V9.71h85.58L77.1.566zM24.696 28.937V17.72a4.812 4.812 0 00-4.807-4.806h-1.602v3.204h1.602c.885 0 1.602.72 1.602 1.602v11.216h3.205zm3.205-11.216v6.409a4.812 4.812 0 004.807 4.807 4.813 4.813 0 004.807-4.807v-6.409a4.812 4.812 0 00-4.807-4.806 4.812 4.812 0 00-4.807 4.806zm6.41 0v6.409a1.604 1.604 0 01-3.204 0v-6.409a1.602 1.602 0 013.203 0zm6.408 0v6.409a4.812 4.812 0 004.806 4.807 4.813 4.813 0 004.807-4.807v-6.409a4.812 4.812 0 00-4.807-4.806 4.812 4.812 0 00-4.806 4.806zm6.409 0v6.409a1.604 1.604 0 01-3.204 0v-6.409a1.603 1.603 0 013.204 0zm6.407 0v6.409a4.812 4.812 0 004.807 4.807 4.813 4.813 0 004.806-4.807v-6.409a4.812 4.812 0 00-4.806-4.806 4.812 4.812 0 00-4.807 4.806zm6.409 0v6.409c0 .883-.718 1.602-1.602 1.602-.885 0-1.602-.72-1.602-1.602v-6.409a1.603 1.603 0 013.204 0z" fill="#474747"/><path d="M87.182 43.451V25.12c0-3.197-2.6-5.796-5.795-5.796a5.773 5.773 0 00-5.08 3.001c-.984 1.81-2.31 4.929-3.368 9.817H0l9.144 9.144 2.265-2.266-3.674-3.673H72.33c-.694 4.22-1.171 9.485-1.171 16.022 0 17.034 3.225 25.508 5.146 29.043a5.773 5.773 0 005.08 3c3.195 0 5.796-2.6 5.796-5.794V56.469c1.86.663 3.204 2.426 3.204 4.512v28.84h-28.84v9.613h30.442c4.418 0 8.011-3.594 8.011-8.011V57.776c.002-7.408-5.615-13.524-12.816-14.325zm-3.204 34.166a2.593 2.593 0 01-2.59 2.59c-.953 0-1.82-.508-2.265-1.326-1.777-3.269-4.758-11.187-4.758-27.513 0-16.327 2.98-24.245 4.758-27.512a2.565 2.565 0 012.264-1.328 2.593 2.593 0 012.591 2.59v52.498zm8.011 18.612H64.751v-3.204h31.77a4.816 4.816 0 01-4.532 3.204zm4.807-6.409H93.59V60.98c0-3.867-2.757-7.103-6.409-7.848v-6.443c5.425.782 9.614 5.45 9.614 11.087V89.82z" fill="#474747"/><path d="M19.89 49.765a4.813 4.813 0 00-4.806-4.806 4.813 4.813 0 00-4.807 4.806 4.812 4.812 0 004.807 4.807 4.812 4.812 0 004.807-4.807zm-6.408 0c0-.883.718-1.602 1.602-1.602.884 0 1.602.72 1.602 1.602 0 .883-.718 1.602-1.602 1.602-.884 0-1.602-.72-1.602-1.602zm19.225 0A4.813 4.813 0 0027.9 44.96a4.812 4.812 0 00-4.806 4.806 4.812 4.812 0 004.806 4.807 4.812 4.812 0 004.807-4.807zm-6.409 0a1.604 1.604 0 013.205 0 1.604 1.604 0 01-3.204 0zm19.226 0a4.813 4.813 0 00-4.806-4.806 4.813 4.813 0 00-4.807 4.806 4.812 4.812 0 004.807 4.807 4.812 4.812 0 004.806-4.807zm-6.409 0a1.604 1.604 0 013.205 0 1.604 1.604 0 01-3.205 0zM63.15 78.084a5.321 5.321 0 00-3.643-5.053L48.91 69.498a41.007 41.007 0 00-12.996-2.109v.047c-.23-.01-.456-.047-.69-.047-.675 0-1.354.042-2.017.127l-24.63 3.078H.663v17.624h7.633l4.54 2.27a24.145 24.145 0 0010.747 2.537c3.07 0 6.072-.579 8.922-1.72l10.411-4.164 1.716 3.088a5.43 5.43 0 004.748 2.796h.325a5.44 5.44 0 005.433-5.434c0-.905-.23-1.804-.663-2.601l-1.498-2.748 2.683.894a5.312 5.312 0 001.686.274h.479a5.33 5.33 0 005.324-5.326zm-56.078 6.93H3.868V73.797h3.204v11.215zm42.633 4.806h-.325c-.81 0-1.554-.439-1.947-1.145l-2.059-3.706a3.05 3.05 0 00.15-.938c0-3.874-3.152-7.027-7.026-7.027a7.04 7.04 0 00-2.47.447l-11.364 4.262-4.268-1.423-1.014 3.04 5.345 1.781 12.426-4.659a3.827 3.827 0 015.166 3.478l-11.002 4.402c-5.462 2.185-11.793 1.918-17.048-.708l-3.993-1.997V73.611l23.328-2.916a13.046 13.046 0 0113.079 6.704l4.978 9.127c.178.327.273.697.273 1.067 0 1.227-1 2.227-2.229 2.227zm8.118-9.613h-.479c-.229 0-.453-.035-.67-.109l-5.95-1.984-1.229-2.252a16.25 16.25 0 00-2.732-3.652c.375.113.757.202 1.13.327l10.599 3.533a2.122 2.122 0 01-.668 4.137z" fill="#474747"/></g><defs><clipPath id="clip0_1385:3269"><path fill="#fff" d="M0 0h100v100H0z"/></clipPath></defs></svg>