<svg width="100" height="100" fill="none" xmlns="http://www.w3.org/2000/svg"><path d="M78.125 54.688h-56.25a3.128 3.128 0 01-3.125-3.126V23.439a3.128 3.128 0 013.125-3.125h56.25a3.128 3.128 0 013.125 3.125v28.125a3.128 3.128 0 01-3.125 3.124z" fill="#B1040E"/><path d="M82.602 70.431c-.146-1.217-.413-2.41-.735-3.59 3.242-.952 5.633-3.92 5.633-7.466v-37.5c0-4.308-3.505-7.813-7.813-7.813h-7.812V9.375c0-.86.7-1.563 1.563-1.563H89.35c.647 1.815 2.366 3.125 4.4 3.125a4.693 4.693 0 004.688-4.687 4.693 4.693 0 00-4.688-4.688c-2.034 0-3.753 1.311-4.4 3.125H73.438a4.693 4.693 0 00-4.688 4.688v45.313h3.125v-37.5h7.813a4.693 4.693 0 014.687 4.687v37.5a4.693 4.693 0 01-4.688 4.688H20.313a4.693 4.693 0 01-4.688-4.688v-37.5a4.693 4.693 0 014.688-4.688h7.812v37.5h3.125V9.376a4.693 4.693 0 00-4.688-4.688H10.65c-.647-1.814-2.366-3.125-4.4-3.125A4.693 4.693 0 001.562 6.25a4.693 4.693 0 004.688 4.688c2.034 0 3.753-1.311 4.4-3.126h15.912c.863 0 1.563.702 1.563 1.563v4.688h-7.813c-4.307 0-7.812 3.504-7.812 7.812v37.5c0 2.797 1.49 5.236 3.706 6.617a14.024 14.024 0 00-1.795 4.372c-7.188.617-12.848 6.666-12.848 14.011 0 7.753 6.307 14.063 14.062 14.063h68.75c7.755 0 14.063-6.31 14.063-14.063 0-8.338-7.315-15.058-15.836-13.944zM93.75 4.688c.862 0 1.563.701 1.563 1.562 0 .86-.7 1.563-1.563 1.563a1.564 1.564 0 01-1.563-1.563c0-.86.7-1.563 1.563-1.563zM6.25 7.813A1.564 1.564 0 014.687 6.25c0-.86.7-1.563 1.563-1.563.862 0 1.563.702 1.563 1.563 0 .86-.7 1.563-1.563 1.563zm31.25 68.75h25a4.693 4.693 0 014.688 4.687c0 .86-.7 1.563-1.563 1.563h-31.25a1.564 1.564 0 01-1.563-1.563 4.693 4.693 0 014.688-4.688zm23.438-3.126H39.061v-6.25h21.876v6.25zm23.437 21.876h-68.75c-6.03 0-10.938-4.907-10.938-10.938 0-6.031 4.908-10.938 10.875-10.94l1.549.007.17-1.369c.227-1.807.92-3.514 1.98-4.992.348.047.692.106 1.052.106h15.625v6.408c-3.561.727-6.25 3.882-6.25 7.655a4.693 4.693 0 004.687 4.688h31.25a4.693 4.693 0 004.688-4.688c0-3.772-2.69-6.928-6.25-7.655v-6.407h14.676c.5 1.684.808 3.421.892 5.185l.094 1.925 1.864-.489c7.228-1.897 13.724 3.63 13.724 10.566 0 6.031-4.908 10.938-10.938 10.938z" fill="#474747"/><path d="M42.188 57.813h3.124v3.124h-3.124v-3.124zm6.25 0h3.124v3.124h-3.124v-3.124zm6.25 0h3.124v3.124h-3.124v-3.124zM56.25 10.65v44.038h3.125V10.65c1.814-.647 3.125-2.366 3.125-4.4a4.693 4.693 0 00-4.688-4.688 4.693 4.693 0 00-4.687 4.688c0 2.034 1.31 3.753 3.125 4.4zm1.563-5.963c.862 0 1.562.702 1.562 1.563 0 .86-.7 1.563-1.563 1.563A1.564 1.564 0 0156.25 6.25c0-.86.7-1.563 1.563-1.563zM40.625 10.65v44.038h3.125V10.65c1.814-.647 3.125-2.366 3.125-4.4a4.693 4.693 0 00-4.688-4.688A4.693 4.693 0 0037.5 6.25c0 2.034 1.31 3.753 3.125 4.4zm1.563-5.963c.862 0 1.562.702 1.562 1.563 0 .86-.7 1.563-1.563 1.563a1.564 1.564 0 01-1.562-1.563c0-.86.7-1.563 1.563-1.563zm42.187 84.376H87.5v3.124h-3.125v-3.124zm-6.25 0h3.125v3.124h-3.125v-3.124zm-6.25 0H75v3.124h-3.125v-3.124z" fill="#474747"/></svg>