<svg width="100" height="100" fill="none" xmlns="http://www.w3.org/2000/svg"><g clip-path="url(#clip0_1385:3818)"><path d="M16.126 59.687h35.475v19.35H16.126v-19.35zm79.98-17.802c-3.805 9.111-12.142 15.85-22.204 17.431V59.3a14.427 14.427 0 01-1.338-6.063c0-8.014 6.498-14.512 14.512-14.512 3.419 0 6.547 1.193 9.03 3.16zm-28.381 6.482c0 5-1.29 8.466-3.419 10.852v.033a28.54 28.54 0 01-7.868-2.58V35.887c5.305 1.225 11.287 2.613 11.287 12.48zM62.791 2.38v.032c-.774 11.127-6.853 14.448-10.868 18.576h-9.95c3.274-9.256 11.11-16.367 20.818-18.609zm6.548-.742c12.82 0 23.704 8.32 27.525 19.85-6.74 1.467-10.756 5.902-12.82 9.046-1.402 2.128-3.821 3.353-6.369 3.353a7.676 7.676 0 01-6.063-2.966c-2.45-3.16-8.723-3.128-8.723-8.321 0-5.933 5.45-9.158 6.32-20.962h.13zM16.126 25.825h35.475v29.024H16.126V25.825z" fill="#B1040E"/><path d="M51.6 54.85H16.127V25.825h35.475v29.024z" fill="#B1040E"/><path d="M6.45 90.325h3.224v3.225H6.45v-3.225zm6.45 0h6.45v3.225H12.9v-3.225zm9.675 0h24.188v3.225H22.575v-3.225zm-6.449-32.25h35.475V61.3H16.126v-3.225zm0 6.45h35.475v3.225H16.126v-3.225zm0 6.45h35.475V74.2H16.126v-3.225zm0 6.45h35.475v3.225H16.126v-3.225z" fill="#474747"/><path d="M85.89 67.75H54.826v16.125H12.9V22.599l30.206-.007.382-1.075C47.353 10.592 57.74 3.25 69.337 3.25c15.115 0 27.412 12.297 27.412 27.413 0 15.115-12.296 27.412-27.412 27.412-3.951 0-7.735-.853-11.288-2.465V19.375h-9.666V22.6h6.442v41.925h3.224v-5.382A30.328 30.328 0 0069.338 61.3c16.894 0 30.637-13.743 30.637-30.637C99.974 13.768 86.231.025 69.337.025c-12.577 0-23.883 7.726-28.488 19.342l-32.787.008C3.617 19.375 0 22.992 0 27.438v64.5C0 96.382 3.617 100 8.062 100H58.05v-3.225a4.843 4.843 0 01-4.837-4.838A4.844 4.844 0 0158.05 87.1v-3.225h27.842L100 75.812 85.89 67.75zm1.184 4.39l6.424 3.672-6.424 3.672v-7.343zm-3.225-1.165V74.2h-25.8v-3.225h25.8zM8.062 22.6h1.613v61.275H8.062c-1.821 0-3.486.63-4.837 1.655V27.438A4.844 4.844 0 018.062 22.6zm43.58 74.175H8.061a4.843 4.843 0 01-4.837-4.838A4.844 4.844 0 018.062 87.1h43.58c-1.024 1.352-1.655 3.015-1.655 4.837 0 1.823.63 3.487 1.654 4.838zm6.407-19.35h25.8v3.225h-25.8v-3.225z" fill="#474747"/><path d="M69.336 19.375h3.225v3.226h-3.225v-3.226zm4.839-6.45H77.4v3.225h-3.225v-3.225zM77.4 24.212h3.224v3.225H77.4v-3.225zm6.45-9.674h3.225v3.225H83.85v-3.225zM79.012 48.4h3.225v3.225h-3.225V48.4zm6.45-4.837h3.225v3.224h-3.225v-3.224z" fill="#474747"/></g><defs><clipPath id="clip0_1385:3818"><path fill="#fff" d="M0 0h100v100H0z"/></clipPath></defs></svg>