<svg width="100" height="100" fill="none" xmlns="http://www.w3.org/2000/svg"><path d="M70.968 98.387h-8.065V67.742l8.065 2.15v28.495zm-17.742 0V76.21L50 74.193l-3.226 2.017v22.177h6.452zm-16.129 0h-8.065V69.892l8.065-2.15v30.645z" fill="#B1040E"/><path d="M43.548 40.322a1.613 1.613 0 11-3.226 0 1.613 1.613 0 013.226 0zm16.129 0a1.613 1.613 0 11-3.226 0 1.613 1.613 0 013.226 0zM46.775 50h-3.226A6.458 6.458 0 0050 56.452 6.458 6.458 0 0056.452 50h-3.226A3.229 3.229 0 0150 53.226 3.229 3.229 0 0146.775 50z" fill="#474747"/><path d="M87.097 9.677V3.226A3.229 3.229 0 0083.87 0H16.13a3.229 3.229 0 00-3.226 3.226v6.451a3.229 3.229 0 003.226 3.226h6.452v12.454l1.103.367c.12.04 1.096.357 2.818.778a24.122 24.122 0 00-.695 5.756v9.677c0 3.973 2.893 7.263 6.739 7.925a17.753 17.753 0 007.777 11.764v3.342l-16.474 5.49a11.28 11.28 0 00-7.72 10.714V100h67.742V81.17c0-4.868-3.103-9.173-7.72-10.712l-16.473-5.492v-3.342a17.76 17.76 0 007.777-11.76c3.814-.635 6.739-3.936 6.739-7.928v-9.678c0-1.953-.236-3.88-.696-5.758 1.722-.42 2.698-.737 2.818-.777l1.103-.366V12.903h3.226v16.545a3.442 3.442 0 00-1.8 2.597l-1.388 11.113a4.654 4.654 0 004.613 5.23h.377a4.654 4.654 0 004.614-5.227l-1.388-11.117a3.44 3.44 0 00-1.8-2.596V12.903a3.229 3.229 0 003.224-3.226zm-4.65 35.484h-.378a1.426 1.426 0 01-1.413-1.6l1.39-11.114a.216.216 0 01.212-.189c.107 0 .199.08.213.188l1.389 11.117a1.425 1.425 0 01-1.413 1.599zM16.13 3.226h67.742v6.451H16.13V3.226zM50 29.032c.407 0 .792-.01 1.19-.014l-.406.243a32.345 32.345 0 01-15.298 4.58v-3.196H32.26v3.389c-1.199.245-2.284.777-3.226 1.49v-3.266c0-1.72.213-3.42.623-5.07 4.514.886 11.44 1.844 20.343 1.844zM29.032 41.935c0-2.1 1.353-3.873 3.226-4.541v9.082c-1.873-.667-3.226-2.44-3.226-4.54zM41.5 67.975l5.926 5.925-8.716 5.448V68.905l2.79-.93zm19.79 15.178v13.621H38.71v-13.62L50 76.096l11.29 7.056zM19.355 81.17a8.056 8.056 0 015.514-7.652l10.615-3.539v26.795h-16.13V81.17zm61.29 0v15.604H64.516V69.98l10.615 3.539a8.055 8.055 0 015.514 7.652zM61.29 68.905v10.443l-8.715-5.447 5.925-5.925 2.79.93zm-4.838-3.444L50 71.913l-6.452-6.452v-2.177A17.615 17.615 0 0050 64.516c2.278 0 4.448-.446 6.452-1.232v2.177zm8.064-18.687c0 8.003-6.511 14.516-14.516 14.516-8.005 0-14.516-6.513-14.516-14.516v-9.703a35.554 35.554 0 0014.16-3.53c-.213.86-.52 1.7-.917 2.493l-1.645 3.29 3.234-.647a48.984 48.984 0 0014.2-5.216v13.313zm3.226-.297v-9.082c1.873.668 3.226 2.442 3.226 4.542 0 2.1-1.353 3.872-3.226 4.54zm3.226-14.219v3.268c-.942-.713-2.027-1.247-3.226-1.49v-6.238l-3.457 2.073a45.681 45.681 0 01-11.644 4.951c.386-1.357.585-2.767.585-4.177v-1.658c7.361-.195 13.166-1.023 17.119-1.798a21 21 0 01.623 5.07zm3.226-9.274c-2.941.803-11.599 2.822-24.194 2.822-12.595 0-21.253-2.019-24.194-2.822v-10.08h48.388v10.08z" fill="#474747"/></svg>