<svg width="100" height="100" viewBox="0 0 100 100" fill="none" xmlns="http://www.w3.org/2000/svg">
<g clip-path="url(#clip0)">
<path d="M16.126 59.687H51.6007V79.0369H16.126V59.687Z" fill="#B1040E"/>
<path d="M96.1059 41.885C92.3007 50.9962 83.9635 57.7359 73.902 59.3161V59.3003C73.0469 57.4461 72.5635 55.3982 72.5635 53.237C72.5635 45.2234 79.0615 38.7246 87.0759 38.7246C90.4945 38.7246 93.6227 39.9182 96.1059 41.885Z" fill="#B1040E"/>
<path d="M67.7249 48.3675C67.7249 53.3663 66.4352 56.833 64.3062 59.2195V59.2517C61.5332 58.7683 58.8885 57.8975 56.4375 56.6724V35.8872C61.7426 37.1123 67.7249 38.4996 67.7249 48.3675Z" fill="#B1040E"/>
<path d="M62.7911 2.37939V2.41168C62.0171 13.5385 55.938 16.8603 51.9233 20.9876H41.9736C45.2474 11.7323 53.0839 4.62097 62.7911 2.37939Z" fill="#B1040E"/>
<path d="M69.3386 1.6377C82.1582 1.6377 93.0425 9.95838 96.8635 21.4875C90.1238 22.9551 86.1083 27.3895 84.0447 30.5341C82.6416 32.6623 80.2229 33.8874 77.6751 33.8874C75.3051 33.8874 73.0636 32.7915 71.6125 30.9207C69.1615 27.7603 62.8887 27.7926 62.8887 22.6C62.8887 16.6666 68.3387 13.4416 69.2095 1.6377H69.3386Z" fill="#B1040E"/>
<path d="M16.126 25.8247H51.6007V54.8495H16.126V25.8247Z" fill="#B1040E"/>
<path d="M51.6007 54.8495H16.126V25.8247H51.6007V54.8495Z" fill="#B1040E"/>
<path d="M6.44922 90.325H9.67419V93.5499H6.44922V90.325Z" fill="#323232"/>
<path d="M12.8994 90.325H19.3494V93.5499H12.8994V90.325Z" fill="#323232"/>
<path d="M22.5752 90.325H46.7625V93.5499H22.5752V90.325Z" fill="#323232"/>
<path d="M16.126 58.0752H51.6007V61.3002H16.126V58.0752Z" fill="#323232"/>
<path d="M16.126 64.5249H51.6007V67.7499H16.126V64.5249Z" fill="#323232"/>
<path d="M16.126 70.9751H51.6007V74.2001H16.126V70.9751Z" fill="#323232"/>
<path d="M16.126 77.4248H51.6007V80.6498H16.126V77.4248Z" fill="#323232"/>
<path d="M85.8909 67.7498H54.8246V83.8747H12.8999V22.5986L43.1065 22.5923L43.4876 21.5168C47.3526 10.5924 57.7401 3.25036 69.337 3.25036C84.4525 3.25036 96.7492 15.5472 96.7492 30.6626C96.7492 45.7781 84.4525 58.0749 69.337 58.0749C65.386 58.0749 61.6021 57.2222 58.0495 55.6097V19.3752H48.3825V22.6002H54.8246V64.5249H58.0495V59.1426C61.6312 60.5685 65.4136 61.2999 69.337 61.2999C86.2311 61.2999 99.9742 47.5568 99.9742 30.6626C99.9742 13.7685 86.2311 0.0253906 69.337 0.0253906C56.7599 0.0253906 45.4544 7.75084 40.8492 19.3674L8.06244 19.3752C3.61707 19.3752 0 22.9923 0 27.4377V91.9372C0 96.3833 3.61707 99.9996 8.06244 99.9996H58.0495V96.7746C55.3828 96.7746 53.2121 94.6047 53.2121 91.9372C53.2121 89.2704 55.3828 87.0997 58.0495 87.0997V83.8747H85.8909L100 75.8123L85.8909 67.7498ZM87.0743 72.1409L93.4983 75.8123L87.0743 79.4845V72.1409ZM83.8493 70.9748V74.1998H58.0495V70.9748H83.8493ZM8.06244 22.6002H9.67492V83.8747H8.06244C6.24052 83.8747 4.57606 84.5054 3.22497 85.5297V27.4377C3.22497 24.7709 5.39569 22.6002 8.06244 22.6002ZM51.6413 96.7746H8.06244C5.39569 96.7746 3.22497 94.6047 3.22497 91.9372C3.22497 89.2704 5.39569 87.0997 8.06244 87.0997H51.6413C50.6178 88.4516 49.9871 90.1152 49.9871 91.9372C49.9871 93.7599 50.6178 95.4235 51.6413 96.7746ZM58.0495 77.4248H83.8493V80.6497H58.0495V77.4248Z" fill="#323232"/>
<path d="M69.3359 19.3755H72.5609V22.6005H69.3359V19.3755Z" fill="#323232"/>
<path d="M74.1748 12.9253H77.3998V16.1503H74.1748V12.9253Z" fill="#323232"/>
<path d="M77.3994 24.2124H80.6244V27.4374H77.3994V24.2124Z" fill="#323232"/>
<path d="M83.8496 14.5381H87.0746V17.7631H83.8496V14.5381Z" fill="#323232"/>
<path d="M79.0117 48.4004H82.2367V51.6254H79.0117V48.4004Z" fill="#323232"/>
<path d="M85.4619 43.5625H88.6869V46.7875H85.4619V43.5625Z" fill="#323232"/>
</g>
<defs>
<clipPath id="clip0">
<rect width="100" height="100" fill="white"/>
</clipPath>
</defs>
</svg>
