<svg width="100" height="100" viewBox="0 0 100 100" fill="none" xmlns="http://www.w3.org/2000/svg">
<g clip-path="url(#clip0)">
<path d="M50.0832 22.7104C45.6442 22.7104 42.0322 19.0985 42.0322 14.6594C42.0322 10.2203 45.6442 6.6084 50.0832 6.6084C54.5231 6.6084 58.1343 10.2203 58.1343 14.6594C58.1343 19.0985 54.5231 22.7104 50.0832 22.7104Z" fill="#B1040E"/>
<path d="M54.9141 42.0332H71.0161V75.8474H54.9141V42.0332Z" fill="#B1040E"/>
<path d="M29.1504 61.3555H45.2524V75.8473H29.1504V61.3555Z" fill="#B1040E"/>
<path d="M45.2524 58.1352H29.1504V42.0332H45.2524V58.1352Z" fill="#B1040E"/>
<path d="M96.7801 33.9817V32.3715H100.001V23.2945L50.0842 0L0.167969 23.2945V32.3715H3.38837V33.9817C3.38837 36.0778 4.73991 37.8492 6.60878 38.5159V84.1959C4.73991 84.8611 3.38837 86.6317 3.38837 88.7286V90.6352C1.5195 91.3019 0.167969 93.0725 0.167969 95.1694V100H100.001V95.1694C100.001 93.0694 98.6545 91.2791 96.7801 90.614V88.7286C96.7801 86.6317 95.4294 84.8611 93.5597 84.1944V38.5159C95.4294 37.8492 96.7801 36.0778 96.7801 33.9817ZM85.5087 87.1184H91.9495C92.8372 87.1184 93.5597 87.8393 93.5597 88.7286V90.3388H83.8985V88.7286C83.8985 87.8393 84.6218 87.1184 85.5087 87.1184ZM87.1189 83.898V38.8123H90.3393V83.898H87.1189ZM93.5597 33.9817C93.5597 34.8701 92.8372 35.5919 91.9495 35.5919H85.5087C84.6218 35.5919 83.8985 34.8701 83.8985 33.9817V32.3715H93.5597V33.9817ZM91.1334 22.7103H9.03587L50.0842 3.55534L91.1334 22.7103ZM3.38837 29.1511V25.9307H96.7801V29.1511H9.82918V32.3715H16.27V33.9817C16.27 34.8701 15.5474 35.5919 14.6598 35.5919H8.21898C7.33211 35.5919 6.60878 34.8701 6.60878 33.9817V29.1511H3.38837ZM13.0496 38.8123V83.898H9.82918V38.8123H13.0496ZM8.21898 87.1184H14.6598C15.5474 87.1184 16.27 87.8393 16.27 88.7286V90.3388H6.60878V88.7286C6.60878 87.8393 7.33211 87.1184 8.21898 87.1184ZM96.7801 95.1694V96.7796H3.38837V95.1694C3.38837 94.2802 4.11171 93.5592 4.99858 93.5592H77.4577V90.3388H19.4904V88.7286C19.4904 86.6317 18.1397 84.8611 16.27 84.1944V38.5159C18.1397 37.8492 19.4904 36.0778 19.4904 33.9817V32.3715H80.6781V33.9817C80.6781 36.0778 82.0296 37.8492 83.8985 38.5159V84.1959C82.0296 84.8627 80.6781 86.634 80.6781 88.7301V93.5607H95.1699C96.0576 93.5592 96.7801 94.2802 96.7801 95.1694Z" fill="#323232"/>
<path d="M50.0834 38.8617C48.6155 36.8899 46.2851 35.5918 43.6426 35.5918H22.71V87.1183H77.4568V35.5918H56.5242C53.8825 35.5918 51.5521 36.8899 50.0834 38.8617ZM48.4732 83.8979H25.9304V38.8122H43.6426C46.3063 38.8122 48.4732 40.9798 48.4732 43.6428V83.8979ZM74.2364 83.8979H51.6936V43.6428C51.6936 40.9798 53.8612 38.8122 56.5242 38.8122H74.2364V83.8979Z" fill="#323232"/>
<path d="M29.1504 61.355H32.3708V64.5754H29.1504V61.355Z" fill="#323232"/>
<path d="M35.5918 61.355H45.253V64.5754H35.5918V61.355Z" fill="#323232"/>
<path d="M29.1504 67.7959H45.2524V71.0163H29.1504V67.7959Z" fill="#323232"/>
<path d="M29.1504 74.2368H45.2524V77.4572H29.1504V74.2368Z" fill="#323232"/>
<path d="M54.9141 42.0327H71.0161V45.2531H54.9141V42.0327Z" fill="#323232"/>
<path d="M54.9141 48.4736H71.0161V51.694H54.9141V48.4736Z" fill="#323232"/>
<path d="M54.9141 54.9146H71.0161V58.135H54.9141V54.9146Z" fill="#323232"/>
<path d="M54.9141 61.355H71.0161V64.5754H54.9141V61.355Z" fill="#323232"/>
<path d="M54.9141 67.7959H71.0161V71.0163H54.9141V67.7959Z" fill="#323232"/>
<path d="M67.7959 74.2368H71.0163V77.4572H67.7959V74.2368Z" fill="#323232"/>
<path d="M54.9141 74.2368H64.5753V77.4572H54.9141V74.2368Z" fill="#323232"/>
</g>
<defs>
<clipPath id="clip0">
<rect width="100" height="100" fill="white"/>
</clipPath>
</defs>
</svg>
