<svg width="100" height="100" viewBox="0 0 100 100" fill="none" xmlns="http://www.w3.org/2000/svg">
<path d="M70.9678 98.3869H62.9033V67.7417L70.9678 69.8917V98.3869Z" fill="#B1040E"/>
<path d="M53.226 98.3869V76.2095L50.0002 74.1934L46.7744 76.2095V98.3869H53.226Z" fill="#B1040E"/>
<path d="M37.0967 98.3869H29.0322V69.8917L37.0967 67.7417V98.3869Z" fill="#B1040E"/>
<path d="M43.5481 40.3224C43.5481 41.2131 42.8259 41.9353 41.9352 41.9353C41.0444 41.9353 40.3223 41.2131 40.3223 40.3224C40.3223 39.4317 41.0444 38.7095 41.9352 38.7095C42.8259 38.7095 43.5481 39.4317 43.5481 40.3224Z" fill="#323232"/>
<path d="M59.677 40.3224C59.677 41.2131 58.9548 41.9353 58.0641 41.9353C57.1734 41.9353 56.4512 41.2131 56.4512 40.3224C56.4512 39.4317 57.1734 38.7095 58.0641 38.7095C58.9548 38.7095 59.677 39.4317 59.677 40.3224Z" fill="#323232"/>
<path d="M46.7746 50H43.5488C43.5488 53.5582 46.4423 56.4516 50.0004 56.4516C53.5586 56.4516 56.4521 53.5582 56.4521 50H53.2262C53.2262 51.7791 51.7795 53.2258 50.0004 53.2258C48.2214 53.2258 46.7746 51.7791 46.7746 50Z" fill="#323232"/>
<path d="M87.0969 9.67742V3.22581C87.0969 1.44673 85.6501 0 83.8711 0H16.1291C14.3501 0 12.9033 1.44673 12.9033 3.22581V9.67742C12.9033 11.4565 14.3501 12.9032 16.1291 12.9032H22.5807V25.3568L23.6841 25.7245C23.8046 25.7647 24.7804 26.0805 26.502 26.5019C26.042 28.3754 25.8065 30.3049 25.8065 32.2581V41.9355C25.8065 45.9079 28.7 49.1983 32.5456 49.8598C33.4111 54.7726 36.2967 58.9923 40.3227 61.6242V64.9658L23.8487 70.4566C19.2321 71.9971 16.1291 76.3018 16.1291 81.1697V100H83.8711V81.1697C83.8711 76.3018 80.7681 71.9971 76.1515 70.4582L59.6775 64.9658V61.6242C63.7019 58.9938 66.5859 54.7757 67.4546 49.8645C71.2695 49.229 74.1936 45.9276 74.1936 41.9355V32.2581C74.1936 30.3049 73.9582 28.3778 73.4982 26.5003C75.2198 26.0805 76.1956 25.7631 76.3161 25.723L77.4194 25.3568V12.9032H80.6452V29.4481C79.6892 29.9616 78.989 30.9051 78.8449 32.0454L77.4565 43.1578C77.432 43.3499 77.4194 43.5437 77.4194 43.7374C77.4194 46.3017 79.5049 48.3871 82.0691 48.3871H82.4472C85.0114 48.3871 87.0969 46.3017 87.0969 43.7374C87.0969 43.5437 87.0843 43.3499 87.0614 43.1609L85.673 32.0438C85.5289 30.9051 84.8295 29.9616 83.8726 29.4481V12.9032C85.6501 12.9032 87.0969 11.4565 87.0969 9.67742ZM82.4472 45.1613H82.0691C81.284 45.1613 80.6452 44.5226 80.6452 43.7374C80.6452 43.6791 80.6484 43.6208 80.6563 43.561L82.0455 32.4471C82.0597 32.3384 82.1518 32.2581 82.2582 32.2581C82.3645 32.2581 82.4566 32.3384 82.4708 32.4455L83.86 43.5626C83.8679 43.6208 83.8711 43.6791 83.8711 43.7374C83.8711 44.5226 83.2324 45.1613 82.4472 45.1613ZM16.1291 3.22581H83.8711V9.67742H16.1291V3.22581ZM50.0001 29.0323C50.4065 29.0323 50.7924 29.0228 51.1901 29.0181L50.7837 29.2614C46.1419 32.047 40.8795 33.6174 35.4855 33.8418V30.6452H32.2597V34.034C31.0611 34.2789 29.9758 34.8113 29.0339 35.524V32.2581C29.0339 30.5373 29.2466 28.8385 29.6569 27.1886C34.1711 28.0738 41.0968 29.0323 50.0001 29.0323ZM29.0324 41.9355C29.0324 39.8359 30.3854 38.0615 32.2582 37.3937V46.4757C30.3854 45.8094 29.0324 44.0351 29.0324 41.9355ZM41.5001 67.9743L47.4256 73.8998L38.7098 79.3481V68.9052L41.5001 67.9743ZM61.2904 83.1535V96.7742H38.7098V83.1535L50.0001 76.0971L61.2904 83.1535ZM19.3549 81.1697C19.3549 77.6918 21.5711 74.618 24.8694 73.5178L35.484 69.9794V96.7742H19.3549V81.1697ZM80.6452 81.1697V96.7742H64.5162V69.9794L75.1308 73.5178C78.4291 74.618 80.6452 77.6918 80.6452 81.1697ZM61.2904 68.9052V79.3481L52.5746 73.9014L58.5001 67.9758L61.2904 68.9052ZM56.4517 65.4612L50.0001 71.9128L43.5485 65.4612V63.2836C45.552 64.0696 47.7225 64.5161 50.0001 64.5161C52.2777 64.5161 54.4482 64.0696 56.4517 63.2836V65.4612ZM64.5162 46.7742C64.5162 54.7773 58.0048 61.2903 50.0001 61.2903C41.9954 61.2903 35.484 54.7773 35.484 46.7742V37.0708C40.403 36.8857 45.226 35.6808 49.6449 33.5402C49.4307 34.4018 49.1243 35.2405 48.7274 36.0336L47.0822 39.324L50.3159 38.6774C55.3082 37.6788 60.0776 35.9257 64.5162 33.4614V46.7742ZM67.742 46.4773V37.3953C69.6148 38.0631 70.9678 39.8375 70.9678 41.9371C70.9678 44.0375 69.6148 45.8094 67.742 46.4773ZM70.9678 32.2581V35.5256C70.0259 34.8129 68.9407 34.2789 67.742 34.0356V27.7982L64.2855 29.871C60.636 32.0612 56.7289 33.7213 52.6407 34.8223C53.0274 33.4646 53.2259 32.0549 53.2259 30.6452V28.9874C60.5871 28.7921 66.3922 27.9643 70.3449 27.1886C70.7552 28.8385 70.9678 30.5373 70.9678 32.2581ZM74.1936 22.9839C71.2529 23.7872 62.5954 25.8065 50.0001 25.8065C37.4048 25.8065 28.7473 23.7872 25.8065 22.9839V12.9032H74.1936V22.9839Z" fill="#323232"/>
</svg>
