<svg width="100" height="100" viewBox="0 0 100 100" fill="none" xmlns="http://www.w3.org/2000/svg">
<g clip-path="url(#clip0)">
<path d="M55.1391 89.8203H52.8111C52.1157 90.7864 50.9878 91.4225 49.706 91.4225H49.3808C48.1455 91.4225 47.0223 90.8041 46.3077 89.8203H31.9055C29.2587 90.8794 26.4324 91.4225 23.5821 91.4225C21.6146 91.4225 19.6711 91.1357 17.7821 90.6294C17.1156 91.2174 16.6846 92.0666 16.6846 93.0247V96.2291C16.6846 97.9964 18.1217 99.4335 19.889 99.4335H55.1375C56.9047 99.4335 58.3419 97.9964 58.3419 96.2291V93.0247C58.3435 91.2575 56.9063 89.8203 55.1391 89.8203Z" fill="#B1040E"/>
<path d="M77.0995 0.566284L74.8339 2.8318L78.5078 6.50566H0.663086V9.71007H86.2432L77.0995 0.566284Z" fill="#323232"/>
<path d="M24.6959 28.9366V17.7212C24.6959 15.0711 22.5394 12.9146 19.8893 12.9146H18.2871V16.119H19.8893C20.7737 16.119 21.4915 16.8383 21.4915 17.7212V28.9366H24.6959Z" fill="#323232"/>
<path d="M27.9014 17.7212V24.13C27.9014 26.78 30.0579 28.9366 32.708 28.9366C35.358 28.9366 37.5146 26.78 37.5146 24.13V17.7212C37.5146 15.0711 35.358 12.9146 32.708 12.9146C30.0579 12.9146 27.9014 15.0711 27.9014 17.7212ZM34.3102 17.7212V24.13C34.3102 25.0128 33.5924 25.7322 32.708 25.7322C31.8236 25.7322 31.1058 25.0128 31.1058 24.13V17.7212C31.1058 16.8383 31.8236 16.119 32.708 16.119C33.5924 16.119 34.3102 16.8383 34.3102 17.7212Z" fill="#323232"/>
<path d="M40.7188 17.7212V24.13C40.7188 26.78 42.8753 28.9366 45.5254 28.9366C48.1754 28.9366 50.332 26.78 50.332 24.13V17.7212C50.332 15.0711 48.1754 12.9146 45.5254 12.9146C42.8753 12.9146 40.7188 15.0711 40.7188 17.7212ZM47.1276 17.7212V24.13C47.1276 25.0128 46.4098 25.7322 45.5254 25.7322C44.6409 25.7322 43.9232 25.0128 43.9232 24.13V17.7212C43.9232 16.8383 44.6409 16.119 45.5254 16.119C46.4098 16.119 47.1276 16.8383 47.1276 17.7212Z" fill="#323232"/>
<path d="M53.5352 17.7212V24.13C53.5352 26.78 55.6917 28.9366 58.3418 28.9366C60.9918 28.9366 63.1484 26.78 63.1484 24.13V17.7212C63.1484 15.0711 60.9918 12.9146 58.3418 12.9146C55.6917 12.9146 53.5352 15.0711 53.5352 17.7212ZM59.944 17.7212V24.13C59.944 25.0128 59.2262 25.7322 58.3418 25.7322C57.4574 25.7322 56.7396 25.0128 56.7396 24.13V17.7212C56.7396 16.8383 57.4574 16.119 58.3418 16.119C59.2262 16.119 59.944 16.8383 59.944 17.7212Z" fill="#323232"/>
<path d="M87.1824 43.4511V25.1187C87.1824 21.9223 84.582 19.3235 81.3872 19.3235C79.2611 19.3235 77.3144 20.4739 76.3066 22.3244C75.3228 24.1349 73.9978 27.2528 72.9388 32.1411H0L9.14378 41.2849L11.4093 39.0194L7.73544 35.3455H72.3299C71.6362 39.5657 71.1587 44.8306 71.1587 51.3676C71.1587 68.4022 74.384 76.8763 76.305 80.4107C77.3128 82.2613 79.2595 83.4117 81.3856 83.4117C84.5804 83.4117 87.1808 80.8113 87.1808 77.6165V56.469C89.0409 57.1323 90.3852 58.8947 90.3852 60.9808V89.8205H61.5455V99.4337H91.9874C96.4047 99.4337 99.9984 95.84 99.9984 91.4227V57.7764C100 50.3678 94.3827 44.2522 87.1824 43.4511ZM83.978 77.6165C83.978 79.0457 82.8148 80.2073 81.3872 80.2073C80.4355 80.2073 79.5671 79.6994 79.1233 78.8806C77.3464 75.6121 74.3647 67.694 74.3647 51.3676C74.3647 35.0411 77.3448 27.123 79.1233 23.8561C79.5671 23.0374 80.4355 22.5279 81.3872 22.5279C82.8164 22.5279 83.978 23.6911 83.978 25.1187V77.6165ZM91.989 96.2293H64.7515V93.0249H96.5216C95.8599 94.8899 94.0783 96.2293 91.989 96.2293ZM96.7956 89.8205H93.5912V60.9808C93.5912 57.1131 90.8338 53.8766 87.1824 53.1316V46.6891C92.6074 47.471 96.7956 52.1382 96.7956 57.7764V89.8205Z" fill="#323232"/>
<path d="M19.8906 49.7651C19.8906 47.1151 17.734 44.9585 15.084 44.9585C12.4339 44.9585 10.2773 47.1151 10.2773 49.7651C10.2773 52.4152 12.4339 54.5717 15.084 54.5717C17.734 54.5717 19.8906 52.4152 19.8906 49.7651ZM13.4818 49.7651C13.4818 48.8823 14.1995 48.1629 15.084 48.1629C15.9684 48.1629 16.6862 48.8823 16.6862 49.7651C16.6862 50.6479 15.9684 51.3673 15.084 51.3673C14.1995 51.3673 13.4818 50.6479 13.4818 49.7651Z" fill="#323232"/>
<path d="M32.707 49.7651C32.707 47.1151 30.5504 44.9585 27.9004 44.9585C25.2503 44.9585 23.0938 47.1151 23.0938 49.7651C23.0938 52.4152 25.2503 54.5717 27.9004 54.5717C30.5504 54.5717 32.707 52.4152 32.707 49.7651ZM26.2982 49.7651C26.2982 48.8823 27.0159 48.1629 27.9004 48.1629C28.7848 48.1629 29.5026 48.8823 29.5026 49.7651C29.5026 50.6479 28.7848 51.3673 27.9004 51.3673C27.0159 51.3673 26.2982 50.6479 26.2982 49.7651Z" fill="#323232"/>
<path d="M45.5244 49.7651C45.5244 47.1151 43.3678 44.9585 40.7177 44.9585C38.0677 44.9585 35.9111 47.1151 35.9111 49.7651C35.9111 52.4152 38.0677 54.5717 40.7177 54.5717C43.3678 54.5717 45.5244 52.4152 45.5244 49.7651ZM39.1155 49.7651C39.1155 48.8823 39.8333 48.1629 40.7177 48.1629C41.6022 48.1629 42.32 48.8823 42.32 49.7651C42.32 50.6479 41.6022 51.3673 40.7177 51.3673C39.8333 51.3673 39.1155 50.6479 39.1155 49.7651Z" fill="#323232"/>
<path d="M63.1491 78.084C63.1491 75.788 61.6847 73.7564 59.5073 73.0306L48.9087 69.4978C44.7093 68.0975 40.3369 67.3893 35.9132 67.3893V67.4357C35.6825 67.4261 35.4566 67.3893 35.2226 67.3893C34.5481 67.3893 33.8688 67.4309 33.2055 67.5159L8.57638 70.5937H0.663086V88.2179H8.29599L12.8366 90.4883C16.1548 92.1481 19.8719 93.0245 23.5826 93.0245C26.6524 93.0245 29.655 92.4461 32.5053 91.3054L42.9164 87.1413L44.6324 90.2287C45.5889 91.9527 47.4058 93.0245 49.3797 93.0245H49.705C52.6995 93.0245 55.138 90.5876 55.138 87.5915C55.138 86.6862 54.9073 85.7874 54.4747 84.9895L52.9767 82.2417L55.6604 83.1357C56.2035 83.3168 56.7691 83.4097 57.3459 83.4097H57.8249C60.7602 83.4113 63.1491 81.0208 63.1491 78.084ZM7.0719 85.0135H3.8675V73.7981H7.0719V85.0135ZM49.705 89.8201H49.3797C48.5706 89.8201 47.8256 89.3811 47.433 88.6746L45.3742 84.9687C45.4703 84.6707 45.5248 84.3566 45.5248 84.0314C45.5248 80.1572 42.3717 77.0041 38.4975 77.0041C37.6532 77.0041 36.8232 77.1547 36.0285 77.4511L24.6641 81.713L20.3958 80.2902L19.3816 83.3296L24.7266 85.1113L37.1533 80.4521C37.5875 80.2902 38.0393 80.2085 38.4975 80.2085C40.5724 80.2085 42.2659 81.87 42.3188 83.9304L31.3165 88.3317C25.8545 90.5171 19.5242 90.2495 14.269 87.6235L10.2763 85.6272V73.6106L33.6044 70.6946C34.1363 70.6273 34.6811 70.5937 35.2226 70.5937C40.002 70.5937 44.3953 73.2005 46.6832 77.3982L51.6613 86.526C51.8391 86.8529 51.9336 87.223 51.9336 87.5931C51.9336 88.8204 50.9339 89.8201 49.705 89.8201ZM57.8233 80.2069H57.3443C57.1152 80.2069 56.8909 80.1717 56.6746 80.098L50.724 78.1144L49.4951 75.8617C48.7517 74.4999 47.824 73.2806 46.7633 72.2103C47.1382 72.3225 47.5196 72.4122 47.8929 72.5372L58.4915 76.07C59.3599 76.36 59.9431 77.1691 59.9431 78.0824C59.9447 79.2552 58.9929 80.2069 57.8233 80.2069Z" fill="#323232"/>
</g>
<defs>
<clipPath id="clip0">
<rect width="100" height="100" fill="white"/>
</clipPath>
</defs>
</svg>
