<svg width="100" height="100" viewBox="0 0 100 100" fill="none" xmlns="http://www.w3.org/2000/svg">
<path d="M78.125 54.6875H21.875C20.1516 54.6875 18.75 53.2859 18.75 51.5625V23.4375C18.75 21.7141 20.1516 20.3125 21.875 20.3125H78.125C79.8484 20.3125 81.25 21.7141 81.25 23.4375V51.5625C81.25 53.2859 79.8484 54.6875 78.125 54.6875Z" fill="#B1040E"/>
<path d="M82.6016 70.4313C82.4563 69.2141 82.1891 68.0203 81.8672 66.8406C85.1094 65.8891 87.5 62.9203 87.5 59.375V21.875C87.5 17.5672 83.9953 14.0625 79.6875 14.0625H71.875V9.375C71.875 8.51406 72.575 7.8125 73.4375 7.8125H89.35C89.9969 9.62656 91.7156 10.9375 93.75 10.9375C96.3344 10.9375 98.4375 8.83437 98.4375 6.25C98.4375 3.66562 96.3344 1.5625 93.75 1.5625C91.7156 1.5625 89.9969 2.87344 89.35 4.6875H73.4375C70.8531 4.6875 68.75 6.79063 68.75 9.375V54.6875H71.875V17.1875H79.6875C82.2719 17.1875 84.375 19.2906 84.375 21.875V59.375C84.375 61.9594 82.2719 64.0625 79.6875 64.0625H20.3125C17.7281 64.0625 15.625 61.9594 15.625 59.375V21.875C15.625 19.2906 17.7281 17.1875 20.3125 17.1875H28.125V54.6875H31.25V9.375C31.25 6.79063 29.1469 4.6875 26.5625 4.6875H10.65C10.0031 2.87344 8.28438 1.5625 6.25 1.5625C3.66562 1.5625 1.5625 3.66562 1.5625 6.25C1.5625 8.83437 3.66562 10.9375 6.25 10.9375C8.28438 10.9375 10.0031 9.62656 10.65 7.8125H26.5625C27.425 7.8125 28.125 8.51406 28.125 9.375V14.0625H20.3125C16.0047 14.0625 12.5 17.5672 12.5 21.875V59.375C12.5 62.1719 13.9906 64.6109 16.2062 65.9922C15.3656 67.3391 14.7562 68.8156 14.4109 70.3641C7.22344 70.9813 1.5625 77.0297 1.5625 84.375C1.5625 92.1281 7.87031 98.4375 15.625 98.4375H84.375C92.1297 98.4375 98.4375 92.1281 98.4375 84.375C98.4375 76.0375 91.1234 69.3172 82.6016 70.4313ZM93.75 4.6875C94.6125 4.6875 95.3125 5.38906 95.3125 6.25C95.3125 7.11094 94.6125 7.8125 93.75 7.8125C92.8875 7.8125 92.1875 7.11094 92.1875 6.25C92.1875 5.38906 92.8875 4.6875 93.75 4.6875ZM6.25 7.8125C5.3875 7.8125 4.6875 7.11094 4.6875 6.25C4.6875 5.38906 5.3875 4.6875 6.25 4.6875C7.1125 4.6875 7.8125 5.38906 7.8125 6.25C7.8125 7.11094 7.1125 7.8125 6.25 7.8125ZM37.5 76.5625H62.5C65.0844 76.5625 67.1875 78.6656 67.1875 81.25C67.1875 82.1109 66.4875 82.8125 65.625 82.8125H34.375C33.5125 82.8125 32.8125 82.1109 32.8125 81.25C32.8125 78.6656 34.9156 76.5625 37.5 76.5625ZM60.9375 73.4375H39.0625V67.1875H60.9375V73.4375ZM84.375 95.3125H15.625C9.59531 95.3125 4.6875 90.4062 4.6875 84.375C4.6875 78.3438 9.59531 73.4375 15.5625 73.4359L17.1109 73.4422L17.2813 72.0734C17.5078 70.2656 18.2016 68.5594 19.2609 67.0812C19.6094 67.1281 19.9531 67.1875 20.3125 67.1875H35.9375V73.5953C32.3766 74.3219 29.6875 77.4766 29.6875 81.25C29.6875 83.8344 31.7906 85.9375 34.375 85.9375H65.625C68.2094 85.9375 70.3125 83.8344 70.3125 81.25C70.3125 77.4781 67.6234 74.3219 64.0625 73.5953V67.1875H78.7391C79.2391 68.8719 79.5469 70.6094 79.6312 72.3734L79.725 74.2984L81.5891 73.8094C88.8172 71.9125 95.3125 77.4391 95.3125 84.375C95.3125 90.4062 90.4047 95.3125 84.375 95.3125Z" fill="#323232"/>
<path d="M42.1875 57.8125H45.3125V60.9375H42.1875V57.8125Z" fill="#323232"/>
<path d="M48.4375 57.8125H51.5625V60.9375H48.4375V57.8125Z" fill="#323232"/>
<path d="M54.6875 57.8125H57.8125V60.9375H54.6875V57.8125Z" fill="#323232"/>
<path d="M56.25 10.65V54.6875H59.375V10.65C61.1891 10.0031 62.5 8.28438 62.5 6.25C62.5 3.66562 60.3969 1.5625 57.8125 1.5625C55.2281 1.5625 53.125 3.66562 53.125 6.25C53.125 8.28438 54.4359 10.0031 56.25 10.65ZM57.8125 4.6875C58.675 4.6875 59.375 5.38906 59.375 6.25C59.375 7.11094 58.675 7.8125 57.8125 7.8125C56.95 7.8125 56.25 7.11094 56.25 6.25C56.25 5.38906 56.95 4.6875 57.8125 4.6875Z" fill="#323232"/>
<path d="M40.625 10.65V54.6875H43.75V10.65C45.5641 10.0031 46.875 8.28438 46.875 6.25C46.875 3.66562 44.7719 1.5625 42.1875 1.5625C39.6031 1.5625 37.5 3.66562 37.5 6.25C37.5 8.28438 38.8109 10.0031 40.625 10.65ZM42.1875 4.6875C43.05 4.6875 43.75 5.38906 43.75 6.25C43.75 7.11094 43.05 7.8125 42.1875 7.8125C41.325 7.8125 40.625 7.11094 40.625 6.25C40.625 5.38906 41.325 4.6875 42.1875 4.6875Z" fill="#323232"/>
<path d="M84.375 89.0625H87.5V92.1875H84.375V89.0625Z" fill="#323232"/>
<path d="M78.125 89.0625H81.25V92.1875H78.125V89.0625Z" fill="#323232"/>
<path d="M71.875 89.0625H75V92.1875H71.875V89.0625Z" fill="#323232"/>
</svg>
