<svg width="100" height="100" viewBox="0 0 100 100" fill="none" xmlns="http://www.w3.org/2000/svg">
<path d="M98.4375 33.9516V22.2969L94.1656 20.9281C93.7781 19.7219 93.2969 18.5547 92.7297 17.4453L94.7797 13.4625L86.5391 5.22187L82.5562 7.27187C81.4469 6.70469 80.2797 6.22344 79.0734 5.83594L77.7016 1.5625H66.0469L64.6781 5.83437C63.4719 6.22187 62.3047 6.70312 61.1953 7.27031L57.2125 5.22031L48.9719 13.4609L51.0219 17.4437C50.4547 18.5531 49.9734 19.7203 49.5859 20.9266L45.3125 22.2984V33.9531L49.5844 35.3219C49.9734 36.5297 50.4531 37.6969 51.0203 38.8047L48.9703 42.7859L57.2109 51.0266L61.1938 48.9766C62.3031 49.5438 63.4703 50.025 64.6766 50.4125L66.0484 54.6875H77.7031L79.0719 50.4156C80.2781 50.0281 81.4453 49.5469 82.5547 48.9797L86.5375 51.0297L94.7781 42.7891L92.7281 38.8078C93.2953 37.7 93.775 36.5328 94.1641 35.325L98.4375 33.9516ZM71.875 43.75C63.2453 43.75 56.25 36.7547 56.25 28.125C56.25 19.4953 63.2453 12.5 71.875 12.5C80.5047 12.5 87.5 19.4953 87.5 28.125C87.5 36.7547 80.5047 43.75 71.875 43.75Z" fill="#B1040E"/>
<path d="M20.3125 43.75H39.0625V57.8125H20.3125V43.75Z" fill="#B1040E"/>
<path d="M14.0625 68.75H32.8125V81.25H14.0625V68.75Z" fill="#B1040E"/>
<path d="M71.875 45.3125C81.3516 45.3125 89.0625 37.6016 89.0625 28.125C89.0625 18.6484 81.3516 10.9375 71.875 10.9375C62.3984 10.9375 54.6875 18.6484 54.6875 28.125C54.6875 37.6016 62.3984 45.3125 71.875 45.3125ZM71.875 14.0625C79.6281 14.0625 85.9375 20.3719 85.9375 28.125C85.9375 35.8781 79.6281 42.1875 71.875 42.1875C64.1219 42.1875 57.8125 35.8781 57.8125 28.125C57.8125 20.3719 64.1219 14.0625 71.875 14.0625Z" fill="#323232"/>
<path d="M77.8125 35.3124L83.2031 28.1249L77.8125 20.9374L75.3125 22.8124L79.2969 28.1249L75.3125 33.4374L77.8125 35.3124Z" fill="#323232"/>
<path d="M68.4375 33.4374L64.4531 28.1249L68.4375 22.8124L65.9375 20.9374L60.5469 28.1249L65.9375 35.3124L68.4375 33.4374Z" fill="#323232"/>
<path d="M68.7891 38.8459L71.9268 16.97L75.0206 17.4138L71.8828 39.2897L68.7891 38.8459Z" fill="#323232"/>
<path d="M10.9375 23.4375C9.21406 23.4375 7.8125 24.8391 7.8125 26.5625V29.6875C7.8125 31.4109 9.21406 32.8125 10.9375 32.8125H26.5625C28.2859 32.8125 29.6875 31.4109 29.6875 29.6875V26.5625C29.6875 24.8391 28.2859 23.4375 26.5625 23.4375H10.9375ZM20.3125 26.5625V29.6875H17.1875V26.5625H20.3125ZM10.9375 26.5625H14.0625V29.6875H10.9375V26.5625ZM23.4375 29.6875V26.5625H26.5625L26.5641 29.6875H23.4375Z" fill="#323232"/>
<path d="M71.875 82.8125C69.2906 82.8125 67.1875 84.9156 67.1875 87.5C67.1875 90.0844 69.2906 92.1875 71.875 92.1875C74.4594 92.1875 76.5625 90.0844 76.5625 87.5C76.5625 84.9156 74.4594 82.8125 71.875 82.8125ZM71.875 89.0625C71.0141 89.0625 70.3125 88.3609 70.3125 87.5C70.3125 86.6391 71.0141 85.9375 71.875 85.9375C72.7359 85.9375 73.4375 86.6391 73.4375 87.5C73.4375 88.3609 72.7359 89.0625 71.875 89.0625Z" fill="#323232"/>
<path d="M73.4375 76.6875V57.8125H70.3125V76.6875C65.0203 77.45 60.9375 82.0016 60.9375 87.5C60.9375 88.0312 60.9891 88.55 61.0625 89.0625H6.25C5.38906 89.0625 4.6875 88.3609 4.6875 87.5V39.0625H50.8891L51.0219 38.8047C50.5531 37.8875 50.1594 36.9234 49.8109 35.9375H4.6875V21.875C4.6875 21.0141 5.38906 20.3125 6.25 20.3125H49.8109C50.1578 19.3266 50.5531 18.3625 51.0219 17.4453L50.8875 17.1875H6.25C3.66562 17.1875 1.5625 19.2906 1.5625 21.875V87.5C1.5625 90.0844 3.66562 92.1875 6.25 92.1875H62.0078C63.7672 95.8766 67.5234 98.4375 71.875 98.4375C77.9062 98.4375 82.8125 93.5312 82.8125 87.5C82.8125 82.0016 78.7297 77.45 73.4375 76.6875ZM71.875 95.3125C67.5672 95.3125 64.0625 91.8078 64.0625 87.5C64.0625 83.1922 67.5672 79.6875 71.875 79.6875C76.1828 79.6875 79.6875 83.1922 79.6875 87.5C79.6875 91.8078 76.1828 95.3125 71.875 95.3125Z" fill="#323232"/>
<path d="M92.1875 76.85V71.2281L85.9375 64.9781V53.125H82.8125V66.2719L89.0625 72.5219V76.85C87.2484 77.4969 85.9375 79.2156 85.9375 81.25C85.9375 83.8344 88.0406 85.9375 90.625 85.9375C93.2094 85.9375 95.3125 83.8344 95.3125 81.25C95.3125 79.2156 94.0016 77.4969 92.1875 76.85ZM90.625 82.8125C89.7641 82.8125 89.0625 82.1109 89.0625 81.25C89.0625 80.3891 89.7641 79.6875 90.625 79.6875C91.4859 79.6875 92.1875 80.3891 92.1875 81.25C92.1875 82.1109 91.4859 82.8125 90.625 82.8125Z" fill="#323232"/>
<path d="M48.4375 81.25C48.4375 83.8344 50.5406 85.9375 53.125 85.9375C55.7094 85.9375 57.8125 83.8344 57.8125 81.25C57.8125 79.2156 56.5016 77.4969 54.6875 76.85V72.5219L60.9375 66.2719V53.125H57.8125V64.9781L51.5625 71.2281V76.85C49.7484 77.4969 48.4375 79.2156 48.4375 81.25ZM53.125 82.8125C52.2641 82.8125 51.5625 82.1109 51.5625 81.25C51.5625 80.3891 52.2641 79.6875 53.125 79.6875C53.9859 79.6875 54.6875 80.3891 54.6875 81.25C54.6875 82.1109 53.9859 82.8125 53.125 82.8125Z" fill="#323232"/>
<path d="M15.625 45.3125H17.1875V42.1875H15.625C13.0406 42.1875 10.9375 44.2906 10.9375 46.875C10.9375 47.7359 10.2359 48.4375 9.375 48.4375H7.8125V51.5625H9.375C10.2359 51.5625 10.9375 52.2641 10.9375 53.125C10.9375 55.7094 13.0406 57.8125 15.625 57.8125H17.1875V54.6875H15.625C14.7641 54.6875 14.0625 53.9859 14.0625 53.125C14.0625 51.9203 13.5922 50.8313 12.8438 50C13.5922 49.1687 14.0625 48.0797 14.0625 46.875C14.0625 46.0141 14.7641 45.3125 15.625 45.3125Z" fill="#323232"/>
<path d="M20.3125 42.1875H39.0625V45.3125H20.3125V42.1875Z" fill="#323232"/>
<path d="M20.3125 48.4375H39.0625V51.5625H20.3125V48.4375Z" fill="#323232"/>
<path d="M35.9375 54.6875H39.0625V57.8125H35.9375V54.6875Z" fill="#323232"/>
<path d="M20.3125 54.6875H32.8125V57.8125H20.3125V54.6875Z" fill="#323232"/>
<path d="M42.1875 78.125C42.1875 77.2641 42.8891 76.5625 43.75 76.5625H45.3125V73.4375H43.75C42.8891 73.4375 42.1875 72.7359 42.1875 71.875C42.1875 69.2906 40.0844 67.1875 37.5 67.1875H35.9375V70.3125H37.5C38.3609 70.3125 39.0625 71.0141 39.0625 71.875C39.0625 73.0797 39.5328 74.1687 40.2813 75C39.5313 75.8313 39.0625 76.9203 39.0625 78.125C39.0625 78.9859 38.3609 79.6875 37.5 79.6875H35.9375V82.8125H37.5C40.0844 82.8125 42.1875 80.7094 42.1875 78.125Z" fill="#323232"/>
<path d="M14.0625 79.6875H32.8125V82.8125H14.0625V79.6875Z" fill="#323232"/>
<path d="M20.3125 73.4375H32.8125V76.5625H20.3125V73.4375Z" fill="#323232"/>
<path d="M14.0625 73.4375H17.1875V76.5625H14.0625V73.4375Z" fill="#323232"/>
<path d="M14.0625 67.1875H32.8125V70.3125H14.0625V67.1875Z" fill="#323232"/>
<path d="M7.8125 60.9375H39.0625V64.0625H7.8125V60.9375Z" fill="#323232"/>
</svg>
