<svg width="100" height="100" fill="none" xmlns="http://www.w3.org/2000/svg"><path d="M14.744 38.987l-.885-.626a13.086 13.086 0 00-7.609-2.423v-3.126c3.392 0 6.648 1.038 9.414 3l.884.627-1.804 2.548zm7.972-6.549l-1.461-2.588a6.473 6.473 0 00-5.63-3.288v-3.125a9.607 9.607 0 018.353 4.877l1.461 2.588-2.723 1.535zm13.944 0l-2.722-1.535 1.46-2.587a9.6 9.6 0 018.352-4.878v3.125a6.477 6.477 0 00-5.631 3.287l-1.46 2.587zm7.09 5.062c0 .074-.019.14-.022.213l.002.001a6.292 6.292 0 011.683.719l.104-.073a13.232 13.232 0 015.583-2.266l-.483-3.09a16.355 16.355 0 00-6.907 2.807l-.182.128a6.14 6.14 0 01.222 1.561z" fill="#474747"/><path d="M43.728 37.714c.003-.072.022-.14.022-.214a6.25 6.25 0 00-6.25-6.25c-.778 0-1.514.16-2.202.419-1.01-2.09-3.132-3.544-5.61-3.544-2.479 0-4.6 1.453-5.611 3.544a6.212 6.212 0 00-2.202-.419 6.25 6.25 0 00-6.25 6.25c0 .073.019.142.022.214-2.703.69-4.71 3.119-4.71 6.036 0 1.486.541 2.833 1.408 3.906l1.094 1.094h.02a4.661 4.661 0 013.729-1.875h1.562l3.052-.016a15.99 15.99 0 0011.01-4.672l1.374 1.374c2.122 2.122 5 3.314 8.002 3.314a4.66 4.66 0 013.728 1.875h.022l1.093-1.094c.866-1.073 1.407-2.42 1.407-3.906 0-2.917-2.007-5.347-4.71-6.036z" fill="#B1040E"/><path d="M47.614 70.906l-11.676-3.334v-2.628a19.576 19.576 0 004.873-7.132h1.377a6.256 6.256 0 006.25-6.25 6.256 6.256 0 00-6.25-6.25 9.69 9.69 0 01-6.897-2.856l-2.478-2.478-1.105 1.105a14.343 14.343 0 01-10.211 4.23h-4.31a6.256 6.256 0 00-6.25 6.25 6.256 6.256 0 006.25 6.25h1.377a19.563 19.563 0 004.873 7.13v2.629l-11.676 3.334C5.756 72.623 1.563 78.183 1.563 84.428v14.01h56.25v-14.01c0-6.245-4.194-11.805-10.199-13.522zm-12.634-.36l.695.2-.892 7.138-3.033-3.031 3.23-4.306zm10.333-18.984a3.128 3.128 0 01-3.126 3.125h-.435c.282-1.326.435-2.693.435-4.087v-2.163a3.128 3.128 0 013.126 3.125zm-28.126 3.125a3.128 3.128 0 01-3.125-3.125 3.128 3.128 0 013.126-3.125V50.6c0 1.394.153 2.76.435 4.087h-.436zm3.125-4.087v-2.163h1.185a17.44 17.44 0 0011.267-4.087l.317.316a12.783 12.783 0 005.981 3.376V50.6a16.467 16.467 0 01-9.374 14.873A16.467 16.467 0 0120.313 50.6zm8.76 18.023l.616.264.615-.264a19.718 19.718 0 002.51-1.298v.906l-3.126 4.166-3.125-4.166v-.906c.797.486 1.635.923 2.51 1.298zm-4.677 1.924l3.23 4.306-3.033 3.031-.892-7.139.695-.198zm30.293 24.765h-6.25v-9.375h-3.126v9.375h-31.25v-9.375h-3.124v9.375h-6.25V84.428c0-4.856 3.262-9.183 7.93-10.516l8.041-2.297 1.625 13 7.404-7.406 7.403 7.405 1.625-13 8.04 2.297c4.669 1.334 7.931 5.66 7.931 10.517v10.884z" fill="#474747"/><path d="M28.125 89.063h3.125v3.124h-3.125v-3.124zm0-6.25h3.125v3.124h-3.125v-3.124z" fill="#474747"/><path d="M98.438 65.287V53.462l-4.366-1.073a20.915 20.915 0 00-.65-1.555l2.331-3.851-8.362-8.363-3.852 2.332a20.848 20.848 0 00-1.555-.65l-.687-2.802H68.703l-.689 2.803c-.519.192-1.037.41-1.555.65l-3.851-2.331-8.363 8.362 2.332 3.852a20.429 20.429 0 00-.65 1.555l-4.364 1.072v11.824l4.365 1.074c.192.519.41 1.039.65 1.555l-2.331 3.851 8.362 8.363 3.852-2.332c.516.241 1.036.458 1.555.65l1.072 4.365h11.825l1.073-4.366c.519-.192 1.037-.41 1.555-.65l3.851 2.331 8.363-8.362-2.332-3.852a20.6 20.6 0 00.65-1.555l4.365-1.072zM75 71.875c-6.903 0-12.5-5.597-12.5-12.5s5.597-12.5 12.5-12.5 12.5 5.597 12.5 12.5-5.597 12.5-12.5 12.5z" fill="#B1040E"/><path d="M78.486 11.939l6.98 8.373-6.98 8.374 2.403 2.003 8.646-10.377L80.89 9.936l-2.404 2.003zm-12.5-2.003l-8.645 10.376 8.645 10.377 2.403-2.003-6.98-8.374 6.98-8.373-2.403-2.003zm4.331 22.699l3.125-24.993 3.1.387-3.125 24.994-3.1-.388z" fill="#474747"/><path d="M90.625 1.563H56.25c-4.308 0-7.813 3.504-7.813 7.812V31.25c0 4.308 3.505 7.813 7.813 7.813h34.375c4.308 0 7.813-3.505 7.813-7.813V9.375c0-4.308-3.505-7.813-7.813-7.813zm4.688 29.687a4.693 4.693 0 01-4.688 4.688H56.25a4.693 4.693 0 01-4.688-4.688V9.375a4.693 4.693 0 014.688-4.688h34.375a4.693 4.693 0 014.688 4.688V31.25zM75 73.438c-7.755 0-14.063-6.308-14.063-14.063 0-7.755 6.308-14.063 14.063-14.063 7.755 0 14.063 6.308 14.063 14.063 0 7.755-6.308 14.063-14.063 14.063zm0-25c-6.03 0-10.938 4.907-10.938 10.937 0 6.03 4.908 10.938 10.938 10.938s10.938-4.908 10.938-10.938S81.03 48.437 75 48.437z" fill="#474747"/><path d="M75 67.188c-4.308 0-7.813-3.505-7.813-7.813s3.505-7.813 7.813-7.813 7.813 3.505 7.813 7.813-3.505 7.813-7.813 7.813zm0-12.5a4.693 4.693 0 00-4.688 4.687A4.693 4.693 0 0075 64.063a4.693 4.693 0 004.688-4.688A4.693 4.693 0 0075 54.687z" fill="#474747"/></svg>