<svg width="100" height="100" fill="none" xmlns="http://www.w3.org/2000/svg"><path d="M19.866 65.625L18.75 81.25l3.125 3.125L25 81.25l-1.116-15.625h-4.018zm73.884-6.25H59.375a4.693 4.693 0 00-4.688 4.688v21.874a4.693 4.693 0 004.688 4.688H93.75a4.693 4.693 0 004.688-4.688V64.064a4.693 4.693 0 00-4.688-4.688zM65.625 76.563a3.124 3.124 0 110-6.25 3.124 3.124 0 110 6.25zm10.938 6.25a3.124 3.124 0 110-6.25 3.124 3.124 0 110 6.25zM87.5 73.436a3.124 3.124 0 110-6.25 3.124 3.124 0 110 6.25zM40.625 20.313h12.5v14.062h-12.5V20.312z" fill="#B1040E"/><path d="M87.5 65.625a4.693 4.693 0 00-4.688 4.688c0 .593.122 1.157.326 1.68l-4.254 3.646A4.64 4.64 0 0076.562 75c-1.165 0-2.22.444-3.04 1.15l-3.292-1.881a4.85 4.85 0 00.082-.832 4.693 4.693 0 00-4.687-4.687 4.693 4.693 0 00-4.688 4.688 4.693 4.693 0 004.688 4.687c1.166 0 2.22-.444 3.04-1.15l3.293 1.881a4.85 4.85 0 00-.083.832 4.693 4.693 0 004.688 4.687 4.693 4.693 0 004.687-4.688 4.63 4.63 0 00-.325-1.68l4.255-3.646A4.63 4.63 0 0087.5 75a4.693 4.693 0 004.688-4.688 4.693 4.693 0 00-4.688-4.687zM65.625 75a1.563 1.563 0 11.001-3.126A1.563 1.563 0 0165.625 75zm10.938 6.25a1.563 1.563 0 110-3.126 1.563 1.563 0 010 3.126zM87.5 71.875a1.563 1.563 0 11.001-3.126 1.563 1.563 0 01-.001 3.126zM21.875 14.063A3.128 3.128 0 0125 17.186h3.125c0-2.904-1.998-5.33-4.688-6.028V7.812h-3.125v3.125h-4.687v6.25a6.256 6.256 0 006.25 6.25A3.128 3.128 0 0125 26.563v3.125h-3.125a3.128 3.128 0 01-3.125-3.125h-3.125c0 2.905 1.998 5.33 4.688 6.029v3.346h3.125v-3.124h4.687v-6.25a6.256 6.256 0 00-6.25-6.25 3.128 3.128 0 01-3.125-3.125v-3.125h3.125zM62.5 29.688h-6.25v18.75h28.125V20.311H75v3.125h-6.25v3.125H62.5v3.125zm-3.125 3.125H62.5v12.5h-3.125v-12.5zm18.75-9.376h3.125v21.875h-3.125V23.439zM75 26.563v18.75h-3.125v-18.75H75zm-6.25 3.125v15.625h-3.125V29.688h3.125z" fill="#474747"/><path d="M85.938 54.688A4.693 4.693 0 0090.624 50V18.75a4.693 4.693 0 00-4.688-4.688H40.593c-3.139-7.517-10.517-12.5-18.717-12.5-11.2 0-20.313 9.113-20.313 20.313s9.113 20.313 20.313 20.313c4.563 0 8.95-1.568 12.5-4.354V50a4.693 4.693 0 004.688 4.688h1.562v6.25a3.128 3.128 0 01-3.125 3.124h-7.986a10.896 10.896 0 003.299-7.812c0-6.03-4.908-10.938-10.938-10.938S10.937 50.22 10.937 56.25c0 3.317 1.491 6.29 3.832 8.297C7.208 66.35 1.562 73.145 1.562 81.25v17.188h32.813V79.823c0-1.134.81-2.104 1.923-2.307l4.999-.91A12.492 12.492 0 0051.563 64.31v-9.621h34.374zM21.874 39.062c-9.477 0-17.188-7.71-17.188-17.187S12.399 4.687 21.875 4.687c6.62 0 12.605 3.841 15.448 9.72a4.686 4.686 0 00-2.948 4.343v14.864c-3.252 3.46-7.767 5.449-12.5 5.449zM14.062 56.25c0-4.308 3.505-7.813 7.813-7.813s7.813 3.505 7.813 7.813-3.505 7.813-7.813 7.813-7.813-3.505-7.813-7.813zm34.376 8.06a9.37 9.37 0 01-7.699 9.223l-4.998.908a5.469 5.469 0 00-4.491 5.382v15.49H12.5V75H9.375v20.313H4.687V81.25c0-7.755 6.308-14.063 14.063-14.063H37.5a6.256 6.256 0 006.25-6.25v-13.28a2.347 2.347 0 012.344-2.344 2.347 2.347 0 012.343 2.343V64.31zm-2.344-22.123a5.475 5.475 0 00-5.469 5.47v3.906h-1.563c-.862 0-1.562-.7-1.562-1.563V18.75c0-.863.7-1.563 1.563-1.563h46.874c.863 0 1.563.7 1.563 1.563V50c0 .862-.7 1.563-1.563 1.563H51.563v-3.907a5.475 5.475 0 00-5.47-5.468z" fill="#474747"/><path d="M40.625 20.313h3.125v3.125h-3.125v-3.125zm6.25 0H50v3.125h-3.125v-3.125zm6.25 0h3.125v3.125h-3.125v-3.125zm-12.5 6.25h12.5v3.125h-12.5v-3.125zm0 6.25h12.5v3.124h-12.5v-3.124z" fill="#474747"/></svg>