<svg width="100" height="100" fill="none" xmlns="http://www.w3.org/2000/svg"><path d="M45.743 56.627a8.519 8.519 0 004.746 1.438h7.576v-3.77a16.147 16.147 0 01-7.745-10.747H50a6.452 6.452 0 01-.005-12.903v-6.451h1.613a7.076 7.076 0 006.713 4.838h1.352v-4.838l.277.277a15.574 15.574 0 0011.013 4.561v-4.838l.277.277a15.574 15.574 0 0011.013 4.561v1.613h.005a6.452 6.452 0 010 12.903h-.166c-.687 4.37-3.69 8.419-7.898 10.776v3.74h7.575a8.514 8.514 0 004.744-1.437 8.53 8.53 0 003.81-7.116V24.193C90.323 10.854 79.469 0 66.129 0S41.935 10.853 41.935 24.194V49.51a8.532 8.532 0 003.808 7.116z" fill="#B1040E"/><path d="M59.677 33.871a1.613 1.613 0 11-3.226 0 1.613 1.613 0 013.226 0zm16.13 0a1.613 1.613 0 11-3.226 0 1.613 1.613 0 013.226 0zm-3.226 9.677h-3.226a3.229 3.229 0 01-3.226 3.226 3.229 3.229 0 01-3.226-3.226h-3.225A6.458 6.458 0 0066.129 50a6.458 6.458 0 006.452-6.452z" fill="#474747"/><path d="M92.28 64.008l-16.473-5.494v-3.286c3.78-2.378 6.616-6.042 7.64-10.188 3.88-.58 6.876-3.905 6.876-7.943 0-3.895-2.778-7.154-6.456-7.902V27.42h-1.613a13.87 13.87 0 01-9.873-4.089l-3.03-3.03v7.027a13.848 13.848 0 01-8.26-3.998l-3.03-3.03v7.113a5.462 5.462 0 01-4.924-3.73l-.366-1.101h-4.388v6.614c-3.674.752-6.447 4.01-6.447 7.902 0 4.12 3.118 7.489 7.11 7.967a17.784 17.784 0 007.406 10.112v3.338L40 64l-.166.056 1.165 3.01 7.955-2.652 6.966 13.934 5.37-4.475v16.45H37.719v3.226H100V74.716c0-4.866-3.103-9.17-7.72-10.708zm-5.183-26.911c0 2.1-1.353 3.874-3.226 4.542l-.003-9.084c1.876.666 3.23 2.44 3.23 4.542zm-6.882 26.287l-4.94 9.88-6.755-5.63 6.111-6.111 5.584 1.86zM45.162 37.097c0-2.098 1.35-3.871 3.22-4.54v7.766c0 .45.035.894.069 1.335-1.906-.65-3.29-2.439-3.29-4.561zm6.447 3.226V27.476a8.679 8.679 0 006.713 3.17h2.964v-2.979a17.07 17.07 0 009.677 2.978h1.613v-2.978a17.004 17.004 0 008.065 2.904l.005 11.095c-.005 7.018-6.79 13.173-14.521 13.173-8.005 0-14.516-6.512-14.516-14.516zm14.516 17.742a17.93 17.93 0 006.456-1.228v2.173l-6.451 6.45-6.451-6.451v-2.176c2.002.784 4.17 1.23 6.447 1.23zm-14.08 5.319l5.584-1.861 6.112 6.111-6.755 5.63-4.942-9.88zm12.471 26.939V71.185l1.613-1.343 1.613 1.343v19.138h-3.226zm32.259 0h-9.678V75.807h-3.226v14.516H70.968v-16.45l5.371 4.476 6.966-13.934 7.955 2.651a8.055 8.055 0 015.515 7.65v15.607z" fill="#474747"/><path d="M74.193 80.645h6.452v3.226h-6.452v-3.226z" fill="#474747"/><path d="M16.129 8.064h16.129v12.904h-16.13V8.064zM45.161 83.51V71.327l-4.666-1.193a9.687 9.687 0 00-.098-.235l2.456-4.14-8.614-8.615-4.14 2.457-.236-.099-1.192-4.664H16.489l-1.192 4.666c-.08.032-.158.064-.236.098l-4.14-2.458-8.614 8.615 2.456 4.14-.098.235L0 71.33v12.182l4.666 1.192c.033.08.065.158.099.236l-2.458 4.14 8.614 8.614 4.14-2.456.236.098L16.49 100h12.181l1.193-4.666c.079-.033.157-.065.235-.099l4.14 2.457 8.615-8.615-2.457-4.14.099-.235 4.664-1.193zm-22.58-1.252a4.838 4.838 0 01-4.84-4.839 4.838 4.838 0 014.84-4.838 4.838 4.838 0 110 9.677z" fill="#B1040E"/><path d="M22.581 90.323c-7.115 0-12.903-5.789-12.903-12.904 0-7.114 5.788-12.903 12.903-12.903s12.903 5.789 12.903 12.903c0 7.115-5.788 12.904-12.903 12.904zm0-22.581c-5.337 0-9.678 4.34-9.678 9.677 0 5.338 4.34 9.678 9.678 9.678 5.337 0 9.677-4.34 9.677-9.678 0-5.337-4.34-9.677-9.677-9.677z" fill="#474747"/><path d="M22.58 83.871a6.458 6.458 0 01-6.451-6.452 6.458 6.458 0 016.451-6.451 6.458 6.458 0 016.452 6.451 6.458 6.458 0 01-6.451 6.452zm0-9.677a3.229 3.229 0 00-3.225 3.225 3.229 3.229 0 003.226 3.226 3.229 3.229 0 003.225-3.226 3.229 3.229 0 00-3.226-3.225zM10.623 0L0 10.623v40.99h38.71V0H10.623zm-.946 5.507v4.17h-4.17l4.17-4.17zm25.807 42.88H3.226V12.903h9.677V3.226h22.58v45.161z" fill="#474747"/><path d="M16.129 6.452h16.129v3.225h-16.13V6.452zm0 6.451h16.129v3.226h-16.13v-3.226zm-9.678 6.452h25.807v3.226H6.45v-3.226z" fill="#474747"/><path d="M32.258 45.161H6.45V25.806h25.807v19.355z" fill="#B1040E"/></svg>