<svg width="100" height="100" fill="none" xmlns="http://www.w3.org/2000/svg"><path d="M40.625 76.563v20.312h-12.5V76.562l6.25-6.25 6.25 6.25zM51.103 14.44c-3.219-5.063-8.886-8.19-14.901-8.19h-1.827c-12.923 0-23.438 10.514-23.438 23.438v12.5H12.5a6.25 6.25 0 016.25-6.25v.582a8.396 8.396 0 0113.052-6.986l2.573 1.716 2.572-1.716A8.397 8.397 0 0150 36.52v-.582a6.25 6.25 0 016.25 6.25h1.563v-16.45c0-4.754-2.56-9.041-6.71-11.299z" fill="#B1040E"/><path d="M98.438 41.86V26.89l-6.154-1.462a28.15 28.15 0 00-1.478-3.583l3.314-5.378L83.534 5.881l-5.378 3.313a28 28 0 00-3.583-1.478L73.11 1.562H58.141l-1.463 6.154a28.166 28.166 0 00-3.583 1.478L47.717 5.88l-2.74 2.739a17.774 17.774 0 012.589 1.83l.614-.615 4.795 2.957.794-.428a25.012 25.012 0 014.673-1.929l.863-.259 1.304-5.488h10.032l1.304 5.49.863.259a24.804 24.804 0 014.673 1.928l.794.428 4.795-2.954 7.094 7.093-2.955 4.796.428.793a25.011 25.011 0 011.929 4.674l.259.862 5.487 1.303v10.032l-5.489 1.304-.259.863a24.847 24.847 0 01-1.928 4.673l-.428.794 2.954 4.795-7.093 7.094-4.796-2.955-.793.428a24.953 24.953 0 01-4.672 1.929l-.863.259-1.304 5.487H60.609l-1.304-5.489-.863-.259a24.909 24.909 0 01-4.672-1.928l-.793-.428-4.796 2.955-1.56-1.56a17.195 17.195 0 004.171-6.939c4.049 3.758 9.256 5.836 14.833 5.836 12.063 0 21.875-9.813 21.875-21.875 0-12.063-9.813-21.875-21.875-21.875-4.362 0-8.516 1.27-12.105 3.667.792.706 1.482 1.5 2.07 2.367a18.562 18.562 0 0110.035-2.909c10.34 0 18.75 8.41 18.75 18.75s-8.41 18.75-18.75 18.75a18.557 18.557 0 01-11.78-4.178c2.357-1.347 3.968-3.856 3.968-6.76 0-3.842-2.794-7.028-6.454-7.674-.932-4.532-4.951-7.95-9.754-7.95a9.925 9.925 0 00-5.524 1.671l-1.706 1.138-1.706-1.138a9.925 9.925 0 00-5.524-1.672c-4.803 0-8.823 3.42-9.754 7.95-3.66.647-6.453 3.833-6.453 7.675 0 3.993 3.021 7.258 6.892 7.72a17.228 17.228 0 007.17 9.79v3.238l-15.96 5.32a10.923 10.923 0 00-7.477 10.377v19.805h65.624V78.632c0-4.716-3.004-8.886-7.478-10.377l-15.959-5.32v-3.238c.16-.104.317-.212.473-.321l3.493 3.492 5.378-3.314a27.904 27.904 0 003.583 1.478l1.464 6.154h14.968l1.463-6.153a28.15 28.15 0 003.583-1.478l5.378 3.314 10.586-10.586-3.314-5.378a27.993 27.993 0 001.478-3.583l6.154-1.464zm-43.75.328c0 2.057-1.343 3.792-3.191 4.42.033-.43.066-.858.066-1.295v-7.526c1.814.647 3.124 2.366 3.124 4.4zm-40.626 0c0-2.035 1.311-3.754 3.126-4.4v7.525c0 .437.032.865.065 1.295-1.848-.628-3.19-2.363-3.19-4.42zm6.25 3.124V36.52a6.841 6.841 0 016.833-6.833c1.355 0 2.664.397 3.79 1.147l3.44 2.294 3.44-2.292a6.805 6.805 0 013.79-1.148 6.841 6.841 0 016.833 6.832v8.792c0 7.754-6.31 14.063-14.063 14.063-7.753 0-14.063-6.31-14.063-14.063zm5.938 20.502l5.786 4.628-7.916 7.916-3.55-10.652 5.68-1.892zm37.813 12.819v16.68H56.25v-12.5h-3.125v12.5h-37.5v-12.5H12.5v12.5H4.687v-16.68a7.804 7.804 0 015.343-7.413l7.576-2.525 5.15 15.447 11.619-11.62 11.62 11.62 5.15-15.447 7.577 2.525a7.804 7.804 0 015.34 7.413zM48.18 67.706l-3.55 10.652-7.916-7.916 5.786-4.628 5.68 1.892zm-7.555-4.394l-6.25 5-6.25-5v-2.006a17.071 17.071 0 006.25 1.194c2.206 0 4.31-.433 6.25-1.194v2.007z" fill="#474747"/><path d="M42.188 40.625a1.563 1.563 0 100-3.125 1.563 1.563 0 000 3.125zm-15.625 0a1.563 1.563 0 100-3.125 1.563 1.563 0 000 3.125zm14.062 7.813H37.5a3.128 3.128 0 01-3.125 3.124 3.128 3.128 0 01-3.125-3.124h-3.125a6.256 6.256 0 006.25 6.25 6.256 6.256 0 006.25-6.25zm-4.687 28.125h-3.126v3.124h3.126v-3.124zm0 6.25h-3.126v3.124h3.126v-3.124zm0 6.25h-3.126v3.124h3.126v-3.124zm37.5-68.75h-12.5v3.125h12.5v-3.125zm4.687 6.25H60.937v3.125h17.188v-3.125zm3.125 6.25H60.937v3.124H81.25v-3.124zm-3.125 6.25H60.937v3.124h17.188v-3.124zm-4.687 6.25h-12.5v3.124h12.5v-3.124z" fill="#474747"/></svg>