<svg width="100" height="100" fill="none" xmlns="http://www.w3.org/2000/svg"><path d="M18.749 37.5c-.669 0-1.323.056-1.969.138l-1.21 14.517 4.741 4.742 4.743-4.742L23.832 37.5h-5.083zM87.5 45.313h-3.125a4.693 4.693 0 01-4.688-4.688v-4.688H87.5a4.693 4.693 0 014.688 4.688 4.693 4.693 0 01-4.688 4.688zM42.188 17.188h-7.813a4.693 4.693 0 01-4.688-4.688 4.693 4.693 0 014.688-4.688H37.5a4.693 4.693 0 014.688 4.688v4.688zm40.625-7.813h9.374v18.75h-9.374V9.375z" fill="#B1040E"/><path d="M23.438 1.563v16.085c-.991-.296-2.04-.46-3.125-.46-6.03 0-10.938 4.906-10.938 10.937 0 3.495 1.653 6.603 4.213 8.608C6.625 38.93 1.563 45.447 1.563 53.125v10.938a6.256 6.256 0 006.25 6.25h1.562v21.874a6.256 6.256 0 006.25 6.25c1.877 0 3.54-.846 4.688-2.159 1.146 1.313 2.81 2.16 4.687 2.16a6.256 6.256 0 006.25-6.25v-38.65c0-.677.087-1.339.253-1.977h66.934v-50h-75zM12.5 28.125c0-4.308 3.505-7.813 7.813-7.813 4.307 0 7.812 3.505 7.812 7.813s-3.505 7.813-7.813 7.813c-4.307 0-7.812-3.505-7.812-7.813zm15.625 25.414v38.648A3.128 3.128 0 0125 95.314a3.128 3.128 0 01-3.125-3.126V64.064H18.75v28.124a3.128 3.128 0 01-3.125 3.126 3.128 3.128 0 01-3.125-3.126V50H9.375v17.188H7.812a3.128 3.128 0 01-3.125-3.126V53.126c0-7.753 6.308-14.063 14.063-14.063h9.847c2.026 0 4.008-.56 5.733-1.623l17.172-10.567c.33-.203.707-.31 1.095-.31 1.151 0 2.09.94 2.09 2.091v.61a2.09 2.09 0 01-.954 1.756L33.12 44.356a10.895 10.895 0 00-4.995 9.183zm17.188-26.977c0-8.089 6.178-14.759 14.062-15.545V27.21l11.444 11.444a15.552 15.552 0 01-9.882 3.535 15.5 15.5 0 01-11.274-4.815l5.767-3.73a5.198 5.198 0 002.383-4.38v-.61a5.222 5.222 0 00-5.216-5.215c-.966 0-1.913.267-2.735.773l-4.53 2.787c-.004-.145-.02-.29-.02-.436zm27.715 9.882l-8.319-8.319h11.774a15.545 15.545 0 01-3.455 8.319zM62.5 25V11.017c7.37.736 13.248 6.613 13.983 13.983H62.5zm32.813 23.438H33.156a7.836 7.836 0 011.661-1.46l12.199-7.894c3.556 3.963 8.542 6.228 13.922 6.228 10.339 0 18.75-8.41 18.75-18.75 0-10.339-8.411-18.75-18.75-18.75-10.34 0-18.75 8.411-18.75 18.75 0 .761.062 1.522.154 2.277l-9.651 5.94a7.792 7.792 0 01-4.094 1.158h-.644a10.9 10.9 0 003.297-7.812c0-3.708-1.858-6.984-4.688-8.962V4.687h68.75v43.75z" fill="#474747"/><path d="M87.46 74.617c2.853-1.976 4.728-5.269 4.728-8.992 0-6.03-4.908-10.938-10.938-10.938s-10.938 4.908-10.938 10.938c0 3.723 1.876 7.016 4.727 8.992a17.263 17.263 0 00-9.414 8.89 17.257 17.257 0 00-9.414-8.89c2.852-1.976 4.727-5.269 4.727-8.992 0-6.03-4.908-10.938-10.938-10.938s-10.938 4.908-10.938 10.938c0 3.723 1.876 7.016 4.727 8.992-6.412 2.497-10.977 8.722-10.977 16.008v7.813h65.626v-7.813c0-7.286-4.565-13.51-10.977-16.008zm-14.022-8.992c0-4.308 3.504-7.813 7.812-7.813s7.813 3.505 7.813 7.813-3.505 7.813-7.813 7.813-7.813-3.505-7.813-7.813zm-31.25 0c0-4.308 3.504-7.813 7.812-7.813s7.813 3.505 7.813 7.813-3.505 7.813-7.813 7.813-7.813-3.505-7.813-7.813zm21.874 29.688h-4.687v-12.5H56.25v12.5h-12.5v-12.5h-3.125v12.5h-4.688v-4.688c0-7.755 6.308-14.063 14.063-14.063 7.755 0 14.063 6.308 14.063 14.063v4.688zm31.25 0h-4.687v-12.5H87.5v12.5H75v-12.5h-3.125v12.5h-4.688v-4.688c0-7.755 6.308-14.063 14.063-14.063 7.755 0 14.063 6.308 14.063 14.063v4.688zm-12.499-87.5h9.374v3.125h-9.374V7.812zm0 6.25h9.374v3.124h-9.374v-3.125zm0 6.25h9.374v3.125h-9.374v-3.125zm0 6.25h9.374v3.125h-9.374v-3.125z" fill="#474747"/></svg>