<svg width="100" height="100" fill="none" xmlns="http://www.w3.org/2000/svg"><path d="M96.875 85.938h-43.75V65.624A3.124 3.124 0 0156.25 62.5h37.5a3.124 3.124 0 013.125 3.125v20.313zm-62.5-84.375C21.452 1.563 10.937 12.076 10.937 25v12.5H12.5a6.25 6.25 0 016.25-6.25v-1.563c0-.862.7-1.562 1.563-1.562h28.125c.862 0 1.562.7 1.562 1.563v1.562a6.25 6.25 0 016.25 6.25h1.563V25c0-12.923-10.515-23.438-23.438-23.438z" fill="#B1040E"/><path d="M26.563 35.938a1.563 1.563 0 100-3.126 1.563 1.563 0 000 3.126zm15.625 0a1.563 1.563 0 100-3.126 1.563 1.563 0 000 3.126zm-1.563 7.812H37.5a3.128 3.128 0 01-3.125 3.125 3.128 3.128 0 01-3.125-3.125h-3.125a6.256 6.256 0 006.25 6.25 6.256 6.256 0 006.25-6.25z" fill="#474747"/><path d="M93.75 60.938h-37.5c-.878 0-1.69.257-2.395.68l-10.105-3.37v-3.237a17.24 17.24 0 007.17-9.792c3.87-.461 6.892-3.727 6.892-7.719 0-3.772-2.689-6.928-6.25-7.655v-.157a3.128 3.128 0 00-3.124-3.125H20.311a3.128 3.128 0 00-3.125 3.125v.157c-3.56.727-6.25 3.883-6.25 7.655 0 3.992 3.022 7.258 6.893 7.719A17.228 17.228 0 0025 55.01v3.237l-15.96 5.32a10.925 10.925 0 00-7.477 10.377v15.118H51.85c.647 1.814 2.366 3.124 4.4 3.124h9.375v3.126H62.5v3.124h25v-3.124h-3.125v-3.126h9.375a4.693 4.693 0 004.688-4.687V65.625a4.693 4.693 0 00-4.688-4.688zM54.687 37.5c0 2.058-1.342 3.792-3.19 4.42.033-.43.066-.858.066-1.295V33.1c1.814.647 3.124 2.366 3.124 4.4zm-3.124 48.438H35.937V70.959l6.535 6.535 8.47-13.553.858.286c-.14.443-.237.907-.237 1.398v20.313zm-3.67-23.015l-5.988 9.583-5.32-5.319 6.024-6.024 5.285 1.76zM14.064 37.5c0-2.034 1.31-3.753 3.124-4.4v7.525c0 .438.033.866.066 1.295-1.848-.628-3.19-2.362-3.19-4.42zm6.25 3.125V29.687h28.125v10.938c0 7.753-6.308 14.063-14.063 14.063-7.755 0-14.063-6.31-14.063-14.063zm14.062 17.188c2.206 0 4.31-.433 6.25-1.194v2.11l-6.25 6.25-6.25-6.25v-2.11a17.073 17.073 0 006.25 1.194zm-8.234 3.35l6.025 6.025-5.32 5.318-5.988-9.583 5.283-1.76zm-16.111 5.37l7.778-2.592 8.47 13.554 6.535-6.536v14.978H17.187V75h-3.125v4.688H4.688v-5.743a7.804 7.804 0 015.342-7.412zm-5.342 16.28h9.375v3.124H4.687v-3.124zm76.562 12.5h-12.5v-3.126h12.5v3.126zM95.313 87.5c0 .86-.7 1.563-1.563 1.563h-37.5a1.564 1.564 0 01-1.563-1.563V65.625c0-.86.7-1.563 1.563-1.563h37.5c.862 0 1.563.702 1.563 1.563V87.5z" fill="#474747"/><path d="M80.314 70l4.582 3.437-4.582 3.438 1.875 2.5 7.917-5.938-7.917-5.937-1.875 2.5zm-12.501-2.5l-7.918 5.937 7.918 5.938 1.875-2.5-4.583-3.438L69.688 70l-1.875-2.5zm8.454-1.092L70.855 79.26l2.88 1.213 5.413-12.852-2.881-1.213z" fill="#474747"/></svg>