<svg width="20" height="20" viewBox="0 0 20 20" fill="none" xmlns="http://www.w3.org/2000/svg">
<path d="M16.0849 9.98516L17.5688 7.91786C17.8612 7.50288 17.9197 6.97713 17.7238 6.51058C17.5297 6.04723 17.1164 5.72058 16.6205 5.63987L14.1285 5.23908L13.9776 4.32993L13.9942 4.3133L13.9569 4.20757L13.7118 2.73269C13.6302 2.23364 13.3019 1.8211 12.8337 1.62703C12.5978 1.52863 12.3479 1.49613 12.1045 1.52451C11.8195 1.53198 11.5396 1.61376 11.2979 1.78692L9.31743 3.22015L7.3168 1.7828C7.07514 1.61208 6.79517 1.53198 6.51201 1.52451C6.26698 1.49613 6.01616 1.52863 5.78029 1.6278C5.31618 1.82201 4.99045 2.23532 4.90882 2.73101L4.50803 5.22321L2.00164 5.63896C1.50259 5.7215 1.0902 6.04982 0.895984 6.51714C0.701003 6.98552 0.761877 7.51127 1.05679 7.9229L2.53655 9.96761L1.05267 12.0348C0.760199 12.4497 0.701918 12.9764 0.8969 13.4422C1.09188 13.9063 1.50427 14.2313 1.99997 14.3129L4.49216 14.7137L4.90882 17.2199C4.98969 17.7174 5.31618 18.1298 5.77953 18.3248C6.0154 18.424 6.26698 18.4565 6.51109 18.4281C6.79517 18.4206 7.07605 18.339 7.32092 18.1665L9.29744 16.7476L9.31331 16.7418L11.2979 18.1665C11.5504 18.3465 11.8438 18.4389 12.1421 18.4389C12.3311 18.4389 12.5203 18.4023 12.7028 18.3265C13.1702 18.1323 13.4993 17.7191 13.5809 17.2216L13.9817 14.7294L14.8909 14.5787L15.0375 14.7253L15.8399 14.4429L16.6181 14.3129C17.1172 14.2313 17.5305 13.9029 17.7247 13.4346C17.9197 12.9656 17.8588 12.4415 17.5639 12.0299L16.0849 9.98516Z" fill="#FCDF51"/>
<path d="M12.6578 19.3764C12.3629 19.3764 12.0721 19.2847 11.823 19.1065L9.48749 17.43C9.42661 17.3875 9.32577 17.3899 9.2533 17.4375L6.92862 19.1065C6.51211 19.3989 5.99124 19.4565 5.5314 19.2632C5.07309 19.0714 4.75056 18.6623 4.6697 18.1708L4.19811 15.3319C4.18484 15.2537 4.1232 15.1919 4.04402 15.1786L1.20442 14.707C0.713614 14.6262 0.305342 14.3045 0.112802 13.8455C-0.0805017 13.3838 -0.0229836 12.8638 0.267048 12.4531L1.9459 10.1126C1.98756 10.0517 1.98756 9.95102 1.93843 9.87855L0.272083 7.55464C-0.0203899 7.14804 -0.0788234 6.62809 0.112802 6.16474C0.30458 5.70155 0.713614 5.37734 1.20687 5.29663L4.0457 4.82504C4.12396 4.81162 4.1856 4.74998 4.19903 4.67171L4.67061 1.83197C4.75148 1.34039 5.07309 0.932122 5.53217 0.740497C5.99292 0.547193 6.51363 0.604711 6.9245 0.89459L9.26413 2.57436C9.3308 2.62273 9.42158 2.62273 9.48825 2.5736L11.8222 0.897947C12.2296 0.607152 12.7488 0.54643 13.212 0.739734C13.6753 0.931359 13.9994 1.34039 14.081 1.83288L14.2394 2.78689C14.296 3.12681 14.066 3.44934 13.7252 3.50594C13.3862 3.55934 13.0629 3.33262 13.0062 2.99194L12.8478 2.03702C12.8338 1.947 12.7704 1.90779 12.7337 1.89376C12.6971 1.87957 12.6254 1.86034 12.5512 1.91283L10.2166 3.58924C9.71329 3.9493 9.03924 3.94839 8.53684 3.59016L6.19965 1.91283C6.12535 1.86034 6.0512 1.87621 6.0155 1.89376C5.97217 1.91115 5.91801 1.95036 5.90382 2.03534L5.43132 4.87661C5.33047 5.48246 4.85644 5.95725 4.2506 6.0581L1.41024 6.52968C1.32099 6.54479 1.28269 6.60719 1.26774 6.64396C1.25187 6.68057 1.23433 6.75304 1.28681 6.82643L2.92997 9.1119C3.31078 9.6677 3.31078 10.335 2.97086 10.83L1.28681 13.1763C1.23433 13.2514 1.25187 13.3248 1.26683 13.3614C1.28529 13.4047 1.32434 13.4589 1.40932 13.473L4.2506 13.9446C4.85644 14.0455 5.33047 14.5204 5.43132 15.1261L5.90291 17.9657C5.91709 18.0524 5.97217 18.0907 6.01459 18.1091C6.05044 18.1241 6.12382 18.1416 6.20377 18.0865L8.53424 16.4135C9.04169 16.0659 9.70825 16.0659 10.2041 16.406L12.5504 18.0899C12.6237 18.1424 12.6954 18.1241 12.7329 18.1091C12.7688 18.094 12.8328 18.0557 12.847 17.9666L13.3195 15.1261C13.4202 14.5204 13.8944 14.0455 14.5001 13.9446L17.3406 13.473C17.4265 13.4589 17.4656 13.4047 17.4839 13.3614C17.499 13.3248 17.5173 13.2514 17.4614 13.1714L15.7884 10.8408C15.5875 10.5601 15.6508 10.1693 15.9316 9.96841C16.2124 9.76931 16.6033 9.83095 16.804 10.1118L18.4804 12.4473C18.7729 12.8631 18.8304 13.383 18.6371 13.8446C18.4446 14.3038 18.0363 14.6262 17.5448 14.7061L14.7059 15.1778C14.6277 15.1911 14.566 15.2528 14.5526 15.331L14.081 18.1708C14.0003 18.6631 13.6753 19.0714 13.2129 19.2639C13.0329 19.3397 12.8446 19.3764 12.6578 19.3764Z" fill="#474747"/>
<path d="M10.2091 12.293C10.0492 12.293 9.88915 12.2323 9.76755 12.1097L6.01804 8.36023C5.77393 8.11613 5.77393 7.72036 6.01804 7.4761C6.26215 7.232 6.65791 7.232 6.90202 7.4761L10.21 10.7841L18.9331 2.06101C19.1772 1.8169 19.5729 1.8169 19.817 2.06101C20.0612 2.30512 20.0612 2.70103 19.817 2.94514L10.6515 12.1105C10.5292 12.2323 10.3691 12.293 10.2091 12.293Z" fill="#474747"/>
</svg>
