<svg width="30" height="30" viewBox="0 0 30 30" fill="none" xmlns="http://www.w3.org/2000/svg">
<rect width="30" height="30" fill="#FFFDFD"/>
<path d="M9.7 18L9.616 17.454C10.1107 17.37 10.4093 17.2767 10.512 17.174C10.624 17.0713 10.68 16.8753 10.68 16.586V9.712C10.68 9.42267 10.624 9.22667 10.512 9.124C10.4093 9.02133 10.1107 8.928 9.616 8.844L9.7 8.298H13.13L13.186 8.844L12.318 9.012C12.1313 9.04933 12.038 9.17067 12.038 9.376V16.922C12.038 17.1273 12.1313 17.2487 12.318 17.286L13.186 17.454L13.13 18H9.7Z" fill="#B1040E"/>
<path d="M14.848 22.3305C15.0067 22.4425 15.2633 22.5545 15.618 22.6665C15.982 22.7692 16.388 22.8205 16.836 22.8205C17.284 22.8205 17.6573 22.6852 17.956 22.4145C18.2547 22.1438 18.404 21.7798 18.404 21.3225C18.404 20.6132 18.0027 20.0345 17.2 19.5865C16.9947 19.4838 16.6773 19.3438 16.248 19.1665C15.8187 18.9798 15.5153 18.8445 15.338 18.7605C15.1607 18.6672 14.9507 18.5412 14.708 18.3825C14.4747 18.2145 14.2927 18.0465 14.162 17.8785C13.8353 17.4772 13.672 16.9872 13.672 16.4085C13.672 15.5592 13.9847 14.8872 14.61 14.3925C15.2447 13.8978 16.066 13.6505 17.074 13.6505C17.8393 13.6505 18.558 13.7765 19.23 14.0285C19.258 14.2525 19.272 14.5512 19.272 14.9245C19.272 15.2885 19.2207 15.7785 19.118 16.3945L18.306 16.4925C18.2033 15.4378 18.0773 14.8498 17.928 14.7285C17.704 14.5325 17.2933 14.4345 16.696 14.4345C16.108 14.4345 15.6507 14.5558 15.324 14.7985C14.9973 15.0318 14.834 15.3772 14.834 15.8345C14.834 16.0958 14.8853 16.3292 14.988 16.5345C15.0907 16.7398 15.2773 16.9312 15.548 17.1085C15.8187 17.2858 16.0333 17.4118 16.192 17.4865C16.4253 17.6078 16.752 17.7572 17.172 17.9345C17.592 18.1118 17.9187 18.2658 18.152 18.3965C18.3853 18.5272 18.6373 18.6998 18.908 18.9145C19.4307 19.3532 19.692 19.9878 19.692 20.8185C19.692 21.6492 19.3933 22.3212 18.796 22.8345C18.208 23.3478 17.4007 23.6045 16.374 23.6045C15.8233 23.6045 15.2727 23.5392 14.722 23.4085C14.1807 23.2685 13.784 23.1332 13.532 23.0025C13.504 22.8905 13.49 22.6245 13.49 22.2045C13.49 21.7845 13.546 21.2758 13.658 20.6785L14.456 20.6365C14.5307 21.3085 14.5913 21.7425 14.638 21.9385C14.694 22.1345 14.764 22.2652 14.848 22.3305Z" fill="#B1040E"/>
</svg>
