<svg width="138" height="38" viewBox="0 0 138 38" fill="none" xmlns="http://www.w3.org/2000/svg">
<path d="M10.7996 14.9996L10.7036 14.3756C11.2689 14.2796 11.6103 14.1729 11.7276 14.0556C11.8556 13.9383 11.9196 13.7143 11.9196 13.3836V5.52758C11.9196 5.19691 11.8556 4.97291 11.7276 4.85558C11.6103 4.73825 11.2689 4.63158 10.7036 4.53558L10.7996 3.91158H14.7196L14.7836 4.53558L13.7916 4.72758C13.5783 4.77025 13.4716 4.90891 13.4716 5.14358V13.7676C13.4716 14.0023 13.5783 14.1409 13.7916 14.1836L14.7836 14.3756L14.7196 14.9996H10.7996ZM17.7902 14.9996L17.6942 14.3756C18.2596 14.2796 18.6009 14.1729 18.7182 14.0556C18.8462 13.9383 18.9102 13.7143 18.9102 13.3836V5.52758C18.9102 5.19691 18.8462 4.97291 18.7182 4.85558C18.6009 4.73825 18.2596 4.63158 17.6942 4.53558L17.7902 3.91158H19.0222H19.9662H20.8462L26.3182 11.9756H26.4302V5.84758C26.4302 5.36758 26.3396 5.04758 26.1582 4.88758C25.9876 4.72758 25.5662 4.61025 24.8942 4.53558L24.9902 3.91158H28.7502L28.8142 4.53558L27.8222 4.72758C27.6089 4.77025 27.5022 4.90891 27.5022 5.14358V14.9996H26.5582H26.5102L20.1102 5.52758H19.9822V13.3996C19.9822 13.6663 20.0302 13.8636 20.1262 13.9916C20.2329 14.1196 20.4196 14.1996 20.6862 14.2316L21.8062 14.3756L21.7422 14.9996H17.7902ZM31.7965 14.9996L31.7005 14.3756C32.2658 14.2796 32.6071 14.1729 32.7245 14.0556C32.8525 13.9383 32.9165 13.7143 32.9165 13.3836V5.52758C32.9165 5.19691 32.8525 4.97291 32.7245 4.85558C32.6071 4.73825 32.2658 4.63158 31.7005 4.53558L31.7965 3.91158H39.2525C39.3165 4.30625 39.3485 4.70091 39.3485 5.09558C39.3485 5.47958 39.3378 5.91691 39.3165 6.40758L38.4045 6.51958C38.2551 5.78358 38.1485 5.32491 38.0845 5.14358C38.0205 4.95158 37.9458 4.85025 37.8605 4.83958C37.6045 4.80758 37.2791 4.78625 36.8845 4.77558L34.4685 4.72758V9.17558H36.9325C37.1991 9.17558 37.4338 8.79691 37.6365 8.03958L38.1325 8.08758C38.1325 8.86625 38.1431 9.41025 38.1645 9.71958C38.1965 10.0289 38.2125 10.2156 38.2125 10.2796C38.2231 10.3436 38.2445 10.4983 38.2765 10.7436C38.3191 10.9889 38.3458 11.1596 38.3565 11.2556L37.7805 11.3516C37.5245 10.4663 37.2791 10.0236 37.0445 10.0236H34.4685V13.7676C34.4685 14.0236 34.5751 14.1623 34.7885 14.1836L36.4045 14.3756L36.3405 14.9996H31.7965ZM46.9308 15.1436C45.3202 15.1436 44.0775 14.6476 43.2028 13.6556C42.3282 12.6529 41.8908 11.2876 41.8908 9.55958C41.8908 7.82091 42.3548 6.42358 43.2828 5.36758C44.2108 4.30091 45.4802 3.76758 47.0908 3.76758C48.7122 3.76758 49.9602 4.25825 50.8348 5.23958C51.7095 6.21025 52.1469 7.56491 52.1469 9.30358C52.1469 11.0316 51.6829 12.4396 50.7548 13.5276C49.8268 14.6049 48.5522 15.1436 46.9308 15.1436ZM47.1548 14.2956C47.7308 14.2956 48.2322 14.1623 48.6588 13.8956C49.0962 13.6289 49.4375 13.2609 49.6828 12.7916C50.1415 11.8849 50.3708 10.7436 50.3708 9.36758C50.3708 7.99158 50.0668 6.85558 49.4588 5.95958C48.8615 5.06358 48.0028 4.61558 46.8828 4.61558C46.3068 4.61558 45.8002 4.74891 45.3628 5.01558C44.9362 5.27158 44.6055 5.62891 44.3708 6.08758C43.9015 6.97291 43.6668 8.10358 43.6668 9.47958C43.6668 10.8449 43.9655 11.9916 44.5628 12.9196C45.1602 13.8369 46.0242 14.2956 47.1548 14.2956ZM55.1059 14.9996L55.0099 14.3756C55.5752 14.2796 55.9165 14.1729 56.0339 14.0556C56.1619 13.9383 56.2259 13.7143 56.2259 13.3836V5.52758C56.2259 5.19691 56.1619 4.97291 56.0339 4.85558C55.9165 4.73825 55.5752 4.63158 55.0099 4.53558L55.1059 3.91158H59.5539C60.6952 3.91158 61.5432 4.14625 62.0979 4.61558C62.6525 5.08491 62.9299 5.71958 62.9299 6.51958C62.9299 7.31958 62.7112 8.01825 62.2739 8.61558C61.8365 9.20225 61.2232 9.62891 60.4339 9.89558V9.97558C60.5405 10.0076 60.6579 10.1249 60.7859 10.3276L63.0419 13.7196C63.2019 13.9543 63.3565 14.1143 63.5059 14.1996C63.6659 14.2849 63.9485 14.3436 64.3539 14.3756L64.2579 14.9996H61.9859L58.8179 10.1356H57.7779V13.7676C57.7779 14.0023 57.8845 14.1409 58.0979 14.1836L58.9779 14.3756L58.9139 14.9996H55.1059ZM57.7779 9.31958H58.6579C59.5005 9.31958 60.1352 9.13825 60.5619 8.77558C60.9992 8.40225 61.2179 7.72491 61.2179 6.74358C61.2179 5.42091 60.4979 4.75958 59.0579 4.75958H58.0979C57.8845 4.75958 57.7779 4.88758 57.7779 5.14358V9.31958ZM66.7032 14.9996L66.6072 14.3756C67.1832 14.2689 67.5459 14.1569 67.6952 14.0396C67.8552 13.9223 67.9352 13.7036 67.9352 13.3836V5.52758C67.9352 5.19691 67.8712 4.97291 67.7432 4.85558C67.6259 4.73825 67.2846 4.63158 66.7192 4.53558L66.8152 3.91158H70.1752L73.2472 12.3276C73.3006 12.4983 73.3379 12.6316 73.3592 12.7276H73.5192C73.5299 12.6103 73.5566 12.5036 73.5992 12.4076L76.7192 3.91158H79.6152L79.6792 4.53558L79.0072 4.72758C78.8046 4.79158 78.7032 4.91425 78.7032 5.09558V13.7676C78.7032 14.0023 78.8099 14.1409 79.0232 14.1836L80.0152 14.3756L79.9512 14.9996H75.9992L75.9032 14.3756C76.4259 14.2796 76.7619 14.1783 76.9112 14.0716C77.0712 13.9543 77.1512 13.7676 77.1512 13.5116V6.19958C77.1512 5.95425 77.1672 5.75158 77.1992 5.59158H77.0712L73.6952 14.6796H72.5432L69.1352 5.55958H69.0072V13.3996C69.0072 13.6556 69.0552 13.8476 69.1512 13.9756C69.2579 14.1036 69.4446 14.1889 69.7112 14.2316L70.4952 14.3756L70.4312 14.9996H66.7032ZM82.4486 14.9996L82.3366 14.3596C82.7419 14.2529 82.9873 14.1676 83.0726 14.1036C83.1686 14.0396 83.2593 13.8956 83.3446 13.6716L86.9286 3.76758H88.2566L91.9206 13.9276C91.9739 14.0876 92.2886 14.2209 92.8646 14.3276L92.8006 14.9996H89.0726L88.9766 14.3596C89.7233 14.2103 90.0966 14.0343 90.0966 13.8316C90.0966 13.7463 90.0753 13.6343 90.0326 13.4956L89.3286 11.4156H85.1846L84.3686 13.6876C84.3259 13.8156 84.3046 13.9063 84.3046 13.9596C84.3046 14.0023 84.3366 14.0289 84.4006 14.0396L85.5366 14.3436L85.4726 14.9996H82.4486ZM85.4886 10.5676H89.0566L87.4886 6.07158C87.4139 5.84758 87.3766 5.69291 87.3766 5.60758H87.2166L85.4886 10.5676ZM96.9273 14.3756C97.5993 14.2689 98.01 14.1623 98.1593 14.0556C98.3087 13.9383 98.3833 13.7143 98.3833 13.3836V4.74358C97.0073 4.76491 96.2713 4.79691 96.1753 4.83958C96.0793 4.88225 96.0047 4.93025 95.9513 4.98358C95.8233 5.15425 95.6687 5.75691 95.4873 6.79158L94.6713 6.72758C94.6607 6.56758 94.6553 6.25825 94.6553 5.79958C94.6553 5.33025 94.7033 4.70091 94.7993 3.91158H103.52C103.616 4.70091 103.664 5.33025 103.664 5.79958C103.664 6.25825 103.658 6.56758 103.648 6.72758L102.832 6.79158C102.65 5.75691 102.49 5.15425 102.352 4.98358C102.309 4.93025 102.24 4.88225 102.144 4.83958C102.048 4.79691 101.312 4.76491 99.9353 4.74358V13.7676C99.9353 14.0129 100.042 14.1516 100.256 14.1836L101.488 14.3756L101.424 14.9996H97.0233L96.9273 14.3756ZM106.178 14.9996L106.082 14.3756C106.647 14.2796 106.989 14.1729 107.106 14.0556C107.234 13.9383 107.298 13.7143 107.298 13.3836V5.52758C107.298 5.19691 107.234 4.97291 107.106 4.85558C106.989 4.73825 106.647 4.63158 106.082 4.53558L106.178 3.91158H110.098L110.162 4.53558L109.17 4.72758C108.957 4.77025 108.85 4.90891 108.85 5.14358V13.7676C108.85 14.0023 108.957 14.1409 109.17 14.1836L110.162 14.3756L110.098 14.9996H106.178ZM117.969 15.1436C116.358 15.1436 115.115 14.6476 114.241 13.6556C113.366 12.6529 112.929 11.2876 112.929 9.55958C112.929 7.82091 113.393 6.42358 114.321 5.36758C115.249 4.30091 116.518 3.76758 118.129 3.76758C119.75 3.76758 120.998 4.25825 121.873 5.23958C122.747 6.21025 123.185 7.56491 123.185 9.30358C123.185 11.0316 122.721 12.4396 121.793 13.5276C120.865 14.6049 119.59 15.1436 117.969 15.1436ZM118.193 14.2956C118.769 14.2956 119.27 14.1623 119.697 13.8956C120.134 13.6289 120.475 13.2609 120.721 12.7916C121.179 11.8849 121.409 10.7436 121.409 9.36758C121.409 7.99158 121.105 6.85558 120.497 5.95958C119.899 5.06358 119.041 4.61558 117.921 4.61558C117.345 4.61558 116.838 4.74891 116.401 5.01558C115.974 5.27158 115.643 5.62891 115.409 6.08758C114.939 6.97291 114.705 8.10358 114.705 9.47958C114.705 10.8449 115.003 11.9916 115.601 12.9196C116.198 13.8369 117.062 14.2956 118.193 14.2956ZM126.144 14.9996L126.048 14.3756C126.613 14.2796 126.954 14.1729 127.072 14.0556C127.2 13.9383 127.264 13.7143 127.264 13.3836V5.52758C127.264 5.19691 127.2 4.97291 127.072 4.85558C126.954 4.73825 126.613 4.63158 126.048 4.53558L126.144 3.91158H127.376H128.32H129.2L134.672 11.9756H134.784V5.84758C134.784 5.36758 134.693 5.04758 134.512 4.88758C134.341 4.72758 133.92 4.61025 133.248 4.53558L133.344 3.91158H137.104L137.168 4.53558L136.176 4.72758C135.962 4.77025 135.856 4.90891 135.856 5.14358V14.9996H134.912H134.864L128.464 5.52758H128.336V13.3996C128.336 13.6663 128.384 13.8636 128.48 13.9916C128.586 14.1196 128.773 14.1996 129.04 14.2316L130.16 14.3756L130.096 14.9996H126.144ZM12.1116 32.6876C12.2929 32.8156 12.5863 32.9436 12.9916 33.0716C13.4076 33.1889 13.8716 33.2476 14.3836 33.2476C14.8956 33.2476 15.3223 33.0929 15.6636 32.7836C16.0049 32.4743 16.1756 32.0583 16.1756 31.5356C16.1756 30.7249 15.7169 30.0636 14.7996 29.5516C14.5649 29.4343 14.2023 29.2743 13.7116 29.0716C13.2209 28.8583 12.8743 28.7036 12.6716 28.6076C12.4689 28.5009 12.2289 28.3569 11.9516 28.1756C11.6849 27.9836 11.4769 27.7916 11.3276 27.5996C10.9543 27.1409 10.7676 26.5809 10.7676 25.9196C10.7676 24.9489 11.1249 24.1809 11.8396 23.6156C12.5649 23.0503 13.5036 22.7676 14.6556 22.7676C15.5303 22.7676 16.3516 22.9116 17.1196 23.1996C17.1516 23.4556 17.1676 23.7969 17.1676 24.2236C17.1676 24.6396 17.1089 25.1996 16.9916 25.9036L16.0636 26.0156C15.9463 24.8103 15.8023 24.1383 15.6316 23.9996C15.3756 23.7756 14.9063 23.6636 14.2236 23.6636C13.5516 23.6636 13.0289 23.8023 12.6556 24.0796C12.2823 24.3463 12.0956 24.7409 12.0956 25.2636C12.0956 25.5623 12.1543 25.8289 12.2716 26.0636C12.3889 26.2983 12.6023 26.5169 12.9116 26.7196C13.2209 26.9223 13.4663 27.0663 13.6476 27.1516C13.9143 27.2903 14.2876 27.4609 14.7676 27.6636C15.2476 27.8663 15.6209 28.0423 15.8876 28.1916C16.1543 28.3409 16.4423 28.5383 16.7516 28.7836C17.3489 29.2849 17.6476 30.0103 17.6476 30.9596C17.6476 31.9089 17.3063 32.6769 16.6236 33.2636C15.9516 33.8503 15.0289 34.1436 13.8556 34.1436C13.2263 34.1436 12.5969 34.0689 11.9676 33.9196C11.3489 33.7596 10.8956 33.6049 10.6076 33.4556C10.5756 33.3276 10.5596 33.0236 10.5596 32.5436C10.5596 32.0636 10.6236 31.4823 10.7516 30.7996L11.6636 30.7516C11.7489 31.5196 11.8183 32.0156 11.8716 32.2396C11.9356 32.4636 12.0156 32.6129 12.1116 32.6876ZM25.0786 28.2236L26.8546 24.7836C27.0786 24.3569 27.1906 24.0956 27.1906 23.9996C27.1906 23.9036 27.1213 23.8289 26.9826 23.7756C26.8546 23.7116 26.6039 23.6369 26.2306 23.5516L26.3266 22.9116H29.4946L29.5586 23.5836C29.0893 23.6796 28.7639 23.7863 28.5826 23.9036C28.4013 24.0103 28.2466 24.1916 28.1186 24.4476L25.5906 29.4076V32.7676C25.5906 33.0129 25.6973 33.1516 25.9106 33.1836L27.1426 33.3756L27.0786 33.9996H22.6786L22.5826 33.3756C23.2546 33.2689 23.6653 33.1623 23.8146 33.0556C23.9639 32.9383 24.0386 32.7143 24.0386 32.3836V29.5356L21.1586 24.2396C21.0199 24.0049 20.8919 23.8556 20.7746 23.7916C20.6679 23.7169 20.4279 23.6369 20.0546 23.5516L20.1666 22.9116H23.9266L23.9906 23.5676L22.9186 23.8556C22.8439 23.8663 22.8066 23.8983 22.8066 23.9516C22.8066 24.0049 22.8439 24.0956 22.9186 24.2236L24.7586 27.7596C24.8653 27.9409 24.9186 28.0956 24.9186 28.2236H25.0786ZM33.2491 32.6876C33.4304 32.8156 33.7238 32.9436 34.1291 33.0716C34.5451 33.1889 35.0091 33.2476 35.5211 33.2476C36.0331 33.2476 36.4598 33.0929 36.8011 32.7836C37.1424 32.4743 37.3131 32.0583 37.3131 31.5356C37.3131 30.7249 36.8544 30.0636 35.9371 29.5516C35.7024 29.4343 35.3398 29.2743 34.8491 29.0716C34.3584 28.8583 34.0118 28.7036 33.8091 28.6076C33.6064 28.5009 33.3664 28.3569 33.0891 28.1756C32.8224 27.9836 32.6144 27.7916 32.4651 27.5996C32.0918 27.1409 31.9051 26.5809 31.9051 25.9196C31.9051 24.9489 32.2624 24.1809 32.9771 23.6156C33.7024 23.0503 34.6411 22.7676 35.7931 22.7676C36.6678 22.7676 37.4891 22.9116 38.2571 23.1996C38.2891 23.4556 38.3051 23.7969 38.3051 24.2236C38.3051 24.6396 38.2464 25.1996 38.1291 25.9036L37.2011 26.0156C37.0838 24.8103 36.9398 24.1383 36.7691 23.9996C36.5131 23.7756 36.0438 23.6636 35.3611 23.6636C34.6891 23.6636 34.1664 23.8023 33.7931 24.0796C33.4198 24.3463 33.2331 24.7409 33.2331 25.2636C33.2331 25.5623 33.2918 25.8289 33.4091 26.0636C33.5264 26.2983 33.7398 26.5169 34.0491 26.7196C34.3584 26.9223 34.6038 27.0663 34.7851 27.1516C35.0518 27.2903 35.4251 27.4609 35.9051 27.6636C36.3851 27.8663 36.7584 28.0423 37.0251 28.1916C37.2918 28.3409 37.5798 28.5383 37.8891 28.7836C38.4864 29.2849 38.7851 30.0103 38.7851 30.9596C38.7851 31.9089 38.4438 32.6769 37.7611 33.2636C37.0891 33.8503 36.1664 34.1436 34.9931 34.1436C34.3638 34.1436 33.7344 34.0689 33.1051 33.9196C32.4864 33.7596 32.0331 33.6049 31.7451 33.4556C31.7131 33.3276 31.6971 33.0236 31.6971 32.5436C31.6971 32.0636 31.7611 31.4823 31.8891 30.7996L32.8011 30.7516C32.8864 31.5196 32.9558 32.0156 33.0091 32.2396C33.0731 32.4636 33.1531 32.6129 33.2491 32.6876ZM43.4961 33.3756C44.1681 33.2689 44.5788 33.1623 44.7281 33.0556C44.8774 32.9383 44.9521 32.7143 44.9521 32.3836V23.7436C43.5761 23.7649 42.8401 23.7969 42.7441 23.8396C42.6481 23.8823 42.5734 23.9303 42.5201 23.9836C42.3921 24.1543 42.2374 24.7569 42.0561 25.7916L41.2401 25.7276C41.2294 25.5676 41.2241 25.2583 41.2241 24.7996C41.2241 24.3303 41.2721 23.7009 41.3681 22.9116H50.0881C50.1841 23.7009 50.2321 24.3303 50.2321 24.7996C50.2321 25.2583 50.2268 25.5676 50.2161 25.7276L49.4001 25.7916C49.2188 24.7569 49.0588 24.1543 48.9201 23.9836C48.8774 23.9303 48.8081 23.8823 48.7121 23.8396C48.6161 23.7969 47.8801 23.7649 46.5041 23.7436V32.7676C46.5041 33.0129 46.6108 33.1516 46.8241 33.1836L48.0561 33.3756L47.9921 33.9996H43.5921L43.4961 33.3756ZM52.7465 33.9996L52.6505 33.3756C53.2158 33.2796 53.5571 33.1729 53.6745 33.0556C53.8025 32.9383 53.8665 32.7143 53.8665 32.3836V24.5276C53.8665 24.1969 53.8025 23.9729 53.6745 23.8556C53.5571 23.7383 53.2158 23.6316 52.6505 23.5356L52.7465 22.9116H60.2025C60.2665 23.3063 60.2985 23.7009 60.2985 24.0956C60.2985 24.4796 60.2878 24.9169 60.2665 25.4076L59.3545 25.5196C59.2051 24.7836 59.0985 24.3249 59.0345 24.1436C58.9705 23.9516 58.8958 23.8503 58.8105 23.8396C58.5545 23.8076 58.2291 23.7863 57.8345 23.7756L55.4185 23.7276V28.0316H57.8185C57.9571 28.0316 58.1278 27.6529 58.3305 26.8956L58.8265 26.9436C58.8265 27.7223 58.8371 28.2663 58.8585 28.5756C58.8905 28.8849 58.9065 29.0716 58.9065 29.1356C58.9171 29.1996 58.9385 29.3543 58.9705 29.5996C59.0131 29.8449 59.0398 30.0156 59.0505 30.1116L58.4745 30.2076C58.3038 29.5996 58.1865 29.2263 58.1225 29.0876C58.0691 28.9489 58.0051 28.8796 57.9305 28.8796H55.4185V33.1836L56.8425 33.1676C58.0478 33.1676 58.7838 33.1036 59.0505 32.9756C59.0825 32.9543 59.1038 32.9436 59.1145 32.9436C59.2958 32.8903 59.5305 32.2609 59.8185 31.0556L60.6985 31.1356C60.7091 31.3169 60.7145 31.6423 60.7145 32.1116C60.7145 32.5703 60.6558 33.1996 60.5385 33.9996H52.7465ZM63.7032 33.9996L63.6072 33.3756C64.1832 33.2689 64.5459 33.1569 64.6952 33.0396C64.8552 32.9223 64.9352 32.7036 64.9352 32.3836V24.5276C64.9352 24.1969 64.8712 23.9729 64.7432 23.8556C64.6259 23.7383 64.2846 23.6316 63.7192 23.5356L63.8152 22.9116H67.1752L70.2472 31.3276C70.3006 31.4983 70.3379 31.6316 70.3592 31.7276H70.5192C70.5299 31.6103 70.5566 31.5036 70.5992 31.4076L73.7192 22.9116H76.6152L76.6792 23.5356L76.0072 23.7276C75.8046 23.7916 75.7032 23.9143 75.7032 24.0956V32.7676C75.7032 33.0023 75.8099 33.1409 76.0232 33.1836L77.0152 33.3756L76.9512 33.9996H72.9992L72.9032 33.3756C73.4259 33.2796 73.7619 33.1783 73.9112 33.0716C74.0712 32.9543 74.1512 32.7676 74.1512 32.5116V25.1996C74.1512 24.9543 74.1672 24.7516 74.1992 24.5916H74.0712L70.6952 33.6796H69.5432L66.1352 24.5596H66.0072V32.3996C66.0072 32.6556 66.0552 32.8476 66.1512 32.9756C66.2579 33.1036 66.4446 33.1889 66.7112 33.2316L67.4952 33.3756L67.4312 33.9996H63.7032ZM81.3366 32.6876C81.5179 32.8156 81.8113 32.9436 82.2166 33.0716C82.6326 33.1889 83.0966 33.2476 83.6086 33.2476C84.1206 33.2476 84.5473 33.0929 84.8886 32.7836C85.2299 32.4743 85.4006 32.0583 85.4006 31.5356C85.4006 30.7249 84.9419 30.0636 84.0246 29.5516C83.7899 29.4343 83.4273 29.2743 82.9366 29.0716C82.4459 28.8583 82.0993 28.7036 81.8966 28.6076C81.6939 28.5009 81.4539 28.3569 81.1766 28.1756C80.9099 27.9836 80.7019 27.7916 80.5526 27.5996C80.1793 27.1409 79.9926 26.5809 79.9926 25.9196C79.9926 24.9489 80.3499 24.1809 81.0646 23.6156C81.7899 23.0503 82.7286 22.7676 83.8806 22.7676C84.7553 22.7676 85.5766 22.9116 86.3446 23.1996C86.3766 23.4556 86.3926 23.7969 86.3926 24.2236C86.3926 24.6396 86.3339 25.1996 86.2166 25.9036L85.2886 26.0156C85.1713 24.8103 85.0273 24.1383 84.8566 23.9996C84.6006 23.7756 84.1313 23.6636 83.4486 23.6636C82.7766 23.6636 82.2539 23.8023 81.8806 24.0796C81.5073 24.3463 81.3206 24.7409 81.3206 25.2636C81.3206 25.5623 81.3793 25.8289 81.4966 26.0636C81.6139 26.2983 81.8273 26.5169 82.1366 26.7196C82.4459 26.9223 82.6913 27.0663 82.8726 27.1516C83.1393 27.2903 83.5126 27.4609 83.9926 27.6636C84.4726 27.8663 84.8459 28.0423 85.1126 28.1916C85.3793 28.3409 85.6673 28.5383 85.9766 28.7836C86.5739 29.2849 86.8726 30.0103 86.8726 30.9596C86.8726 31.9089 86.5313 32.6769 85.8486 33.2636C85.1766 33.8503 84.2539 34.1436 83.0806 34.1436C82.4513 34.1436 81.8219 34.0689 81.1926 33.9196C80.5739 33.7596 80.1206 33.6049 79.8326 33.4556C79.8006 33.3276 79.7846 33.0236 79.7846 32.5436C79.7846 32.0636 79.8486 31.4823 79.9766 30.7996L80.8886 30.7516C80.9739 31.5196 81.0433 32.0156 81.0966 32.2396C81.1606 32.4636 81.2406 32.6129 81.3366 32.6876Z" fill="#B1040E"/>
<path d="M0.500001 3L0.5 35" stroke="#B1040E"/>
</svg>
