<svg width="144" height="40" viewBox="0 0 144 40" fill="none" xmlns="http://www.w3.org/2000/svg">
<path d="M12.6297 16.4706L12.5306 15.8282C13.1145 15.7294 13.4669 15.6196 13.5881 15.4988C13.7203 15.378 13.7864 15.1474 13.7864 14.807V6.71997C13.7864 6.37958 13.7203 6.14899 13.5881 6.0282C13.4669 5.90742 13.1145 5.79761 12.5306 5.69879L12.6297 5.05644H16.6782L16.7443 5.69879L15.7198 5.89644C15.4994 5.94036 15.3893 6.08311 15.3893 6.32467V15.2023C15.3893 15.4439 15.4994 15.5867 15.7198 15.6306L16.7443 15.8282L16.6782 16.4706H12.6297ZM19.8495 16.4706L19.7504 15.8282C20.3343 15.7294 20.6867 15.6196 20.808 15.4988C20.9402 15.378 21.0063 15.1474 21.0063 14.807V6.71997C21.0063 6.37958 20.9402 6.14899 20.808 6.0282C20.6867 5.90742 20.3343 5.79761 19.7504 5.69879L19.8495 5.05644H21.1219H22.0969H23.0057L28.6571 13.3576H28.7728V7.04938C28.7728 6.55526 28.6792 6.22585 28.4919 6.06114C28.3157 5.89644 27.8805 5.77565 27.1865 5.69879L27.2856 5.05644H31.1689L31.235 5.69879L30.2105 5.89644C29.9901 5.94036 29.88 6.08311 29.88 6.32467V16.4706H28.905H28.8554L22.2456 6.71997H22.1134V14.8235C22.1134 15.098 22.163 15.3011 22.2621 15.4329C22.3722 15.5647 22.5651 15.647 22.8405 15.68L23.9972 15.8282L23.9311 16.4706H19.8495ZM34.315 16.4706L34.2159 15.8282C34.7997 15.7294 35.1523 15.6196 35.2735 15.4988C35.4057 15.378 35.4718 15.1474 35.4718 14.807V6.71997C35.4718 6.37958 35.4057 6.14899 35.2735 6.0282C35.1523 5.90742 34.7997 5.79761 34.2159 5.69879L34.315 5.05644H42.0155C42.0816 5.46271 42.1147 5.86899 42.1147 6.27526C42.1147 6.67056 42.1036 7.12076 42.0816 7.62585L41.1397 7.74114C40.9854 6.9835 40.8753 6.51134 40.8092 6.32467C40.7431 6.12703 40.6659 6.02271 40.5779 6.01173C40.3135 5.97879 39.9774 5.95683 39.5699 5.94585L37.0746 5.89644V10.4753H39.6194C39.8948 10.4753 40.1371 10.0855 40.3465 9.30585L40.8588 9.35526C40.8588 10.1568 40.8698 10.7168 40.8918 11.0353C40.9249 11.3537 40.9414 11.5459 40.9414 11.6117C40.9524 11.6776 40.9745 11.8368 41.0075 12.0894C41.0515 12.342 41.079 12.5176 41.0901 12.6164L40.4952 12.7153C40.2308 11.8039 39.9774 11.3482 39.7351 11.3482H37.0746V15.2023C37.0746 15.4659 37.1848 15.6086 37.4051 15.6306L39.0741 15.8282L39.008 16.4706H34.315ZM49.9455 16.6188C48.2821 16.6188 46.9987 16.1082 46.0953 15.087C45.192 14.0549 44.7403 12.6494 44.7403 10.8706C44.7403 9.08076 45.2195 7.64232 46.1779 6.55526C47.1364 5.45723 48.4473 4.9082 50.1108 4.9082C51.7853 4.9082 53.0742 5.4133 53.9775 6.4235C54.881 7.42271 55.3326 8.81723 55.3326 10.607C55.3326 12.3859 54.8533 13.8353 53.8949 14.9553C52.9365 16.0643 51.6201 16.6188 49.9455 16.6188ZM50.1769 15.7459C50.7718 15.7459 51.2896 15.6086 51.7302 15.3341C52.1819 15.0596 52.5345 14.6808 52.7878 14.1976C53.2616 13.2643 53.4983 12.0894 53.4983 10.6729C53.4983 9.25644 53.1843 8.08703 52.5564 7.16467C51.9396 6.24232 51.0527 5.78114 49.896 5.78114C49.3011 5.78114 48.7778 5.9184 48.3261 6.19291C47.8855 6.45644 47.544 6.82429 47.3016 7.29644C46.817 8.20782 46.5745 9.37173 46.5745 10.7882C46.5745 12.1937 46.8831 13.3741 47.4999 14.3294C48.1169 15.2737 49.0092 15.7459 50.1769 15.7459ZM58.3887 16.4706L58.2895 15.8282C58.8733 15.7294 59.2259 15.6196 59.3471 15.4988C59.4793 15.378 59.5454 15.1474 59.5454 14.807V6.71997C59.5454 6.37958 59.4793 6.14899 59.3471 6.0282C59.2259 5.90742 58.8733 5.79761 58.2895 5.69879L58.3887 5.05644H62.9825C64.1612 5.05644 65.037 5.298 65.6099 5.78114C66.1827 6.26429 66.4692 6.91761 66.4692 7.74114C66.4692 8.56467 66.2433 9.28389 65.7917 9.89879C65.34 10.5027 64.7065 10.9419 63.8913 11.2164V11.2988C64.0015 11.3317 64.1227 11.4525 64.2549 11.6611L66.5849 15.1529C66.7501 15.3944 66.9098 15.5591 67.0641 15.647C67.2293 15.7349 67.5212 15.7953 67.9399 15.8282L67.8407 16.4706H65.4942L62.2224 11.4635H61.1483V15.2023C61.1483 15.4439 61.2584 15.5867 61.4788 15.6306L62.3876 15.8282L62.3215 16.4706H58.3887ZM61.1483 10.6235H62.0571C62.9274 10.6235 63.5828 10.4368 64.0235 10.0635C64.4751 9.67918 64.7011 8.98193 64.7011 7.97173C64.7011 6.61017 63.9574 5.92938 62.4702 5.92938H61.4788C61.2584 5.92938 61.1483 6.06114 61.1483 6.32467V10.6235ZM70.3663 16.4706L70.2671 15.8282C70.862 15.7184 71.2365 15.6031 71.3908 15.4823C71.556 15.3615 71.6387 15.1364 71.6387 14.807V6.71997C71.6387 6.37958 71.5726 6.14899 71.4404 6.0282C71.3191 5.90742 70.9666 5.79761 70.3828 5.69879L70.4819 5.05644H73.9521L77.1248 13.72C77.1798 13.8956 77.2184 14.0329 77.2405 14.1317H77.4057C77.4167 14.0109 77.4442 13.9011 77.4884 13.8023L80.7107 5.05644H83.7016L83.7677 5.69879L83.0737 5.89644C82.8643 5.96232 82.7597 6.08859 82.7597 6.27526V15.2023C82.7597 15.4439 82.8698 15.5867 83.0902 15.6306L84.1147 15.8282L84.0486 16.4706H79.9671L79.8679 15.8282C80.4077 15.7294 80.7547 15.625 80.909 15.5153C81.0742 15.3944 81.1568 15.2023 81.1568 14.9388V7.41173C81.1568 7.15918 81.1734 6.95056 81.2064 6.78585H81.0742L77.5875 16.1411H76.3978L72.878 6.75291H72.7458V14.8235C72.7458 15.087 72.7954 15.2847 72.8945 15.4164C73.0047 15.5482 73.1974 15.6361 73.4729 15.68L74.2826 15.8282L74.2165 16.4706H70.3663ZM86.6279 16.4706L86.5122 15.8117C86.9308 15.702 87.1842 15.6141 87.2723 15.5482C87.3715 15.4823 87.4651 15.3341 87.5533 15.1035L91.2548 4.9082H92.6263L96.4104 15.367C96.4654 15.5317 96.7905 15.669 97.3854 15.7788L97.3193 16.4706H93.4691L93.3699 15.8117C94.141 15.658 94.5266 15.4768 94.5266 15.2682C94.5266 15.1803 94.5046 15.065 94.4605 14.9223L93.7335 12.7811H89.4536L88.6108 15.12C88.5667 15.2517 88.5447 15.345 88.5447 15.4C88.5447 15.4439 88.5778 15.4714 88.6439 15.4823L89.8171 15.7953L89.751 16.4706H86.6279ZM89.7676 11.9082H93.4525L91.8331 7.27997C91.7559 7.04938 91.7175 6.89017 91.7175 6.80232H91.5522L89.7676 11.9082ZM101.581 15.8282C102.275 15.7184 102.699 15.6086 102.854 15.4988C103.008 15.378 103.085 15.1474 103.085 14.807V5.91291C101.664 5.93487 100.904 5.96782 100.805 6.01173C100.706 6.05565 100.628 6.10506 100.573 6.15997C100.441 6.33565 100.281 6.95605 100.094 8.02114L99.2514 7.95526C99.2404 7.79056 99.2348 7.47212 99.2348 6.99997C99.2348 6.51683 99.2844 5.86899 99.3836 5.05644H108.389C108.489 5.86899 108.538 6.51683 108.538 6.99997C108.538 7.47212 108.533 7.79056 108.522 7.95526L107.679 8.02114C107.492 6.95605 107.326 6.33565 107.183 6.15997C107.139 6.10506 107.068 6.05565 106.968 6.01173C106.869 5.96782 106.109 5.93487 104.688 5.91291V15.2023C104.688 15.4549 104.798 15.5976 105.018 15.6306L106.291 15.8282L106.225 16.4706H101.68L101.581 15.8282ZM111.135 16.4706L111.036 15.8282C111.62 15.7294 111.972 15.6196 112.093 15.4988C112.226 15.378 112.292 15.1474 112.292 14.807V6.71997C112.292 6.37958 112.226 6.14899 112.093 6.0282C111.972 5.90742 111.62 5.79761 111.036 5.69879L111.135 5.05644H115.184L115.25 5.69879L114.225 5.89644C114.005 5.94036 113.895 6.08311 113.895 6.32467V15.2023C113.895 15.4439 114.005 15.5867 114.225 15.6306L115.25 15.8282L115.184 16.4706H111.135ZM123.313 16.6188C121.648 16.6188 120.365 16.1082 119.462 15.087C118.558 14.0549 118.107 12.6494 118.107 10.8706C118.107 9.08076 118.587 7.64232 119.545 6.55526C120.503 5.45723 121.814 4.9082 123.478 4.9082C125.152 4.9082 126.44 5.4133 127.345 6.4235C128.248 7.42271 128.7 8.81723 128.7 10.607C128.7 12.3859 128.22 13.8353 127.262 14.9553C126.304 16.0643 124.986 16.6188 123.313 16.6188ZM123.544 15.7459C124.139 15.7459 124.656 15.6086 125.097 15.3341C125.548 15.0596 125.901 14.6808 126.155 14.1976C126.628 13.2643 126.865 12.0894 126.865 10.6729C126.865 9.25644 126.551 8.08703 125.923 7.16467C125.306 6.24232 124.42 5.78114 123.263 5.78114C122.668 5.78114 122.144 5.9184 121.693 6.19291C121.252 6.45644 120.911 6.82429 120.669 7.29644C120.184 8.20782 119.942 9.37173 119.942 10.7882C119.942 12.1937 120.25 13.3741 120.867 14.3294C121.483 15.2737 122.375 15.7459 123.544 15.7459ZM131.755 16.4706L131.656 15.8282C132.239 15.7294 132.592 15.6196 132.714 15.4988C132.846 15.378 132.912 15.1474 132.912 14.807V6.71997C132.912 6.37958 132.846 6.14899 132.714 6.0282C132.592 5.90742 132.239 5.79761 131.656 5.69879L131.755 5.05644H133.028H134.003H134.912L140.563 13.3576H140.679V7.04938C140.679 6.55526 140.584 6.22585 140.398 6.06114C140.221 5.89644 139.786 5.77565 139.092 5.69879L139.192 5.05644H143.075L143.141 5.69879L142.116 5.89644C141.896 5.94036 141.786 6.08311 141.786 6.32467V16.4706H140.811H140.761L134.152 6.71997H134.019V14.8235C134.019 15.098 134.069 15.3011 134.168 15.4329C134.278 15.5647 134.47 15.647 134.746 15.68L135.903 15.8282L135.837 16.4706H131.755ZM13.9847 35.12C14.172 35.2517 14.4749 35.3835 14.8936 35.5153C15.3232 35.6361 15.8024 35.6964 16.3312 35.6964C16.86 35.6964 17.3006 35.5373 17.6532 35.2188C18.0057 34.9003 18.182 34.4721 18.182 33.9341C18.182 33.0996 17.7083 32.4188 16.7609 31.8917C16.5185 31.7709 16.1439 31.6062 15.6372 31.3976C15.1305 31.178 14.7724 31.0188 14.5631 30.92C14.3538 30.8102 14.1059 30.662 13.8195 30.4753C13.5441 30.2776 13.3293 30.08 13.175 29.8823C12.7894 29.4102 12.5967 28.8337 12.5967 28.1529C12.5967 27.1537 12.9657 26.3631 13.7038 25.7811C14.453 25.1991 15.4224 24.9082 16.6121 24.9082C17.5154 24.9082 18.3637 25.0564 19.1569 25.3529C19.19 25.6164 19.2065 25.9678 19.2065 26.407C19.2065 26.8353 19.1459 27.4117 19.0247 28.1364L18.0663 28.2517C17.9451 27.0109 17.7964 26.3191 17.6201 26.1764C17.3557 25.9459 16.871 25.8306 16.166 25.8306C15.4719 25.8306 14.9322 25.9733 14.5466 26.2588C14.1609 26.5333 13.9682 26.9396 13.9682 27.4776C13.9682 27.785 14.0287 28.0596 14.15 28.3011C14.2712 28.5427 14.4914 28.7679 14.811 28.9764C15.1305 29.185 15.3838 29.3333 15.5711 29.4211C15.8465 29.5639 16.2321 29.7396 16.7278 29.9482C17.2235 30.1568 17.6092 30.338 17.8845 30.4917C18.1599 30.6455 18.4573 30.8486 18.7769 31.1011C19.3938 31.6173 19.7022 32.3638 19.7022 33.3411C19.7022 34.3184 19.3497 35.109 18.6447 35.7129C17.9506 36.3168 16.9977 36.6188 15.7859 36.6188C15.1359 36.6188 14.486 36.542 13.836 36.3882C13.1971 36.2235 12.7289 36.0643 12.4314 35.9106C12.3984 35.7788 12.3818 35.4659 12.3818 34.9717C12.3818 34.4776 12.4479 33.8791 12.5801 33.1764L13.522 33.127C13.6102 33.9176 13.6817 34.4282 13.7369 34.6588C13.803 34.8894 13.8856 35.0431 13.9847 35.12ZM27.3768 30.5247L29.2111 26.9835C29.4424 26.5443 29.5581 26.2753 29.5581 26.1764C29.5581 26.0776 29.4866 26.0008 29.3433 25.9459C29.2111 25.88 28.9522 25.8031 28.5666 25.7153L28.6658 25.0564H31.9376L32.0037 25.7482C31.5191 25.847 31.183 25.9568 30.9957 26.0776C30.8085 26.1874 30.6487 26.3741 30.5165 26.6376L27.9056 31.7435V35.2023C27.9056 35.4549 28.0159 35.5976 28.2361 35.6306L29.5085 35.8282L29.4424 36.4706H24.8982L24.799 35.8282C25.493 35.7184 25.9172 35.6086 26.0714 35.4988C26.2257 35.378 26.3027 35.1474 26.3027 34.807V31.8753L23.3283 26.4235C23.1851 26.182 23.0529 26.0282 22.9317 25.9623C22.8216 25.8855 22.5737 25.8031 22.1881 25.7153L22.3038 25.0564H26.1871L26.2532 25.7317L25.146 26.0282C25.0689 26.0391 25.0303 26.0721 25.0303 26.127C25.0303 26.182 25.0689 26.2753 25.146 26.407L27.0463 30.047C27.1566 30.2337 27.2116 30.3929 27.2116 30.5247H27.3768ZM35.8152 35.12C36.0026 35.2517 36.3054 35.3835 36.7241 35.5153C37.1537 35.6361 37.6329 35.6964 38.1617 35.6964C38.6905 35.6964 39.1311 35.5373 39.4837 35.2188C39.8363 34.9003 40.0125 34.4721 40.0125 33.9341C40.0125 33.0996 39.5388 32.4188 38.5914 31.8917C38.3491 31.7709 37.9744 31.6062 37.4677 31.3976C36.961 31.178 36.6029 31.0188 36.3936 30.92C36.1843 30.8102 35.9365 30.662 35.65 30.4753C35.3746 30.2776 35.1598 30.08 35.0055 29.8823C34.6199 29.4102 34.4272 28.8337 34.4272 28.1529C34.4272 27.1537 34.7963 26.3631 35.5343 25.7811C36.2835 25.1991 37.2529 24.9082 38.4427 24.9082C39.346 24.9082 40.1943 25.0564 40.9874 25.3529C41.0205 25.6164 41.037 25.9678 41.037 26.407C41.037 26.8353 40.9765 27.4117 40.8552 28.1364L39.8968 28.2517C39.7756 27.0109 39.6269 26.3191 39.4507 26.1764C39.1863 25.9459 38.7015 25.8306 37.9965 25.8306C37.3025 25.8306 36.7627 25.9733 36.3771 26.2588C35.9915 26.5333 35.7987 26.9396 35.7987 27.4776C35.7987 27.785 35.8593 28.0596 35.9805 28.3011C36.1017 28.5427 36.322 28.7679 36.6415 28.9764C36.961 29.185 37.2143 29.3333 37.4016 29.4211C37.677 29.5639 38.0626 29.7396 38.5583 29.9482C39.0541 30.1568 39.4397 30.338 39.715 30.4917C39.9904 30.6455 40.2879 30.8486 40.6074 31.1011C41.2243 31.6173 41.5328 32.3638 41.5328 33.3411C41.5328 34.3184 41.1802 35.109 40.4752 35.7129C39.7811 36.3168 38.8283 36.6188 37.6164 36.6188C36.9664 36.6188 36.3165 36.542 35.6665 36.3882C35.0276 36.2235 34.5594 36.0643 34.2619 35.9106C34.2289 35.7788 34.2124 35.4659 34.2124 34.9717C34.2124 34.4776 34.2785 33.8791 34.4106 33.1764L35.3526 33.127C35.4407 33.9176 35.5123 34.4282 35.5674 34.6588C35.6335 34.8894 35.7161 35.0431 35.8152 35.12ZM46.3982 35.8282C47.0922 35.7184 47.5164 35.6086 47.6706 35.4988C47.8248 35.378 47.9019 35.1474 47.9019 34.807V25.9129C46.4808 25.9349 45.7207 25.9679 45.6215 26.0117C45.5224 26.0556 45.4453 26.105 45.3902 26.16C45.258 26.3356 45.0983 26.9561 44.911 28.0211L44.0682 27.9553C44.0572 27.7906 44.0517 27.4721 44.0517 27C44.0517 26.5168 44.1013 25.869 44.2004 25.0564H53.2063C53.3055 25.869 53.355 26.5168 53.355 27C53.355 27.4721 53.3496 27.7906 53.3385 27.9553L52.4957 28.0211C52.3085 26.9561 52.1433 26.3356 52 26.16C51.956 26.105 51.8843 26.0556 51.7852 26.0117C51.686 25.9679 50.9259 25.9349 49.5048 25.9129V35.2023C49.5048 35.4549 49.615 35.5976 49.8353 35.6306L51.1077 35.8282L51.0416 36.4706H46.4973L46.3982 35.8282ZM55.9519 36.4706L55.8527 35.8282C56.4366 35.7294 56.7891 35.6196 56.9103 35.4988C57.0425 35.378 57.1086 35.1474 57.1086 34.807V26.72C57.1086 26.3796 57.0425 26.149 56.9103 26.0282C56.7891 25.9074 56.4366 25.7976 55.8527 25.6988L55.9519 25.0564H63.6523C63.7184 25.4627 63.7515 25.869 63.7515 26.2753C63.7515 26.6706 63.7405 27.1208 63.7184 27.6259L62.7765 27.7411C62.6223 26.9835 62.5121 26.5114 62.446 26.3247C62.3799 26.127 62.3029 26.0227 62.2147 26.0117C61.9503 25.9788 61.6143 25.9568 61.2067 25.9459L58.7115 25.8964V30.327H61.1902C61.3333 30.327 61.5097 29.9373 61.719 29.1576L62.2312 29.207C62.2312 30.0086 62.2422 30.5686 62.2643 30.887C62.2973 31.2055 62.3138 31.3976 62.3138 31.4635C62.3248 31.5294 62.3469 31.6886 62.3799 31.9411C62.424 32.1937 62.4516 32.3694 62.4626 32.4682L61.8677 32.567C61.6914 31.9411 61.5702 31.5568 61.5041 31.4141C61.449 31.2714 61.3829 31.2 61.3058 31.2H58.7115V35.6306L60.1822 35.6141C61.4271 35.6141 62.1872 35.5482 62.4626 35.4164C62.4956 35.3944 62.5177 35.3835 62.5287 35.3835C62.716 35.3286 62.9583 34.6808 63.2557 33.44L64.1646 33.5223C64.1756 33.709 64.1811 34.0438 64.1811 34.527C64.1811 34.9991 64.1206 35.647 63.9993 36.4706H55.9519ZM67.2679 36.4706L67.1688 35.8282C67.7636 35.7184 68.1382 35.6031 68.2924 35.4823C68.4577 35.3615 68.5403 35.1364 68.5403 34.807V26.72C68.5403 26.3796 68.4742 26.149 68.342 26.0282C68.2208 25.9074 67.8682 25.7976 67.2844 25.6988L67.3836 25.0564H70.8537L74.0265 33.72C74.0815 33.8956 74.1201 34.0329 74.1421 34.1317H74.3074C74.3184 34.0109 74.3459 33.9011 74.39 33.8023L77.6123 25.0564H80.6032L80.6694 25.6988L79.9753 25.8964C79.7659 25.9623 79.6614 26.0886 79.6614 26.2753V35.2023C79.6614 35.4439 79.7715 35.5867 79.9918 35.6306L81.0164 35.8282L80.9503 36.4706H76.8687L76.7696 35.8282C77.3093 35.7294 77.6563 35.625 77.8106 35.5153C77.9758 35.3944 78.0585 35.2023 78.0585 34.9388V27.4117C78.0585 27.1591 78.075 26.9506 78.108 26.7859H77.9758L74.4892 36.1411H73.2994L69.7796 26.7529H69.6474V34.8235C69.6474 35.087 69.697 35.2847 69.7962 35.4164C69.9063 35.5482 70.099 35.6361 70.3745 35.68L71.1842 35.8282L71.1181 36.4706H67.2679Z" fill="#B1040E"/>
<path d="M1.18033 4.70605H0V36.4708H1.18033V4.70605Z" fill="#B1040E"/>
</svg>
