<?xml version="1.0" encoding="UTF-8"?>
<svg xmlns:xlink="http://www.w3.org/1999/xlink" width="248px" height="62px" viewBox="0 0 248 62" version="1.1"
     xmlns="http://www.w3.org/2000/svg">
    <defs></defs>
    <g id="WEB" stroke="none" stroke-width="1" fill="none" fill-rule="evenodd">
        <g id="main" transform="translate(-290.000000, -30.000000)">
            <g id="logo" transform="translate(290.000000, 30.000000)">
                <g id="Page-1-Copy-3" fill="#2A2422">
                    <path d="M142.440279,28.4166711 C141.696846,28.0600563 140.788398,27.8813212 139.712355,27.8813212 C136.739484,27.8813212 135.254338,30.2527673 135.254338,34.9948043 L135.254338,41.2300057 L129.911079,41.2300057 L129.911079,23.3684756 L135.254338,23.3684756 L135.254338,27.6923239 C135.689225,26.1350202 136.387965,24.964263 137.348841,24.1715004 C138.307998,23.3821586 139.302392,22.9879154 140.326009,22.9879154 C141.504328,22.9879154 142.530522,23.2042788 143.402014,23.6361505 L142.440279,28.4166711 Z M128.241149,34.0806046 L115.098295,34.0806046 C115.226355,35.0478262 115.731717,35.7892772 116.614382,36.2964058 C117.499625,36.8086655 118.466517,37.0626574 119.518495,37.0626574 C121.25976,37.0626574 122.566138,36.5033622 123.43849,35.3796405 L127.319809,38.0196167 C125.679101,40.4432295 122.949457,41.6499047 119.132598,41.6499047 C116.494057,41.6499047 114.273214,40.7776094 112.464911,39.0313083 C110.658328,37.2858624 109.754176,35.0349983 109.754176,32.282992 C109.754176,29.5258545 110.658328,27.2946599 112.464911,25.5876976 C114.273214,23.8815905 116.494057,23.0281094 119.132598,23.0281094 C121.746214,23.0281094 123.930101,23.8986943 125.686836,25.643285 C127.441852,27.3895861 128.31936,29.6566988 128.31936,32.4326505 C128.31936,32.9209649 128.294436,33.4657219 128.241149,34.0806046 L128.241149,34.0806046 Z M104.991911,41.2667789 L98.9946032,34.1934899 L98.9946032,41.2667789 L93.6900195,41.2667789 L93.6900195,13.6911283 L98.9946032,13.6911283 L98.9946032,28.3037859 L103.26096,23.4078144 L110.062722,23.4078144 L102.606052,31.2858387 L111.561619,41.2667789 L104.991911,41.2667789 Z M88.6750735,38.9928247 C86.8667708,40.7126148 84.6571005,41.5763583 82.0434843,41.5763583 C79.4298681,41.5763583 77.2253546,40.7126148 75.4325222,38.9928247 C73.6388303,37.2713241 72.7406951,35.0341431 72.7406951,32.282992 C72.7406951,29.5258545 73.6388303,27.2963702 75.4325222,25.5859872 C77.2253546,23.8824457 79.4298681,23.0281094 82.0434843,23.0281094 C84.6571005,23.0281094 86.8667708,23.8824457 88.6750735,25.5859872 C90.4782195,27.2963702 91.3832303,29.5258545 91.3832303,32.282992 C91.3832303,35.0341431 90.4782195,37.2713241 88.6750735,38.9928247 L88.6750735,38.9928247 Z M70.0892627,19.0087092 C69.4472465,19.6227367 68.6659978,19.9263297 67.7446573,19.9263297 C66.8233168,19.9263297 66.0334735,19.6227367 65.3811438,19.0087092 C64.7262357,18.3972473 64.4005005,17.659217 64.4005005,16.7903424 C64.4005005,15.926599 64.7262357,15.1919895 65.3811438,14.5907898 C66.0334735,13.9964317 66.8233168,13.6936939 67.7446573,13.6936939 C68.6659978,13.6936939 69.4472465,13.9964317 70.0892627,14.5907898 C70.7287005,15.1919895 71.0501384,15.926599 71.0501384,16.7903424 C71.0501384,17.659217 70.7287005,18.3972473 70.0892627,19.0087092 L70.0892627,19.0087092 Z M70.4356249,42.4939788 C70.4356249,44.9919932 69.9079168,46.9101878 68.8593762,48.2477073 C67.8082573,49.5877924 66.0644141,50.2565522 63.6321438,50.2565522 L60.3636195,50.2565522 L60.3636195,45.4384032 L62.7108032,45.4384032 C64.3231492,45.4384032 65.1043978,44.4959821 65.0536897,42.6077192 L65.0536897,23.4078144 L70.4356249,23.4078144 L70.4356249,42.4939788 Z M58.0190141,41.2693445 L52.7152897,41.2693445 L52.7152897,16.5628615 L58.0190141,16.5628615 L58.0190141,23.4086696 L62.1194951,23.4086696 L62.1194951,28.0172967 L58.0190141,28.0172967 L58.0190141,41.2693445 Z M49.8610249,28.4568651 C49.1184519,28.1002503 48.2100032,27.9215152 47.13396,27.9215152 C44.1619492,27.9215152 42.6759438,30.2929613 42.6759438,35.0341431 L42.6759438,41.2701997 L37.3344032,41.2701997 L37.3344032,23.4086696 L42.6759438,23.4086696 L42.6759438,27.7316627 C43.1091114,26.1752142 43.8095708,25.0036018 44.769587,24.2116944 C45.7304627,23.4223526 46.7231384,23.0281094 47.7476141,23.0281094 C48.9267924,23.0281094 49.952987,23.2427624 50.8236195,23.6763445 L49.8610249,28.4568651 Z M34.5514735,41.2676341 L29.2460303,41.2676341 L29.2460303,39.2391198 C28.7337924,40.0070818 27.9456681,40.5920328 26.8816573,41.0008144 C25.8193654,41.4095959 24.8662249,41.6148419 24.0213762,41.6148419 C21.6105924,41.6148419 19.4842897,40.7553744 17.6381708,39.0295979 C15.7946303,37.3098078 14.8715708,35.069206 14.8715708,32.3197652 C14.8715708,29.5677589 15.7946303,27.3305779 17.6381708,25.6082222 C19.4842897,23.8833009 21.6105924,23.026399 24.0213762,23.026399 C24.8662249,23.026399 25.7927222,23.2034236 26.8060249,23.5608937 C27.8167492,23.9175085 28.6306573,24.5281153 29.2460303,25.3987003 L29.2460303,23.4095248 L34.5514735,23.4095248 L34.5514735,41.2676341 Z M0.000343783784,61.3347031 L158.548268,61.3347031 L158.548268,0.854703607 L0.000343783784,0.854703607 L0.000343783784,61.3347031 Z"
                          id="Fill-7"></path>
                    <path d="M82.0431405,28.224374 C80.9155297,28.224374 79.9615297,28.6083279 79.1794216,29.37196 C78.3973135,30.1390127 78.0079784,31.106166 78.0079784,32.2811163 C78.0079784,33.5030987 78.3973135,34.4941957 79.1794216,35.2450009 C79.9615297,35.9958061 80.9155297,36.3703535 82.0431405,36.3703535 C83.1965351,36.3703535 84.163427,35.9958061 84.9455351,35.2450009 C85.7259243,34.4941957 86.1169784,33.5030987 86.1169784,32.2811163 C86.1169784,31.106166 85.7199081,30.1390127 84.9257676,29.37196 C84.1324865,28.6083279 83.1707514,28.224374 82.0431405,28.224374"
                          id="Fill-1"></path>
                    <path d="M121.612654,28.4739868 C120.857189,27.9523568 120.043281,27.6889764 119.17093,27.6889764 C118.300297,27.6889764 117.467481,27.9463708 116.672481,28.4534636 C115.877481,28.9656872 115.378995,29.7301745 115.174443,30.7494908 L122.9388,30.7494908 C122.810741,29.7549733 122.3664,28.9947617 121.612654,28.4739868"
                          id="Fill-3"></path>
                    <path d="M24.9024941,28.0731868 C23.7250346,28.0731868 22.6816508,28.4750984 21.7714832,29.2772115 C20.8613157,30.0810348 20.4058022,31.092655 20.4058022,32.3180579 C20.4058022,33.5408955 20.8613157,34.5559362 21.7714832,35.356339 C22.6816508,36.1610174 23.7250346,36.5629291 24.9024941,36.5629291 C26.0558886,36.5629291 27.0683319,36.1729893 27.9406832,35.3939648 C28.8095968,34.6192159 29.2462022,33.5947688 29.2462022,32.3180579 C29.2462022,31.0430573 28.8095968,30.0160448 27.9406832,29.2395857 C27.0683319,28.4614163 26.0558886,28.0731868 24.9024941,28.0731868"
                          id="Fill-5"></path>
                </g>
                <g id="Page-1-Copy-4" transform="translate(158.000000, 1.000000)">
                    <path d="M0,60.4799995 L89.3275,60.4799995 L89.3275,0 L0,0 L0,60.4799995 Z M4.18166667,56.2322998 L85.1441667,56.2322998 L85.1441667,4.24854605 L4.18166667,4.24854605 L4.18166667,56.2322998 Z"
                          id="Fill-1" fill="#FFD51A"></path>
                    <g id="Group-17" transform="translate(15.000000, 17.051583)" fill="#2A2422">
                        <path d="M0.863333333,11.305 L2.745,11.305 L2.745,4.0425 L0.863333333,4.0425 L0.863333333,11.305 Z M0.940833333,2.04416667 C0.7025,1.82166667 0.583333333,1.54916667 0.583333333,1.2275 C0.583333333,0.906666667 0.705,0.636666667 0.949166667,0.419166667 C1.1925,0.201666667 1.47916667,0.0925 1.81166667,0.0925 C2.14333333,0.0925 2.42583333,0.201666667 2.65916667,0.419166667 C2.8925,0.636666667 3.00916667,0.906666667 3.00916667,1.2275 C3.00916667,1.54916667 2.8925,1.82166667 2.65916667,2.04416667 C2.42583333,2.2675 2.14333333,2.37833333 1.81166667,2.37833333 C1.47,2.37833333 1.17916667,2.2675 0.940833333,2.04416667 L0.940833333,2.04416667 Z"
                              id="Fill-2"></path>
                        <path d="M9.3465,9.08891667 C9.72483333,8.72141667 9.914,8.24141667 9.914,7.64975 C9.914,7.05891667 9.719,6.58475 9.33066667,6.22725 C8.94233333,5.86975 8.489,5.69058333 7.97066667,5.69058333 C7.43066667,5.69058333 6.97733333,5.87225 6.60983333,6.23558333 C6.24066667,6.59808333 6.05733333,7.06975 6.05733333,7.64975 C6.05733333,8.24141667 6.24066667,8.72141667 6.60983333,9.08891667 C6.97733333,9.45641667 7.43066667,9.64141667 7.97066667,9.64141667 C8.509,9.64141667 8.96816667,9.45641667 9.3465,9.08891667 L9.3465,9.08891667 Z M9.94566667,11.30475 L9.94566667,10.32475 C9.74733333,10.6780833 9.43983333,10.95475 9.01983333,11.15725 C8.59983333,11.35975 8.1465,11.4605833 7.659,11.4605833 C6.674,11.4605833 5.834,11.1105833 5.13983333,10.4105833 C4.44483333,9.71141667 4.09733333,8.80141667 4.09733333,7.68141667 C4.09733333,6.55141667 4.44483333,5.63641667 5.13983333,4.93641667 C5.834,4.23641667 6.674,3.88641667 7.659,3.88641667 C8.1565,3.88641667 8.61233333,3.98558333 9.02733333,4.18225 C9.44233333,4.37975 9.74733333,4.65391667 9.94566667,5.00641667 L9.94566667,0.09225 L11.8273333,0.09225 L11.8273333,11.30475 L9.94566667,11.30475 Z"
                              id="Fill-4"></path>
                        <path d="M15.0455833,7.01291667 L18.7780833,7.01291667 C18.7055833,6.52541667 18.50225,6.14708333 18.1714167,5.87791667 C17.83975,5.60791667 17.43475,5.47291667 16.9580833,5.47291667 C16.4505833,5.47291667 16.02225,5.61041667 15.67475,5.88541667 C15.32725,6.16041667 15.1180833,6.53625 15.0455833,7.01291667 M20.6280833,7.65041667 C20.6280833,7.85791667 20.6180833,8.07541667 20.59725,8.30375 L15.0614167,8.30375 C15.1230833,8.78041667 15.3380833,9.15875 15.7064167,9.43875 C16.0739167,9.71875 16.52725,9.85875 17.06725,9.85875 C17.4505833,9.85875 17.80725,9.77875 18.13975,9.61708333 C18.4714167,9.45708333 18.7205833,9.22625 18.8864167,8.92541667 C19.11475,9.04958333 19.5964167,9.30875 20.3330833,9.70291667 C20.02225,10.2945833 19.5605833,10.7345833 18.9489167,11.0245833 C18.3364167,11.3154167 17.66725,11.4604167 16.94225,11.4604167 C15.88475,11.4604167 14.9939167,11.1054167 14.26725,10.3954167 C13.5414167,9.68541667 13.1789167,8.76958333 13.1789167,7.65041667 C13.1789167,6.53041667 13.5414167,5.62375 14.26725,4.92875 C14.9939167,4.23458333 15.88475,3.88708333 16.94225,3.88708333 C17.99975,3.88708333 18.8789167,4.23458333 19.5780833,4.92875 C20.2780833,5.62375 20.6280833,6.53041667 20.6280833,7.65041667"
                              id="Fill-5"></path>
                        <path d="M23.9494167,6.25858333 C23.55025,6.62691667 23.35025,7.09608333 23.35025,7.66608333 C23.35025,8.23608333 23.55025,8.70525 23.9494167,9.07358333 C24.3485833,9.44108333 24.81775,9.62525 25.3560833,9.62525 C25.8960833,9.62525 26.36275,9.44691667 26.7560833,9.08858333 C27.15025,8.73108333 27.3469167,8.25691667 27.3469167,7.66608333 C27.3469167,7.06441667 27.14775,6.58775 26.7485833,6.23525 C26.3494167,5.88275 25.88525,5.70608333 25.3560833,5.70608333 C24.81775,5.70608333 24.3485833,5.89108333 23.9494167,6.25858333 L23.9494167,6.25858333 Z M27.3469167,11.30525 L27.3469167,10.3719167 C27.1294167,10.7144167 26.80025,10.9785833 26.36025,11.16525 C25.9185833,11.3519167 25.4960833,11.44525 25.0919167,11.44525 C24.0969167,11.44525 23.2319167,11.09525 22.49525,10.39525 C21.7585833,9.69525 21.3910833,8.78525 21.3910833,7.66608333 C21.3910833,6.54608333 21.7560833,5.63608333 22.48775,4.93691667 C23.2185833,4.23691667 24.0869167,3.88691667 25.0919167,3.88691667 C25.4960833,3.88691667 25.9135833,3.97275 26.3444167,4.14358333 C26.7744167,4.31441667 27.1085833,4.58191667 27.3469167,4.94441667 L27.3469167,4.04275 L29.2444167,4.04275 L29.2444167,11.30525 L27.3469167,11.30525 Z"
                              id="Fill-6"></path>
                        <path d="M32.7278333,8.27233333 C32.282,8.14816667 31.9136667,8.00316667 31.6236667,7.83733333 C31.3328333,7.6715 31.1228333,7.48483333 30.9936667,7.27733333 C30.8645,7.06983333 30.7786667,6.87566667 30.737,6.694 C30.6961667,6.51316667 30.6745,6.29733333 30.6745,6.049 C30.6745,5.46816667 30.9395,4.96233333 31.4678333,4.53233333 C31.997,4.10233333 32.6236667,3.8865 33.3495,3.8865 C34.117,3.8865 34.7728333,4.07316667 35.317,4.4465 C35.862,4.81983333 36.1486667,5.39566667 36.1803333,6.17316667 L34.377,6.17316667 C34.3661667,5.924 34.262,5.73733333 34.0645,5.61316667 C33.8678333,5.489 33.6453333,5.4265 33.397,5.4265 C32.7845,5.4265 32.4786667,5.66566667 32.4786667,6.1415 C32.4786667,6.4115 32.7328333,6.614 33.2411667,6.74816667 L34.4536667,7.044 C34.8478333,7.14733333 35.1795,7.29233333 35.4495,7.479 C35.7186667,7.66566667 35.9128333,7.87066667 36.0328333,8.094 C36.1511667,8.3165 36.2345,8.51566667 36.2811667,8.69233333 C36.3278333,8.869 36.3511667,9.04483333 36.3511667,9.2215 C36.3511667,9.9265 36.0578333,10.4756667 35.4728333,10.8698333 C34.887,11.2631667 34.1895,11.4606667 33.3811667,11.4606667 C32.6136667,11.4606667 31.937,11.2406667 31.352,10.7998333 C30.7661667,10.359 30.467,9.76566667 30.457,9.019 L32.2295,9.019 C32.2511667,9.27816667 32.3936667,9.499 32.6578333,9.67983333 C32.922,9.8615 33.2253333,9.9465 33.5678333,9.9365 C33.837,9.9265 34.0628333,9.85316667 34.2436667,9.719 C34.4253333,9.584 34.5161667,9.41316667 34.5161667,9.20566667 C34.5261667,9.029 34.467,8.8865 34.3378333,8.77733333 C34.207,8.669 34.0028333,8.584 33.7228333,8.5215 L32.7278333,8.27233333 Z"
                              id="Fill-7"></path>
                        <polygon id="Fill-8"
                                 points="3.35125 14.9129167 3.35125 17.68125 4.89125 17.68125 4.89125 19.2045833 3.35125 19.2045833 3.35125 24.94375 1.46958333 24.94375 1.46958333 19.2045833 0.147916667 19.2045833 0.147916667 17.68125 1.46958333 17.68125 1.46958333 14.9129167"></polygon>
                        <path d="M7.92316667,22.6961667 C8.2865,23.0536667 8.73733333,23.2328333 9.2765,23.2328333 C9.81566667,23.2328333 10.2665,23.0536667 10.6298333,22.6961667 C10.9923333,22.3386667 11.1731667,21.8695 11.1731667,21.2886667 C11.1731667,20.7295 10.9923333,20.2728333 10.6298333,19.9203333 C10.2665,19.5678333 9.81566667,19.392 9.2765,19.392 C8.73733333,19.392 8.2865,19.5678333 7.92316667,19.9203333 C7.55983333,20.2728333 7.37983333,20.7295 7.37983333,21.2886667 C7.37983333,21.8695 7.55983333,22.3386667 7.92316667,22.6961667 M11.959,24.0261667 C11.2281667,24.7311667 10.334,25.0836667 9.2765,25.0836667 C8.219,25.0836667 7.32483333,24.7311667 6.594,24.0261667 C5.86233333,23.3211667 5.49733333,22.4086667 5.49733333,21.2886667 C5.49733333,20.1695 5.86233333,19.262 6.594,18.567 C7.32483333,17.8728333 8.219,17.5253333 9.2765,17.5253333 C10.334,17.5253333 11.2281667,17.8728333 11.959,18.567 C12.6906667,19.262 13.0556667,20.1695 13.0556667,21.2886667 C13.0556667,22.4086667 12.6906667,23.3211667 11.959,24.0261667"
                              id="Fill-9"></path>
                        <path d="M18.7785,22.3775 L18.7785,24.9433333 L16.8818333,24.9433333 L16.8818333,17.6808333 L18.7785,17.6808333 L18.7785,19.3916667 C18.9543333,18.7691667 19.2293333,18.3025 19.6026667,17.9916667 C19.976,17.6808333 20.3851667,17.525 20.831,17.525 C21.2976667,17.525 21.6968333,17.6133333 22.0285,17.79 L21.7026667,19.5 C21.401,19.3658333 21.0335,19.2983333 20.5985,19.2983333 C19.3851667,19.2983333 18.7785,20.325 18.7785,22.3775"
                              id="Fill-10"></path>
                        <path d="M24.33025,20.6514167 L28.06275,20.6514167 C27.99025,20.1639167 27.7869167,19.7855833 27.4560833,19.5164167 C27.1244167,19.2464167 26.7194167,19.1114167 26.24275,19.1114167 C25.73525,19.1114167 25.3069167,19.2489167 24.9594167,19.5239167 C24.6119167,19.7989167 24.40275,20.17475 24.33025,20.6514167 M29.91275,21.2889167 C29.91275,21.4964167 29.90275,21.7139167 29.8819167,21.94225 L24.3460833,21.94225 C24.40775,22.4189167 24.62275,22.79725 24.9910833,23.07725 C25.3585833,23.35725 25.8119167,23.49725 26.3519167,23.49725 C26.73525,23.49725 27.0919167,23.41725 27.4244167,23.2555833 C27.7560833,23.0955833 28.00525,22.86475 28.1710833,22.5639167 C28.3994167,22.6880833 28.8810833,22.94725 29.61775,23.3414167 C29.3069167,23.9330833 28.84525,24.3730833 28.2335833,24.6630833 C27.6210833,24.9539167 26.9519167,25.0989167 26.2269167,25.0989167 C25.1694167,25.0989167 24.2785833,24.7439167 23.5519167,24.0339167 C22.8260833,23.3239167 22.4635833,22.4080833 22.4635833,21.2889167 C22.4635833,20.1689167 22.8260833,19.26225 23.5519167,18.56725 C24.2785833,17.8730833 25.1694167,17.5255833 26.2269167,17.5255833 C27.2844167,17.5255833 28.1635833,17.8730833 28.86275,18.56725 C29.56275,19.26225 29.91275,20.1689167 29.91275,21.2889167"
                              id="Fill-11"></path>
                        <path d="M32.8833333,21.9108333 C32.4375,21.7866667 32.0691667,21.6416667 31.7791667,21.4758333 C31.4883333,21.31 31.2783333,21.1233333 31.1491667,20.9158333 C31.02,20.7083333 30.9341667,20.5141667 30.8925,20.3325 C30.8516667,20.1516667 30.83,19.9358333 30.83,19.6875 C30.83,19.1066667 31.095,18.6008333 31.6233333,18.1708333 C32.1525,17.7408333 32.7791667,17.525 33.505,17.525 C34.2725,17.525 34.9283333,17.7116667 35.4725,18.085 C36.0175,18.4583333 36.3041667,19.0341667 36.3358333,19.8116667 L34.5325,19.8116667 C34.5216667,19.5625 34.4175,19.3758333 34.22,19.2516667 C34.0233333,19.1275 33.8008333,19.065 33.5525,19.065 C32.94,19.065 32.6341667,19.3041667 32.6341667,19.78 C32.6341667,20.05 32.8883333,20.2525 33.3966667,20.3866667 L34.6091667,20.6825 C35.0033333,20.7858333 35.335,20.9308333 35.605,21.1175 C35.8741667,21.3041667 36.0683333,21.5091667 36.1883333,21.7325 C36.3066667,21.955 36.39,22.1541667 36.4366667,22.3308333 C36.4833333,22.5075 36.5066667,22.6833333 36.5066667,22.86 C36.5066667,23.565 36.2133333,24.1141667 35.6283333,24.5083333 C35.0425,24.9016667 34.345,25.0991667 33.5366667,25.0991667 C32.7691667,25.0991667 32.0925,24.8791667 31.5075,24.4383333 C30.9216667,23.9975 30.6225,23.4041667 30.6125,22.6575 L32.385,22.6575 C32.4066667,22.9166667 32.5491667,23.1375 32.8133333,23.3183333 C33.0775,23.5 33.3808333,23.585 33.7233333,23.575 C33.9925,23.565 34.2183333,23.4916667 34.3991667,23.3575 C34.5808333,23.2225 34.6716667,23.0516667 34.6716667,22.8441667 C34.6816667,22.6675 34.6225,22.525 34.4933333,22.4158333 C34.3625,22.3075 34.1583333,22.2225 33.8783333,22.16 L32.8833333,21.9108333 Z"
                              id="Fill-12"></path>
                        <path d="M42.5715833,21.5531667 L42.5715833,17.6815 L44.4690833,17.6815 L44.4690833,24.9431667 L42.5715833,24.9431667 L42.5715833,23.9173333 C42.3749167,24.2906667 42.0874167,24.5806667 41.7090833,24.7881667 C41.3299167,24.9948333 40.9490833,25.099 40.56575,25.099 C39.6840833,25.099 38.9865833,24.8298333 38.4740833,24.2906667 C37.96075,23.7515 37.7040833,22.979 37.7040833,21.9731667 L37.7040833,17.6815 L39.6165833,17.6815 L39.6165833,21.6306667 C39.6165833,22.1806667 39.7515833,22.5873333 40.02075,22.8523333 C40.29075,23.1156667 40.6174167,23.2481667 41.00075,23.2481667 C41.4465833,23.2481667 41.8199167,23.1115 42.12075,22.8365 C42.42075,22.5615 42.5715833,22.134 42.5715833,21.5531667"
                              id="Fill-13"></path>
                        <polygon id="Fill-14"
                                 points="46.2425 24.9433333 48.1391667 24.9433333 48.1391667 13.7308333 46.2425 13.7308333"></polygon>
                        <polygon id="Fill-15"
                                 points="52.40075 14.9129167 52.40075 17.68125 53.94075 17.68125 53.94075 19.2045833 52.40075 19.2045833 52.40075 24.94375 50.5190833 24.94375 50.5190833 19.2045833 49.1974167 19.2045833 49.1974167 17.68125 50.5190833 17.68125 50.5190833 14.9129167"></polygon>
                        <path d="M56.7236667,21.9108333 C56.2778333,21.7866667 55.9095,21.6416667 55.6195,21.4758333 C55.3286667,21.31 55.1186667,21.1233333 54.9895,20.9158333 C54.8603333,20.7083333 54.7745,20.5141667 54.7328333,20.3325 C54.692,20.1516667 54.6703333,19.9358333 54.6703333,19.6875 C54.6703333,19.1066667 54.9353333,18.6008333 55.4636667,18.1708333 C55.9928333,17.7408333 56.6195,17.525 57.3453333,17.525 C58.1128333,17.525 58.7686667,17.7116667 59.3128333,18.085 C59.8578333,18.4583333 60.1445,19.0341667 60.1761667,19.8116667 L58.3728333,19.8116667 C58.362,19.5625 58.2578333,19.3758333 58.0603333,19.2516667 C57.8636667,19.1275 57.6411667,19.065 57.3928333,19.065 C56.7803333,19.065 56.4745,19.3041667 56.4745,19.78 C56.4745,20.05 56.7286667,20.2525 57.237,20.3866667 L58.4495,20.6825 C58.8436667,20.7858333 59.1753333,20.9308333 59.4453333,21.1175 C59.7145,21.3041667 59.9086667,21.5091667 60.0286667,21.7325 C60.147,21.955 60.2303333,22.1541667 60.277,22.3308333 C60.3236667,22.5075 60.347,22.6833333 60.347,22.86 C60.347,23.565 60.0536667,24.1141667 59.4686667,24.5083333 C58.8828333,24.9016667 58.1853333,25.0991667 57.377,25.0991667 C56.6095,25.0991667 55.9328333,24.8791667 55.3478333,24.4383333 C54.762,23.9975 54.4628333,23.4041667 54.4528333,22.6575 L56.2253333,22.6575 C56.247,22.9166667 56.3895,23.1375 56.6536667,23.3183333 C56.9178333,23.5 57.2211667,23.585 57.5636667,23.575 C57.8328333,23.565 58.0586667,23.4916667 58.2395,23.3575 C58.4211667,23.2225 58.512,23.0516667 58.512,22.8441667 C58.522,22.6675 58.4628333,22.525 58.3336667,22.4158333 C58.2028333,22.3075 57.9986667,22.2225 57.7186667,22.16 L56.7236667,21.9108333 Z"
                              id="Fill-16"></path>
                    </g>
                </g>
            </g>
        </g>
    </g>
</svg>