<svg width="124" height="17" version="1.1" xmlns="http://www.w3.org/2000/svg" xmlns:xlink="http://www.w3.org/1999/xlink" x="0px" y="0px" viewBox="0 0 445.971 68.621" style="enable-background:new 0 0 445.971 68.621;" xml:space="preserve"> <g> <path style="fill:#fce12f;" d="M21.853,68.619c-4.137,0-8.275,0.007-12.412-0.002c-5.569-0.011-9.39-3.78-9.398-9.314 c-0.011-7.654-0.124-15.312,0.069-22.961c0.183-7.265,2.893-13.59,7.741-19.06c4.085-4.609,9.021-7.875,14.877-9.575 c2.258-0.656,4.637-1.164,7.089-1.141c7.584,0.071,15.172,0.112,22.755-0.023c5.184-0.092,9.849,4.618,9.577,9.517 c-0.405,7.287-0.126,14.613-0.102,21.922c0.031,9.403-3.893,17.151-10.709,23.204c-5.197,4.615-11.443,7.556-18.729,7.429 c-3.585-0.063-7.171-0.011-10.757-0.011C21.853,68.609,21.853,68.614,21.853,68.619z"/> </g> <g> <g> <path class="letter-path" d="M128.104,17.644v38.355h-11.507v-3.605c-2.531,2.915-6.291,4.679-11.43,4.679c-10.049,0-18.334-8.822-18.334-20.252 c0-11.43,8.285-20.251,18.334-20.251c5.14,0,8.899,1.764,11.43,4.679v-3.605H128.104z M116.598,36.821 c0-5.753-3.835-9.359-9.129-9.359c-5.293,0-9.128,3.605-9.128,9.359c0,5.753,3.835,9.359,9.128,9.359 C112.763,46.18,116.598,42.574,116.598,36.821z"/> <path class="letter-path" d="M161.93,16.876v13.041c-4.756-0.767-11.507,1.151-11.507,8.745v17.337h-11.506V17.644h11.506v6.827 C151.957,19.331,157.097,16.876,161.93,16.876z"/> <path class="letter-path" d="M185.401,28.69v13.578c0,3.299,2.838,3.605,7.901,3.299v10.432c-15.035,1.534-19.408-2.992-19.408-13.731V28.69h-6.137 V17.644h6.137v-7.288l11.507-3.452v10.74h7.901V28.69H185.401z"/> <path class="letter-path" d="M224.519,0h11.506v55.999h-11.506V0z"/> <path class="letter-path" d="M266.325,46.793c3.145,0,5.83-1.227,7.364-2.915l9.205,5.293c-3.759,5.217-9.435,7.901-16.722,7.901 c-13.118,0-21.249-8.822-21.249-20.252c0-11.43,8.285-20.251,20.405-20.251c11.2,0,19.485,8.668,19.485,20.251 c0,1.611-0.153,3.145-0.46,4.603h-27.232C258.577,45.413,262.106,46.793,266.325,46.793z M273.382,32.832 c-1.228-4.449-4.679-6.06-8.132-6.06c-4.373,0-7.288,2.148-8.361,6.06H273.382z"/> <path class="letter-path" d="M351.24,32.449v23.55h-11.507V33.446c0-3.836-1.841-6.291-5.523-6.291c-3.835,0-5.983,2.685-5.983,7.211v21.632H316.72 V33.446c0-3.836-1.841-6.291-5.523-6.291c-3.836,0-5.984,2.685-5.984,7.211v21.632h-11.506V17.644h11.506v3.529 c1.764-2.608,5.14-4.603,10.28-4.603c4.525,0,7.901,1.841,10.049,5.063c2.148-3.068,5.676-5.063,11.123-5.063 C345.487,16.57,351.24,22.86,351.24,32.449z"/> <path class="letter-path" d="M359.597,36.821c0-11.43,9.052-20.251,20.328-20.251c11.277,0,20.329,8.822,20.329,20.251 c0,11.43-9.052,20.252-20.329,20.252C368.649,57.073,359.597,48.251,359.597,36.821z M388.747,36.821 c0-5.446-3.836-9.052-8.822-9.052s-8.821,3.605-8.821,9.052c0,5.447,3.835,9.052,8.821,9.052S388.747,42.268,388.747,36.821z"/> <path class="letter-path" d="M445.971,32.449v23.55h-11.507V34.136c0-4.756-2.992-6.981-6.674-6.981c-4.219,0-7.134,2.455-7.134,7.901v20.942H409.15 V17.644h11.506v3.605c2.071-2.838,5.907-4.679,10.97-4.679C439.374,16.57,445.971,22.093,445.971,32.449z"/> </g> </g> </svg>