<svg width="120" height="20" viewBox="0 0 120 20" fill="none" xmlns="http://www.w3.org/2000/svg">
<path d="M32.3636 0.89309H26.3906V19.3411H32.1806C36.0806 19.3411 41.6266 17.0051 41.6266 10.1171C41.6266 3.22909 35.5936 0.89309 32.3636 0.89309ZM31.9976 15.8071H30.5956V4.42709H32.1806C33.5206 4.42709 37.1166 5.32609 37.1166 10.1171C37.1166 14.9091 33.2166 15.8071 31.9966 15.8071H31.9976ZM53.0236 7.30209V8.98009L52.5356 8.44109C52.0486 7.84209 50.8296 6.88409 49.0006 6.88409C47.3556 6.88409 45.7106 7.54309 44.6736 8.56109C43.9436 9.28009 42.7846 10.8371 42.7846 13.4121C42.7846 15.2091 43.3336 16.5871 44.4916 17.8451C45.7096 19.1031 47.1726 19.7611 48.8186 19.7611C49.7326 19.7611 51.4386 19.5211 52.5356 18.0841L53.0846 17.3661V19.3421H56.6196V7.30209H53.0236V7.30209ZM49.6106 16.5261C49.194 16.526 48.7816 16.4437 48.3968 16.2841C48.0119 16.1245 47.6624 15.8907 47.368 15.5959C47.0736 15.3012 46.8402 14.9513 46.681 14.5663C46.5219 14.1813 46.4402 13.7687 46.4406 13.3521C46.4401 12.9354 46.5217 12.5227 46.6808 12.1376C46.8398 11.7525 47.0732 11.4025 47.3676 11.1076C47.662 10.8128 48.0116 10.5788 48.3965 10.4191C48.7814 10.2595 49.194 10.1772 49.6106 10.1771C50.0273 10.1772 50.4399 10.2595 50.8247 10.4191C51.2096 10.5788 51.5592 10.8128 51.8536 11.1076C52.148 11.4025 52.3814 11.7525 52.5405 12.1376C52.6996 12.5227 52.7812 12.9354 52.7806 13.3521C52.7806 15.0891 51.3166 16.5261 49.6106 16.5261ZM77.8886 7.30209V8.98009L77.4016 8.44009C76.9136 7.84109 75.6946 6.88309 73.8666 6.88309C72.2206 6.88309 70.5756 7.54209 69.5396 8.56009C68.8086 9.27909 67.6496 10.8361 67.6496 13.4111C67.6496 15.2081 68.1996 16.5861 69.3566 17.8441C70.5146 19.1021 72.0386 19.7601 73.6836 19.7601C74.5976 19.7601 76.3036 19.5201 77.4016 18.0831L77.9496 17.3651V19.3411H81.4846V7.30209H77.8886ZM74.4146 16.5261C73.9981 16.5258 73.5857 16.4435 73.2011 16.2839C72.8164 16.1242 72.4669 15.8903 72.1726 15.5956C71.8783 15.3008 71.645 14.951 71.4859 14.566C71.3269 14.1811 71.2452 13.7686 71.2456 13.3521C71.2451 12.9354 71.3267 12.5227 71.4858 12.1376C71.6448 11.7525 71.8782 11.4025 72.1726 11.1076C72.467 10.8128 72.8166 10.5788 73.2015 10.4191C73.5864 10.2595 73.999 10.1772 74.4156 10.1771C74.8322 10.1774 75.2447 10.2597 75.6294 10.4194C76.0142 10.5791 76.3637 10.8131 76.658 11.108C76.9523 11.4028 77.1856 11.7528 77.3446 12.1378C77.5036 12.5229 77.5852 12.9355 77.5846 13.3521C77.6446 15.0891 76.1826 16.5261 74.4146 16.5261ZM60.3366 0.89309V7.30309H58.8746V10.4171H60.3366V19.3411H64.2366V10.4171H66.7966V7.30209H64.2366V0.89309H60.3366ZM113.42 0.89309V19.3411H117.381V10.4171H119.941V7.30209H117.381V0.89309H113.42ZM95.3186 13.1121H89.9556L92.6376 5.26609L95.3186 13.1121ZM97.5126 19.3421H101.963L95.0746 0.89209H90.1986L83.1286 19.3401H87.5786L88.8586 16.1061H96.3536L97.5116 19.3401L97.5126 19.3421ZM103.425 19.3411H107.386V14.2501C107.386 13.7701 107.386 12.1541 108.483 11.1351C109.032 10.6561 109.763 10.4171 110.738 10.4171H112.384V7.30209C112.201 7.30209 111.592 7.24209 111.592 7.24209C110.86 7.24209 110.129 7.24209 109.58 7.54209C108.85 7.90109 108.3 8.44009 107.935 9.15909L107.386 10.1771V7.24209H103.426V19.3421L103.425 19.3411Z" fill="black"/>
<path fill-rule="evenodd" clip-rule="evenodd" d="M0.01 0.833008L9.286 10.056L0 19.166L0.01 0.833008Z" fill="#F39200"/>
<path fill-rule="evenodd" clip-rule="evenodd" d="M18.5723 10.0562V19.1662H9.27734L18.5723 10.0562Z" fill="#32AFE6"/>
<path fill-rule="evenodd" clip-rule="evenodd" d="M18.5559 0.833008L13.8359 5.48901L18.5559 10.144V0.833008Z" fill="#04A87D"/>
<path fill-rule="evenodd" clip-rule="evenodd" d="M0 0.839082L9.271 10.0561L18.572 0.809082L0 0.839082Z" fill="#1E3867"/>
<path fill-rule="evenodd" clip-rule="evenodd" d="M13.9565 5.41406L18.5535 10.0561L13.9235 14.6111L9.26953 10.0561L13.9565 5.41406Z" fill="#F6DD00"/>
<path fill-rule="evenodd" clip-rule="evenodd" d="M0 19.1669H9.285L13.925 14.6299H4.608L0 19.1669Z" fill="#725198"/>
<path fill-rule="evenodd" clip-rule="evenodd" d="M4.60938 14.6302L9.28738 10.0562L13.9264 14.6302H4.60938Z" fill="#D8422D"/>
</svg>
