<svg width="591" height="208" viewBox="0 0 591 208" fill="none" xmlns="http://www.w3.org/2000/svg">
<g clip-path="url(#clip0)">
<path d="M124.7 72.9H154.8V39.6C154.8 30.3 150.4 25.6 141.4 25.6H138C129.1 25.6 124.6 30.3 124.6 39.6V72.9H124.7ZM124.7 94.2L124.8 130.8C124.8 140.1 129.3 144.7 138.2 144.7H142.1C151 144.7 155.5 140.1 155.5 130.8V112.8H176V129.9C176 153.4 164.6 165.4 142 165.4H137.5C114.9 165.4 103.5 153.5 103.5 132.7V43.2C103.5 16.9 114.9 5 137.5 5H142C164.6 5 176 16.9 176 40.4L175.9 94.1H124.7V94.2Z" fill="#464546"/>
<path d="M210.899 136.3C216.699 141.5 223.399 144.4 230.399 144.4C238.199 144.4 242.699 140.6 242.699 131.6V38.6001C242.699 29.6001 238.199 25.8001 230.399 25.8001C223.399 25.8001 216.699 28.7001 210.899 33.9001V136.3ZM189.699 6.8001H210.899V17.0001C215.899 11.5001 224.499 5.1001 236.799 5.1001C254.899 5.1001 263.799 17.6001 263.799 36.2001V134.4C263.799 153 254.899 165.5 236.799 165.5C224.499 165.5 215.899 159.4 210.899 154.2V204.8H189.699V6.8001V6.8001Z" fill="#464546"/>
<path d="M327.3 137.2V85.5001L308.1 93.1001C300.3 96.3001 297.8 100.4 297.8 109.4V133.2C297.8 140.8 301.4 144.5 308.1 144.5C314.5 144.5 320.4 142.2 327.3 137.2ZM276.6 109C276.6 89.5001 282.7 81.7001 298.9 75.9001L327.3 65.7001V39.6001C327.3 30.3001 322.8 25.4001 313.9 25.4001H310.5C301.6 25.4001 297.1 30.3001 297.1 39.6001V61.8001H276.5V40.5001C276.5 17.0001 287.9 5.1001 310.5 5.1001H314.5C337.1 5.1001 348.5 17.0001 348.5 40.5001V163.7H327.3V153.8C321.5 159.6 313.6 165.4 301.4 165.4C284.4 165.4 276.6 155.2 276.6 137.8V109V109Z" fill="#464546"/>
<path d="M434.099 163.7H412.899V37.3C412.899 29.5 409.299 26 402.899 26C397.099 26 390.899 28.3 383.399 33.8V163.7H362.199V6.8H383.399V17C389.599 10.9 397.599 5 409.299 5C420.199 5 427.399 9.7 431.299 17.8C438.899 11.1 447.799 5 459.999 5C476.399 5 484.799 15.5 484.799 32.6V163.6H463.599V37.3C463.599 29.5 459.999 26 453.599 26C447.799 26 441.599 28.3 434.099 33.8V163.7Z" fill="#464546"/>
<path d="M22 75.2002V96.4002L76.4 149.7V120.2L40.8 85.5002L76.4 50.1002V21.2002L22 75.2002Z" fill="#00ABCD"/>
<path d="M511.699 50.1002L547.299 85.5002L511.699 120.3V149.7L566.099 96.4002V75.2002L511.699 21.2002V50.1002Z" fill="#00ABCD"/>
</g>
<defs>
<clipPath id="clip0">
<rect width="590.1" height="207.7" fill="white"/>
</clipPath>
</defs>
</svg>
