<?xml version="1.0" encoding="utf-8"?>
<!-- Generator: Adobe Illustrator 21.0.0, SVG Export Plug-In . SVG Version: 6.00 Build 0)  -->
<svg version="1.1" id="Layer_1" xmlns="http://www.w3.org/2000/svg" xmlns:xlink="http://www.w3.org/1999/xlink" x="0px" y="0px"
	 viewBox="0 0 300 100" style="enable-background:new 0 0 300 100;" xml:space="preserve">
<style type="text/css">
	.st0{fill:#96C93D;}
	.st1{fill:#4B4D4D;}
	.st2{fill:#2978A1;}
	.st3{fill:#484F55;}
</style>
<g id="New_Symbol_4">
	<g>
		<path class="st0" d="M23.3,22.1c0,3.4-2.7,6.1-6.1,6.1c-3.4,0-6.1-2.7-6.1-6.1c0-3.4,2.7-6.1,6.1-6.1
			C20.5,15.9,23.3,18.7,23.3,22.1"/>
		<path class="st1" d="M60.4,44.1v16.8c0,2.8,0.4,5,1.2,6.6c-1.3,1.1-2.7,1.6-4.4,1.6c-1.6,0-2.8-0.4-3.4-1.2
			c-0.6-0.8-0.9-2-0.9-3.6V46c0-2.5-0.3-4.3-1-5.3c-0.6-1.1-1.8-1.6-3.4-1.6c-1.6,0-3.2,0.4-4.9,1.2c-1.7,0.8-3.1,1.9-4.4,3.3v25
			c-0.8,0.2-2,0.3-3.7,0.3c-0.8,0-1.5,0-2.1-0.1c-0.6,0-1.2-0.1-1.7-0.2V33.1l0.4-0.4h2.8c2.6,0,4,1.5,4.1,4.5
			c3.5-3.2,7.3-4.8,11.5-4.8c3.2,0,5.6,1.1,7.2,3.2C59.6,37.6,60.4,40.5,60.4,44.1"/>
		<path class="st1" d="M20.8,37.1c-0.1-3-1.5-4.5-4.1-4.5h-2.8l-0.4,0.4v35.5c0.5,0.1,1,0.2,1.7,0.2c0.6,0,1.3,0.1,2.1,0.1
			c1.6,0,2.9-0.1,3.7-0.3v-25C20.8,41.9,20.8,38.6,20.8,37.1"/>
		<path class="st1" d="M73,68.6V38.3l-6.2,0.1c-0.1-0.4-0.2-0.8-0.2-1.3c-0.1-0.5-0.1-1-0.1-1.4c0-1.1,0.1-2,0.3-2.8l5.8,0.1
			c-0.3-2.9-0.4-5.1-0.4-6.4c0-1.6,0.3-3.1,0.8-4.5c0.5-1.4,1.2-2.6,2.2-3.6c1-1,2.1-1.8,3.5-2.3c1.3-0.6,2.9-0.8,4.5-0.8
			c3.4,0,6.5,0.6,9.4,1.7c0,2.2-0.6,3.8-1.7,5c-1.1-0.3-2.2-0.6-3.1-0.8c-1-0.2-1.9-0.3-2.7-0.3c-2,0-3.5,0.5-4.4,1.6
			c-0.9,1.1-1.3,2.7-1.3,4.9c0,0.8,0,1.7,0.1,2.6c0.1,0.9,0.2,1.9,0.4,3l10.2-0.1c0.1,0.4,0.2,0.9,0.2,1.3c0.1,0.5,0.1,1,0.1,1.5
			c0,0.5,0,1-0.1,1.4c0,0.5-0.1,0.9-0.2,1.3l-9.7-0.1v30.3c-0.5,0.1-1.1,0.2-1.7,0.2c-0.6,0-1.3,0.1-1.9,0.1c-0.7,0-1.3,0-1.9-0.1
			C74,68.7,73.5,68.6,73,68.6"/>
		<path class="st1" d="M107.9,37.7c-5.2,0-7.8,4.4-7.8,13.1c0,8.7,2.6,13.1,7.8,13.1c5.3,0,7.9-4.4,7.9-13.1
			C115.8,42,113.1,37.7,107.9,37.7 M118.3,65.5c-2.6,2.6-6.1,4-10.5,4c-2.5,0-4.7-0.4-6.6-1.3c-1.9-0.9-3.5-2.2-4.9-3.8
			c-1.3-1.7-2.3-3.6-3-5.9c-0.7-2.3-1-4.8-1-7.7c0-2.8,0.3-5.3,1-7.6c0.7-2.3,1.7-4.3,3-5.9c1.3-1.7,2.9-2.9,4.9-3.8
			c1.9-0.9,4.1-1.3,6.6-1.3s4.7,0.4,6.6,1.3c1.9,0.9,3.5,2.2,4.9,3.8c1.3,1.7,2.3,3.6,3,5.9c0.7,2.3,1,4.9,1,7.6
			C123.4,57.2,121.7,62.1,118.3,65.5"/>
		<path class="st2" d="M146.9,38.3c-3.1,0-5.8,1.6-7.9,4.7v17.7c1.2,0.8,2.5,1.5,3.6,1.9c1.2,0.5,2.3,0.7,3.4,0.7
			c2.3,0,4.1-1.1,5.4-3.3c1.4-2.2,2.1-5.4,2.1-9.5c0-4.2-0.6-7.3-1.9-9.3C150.4,39.3,148.8,38.3,146.9,38.3 M147.2,69.2
			c-2.7,0-5.4-0.8-8.2-2.4V80c0,1.7-0.3,2.9-0.9,3.6c-0.6,0.7-1.6,1.1-3.1,1.1h-2.9l-0.4-0.4V33.1l0.4-0.4h2.3
			c2.4,0,3.9,1.2,4.4,3.7c2.8-2.9,6.1-4.3,10-4.3c1.9,0,3.7,0.4,5.2,1.3c1.5,0.9,2.8,2.1,3.9,3.7c1,1.6,1.8,3.6,2.4,5.9
			c0.6,2.3,0.8,4.9,0.8,7.8c0,2.9-0.4,5.5-1.1,7.8c-0.7,2.3-1.7,4.3-3,5.8c-1.3,1.6-2.8,2.8-4.4,3.6
			C150.9,68.8,149.1,69.2,147.2,69.2"/>
		<path class="st2" d="M169.6,57.4V40.6c0-2.9-0.4-5-1.2-6.5c1.2-1.1,2.8-1.6,4.7-1.6c2.6,0,4,1.6,4,4.7v18.3c0,2.5,0.3,4.3,0.9,5.3
			c0.6,1.1,1.7,1.6,3.3,1.6c1.6,0,3.2-0.4,4.8-1.2c1.6-0.8,3.1-1.9,4.4-3.2V32.9c1.3-0.2,2.6-0.3,3.7-0.3c1.1,0,2.4,0.1,3.8,0.3
			v25.5c0,3.4,0.7,5.6,2,6.8c-0.5,1.7-1.5,3-2.8,3.8c-3-0.5-5-2.3-6.1-5.2c-3.8,3.6-7.8,5.3-12,5.3c-3.2,0-5.5-1.1-7.1-3.2
			C170.4,63.8,169.6,60.9,169.6,57.4"/>
		<path class="st2" d="M219.3,62.9h2.7c0.4,1.2,0.7,2.3,0.7,3.2c0,0.9-0.1,1.7-0.2,2.2c-1.9,0.3-4,0.5-6.1,0.5
			c-4.8,0-7.1-2.5-7.1-7.4V16l0.5-0.4h2.8c1.5,0,2.5,0.4,3.1,1.1c0.6,0.7,0.9,2,0.9,3.6v39.4C216.5,61.9,217.5,62.9,219.3,62.9"/>
		<path class="st2" d="M227.1,65.9c0-0.8,0.3-1.7,0.8-2.8c0.5-1,1-1.8,1.7-2.4c3.8,2.1,6.9,3.2,9.3,3.2c2.4,0,4.3-0.4,5.4-1.2
			c1.2-0.8,1.8-1.9,1.8-3.2c0-2.1-1.5-3.7-4.5-4.9l-4-1.5c-6.1-2.3-9.1-5.7-9.1-10.3c0-3.3,1.2-5.9,3.6-7.8c2.4-1.9,5.5-2.9,9.3-2.9
			c3.9,0,7.8,0.9,11.6,2.6c0,1-0.2,2-0.6,3c-0.4,1.1-0.9,1.9-1.6,2.5c-3.4-1.6-6.6-2.4-9.6-2.4c-1.6,0-2.8,0.4-3.8,1.2
			c-0.9,0.8-1.4,1.7-1.4,2.9c0,1.2,0.3,2,1,2.7c0.7,0.6,1.8,1.3,3.4,1.9l4.3,1.7c6.1,2.4,9.2,6,9.2,10.8c0,3.3-1.3,5.9-3.8,7.9
			c-2.5,1.9-6,2.9-10.4,2.9C235.3,69.5,231.1,68.3,227.1,65.9"/>
		<path class="st2" d="M274.6,37.5c-4.6,0-7,3.4-7.4,10.2h14.6v-0.9c0-2.7-0.6-5-1.8-6.7C278.9,38.4,277.1,37.5,274.6,37.5
			 M288.5,53.1h-21.2c0.1,3.3,0.9,5.9,2.1,7.6c1.3,1.8,3.4,2.7,6.5,2.7c1.4,0,3-0.2,4.6-0.6c1.7-0.4,3.4-1.1,5.2-2.1
			c1.2,1.1,2,2.7,2.4,4.8c-3.8,2.7-8.4,4-13.6,4c-2.7,0-5-0.5-6.9-1.4c-1.9-1-3.4-2.3-4.6-4c-1.2-1.7-2-3.7-2.6-6
			c-0.5-2.3-0.8-4.8-0.8-7.5c0-2.6,0.3-5.1,1-7.4c0.7-2.3,1.6-4.2,2.9-5.9c1.2-1.6,2.8-2.9,4.7-3.9c1.8-0.9,3.9-1.4,6.2-1.4
			s4.4,0.4,6.2,1.2c1.8,0.8,3.3,1.8,4.6,3.2c1.3,1.4,2.2,3,2.8,4.9c0.6,1.9,1,4,1,6.2c0,1,0,1.9-0.1,2.8
			C288.8,51.2,288.7,52.2,288.5,53.1"/>
		<path class="st3" d="M80.3,68.1c-0.1,0.2-0.2,0.3-0.3,0.5c0.1,0,0.2,0,0.3-0.1V68.1z"/>
	</g>
</g>
</svg>
