<svg width="136" height="26" viewBox="0 0 136 26" fill="none" xmlns="http://www.w3.org/2000/svg">
<path d="M62.8008 6.5C61.0008 6.5 59.4008 7.1 58.2008 8.3C56.9008 9.5 56.3008 11.1 56.3008 13C56.3008 14.9 56.9008 16.5 58.2008 17.7C59.5008 18.9 61.0008 19.5 62.8008 19.5C64.6008 19.5 66.2008 18.9 67.4008 17.7C68.7008 16.5 69.3008 14.9 69.3008 13C69.3008 11.1 68.7008 9.5 67.4008 8.3C66.2008 7.1 64.6008 6.5 62.8008 6.5ZM65.5008 15.9C64.8008 16.6 63.8008 17 62.7008 17C61.6008 17 60.7008 16.6 59.9008 15.9C59.1008 15.1 58.7008 14.2 58.7008 13C58.7008 11.8 59.1008 10.9 59.9008 10.2C60.6008 9.5 61.6008 9.10001 62.7008 9.10001C63.8008 9.10001 64.7008 9.5 65.5008 10.2C66.3008 10.9 66.6008 11.9 66.6008 13C66.7008 14.2 66.3008 15.2 65.5008 15.9Z" fill="#D51521"/>
<path d="M99 6.5C97.2 6.5 95.6 7.1 94.4 8.3C93.1 9.5 92.5 11.1 92.5 13C92.5 14.9 93.1 16.5 94.4 17.7C95.7 18.9 97.2 19.5 99 19.5C100.8 19.5 102.4 18.9 103.6 17.7C104.9 16.5 105.5 14.9 105.5 13C105.5 11.1 104.9 9.5 103.6 8.3C102.4 7.1 100.9 6.5 99 6.5ZM101.8 15.9C101.1 16.6 100.1 17 99 17C97.9 17 97 16.6 96.2 15.9C95.4 15.1 95.1 14.2 95.1 13C95.1 11.8 95.5 10.9 96.2 10.2C97 9.5 97.9 9.10001 99 9.10001C100.1 9.10001 101 9.5 101.8 10.2C102.6 10.9 102.9 11.9 102.9 13C102.9 14.2 102.6 15.2 101.8 15.9Z" fill="#D51521"/>
<path d="M133.6 8.3C132.3 7.1 130.8 6.5 129 6.5C127.2 6.5 125.6 7.1 124.4 8.3C123.1 9.5 122.5 11.1 122.5 13C122.5 14.9 123.1 16.5 124.4 17.7C125.7 18.9 127.2 19.5 129 19.5C130.8 19.5 132.4 18.9 133.6 17.7C134.9 16.5 135.5 14.9 135.5 13C135.5 11.1 134.9 9.6 133.6 8.3ZM131.7 15.9C131 16.6 130 17 128.9 17C127.8 17 126.9 16.6 126.1 15.9C125.3 15.1 125 14.2 125 13C125 11.8 125.4 10.9 126.1 10.2C126.8 9.5 127.8 9.10001 128.9 9.10001C130 9.10001 130.9 9.5 131.7 10.2C132.5 10.9 132.8 11.9 132.8 13C132.9 14.2 132.5 15.2 131.7 15.9Z" fill="#D51521"/>
<path d="M39.4992 6.6001C37.9992 6.6001 36.1992 7.20009 35.0992 8.40009C33.9992 9.60009 33.1992 10.9001 33.1992 13.6001V23.7001C33.1992 24.4001 33.7992 25.1001 34.4992 25.1001C35.1992 25.1001 35.7992 24.5001 35.7992 23.7001V13.6001C35.7992 12.1001 36.1992 11.0001 36.8992 10.3001C37.5992 9.60009 38.6992 9.20009 39.4992 9.20009C40.5992 9.20009 41.4992 9.60009 42.2992 10.3001C43.0992 11.0001 43.3992 12.0001 43.3992 13.1001C43.3992 14.3001 42.9992 15.3001 42.2992 16.0001C41.5992 16.7001 40.5992 17.1001 39.4992 17.1001H38.7992C38.0992 17.1001 37.4992 17.7001 37.4992 18.4001C37.4992 19.1001 38.0992 19.7001 38.7992 19.7001H39.4992C41.2992 19.7001 42.8992 19.1001 44.0992 17.9001C45.3992 16.7001 45.9992 15.1001 45.9992 13.1001C45.9992 11.2001 45.3992 9.60009 44.0992 8.40009C42.8992 7.20009 41.3992 6.6001 39.4992 6.6001Z" fill="#D51521"/>
<path d="M119 1.2002C118.3 1.2002 117.7 1.8002 117.7 2.6002V12.7002C117.7 14.3002 117.3 15.3002 116.6 16.0002C115.9 16.7002 114.8 17.1002 114 17.1002C112.9 17.1002 112 16.7002 111.2 16.0002C110.4 15.3002 110.1 14.3002 110.1 13.2002C110.1 12.0002 110.5 11.1002 111.2 10.3002C111.9 9.6002 112.9 9.2002 114 9.2002H114.7C115.4 9.2002 116 8.60019 116 7.90019C116 7.20019 115.4 6.6002 114.7 6.6002H114C112.2 6.6002 110.6 7.20019 109.4 8.40019C108.1 9.60019 107.5 11.2002 107.5 13.2002C107.5 15.1002 108.1 16.7002 109.4 17.9002C110.7 19.1002 112.2 19.7002 114 19.7002C115.5 19.7002 117.3 19.1002 118.4 17.9002C119.5 16.8002 120.3 15.4002 120.3 12.7002V2.6002C120.3 1.8002 119.7 1.2002 119 1.2002Z" fill="#D51521"/>
<path d="M54.2008 6.70009H53.9008C52.6008 6.70009 51.6008 7.20009 50.9008 8.70009V8.00009C50.9008 7.30009 50.3008 6.6001 49.6008 6.6001C48.9008 6.6001 48.3008 7.20009 48.3008 8.00009V18.1001C48.3008 18.8001 48.9008 19.5001 49.6008 19.5001C50.3008 19.5001 50.9008 18.9001 50.9008 18.1001V14.6001C50.9008 11.0001 52.2008 9.20009 54.2008 9.20009C54.9008 9.20009 55.5008 8.70009 55.5008 8.00009C55.5008 7.20009 54.9008 6.70009 54.2008 6.70009Z" fill="#D51521"/>
<path d="M85.0004 6.6001C83.5004 6.6001 81.9004 7.20009 80.9004 8.70009C79.9004 7.30009 78.3004 6.6001 76.8004 6.6001C75.3004 6.6001 74.0004 7.10009 73.0004 8.20009C72.0004 9.30009 71.4004 10.7001 71.4004 12.4001V18.2001C71.4004 18.9001 72.0004 19.6001 72.7004 19.6001C73.4004 19.6001 74.0004 19.0001 74.0004 18.2001V12.4001C74.0004 11.5001 74.3004 10.7001 74.8004 10.1001C75.3004 9.5001 76.0004 9.20009 76.8004 9.20009C77.6004 9.20009 78.2004 9.5001 78.8004 10.1001C79.3004 10.7001 79.6004 11.4001 79.6004 12.4001V18.2001C79.6004 18.9001 80.2004 19.6001 80.9004 19.6001C81.6004 19.6001 82.2004 19.0001 82.2004 18.2001V12.4001C82.2004 11.5001 82.5004 10.7001 83.0004 10.1001C83.5004 9.5001 84.2004 9.20009 85.0004 9.20009C85.8004 9.20009 86.4004 9.5001 87.0004 10.1001C87.5004 10.7001 87.8004 11.4001 87.8004 12.4001V18.2001C87.8004 18.9001 88.4004 19.6001 89.1004 19.6001C89.8004 19.6001 90.4004 19.0001 90.4004 18.2001V12.4001C90.4004 10.7001 89.9004 9.30009 88.8004 8.20009C87.8004 7.10009 86.5004 6.6001 85.0004 6.6001Z" fill="#D51521"/>
<path d="M20.7 11.6998C20 11.6998 19.4 12.2998 19.4 12.9998C19.4 14.6998 18.8 16.1998 17.6 17.3998C16.4 18.5998 14.9 19.1998 13.2 19.1998C11.5 19.1998 10 18.5998 8.8 17.3998C7.6 16.1998 7 14.6998 7 12.9998C7 11.2998 7.6 9.79981 8.8 8.59981C10 7.39981 11.5 6.79981 13.2 6.79981C13.9 6.79981 14.5 6.19981 14.5 5.49981C14.5 4.79981 13.9 4.1998 13.2 4.1998C11.5 4.1998 9.9 4.69981 8.6 5.49981C7.6 6.09981 6.4 5.19981 6.6 4.09981C6.8 3.09981 6.5 1.9998 5.8 1.1998C4.6 -0.000195324 2.6 -0.000195324 1.4 1.1998C0.2 2.3998 0.2 4.39981 1.4 5.59981C2.2 6.39981 3.3 6.6998 4.2 6.3998C5.3 6.1998 6.2 7.3998 5.6 8.3998C4.7 9.7998 4.3 11.3998 4.3 13.0998C4.3 15.4998 5.2 17.6998 6.9 19.3998C8.6 21.0998 10.8 21.9998 13.2 21.9998C15.6 21.9998 17.8 21.0998 19.5 19.3998C21.2 17.6998 22.1 15.4998 22.1 13.0998C22.1 12.2998 21.5 11.6998 20.7 11.6998Z" fill="#D51521"/>
<path d="M19.1996 1.2C18.3996 2 17.9996 3.1 17.9996 4.2C17.9996 7.2 15.7996 9.7 12.8996 10C12.1996 10.1 11.5996 10.4 10.9996 10.9C9.79961 12.1 9.79961 14.1 10.9996 15.3C12.1996 16.5 14.1996 16.5 15.3996 15.3C15.8996 14.8 16.1996 14.1 16.2996 13.4C16.5996 10.5 19.0996 8.20001 22.0996 8.30001C23.1996 8.30001 24.2996 7.90001 25.0996 7.10001C26.6996 5.50001 26.6996 2.9 25.0996 1.2C23.3996 -0.4 20.7996 -0.4 19.1996 1.2Z" fill="#D51521"/>
</svg>
