<svg xmlns="http://www.w3.org/2000/svg" xmlns:xlink="http://www.w3.org/1999/xlink" width="120" height="34" viewBox="0 0 120 34">
    <defs>
        <linearGradient id="a" x1="64.769%" x2="51.19%" y1="80.888%" y2="40.026%">
            <stop offset="0%" stop-color="#E11F27"/>
            <stop offset="100%" stop-color="#EE2A24"/>
        </linearGradient>
        <linearGradient id="c" x1="38.997%" x2="61.329%" y1="45.343%" y2="62.992%">
            <stop offset="0%" stop-color="#595959"/>
            <stop offset="100%" stop-color="#0A0A0A"/>
        </linearGradient>
        <path id="b" d="M11.43 21.388a49.7 49.7 0 0 0 4.979.245c9.062 0 16.408-2.34 16.408-5.224 0-2.334-4.801-4.309-11.429-4.98l-9.959 9.96z"/>
    </defs>
    <g fill="none" fill-rule="evenodd">
        <g fill="#231F20">
            <path d="M39.718 23.494H50.32c2.258 0 4.096-1.727 4.096-3.849v-.722c0-2.083-1.735-3.773-3.95-3.846l-.074-.006h-7.164c-.622 0-1.127-.475-1.127-1.058v-.696c0-.584.505-1.06 1.127-1.06h10.387V9.47H43.228c-2.258 0-4.095 1.725-4.095 3.848v.696c0 2.123 1.837 3.85 4.095 3.85h7.092c.622.001 1.126.477 1.126 1.06v.722c0 .582-.505 1.058-1.126 1.058H39.718v2.79zM57.932 23.492H60.9V9.469h-2.968zM99.454 23.487h2.97V13.322c0-2.123-1.837-3.85-4.096-3.85H83.536v14.015h2.95V12.263h4.943l.004 11.224h2.962V12.263h3.933c.622 0 1.128.476 1.128 1.06l-.002 10.164zM116.944 20.697h-7.476c-.622 0-1.129-.475-1.129-1.06v-.714c0-.584.507-1.06 1.129-1.06h7.48l-.004 2.834zm2.975-7.38c0-2.121-1.838-3.848-4.097-3.848h-9.427v2.79h9.427c.623 0 1.129.476 1.129 1.06l-.001 1.753h-7.482c-2.258 0-4.095 1.728-4.095 3.85v.714c0 2.124 1.837 3.85 4.095 3.85h10.44l.011-10.168zM64.902 19.646c0 2.123 1.835 3.85 4.094 3.85H79.45v-8.414h-7.81v2.79h4.825v2.834h-7.468c-.622 0-1.129-.476-1.129-1.06l-.002-6.324c0-.583.507-1.06 1.129-1.06H79.42v-2.79H68.994c-2.26 0-4.096 1.727-4.096 3.85l.004 6.324z"/>
        </g>
        <g>
            <path fill="url(#a)" d="M16.408 0c-2.333 0-4.308 4.802-4.98 11.429C4.801 12.1 0 14.076 0 16.409c0 2.333 4.801 4.308 11.428 4.98.672 6.627 2.647 11.428 4.98 11.428 2.886 0 5.226-7.346 5.226-16.408C21.634 7.346 19.294 0 16.408 0z"/>
            <use fill="url(#c)" xlink:href="#b"/>
            <path fill="#690000" d="M21.389 11.428l-9.96 9.96c1.57.16 3.244.245 4.98.245 1.736 0 3.41-.086 4.98-.244.159-1.571.245-3.244.245-4.98 0-1.737-.086-3.41-.245-4.98"/>
            <path fill="#A50D12" d="M11.43 21.389l9.96-9.96a49.64 49.64 0 0 0-4.98-.246c-1.736 0-3.41.086-4.98.245a49.594 49.594 0 0 0-.245 4.98c0 1.737.086 3.41.245 4.98z"/>
        </g>
        <g fill="#231F20">
            <path d="M40.078 32.982v-.573h.055c.266.077.901.217 1.306.217h.216c.657 0 1.097-.245 1.097-.901 0-.573-.294-.747-.768-.873l-.705-.188c-.503-.14-1.146-.468-1.146-1.397 0-.845.65-1.417 1.69-1.417h.16c.385 0 .985.112 1.202.216v.552h-.056c-.252-.084-.79-.196-1.145-.196h-.16c-.657 0-1.041.245-1.041.845 0 .545.349.692.768.817l.677.196c.538.153 1.173.433 1.173 1.445 0 .9-.65 1.473-1.746 1.473h-.216c-.433 0-1.145-.14-1.361-.216M47.102 31.18c0-.845-.244-1.368-1.061-1.368s-1.061.523-1.061 1.368c0 .845.244 1.474 1.06 1.474.818 0 1.062-.629 1.062-1.474m-2.723 0c0-1.145.545-1.913 1.662-1.913 1.173 0 1.662.768 1.662 1.913 0 1.25-.545 2.018-1.662 2.018-1.173 0-1.662-.768-1.662-2.018M49.114 29.868h-.6v-.545h.6v-.16c0-.824.495-1.257 1.256-1.257h.433v.544h-.433c-.488 0-.656.217-.656.712v.161h.985v.545h-.985v3.274h-.6v-3.274zM53.217 33.142c-.817 0-1.313-.384-1.313-1.312v-1.962h-.6v-.545h.6v-.873h.6v.873h1.09v.545h-1.09v1.857c0 .705.217.873.817.873h.384v.544h-.488zM54.516 30.308v-.985h.6v.985c0 1.089.35 1.99.678 2.394.328-.405.684-1.305.684-2.394v-.985h.6v.985c0 1.089.356 1.99.684 2.394.322-.405.678-1.305.678-2.394v-.985h.6v.985c0 1.305-.544 2.45-.928 2.834h-.65c-.195-.216-.6-.9-.684-1.312-.084.411-.489 1.096-.684 1.312h-.65c-.384-.384-.928-1.529-.928-2.834M62.497 31.83v-1.962h-.433c-.824 0-1.417.544-1.417 1.417v.6c0 .6.272.769.593.769.384 0 .824-.384 1.04-.6l.217-.224zm-2.45.056v-.601c0-1.2.977-1.962 2.017-1.962h1.034v3.82h-.6v-.713l-.273.272c-.28.273-.6.496-1.09.496-.6 0-1.089-.384-1.089-1.312zM64.62 29.323h.6v.845l.057-.084c.286-.44.62-.761 1.117-.761h.244v.656h-.272c-.272 0-.538.105-.712.273l-.433.433v2.457h-.6v-3.819zM67.965 30.957h.978c.6 0 .768-.217.768-.594 0-.412-.28-.551-.713-.551-.656 0-1.033.328-1.033 1.096v.049zm-.6.712v-.761c0-1.04.705-1.64 1.633-1.64.762 0 1.306.327 1.306 1.095 0 .678-.433 1.09-1.194 1.09h-1.145v.216c0 .712.433.985 1.033.985.433 0 .873-.168 1.034-.245h.056v.545c-.16.077-.657.244-1.09.244-.928 0-1.633-.44-1.633-1.529z"/>
        </g>
    </g>
</svg>
